<?xml version="1.0" encoding="UTF-8" standalone="no"?>
<!DOCTYPE svg PUBLIC "-//W3C//DTD SVG 1.1//EN" "http://www.w3.org/Graphics/SVG/1.1/DTD/svg11.dtd">
<svg version="1.1" xmlns="http://www.w3.org/2000/svg" xmlns:xlink="http://www.w3.org/1999/xlink" preserveAspectRatio="xMidYMid meet" viewBox="0 0 11 11" width="11" height="11"><defs><path d="M11 5.5C11 8.54 8.54 11 5.5 11C2.46 11 0 8.54 0 5.5C0 2.46 2.46 0 5.5 0C8.54 0 11 2.46 11 5.5Z" id="d2rB3TrPVk"></path><path d="M7.91 0.69L10.91 5.71L7.82 10.43L1.72 5.16L7.91 0.69Z" id="a3OoYHHPuu"></path><path d="M8.25 0.81C9.01 1.05 10.37 2.39 10.84 4.05C11.05 4.79 10.84 6.45 10.84 6.7C10.84 6.98 10.69 7.42 10.46 7.89C10.26 8.29 10.01 8.7 9.72 9.05C9.24 9.66 8.28 10.45 7.86 10.45C7.71 10.45 8.26 9.72 8.14 9.59C8.04 9.48 7.73 9.55 7.19 9.8C6.8 9.43 6.6 9.08 6.6 8.75C6.6 7.86 7.09 0.63 8.04 0.63C8.11 0.63 8.17 0.79 8.25 0.81Z" id="b1KfFl1WCw"></path><path d="M11 5.5C11 7.29 10.21 8.73 9.23 8.73C8.26 8.73 7.47 7.29 7.47 5.5C7.47 3.71 8.26 2.27 9.23 2.27C10.21 2.27 11 3.71 11 5.5Z" id="a1iJ3PG08G"></path><path d="M8.88 1.2C8.88 1.34 8.74 1.45 8.61 1.45C8.48 1.45 7.8 1.04 7.8 0.91C7.8 0.77 7.9 0.65 8.03 0.65C8.17 0.65 8.88 1.07 8.88 1.2Z" id="d2l64JWti"></path></defs><g><g><g><use xlink:href="#d2rB3TrPVk" opacity="1" fill="#00a029" fill-opacity="1"></use><g><use xlink:href="#d2rB3TrPVk" opacity="1" fill-opacity="0" stroke="#000000" stroke-width="1" stroke-opacity="0"></use></g></g><g><use xlink:href="#a3OoYHHPuu" opacity="1" fill="#ffdf00" fill-opacity="1"></use><g><use xlink:href="#a3OoYHHPuu" opacity="1" fill-opacity="0" stroke="#e3caca" stroke-width="0" stroke-opacity="1"></use></g></g><g><use xlink:href="#b1KfFl1WCw" opacity="1" fill="#ffdf00" fill-opacity="1"></use><g><use xlink:href="#b1KfFl1WCw" opacity="1" fill-opacity="0" stroke="#000000" stroke-width="1" stroke-opacity="0"></use></g></g><g><use xlink:href="#a1iJ3PG08G" opacity="1" fill="#002176" fill-opacity="1"></use><g><use xlink:href="#a1iJ3PG08G" opacity="1" fill-opacity="0" stroke="#000000" stroke-width="1" stroke-opacity="0"></use></g></g><g><use xlink:href="#d2l64JWti" opacity="1" fill="#ffdf00" fill-opacity="1"></use></g></g></g></svg>