<svg xmlns="http://www.w3.org/2000/svg" xmlns:xlink="http://www.w3.org/1999/xlink" width="11" height="11" viewBox="0 0 11 11">
    <defs>
        <ellipse id="prefix__a" cx="5.2" cy="5.318" rx="5.2" ry="5.318"/>
        <path id="prefix__c" d="M0 0L4.6 0 4.6 6.552 0 6.552z"/>
    </defs>
    <g fill="none" fill-rule="evenodd">
        <mask id="prefix__b" fill="#fff">
            <use xlink:href="#prefix__a"/>
        </mask>
        <use fill="#0075D6" xlink:href="#prefix__a"/>
        <g mask="url(#prefix__b)">
            <g transform="translate(3 2)">
                <mask id="prefix__d" fill="#fff">
                    <use xlink:href="#prefix__c"/>
                </mask>
                <path fill="#FFF" d="M3.28 2.705c-.18.227-.413.375-.695.445-.135.033-.273.044-.413.032-.232-.02-.445-.091-.634-.229-.248-.18-.423-.413-.494-.715-.029-.12-.032-.242-.025-.365.012-.232.1-.435.236-.619.176-.238.413-.387.697-.466.097-.027.196-.034.31-.033.199-.002.404.026.594.127.344.182.575.455.66.837.081.364-.003.695-.235.986m1.264-.995c-.127-.517-.41-.93-.832-1.248C3.337.18 2.909.037 2.442.005c-.19-.012-.38-.003-.568.033-.278.052-.54.147-.783.292-.36.213-.645.5-.844.87-.147.276-.233.57-.246.883-.005.129.003.256.032.38.043.182.114.353.189.522.122.279.275.54.43.802l1.61 2.726c.03.051.032.051.063.002.143-.22.275-.447.408-.673.39-.662.777-1.326 1.167-1.987.194-.33.388-.658.538-1.01.096-.224.163-.455.162-.736-.001-.112-.02-.257-.055-.4" mask="url(#prefix__d)"/>
            </g>
        </g>
    </g>
</svg>
