<svg xmlns="http://www.w3.org/2000/svg" width="42" height="42" viewBox="0 0 42 42">
    <g fill="none" fill-rule="evenodd" transform="translate(1 1)">
        <ellipse cx="20" cy="19.92" stroke="#CFCFCF" rx="20" ry="19.92"/>
        <g>
            <path fill="#000" fill-opacity="0" d="M0 0H24V23.905H0z" transform="translate(8 7.968)"/>
            <path fill="#FFF" d="M22 5.87c-.699.321-1.45.537-2.239.634.805-.498 1.424-1.286 1.714-2.226-.753.461-1.587.796-2.475.977-.71-.782-1.725-1.27-2.846-1.27-2.516 0-4.366 2.423-3.797 4.938-3.239-.167-6.111-1.769-8.034-4.203-1.021 1.808-.53 4.174 1.206 5.372-.638-.021-1.24-.202-1.765-.504-.043 1.864 1.252 3.608 3.126 3.996-.548.153-1.15.189-1.76.069.495 1.598 1.934 2.76 3.641 2.793C7.132 17.772 5.068 18.365 3 18.113c1.725 1.14 3.775 1.807 5.976 1.807 7.237 0 11.326-6.308 11.079-11.967.761-.567 1.422-1.276 1.945-2.082" transform="translate(8 7.968)"/>
        </g>
    </g>
</svg>
