<svg xmlns="http://www.w3.org/2000/svg" width="11" height="16" viewBox="0 0 11 16">
    <g fill="none" fill-rule="evenodd">
        <path fill="#000" fill-rule="nonzero" d="M2 10.214c0-2.764 1.968-5 4.4-5h8.4c1.768 0 3.2 1.627 3.2 3.636 0 2.009-1.432 3.636-3.2 3.636H8c-1.104 0-2-1.018-2-2.272 0-1.255.896-2.273 2-2.273h6v1.818H7.928c-.44 0-.44.91 0 .91H14.8c.88 0 1.6-.819 1.6-1.819s-.72-1.818-1.6-1.818H6.4c-1.544 0-2.8 1.427-2.8 3.182 0 1.754 1.256 3.181 2.8 3.181H14v1.819H6.4c-2.432 0-4.4-2.237-4.4-5z" transform="rotate(90 9 7)"/>
        <path d="M0 0.252L20 0.252 20 20.252 0 20.252z" transform="rotate(90 9 7)"/>
    </g>
</svg>
