<svg xmlns="http://www.w3.org/2000/svg" width="40" height="40" viewBox="0 0 40 40">
    <g fill="none" fill-rule="evenodd" transform="translate(0 .111)">
        <g>
            <path fill="#FFF" fill-opacity="0" d="M0 0H24V23.905H0z" transform="translate(8 7.968)"/>
            <path fill="#000" fill-rule="nonzero" d="M19.745 3.984H5.256C4.562 3.984 4 4.527 4 5.197v14.506c0 .67.563 1.213 1.256 1.213h14.489c.693 0 1.255-.543 1.255-1.213V5.197c0-.67-.562-1.213-1.255-1.213zM9.154 18.158H6.585v-7.645h2.569v7.645zM7.87 9.468h-.017c-.862 0-1.42-.586-1.42-1.32 0-.75.575-1.321 1.453-1.321.879 0 1.419.57 1.436 1.32 0 .735-.557 1.321-1.452 1.321zm10.543 8.69h-2.568v-4.09c0-1.028-.372-1.73-1.3-1.73-.71 0-1.133.473-1.318.93-.068.163-.085.392-.085.62v4.27h-2.568s.034-6.928 0-7.645h2.568v1.084c.34-.521.95-1.264 2.314-1.264 1.69 0 2.957 1.092 2.957 3.441v4.384zm-5.288-6.5l.042-.061v.061h-.042z" transform="translate(8 7.968)"/>
        </g>
        <rect width="39" height="38.841" x=".5" y=".5" stroke="#CFCFCF" rx="19.42"/>
    </g>
</svg>
