<svg width="12" height="12" viewBox="0 0 11 11" fill="none" xmlns="http://www.w3.org/2000/svg">
<path fill-rule="evenodd" clip-rule="evenodd" d="M0 5.155C0 2.30797 2.30797 0 5.155 0C6.52219 0 7.83339 0.543114 8.80014 1.50986C9.76689 2.47661 10.31 3.78781 10.31 5.155C10.31 8.00203 8.00203 10.31 5.155 10.31C2.30797 10.31 0 8.00203 0 5.155ZM5.63451 9.41085V8.15207C6.07425 8.13532 6.48838 7.94086 6.78215 7.6132C7.07591 7.28554 7.22417 6.85272 7.193 6.41376C7.193 5.33481 6.53363 4.91521 5.39474 4.49562C4.43567 4.13597 4.13596 4.01608 4.13596 3.59649C4.13596 3.05701 4.73538 2.93713 5.21491 2.93713C5.72862 2.94395 6.23665 3.04556 6.71346 3.23684L6.89329 3.29678V2.33771L6.7734 2.27777C6.4106 2.12233 6.02683 2.02134 5.63451 1.97806V0.839166H4.67544V1.97806C3.79546 2.06099 3.10789 2.77403 3.05701 3.65643C3.05701 4.73539 3.83625 5.09504 4.9152 5.45469C5.75439 5.69446 6.11404 5.93422 6.11404 6.41376C6.11404 7.07312 5.3348 7.13306 5.03509 7.13306C4.43756 7.12938 3.84671 7.00713 3.29677 6.77341L3.11695 6.71347V7.67254L3.17689 7.73248C3.64672 7.96234 4.15455 8.10453 4.67544 8.15207V9.41085H5.63451Z" fill="#FF5E00"/>
</svg>
