<?xml version="1.0" encoding="UTF-8"?>
<svg width="24px" height="24px" viewBox="0 0 24 24" version="1.1" xmlns="http://www.w3.org/2000/svg" xmlns:xlink="http://www.w3.org/1999/xlink">
    <title>botões/motor/mais copy</title>
    <defs>
        <path d="M12,0 C18.627417,0 24,5.372583 24,12 C24,18.627417 18.627417,24 12,24 C5.372583,24 0,18.627417 0,12 C0,5.372583 5.372583,0 12,0 Z M12,0.75 C5.78679656,0.75 0.75,5.78679656 0.75,12 C0.75,18.2132034 5.78679656,23.25 12,23.25 C18.2132034,23.25 23.25,18.2132034 23.25,12 C23.25,5.78679656 18.2132034,0.75 12,0.75 Z" id="path-1"></path>
        <path d="M4.5,0 L4.5,3 L7.5,3 L7.5,4.5 L4.5,4.5 L4.5,7.5 L3,7.5 L3,4.5 L0,4.5 L0,3 L3,3 L3,0 L4.5,0 Z" id="path-3"></path>
    </defs>
    <g id="Desktop" stroke="none" stroke-width="1" fill="none" fill-rule="evenodd">
        <g id="001---[GOL]-Motor---Ida-e-volta-5" transform="translate(-113.000000, -333.000000)">
            <g id="Group-6" transform="translate(113.000000, 333.000000)">
                <g id="Group">
                    <g id="botões/motor/mais">
                        <g id="componentes-antigos/formularios/Radio_black_empty">
                            <g id="color/gray">
                                <g>
                                    <mask id="mask-2" fill="white">
                                        <use xlink:href="#path-1"></use>
                                    </mask>
                                    <use id="Mask" fill="#4A4A4A" xlink:href="#path-1"></use>
                                    <g id="componentes-antigos/z/classificado-como-cor/#767676" mask="url(#mask-2)" fill="#767676">
                                        <g transform="translate(0.000000, -0.250000)" id="Rectangle-2">
                                            <rect x="0" y="0" width="24" height="25"></rect>
                                        </g>
                                    </g>
                                </g>
                            </g>
                        </g>
                        <g id="icon/number_picker_black_add" transform="translate(3.000000, 3.000000)">
                            <rect id="hit-area" fill-opacity="0" fill="#D8D8D8" x="0" y="0" width="18" height="18"></rect>
                            <g id="ic-number_picker_black_add" transform="translate(5.250000, 5.250000)">
                                <mask id="mask-4" fill="white">
                                    <use xlink:href="#path-3"></use>
                                </mask>
                                <use id="Mask" fill="#FF5E00" xlink:href="#path-3"></use>
                                <g id="componentes-antigos/z/classificado-como-cor/#ff5e00" mask="url(#mask-4)" fill="#FF5E00">
                                    <g transform="translate(-5.250000, -5.250000)" id="Rectangle-2">
                                        <rect x="0" y="0" width="18" height="18.75"></rect>
                                    </g>
                                </g>
                            </g>
                        </g>
                    </g>
                </g>
            </g>
        </g>
    </g>
</svg>