<svg xmlns="http://www.w3.org/2000/svg" width="24" height="24" viewBox="0 0 24 24">
    <g fill="none" fill-rule="evenodd">
        <path d="M0 0H24V24H0z"/>
        <path fill="#FF5E00" fill-rule="nonzero" d="M16.13 1c-2.425.004-4.67 1.283-5.909 3.367-1.239 2.085-1.29 4.667-.133 6.799L1 20.25 3.751 23l9.088-9.084c2.52 1.369 5.626 1.03 7.792-.85 2.166-1.88 2.937-4.906 1.935-7.593C21.564 2.786 19 1.003 16.131 1zm-.005 11.917c-2.784 0-5.042-2.258-5.042-5.042s2.258-5.042 5.042-5.042 5.042 2.258 5.042 5.042c-.005 2.782-2.26 5.037-5.042 5.042z"/>
    </g>
</svg>
