<svg width="22" height="22" viewBox="0 0 22 22" fill="none" xmlns="http://www.w3.org/2000/svg">
<path d="M11 0C8.82441 0 6.69767 0.645139 4.88873 1.85383C3.07979 3.06253 1.66989 4.78049 0.83733 6.79048C0.00476613 8.80047 -0.213071 11.0122 0.211367 13.146C0.635804 15.2798 1.68345 17.2398 3.22183 18.7782C4.76021 20.3165 6.72022 21.3642 8.85401 21.7886C10.9878 22.2131 13.1995 21.9952 15.2095 21.1627C17.2195 20.3301 18.9375 18.9202 20.1462 17.1113C21.3549 15.3023 22 13.1756 22 11C22 8.08262 20.8411 5.28472 18.7782 3.22182C16.7153 1.15893 13.9174 0 11 0ZM11 5.92308C11.5021 5.92308 11.9928 6.07195 12.4103 6.35088C12.8277 6.62981 13.1531 7.02627 13.3452 7.49011C13.5374 7.95395 13.5876 8.46435 13.4897 8.95677C13.3917 9.44918 13.15 9.90149 12.795 10.2565C12.44 10.6115 11.9876 10.8533 11.4952 10.9512C11.0028 11.0492 10.4924 10.9989 10.0286 10.8068C9.56473 10.6146 9.16828 10.2893 8.88935 9.87183C8.61042 9.45438 8.46154 8.9636 8.46154 8.46154C8.46154 7.7883 8.72899 7.14263 9.20504 6.66657C9.68109 6.19052 10.3268 5.92308 11 5.92308ZM11 19.4615C9.14264 19.3607 7.3651 18.6734 5.92308 17.4985C5.92308 14.52 8.19923 12.6923 11 12.6923C13.8008 12.6923 16.0769 14.52 16.0769 17.4985C14.7086 18.795 12.8846 19.5003 11 19.4615Z" fill="#FF5E00"/>
</svg>
