<svg width="22" height="20" viewBox="0 0 22 20" fill="none" xmlns="http://www.w3.org/2000/svg">
<path d="M11 8.57143C11.8702 8.57143 12.7209 8.32008 13.4445 7.84916C14.1681 7.37824 14.732 6.7089 15.0651 5.92579C15.3981 5.14268 15.4852 4.28096 15.3155 3.44961C15.1457 2.61827 14.7266 1.85463 14.1113 1.25526C13.4959 0.655891 12.7119 0.247716 11.8584 0.0823507C11.0049 -0.0830145 10.1202 0.00185694 9.31619 0.326232C8.5122 0.650608 7.82501 1.19992 7.34153 1.9047C6.85806 2.60948 6.6 3.43808 6.6 4.28572C6.6 5.42236 7.06357 6.51245 7.88873 7.31617C8.71389 8.1199 9.83305 8.57143 11 8.57143ZM14.6667 10H7.33333C5.38841 10 3.52315 10.7525 2.14788 12.0921C0.772617 13.4316 0 15.2485 0 17.1429L0 20H22V17.1429C22 15.2485 21.2274 13.4316 19.8521 12.0921C18.4769 10.7525 16.6116 10 14.6667 10Z" fill="#FF5E00"/>
</svg>
