<svg xmlns="http://www.w3.org/2000/svg" xmlns:xlink="http://www.w3.org/1999/xlink" version="1.1">
<metadata>
Created by FontForge 20181003 at Fri Dec 21 12:40:49 2018
 By Henrique Beier
Copyright \(c\) 2018 GOL Linhas Aereas SA. All rights reserved.
</metadata>
<defs>
<font id="GOLSansDisplay-MediumItalic" horiz-adv-x="566">
  <font-face font-family="GOL Sans Display Medium" font-weight="500" font-style="italic" font-stretch="normal" units-per-em="1000" panose-1="2 1 6 3 3 4 7 2 2 3" ascent="803" descent="-197" x-height="505" cap-height="676" bbox="-537 -225 1252 947" underline-thickness="50" underline-position="-100" slope="-11" stemh="96" stemv="104" unicode-range="U+0020-FB02"/>
<missing-glyph horiz-adv-x="468" d="M384 711v-936h-297v936h297zM312 648h-155v-31h61v-34h-62v-31h156v31h-62v34h62v31zM250 528h-94v-98h156v32h-62v66zM218 496v-34h-31v34h31zM312 405h-156v-31h62v-35h-62v-30h94v65h62v31zM312 349h-31v-62h-125v-32h156v94zM312 235h-94v-53h32v22h31v-44h-94v75 h-31v-106h156v106zM312 73h-156v-106h156v106zM281 42v-44h-94v44h94zM312 -55h-156v-31h66l-66 -44v-30h156v30h-96l66 44h30v31z"/>
    <glyph glyph-name="fi" unicode="fi" horiz-adv-x="640" d="M591 591c-37 0 -60 24 -60 58c0 44 31 73 71 73c36 0 60 -24 60 -58c0 -44 -31 -73 -71 -73zM22 0l99 510c26 135 117 205 223 205c42 0 80 -9 114 -25l-19 -78c-23 8 -46 15 -83 15c-67 0 -117 -31 -132 -111l-2 -11h190l-18 -95h-190l-79 -410h-103zM420 0l98 505h104 l-98 -505h-104z"/>
    <glyph glyph-name="fl" unicode="fl" horiz-adv-x="636" d="M22 0l99 510c26 135 117 205 223 205c42 0 80 -9 114 -25l-19 -78c-23 8 -46 15 -83 15c-67 0 -117 -31 -132 -111l-2 -11h190l-18 -95h-190l-79 -410h-103zM418 0l136 701h103l-136 -701h-103z"/>
    <glyph glyph-name=".notdef" horiz-adv-x="468" d="M384 711v-936h-297v936h297zM312 648h-155v-31h61v-34h-62v-31h156v31h-62v34h62v31zM250 528h-94v-98h156v32h-62v66zM218 496v-34h-31v34h31zM312 405h-156v-31h62v-35h-62v-30h94v65h62v31zM312 349h-31v-62h-125v-32h156v94zM312 235h-94v-53h32v22h31v-44h-94v75 h-31v-106h156v106zM312 73h-156v-106h156v106zM281 42v-44h-94v44h94zM312 -55h-156v-31h66l-66 -44v-30h156v30h-96l66 44h30v31z"/>
    <glyph glyph-name="space" unicode=" " horiz-adv-x="223"/>
    <glyph glyph-name="A" unicode="A" horiz-adv-x="656" d="M469 0l-25 170h-262l-90 -170h-117l379 676h111l115 -676h-111zM233 267h196l-43 291z"/>
    <glyph glyph-name="Aacute" unicode="Á" horiz-adv-x="656" d="M640 878l-189 -131h-117l172 131h134zM354 676h111l115 -676h-111l-25 170h-262l-90 -170h-117zM233 267h196l-43 291z"/>
    <glyph glyph-name="Acircumflex" unicode="Â" horiz-adv-x="656" d="M436 829l-109 -81h-101l168 140h97l121 -140h-97zM354 676h111l115 -676h-111l-25 170h-262l-90 -170h-117zM233 267h196l-43 291z"/>
    <glyph glyph-name="Adieresis" unicode="Ä" horiz-adv-x="656" d="M326 748c-33 0 -55 21 -55 53c0 43 28 70 66 70c32 0 55 -21 55 -53c0 -43 -30 -70 -66 -70zM524 748c-33 0 -56 21 -56 53c0 43 30 70 66 70c34 0 55 -21 55 -53c0 -43 -28 -70 -65 -70zM354 676h111l115 -676h-111l-25 170h-262l-90 -170h-117zM233 267h196l-43 291z "/>
    <glyph glyph-name="Agrave" unicode="À" horiz-adv-x="656" d="M503 747h-111l-141 131h125zM469 0l-25 170h-262l-90 -170h-117l379 676h111l115 -676h-111zM233 267h196l-43 291z"/>
    <glyph glyph-name="Amacron" unicode="Ā" horiz-adv-x="656" d="M276 852h325l-16 -85h-325zM354 676h111l115 -676h-111l-25 170h-262l-90 -170h-117zM233 267h196l-43 291z"/>
    <glyph glyph-name="Aring" unicode="Å" horiz-adv-x="656" d="M469 0l-25 170h-262l-90 -170h-117l372 664c-28 19 -47 52 -47 91c0 63 54 110 113 110c62 0 112 -47 112 -110c0 -44 -23 -79 -57 -98l112 -657h-111zM413 803c-28 0 -47 -20 -47 -49c0 -28 20 -48 47 -48s47 20 47 48s-21 49 -47 49zM233 267h196l-43 291z"/>
    <glyph glyph-name="Atilde" unicode="Ã" horiz-adv-x="656" d="M561 875h79c-14 -77 -67 -128 -135 -128c-38 0 -63 20 -84 33c-22 14 -41 27 -62 27c-32 0 -51 -21 -59 -51h-79c14 80 64 126 134 126c33 0 61 -16 84 -30c21 -13 41 -29 63 -29c29 0 50 20 59 52zM354 676h111l115 -676h-111l-25 170h-262l-90 -170h-117zM233 267h196 l-43 291z"/>
    <glyph glyph-name="AE" unicode="Æ" horiz-adv-x="934" d="M943 575h-293l-35 -182h264l-19 -98h-264l-37 -194h301l-20 -101h-404l34 172h-245l-142 -172h-125l571 676h433zM306 269h183l56 289z"/>
    <glyph glyph-name="B" unicode="B" horiz-adv-x="582" d="M444 354c59 -26 91 -80 91 -142c0 -127 -104 -212 -237 -212h-272l131 676h222c112 0 185 -65 185 -158c0 -80 -48 -136 -120 -164zM367 582h-127l-37 -188h128c77 0 129 46 129 113c0 45 -37 75 -93 75zM295 95c82 0 137 43 137 114c0 50 -35 89 -100 89h-147l-40 -203 h150z"/>
    <glyph glyph-name="C" unicode="C" horiz-adv-x="570" d="M312 -12c-164 0 -256 117 -256 263c0 21 3 50 8 74l7 39c37 193 186 323 363 323c57 0 117 -15 159 -35l-20 -94c-43 16 -85 25 -138 25c-134 0 -231 -90 -258 -229l-6 -27c-4 -22 -7 -44 -7 -64c0 -105 61 -171 167 -171c64 0 117 12 166 28l-17 -100 c-51 -20 -109 -32 -168 -32z"/>
    <glyph glyph-name="Cacute" unicode="Ć" horiz-adv-x="570" d="M349 754l172 131h134l-189 -131h-117zM312 -12c-164 0 -256 117 -256 263c0 21 3 50 8 74l7 39c37 193 186 323 363 323c57 0 117 -15 159 -35l-20 -94c-43 16 -85 25 -138 25c-134 0 -231 -90 -258 -229l-6 -27c-4 -22 -7 -44 -7 -64c0 -105 61 -171 167 -171 c64 0 117 12 166 28l-17 -100c-51 -20 -109 -32 -168 -32z"/>
    <glyph glyph-name="Ccaron" unicode="Č" horiz-adv-x="570" d="M388 755l-120 140h96l80 -81l108 81h101l-168 -140h-97zM312 -12c-164 0 -256 117 -256 263c0 21 3 50 8 74l7 39c37 193 186 323 363 323c57 0 117 -15 159 -35l-20 -94c-43 16 -85 25 -138 25c-134 0 -231 -90 -258 -229l-6 -27c-4 -22 -7 -44 -7 -64 c0 -105 61 -171 167 -171c64 0 117 12 166 28l-17 -100c-51 -20 -109 -32 -168 -32z"/>
    <glyph glyph-name="Ccedilla" unicode="Ç" horiz-adv-x="570" d="M177 354l-6 -27c-4 -22 -7 -44 -7 -64c0 -105 61 -171 167 -171c64 0 117 12 166 28l-17 -100c-40 -16 -84 -26 -130 -30c9 -16 15 -36 15 -56c0 -74 -76 -122 -166 -122c-43 0 -77 10 -104 21l14 67c21 -8 46 -11 64 -11c63 0 103 27 103 73c0 11 -2 20 -8 29 c-136 19 -212 128 -212 260c0 21 3 50 8 74l7 39c37 193 186 323 363 323c57 0 117 -15 159 -35l-20 -94c-43 16 -85 25 -138 25c-134 0 -231 -90 -258 -229z"/>
    <glyph glyph-name="Cdotaccent" unicode="Ċ" horiz-adv-x="570" d="M442 753c-36 0 -59 22 -59 56c0 45 31 74 71 74c35 0 58 -22 58 -56c0 -45 -31 -74 -70 -74zM312 -12c-164 0 -256 117 -256 263c0 21 3 50 8 74l7 39c37 193 186 323 363 323c57 0 117 -15 159 -35l-20 -94c-43 16 -85 25 -138 25c-134 0 -231 -90 -258 -229l-6 -27 c-4 -22 -7 -44 -7 -64c0 -105 61 -171 167 -171c64 0 117 12 166 28l-17 -100c-51 -20 -109 -32 -168 -32z"/>
    <glyph glyph-name="D" unicode="D" horiz-adv-x="663" d="M378 676c161 0 262 -109 262 -261c0 -21 -3 -45 -7 -69l-7 -38c-34 -190 -191 -308 -367 -308h-233l131 676h221zM526 344c5 24 6 45 6 62c0 103 -61 168 -163 168h-126l-91 -472h120c117 0 220 77 249 216z"/>
    <glyph glyph-name="Eth" unicode="Ð" horiz-adv-x="698" d="M413 676c160 0 261 -109 261 -261c0 -21 -2 -45 -7 -69l-7 -38c-34 -190 -190 -308 -367 -308h-233l56 289h-88l19 101h89l55 286h222zM560 344c5 24 7 45 7 62c0 103 -62 168 -163 168h-127l-35 -184h184l-20 -101h-184l-36 -187h120c118 0 220 77 249 216z"/>
    <glyph glyph-name="E" unicode="E" horiz-adv-x="529" d="M538 575h-297l-35 -182h269l-20 -98h-268l-37 -194h306l-20 -101h-410l131 676h401z"/>
    <glyph glyph-name="Eacute" unicode="É" horiz-adv-x="529" d="M589 878l-189 -131h-117l172 131h134zM558 676l-20 -101h-297l-35 -182h269l-20 -98h-268l-37 -194h306l-20 -101h-410l131 676h401z"/>
    <glyph glyph-name="Ecaron" unicode="Ě" horiz-adv-x="529" d="M418 748h-97l-120 140h96l80 -81l108 81h101zM558 676l-20 -101h-297l-35 -182h269l-20 -98h-268l-37 -194h306l-20 -101h-410l131 676h401z"/>
    <glyph glyph-name="Ecircumflex" unicode="Ê" horiz-adv-x="529" d="M384 829l-109 -81h-101l168 140h97l121 -140h-97zM558 676l-20 -101h-297l-35 -182h269l-20 -98h-268l-37 -194h306l-20 -101h-410l131 676h401z"/>
    <glyph glyph-name="Edieresis" unicode="Ë" horiz-adv-x="529" d="M274 748c-33 0 -55 21 -55 53c0 43 28 70 66 70c32 0 55 -21 55 -53c0 -43 -30 -70 -66 -70zM472 748c-33 0 -56 21 -56 53c0 43 30 70 66 70c34 0 55 -21 55 -53c0 -43 -28 -70 -65 -70zM538 575h-297l-35 -182h269l-20 -98h-268l-37 -194h306l-20 -101h-410l131 676 h401z"/>
    <glyph glyph-name="Edotaccent" unicode="Ė" horiz-adv-x="529" d="M375 746c-36 0 -59 22 -59 56c0 45 31 74 71 74c35 0 58 -22 58 -56c0 -45 -31 -74 -70 -74zM538 575h-297l-35 -182h269l-20 -98h-268l-37 -194h306l-20 -101h-410l131 676h401z"/>
    <glyph glyph-name="Egrave" unicode="È" horiz-adv-x="529" d="M451 747h-111l-141 131h125zM538 575h-297l-35 -182h269l-20 -98h-268l-37 -194h306l-20 -101h-410l131 676h401z"/>
    <glyph glyph-name="Emacron" unicode="Ē" horiz-adv-x="529" d="M549 852l-16 -85h-325l16 85h325zM538 575h-297l-35 -182h269l-20 -98h-268l-37 -194h306l-20 -101h-410l131 676h401z"/>
    <glyph glyph-name="F" unicode="F" horiz-adv-x="515" d="M546 573h-305l-36 -186h266l-20 -102h-266l-55 -285h-104l131 676h409z"/>
    <glyph glyph-name="G" unicode="G" horiz-adv-x="629" d="M317 -11c-171 0 -262 114 -262 260c0 25 4 51 8 73l8 41c37 198 190 324 368 324c67 0 121 -17 169 -38l-18 -93c-47 18 -94 27 -153 27c-132 0 -235 -75 -264 -229l-5 -29c-4 -24 -7 -46 -7 -66c0 -103 58 -170 169 -170c43 0 79 6 113 17l33 165h-137l19 95h235 l-64 -329c-63 -27 -135 -48 -212 -48z"/>
    <glyph glyph-name="Gdotaccent" unicode="Ġ" horiz-adv-x="629" d="M442 753c-36 0 -59 22 -59 56c0 45 31 74 71 74c35 0 58 -22 58 -56c0 -45 -31 -74 -70 -74zM317 -11c-171 0 -262 114 -262 260c0 25 4 51 8 73l8 41c37 198 190 324 368 324c67 0 121 -17 169 -38l-18 -93c-47 18 -94 27 -153 27c-132 0 -235 -75 -264 -229l-5 -29 c-4 -24 -7 -46 -7 -66c0 -103 58 -170 169 -170c43 0 79 6 113 17l33 165h-137l19 95h235l-64 -329c-63 -27 -135 -48 -212 -48z"/>
    <glyph glyph-name="H" unicode="H" horiz-adv-x="666" d="M567 676h106l-131 -676h-106l57 293h-304l-57 -293h-106l131 676h106l-54 -278h304z"/>
    <glyph glyph-name="I" unicode="I" horiz-adv-x="256" d="M26 0l131 676h106l-131 -676h-106z"/>
    <glyph glyph-name="IJ" unicode="Ĳ" horiz-adv-x="687" d="M26 0l131 676h106l-131 -676h-106zM369 -12c-51 0 -94 12 -126 29l18 90c26 -10 57 -16 100 -16c72 0 124 42 141 130l89 455h106l-91 -465c-27 -140 -116 -223 -237 -223z"/>
    <glyph glyph-name="Iacute" unicode="Í" horiz-adv-x="256" d="M135 747l172 131h134l-189 -131h-117zM26 0l131 676h106l-131 -676h-106z"/>
    <glyph glyph-name="Icircumflex" unicode="Î" horiz-adv-x="256" d="M27 748l168 140h97l121 -140h-97l-79 81l-109 -81h-101zM26 0l131 676h106l-131 -676h-106z"/>
    <glyph glyph-name="Idieresis" unicode="Ï" horiz-adv-x="256" d="M127 748c-33 0 -55 21 -55 53c0 43 28 70 66 70c32 0 55 -21 55 -53c0 -43 -30 -70 -66 -70zM325 748c-33 0 -56 21 -56 53c0 43 30 70 66 70c34 0 55 -21 55 -53c0 -43 -28 -70 -65 -70zM26 0l131 676h106l-131 -676h-106z"/>
    <glyph glyph-name="Idotaccent" unicode="İ" horiz-adv-x="256" d="M228 746c-36 0 -59 22 -59 56c0 45 31 74 71 74c35 0 58 -22 58 -56c0 -45 -31 -74 -70 -74zM26 0l131 676h106l-131 -676h-106z"/>
    <glyph glyph-name="Igrave" unicode="Ì" horiz-adv-x="256" d="M192 747l-141 131h125l127 -131h-111zM26 0l131 676h106l-131 -676h-106z"/>
    <glyph glyph-name="Imacron" unicode="Ī" horiz-adv-x="256" d="M77 852h325l-16 -85h-325zM26 0l131 676h106l-131 -676h-106z"/>
    <glyph glyph-name="J" unicode="J" horiz-adv-x="431" d="M113 -12c-51 0 -94 12 -126 29l18 90c26 -10 57 -16 100 -16c72 0 124 42 141 130l89 455h106l-91 -465c-27 -140 -116 -223 -237 -223z"/>
    <glyph glyph-name="K" unicode="K" horiz-adv-x="623" d="M664 676l-363 -325l258 -351h-130l-234 323l-63 -323h-106l131 676h106l-57 -293l327 293h131z"/>
    <glyph glyph-name="L" unicode="L" horiz-adv-x="525" d="M152 104h307l-20 -104h-413l131 676h106z"/>
    <glyph glyph-name="M" unicode="M" horiz-adv-x="773" d="M26 0l131 676h96l138 -361l288 361h100l-130 -676h-104l97 493l-230 -290h-76l-114 284l-95 -487h-101z"/>
    <glyph glyph-name="N" unicode="N" horiz-adv-x="664" d="M26 0l131 676h87l232 -500l97 500h99l-131 -676h-87l-233 494l-96 -494h-99z"/>
    <glyph glyph-name="Nacute" unicode="Ń" horiz-adv-x="664" d="M328 747l172 131h134l-189 -131h-117zM26 0l131 676h87l232 -500l97 500h99l-131 -676h-87l-233 494l-96 -494h-99z"/>
    <glyph glyph-name="Ncaron" unicode="Ň" horiz-adv-x="664" d="M367 748l-120 140h96l80 -81l108 81h101l-168 -140h-97zM26 0l131 676h87l232 -500l97 500h99l-131 -676h-87l-233 494l-96 -494h-99z"/>
    <glyph glyph-name="Ntilde" unicode="Ñ" horiz-adv-x="664" d="M499 747c-38 0 -63 20 -84 33c-22 14 -41 27 -62 27c-32 0 -51 -21 -59 -51h-79c14 80 64 126 134 126c33 0 61 -16 84 -30c21 -13 41 -29 63 -29c29 0 50 20 59 52h79c-14 -77 -67 -128 -135 -128zM26 0l131 676h87l232 -500l97 500h99l-131 -676h-87l-233 494l-96 -494 h-99z"/>
    <glyph glyph-name="O" unicode="O" horiz-adv-x="699" d="M303 -12c-156 0 -247 111 -247 257c0 26 3 52 7 76l8 42c35 189 185 324 360 324c156 0 247 -111 247 -258c0 -24 -3 -51 -7 -75l-8 -42c-35 -190 -184 -324 -360 -324zM314 92c125 0 216 90 245 236l4 24c5 22 7 41 7 64c0 101 -56 167 -150 167 c-123 0 -216 -90 -245 -236l-5 -24c-4 -23 -7 -40 -7 -65c0 -101 56 -166 151 -166z"/>
    <glyph glyph-name="Oacute" unicode="Ó" horiz-adv-x="699" d="M353 754l172 131h134l-189 -131h-117zM303 -12c-156 0 -247 111 -247 257c0 26 3 52 7 76l8 42c35 189 185 324 360 324c156 0 247 -111 247 -258c0 -24 -3 -51 -7 -75l-8 -42c-35 -190 -184 -324 -360 -324zM314 92c125 0 216 90 245 236l4 24c5 22 7 41 7 64 c0 101 -56 167 -150 167c-123 0 -216 -90 -245 -236l-5 -24c-4 -23 -7 -40 -7 -65c0 -101 56 -166 151 -166z"/>
    <glyph glyph-name="Ocircumflex" unicode="Ô" horiz-adv-x="699" d="M245 755l168 140h97l121 -140h-97l-79 81l-109 -81h-101zM303 -12c-156 0 -247 111 -247 257c0 26 3 52 7 76l8 42c35 189 185 324 360 324c156 0 247 -111 247 -258c0 -24 -3 -51 -7 -75l-8 -42c-35 -190 -184 -324 -360 -324zM314 92c125 0 216 90 245 236l4 24 c5 22 7 41 7 64c0 101 -56 167 -150 167c-123 0 -216 -90 -245 -236l-5 -24c-4 -23 -7 -40 -7 -65c0 -101 56 -166 151 -166z"/>
    <glyph glyph-name="Odieresis" unicode="Ö" horiz-adv-x="699" d="M345 755c-33 0 -55 21 -55 53c0 43 28 70 66 70c32 0 55 -21 55 -53c0 -43 -30 -70 -66 -70zM543 755c-33 0 -56 21 -56 53c0 43 30 70 66 70c34 0 55 -21 55 -53c0 -43 -28 -70 -65 -70zM303 -12c-156 0 -247 111 -247 257c0 26 3 52 7 76l8 42c35 189 185 324 360 324 c156 0 247 -111 247 -258c0 -24 -3 -51 -7 -75l-8 -42c-35 -190 -184 -324 -360 -324zM314 92c125 0 216 90 245 236l4 24c5 22 7 41 7 64c0 101 -56 167 -150 167c-123 0 -216 -90 -245 -236l-5 -24c-4 -23 -7 -40 -7 -65c0 -101 56 -166 151 -166z"/>
    <glyph glyph-name="Ograve" unicode="Ò" horiz-adv-x="699" d="M410 754l-141 131h125l127 -131h-111zM303 -12c-156 0 -247 111 -247 257c0 26 3 52 7 76l8 42c35 189 185 324 360 324c156 0 247 -111 247 -258c0 -24 -3 -51 -7 -75l-8 -42c-35 -190 -184 -324 -360 -324zM314 92c125 0 216 90 245 236l4 24c5 22 7 41 7 64 c0 101 -56 167 -150 167c-123 0 -216 -90 -245 -236l-5 -24c-4 -23 -7 -40 -7 -65c0 -101 56 -166 151 -166z"/>
    <glyph glyph-name="Omacron" unicode="Ō" horiz-adv-x="699" d="M295 859h325l-16 -85h-325zM303 -12c-156 0 -247 111 -247 257c0 26 3 52 7 76l8 42c35 189 185 324 360 324c156 0 247 -111 247 -258c0 -24 -3 -51 -7 -75l-8 -42c-35 -190 -184 -324 -360 -324zM314 92c125 0 216 90 245 236l4 24c5 22 7 41 7 64 c0 101 -56 167 -150 167c-123 0 -216 -90 -245 -236l-5 -24c-4 -23 -7 -40 -7 -65c0 -101 56 -166 151 -166z"/>
    <glyph glyph-name="Oslash" unicode="Ø" horiz-adv-x="699" d="M770 732l-134 -154c26 -41 39 -92 39 -149c0 -24 -3 -51 -8 -75l-7 -42c-35 -190 -184 -324 -360 -324c-57 0 -105 15 -144 40l-75 -86h-113l128 147c-29 43 -44 96 -44 156c0 26 4 52 8 76l8 42c34 189 185 324 359 324c60 0 111 -16 151 -45l78 90h114zM160 258 c0 -30 5 -56 14 -79l330 379c-23 16 -53 25 -87 25c-123 0 -216 -90 -245 -236l-5 -24c-4 -23 -7 -40 -7 -65zM567 416c0 26 -4 50 -11 71l-326 -374c22 -14 49 -21 81 -21c124 0 216 90 245 236l4 24c4 22 7 41 7 64z"/>
    <glyph glyph-name="Otilde" unicode="Õ" horiz-adv-x="699" d="M523 754c-38 0 -63 20 -84 33c-22 14 -41 27 -62 27c-32 0 -51 -21 -59 -51h-79c14 80 64 126 134 126c33 0 61 -16 84 -30c21 -13 41 -29 63 -29c29 0 50 20 59 52h79c-14 -77 -67 -128 -135 -128zM303 -12c-156 0 -247 111 -247 257c0 26 3 52 7 76l8 42 c35 189 185 324 360 324c156 0 247 -111 247 -258c0 -24 -3 -51 -7 -75l-8 -42c-35 -190 -184 -324 -360 -324zM314 92c125 0 216 90 245 236l4 24c5 22 7 41 7 64c0 101 -56 167 -150 167c-123 0 -216 -90 -245 -236l-5 -24c-4 -23 -7 -40 -7 -65c0 -101 56 -166 151 -166z "/>
    <glyph glyph-name="OE" unicode="Œ" horiz-adv-x="985" d="M993 574h-292l-35 -180h263l-19 -99h-263l-37 -193h301l-20 -102h-404l16 85c-55 -60 -127 -97 -209 -97c-151 0 -238 106 -238 254c0 25 2 49 7 75l7 40c34 186 178 330 347 330c89 0 150 -38 184 -100l17 89h395zM307 92c120 0 212 89 242 225l2 16l4 20 c5 26 7 50 7 71c0 100 -48 159 -145 159c-121 0 -213 -97 -242 -238l-5 -23c-5 -26 -8 -51 -8 -72c0 -97 50 -158 145 -158z"/>
    <glyph glyph-name="P" unicode="P" horiz-adv-x="577" d="M382 676c123 0 197 -80 197 -186c0 -152 -115 -235 -275 -247l-129 -10l-45 -233h-104l131 676h225zM307 343c99 9 165 50 165 140c0 56 -36 92 -106 92h-124l-47 -242z"/>
    <glyph glyph-name="Thorn" unicode="Þ" horiz-adv-x="576" d="M364 586c124 0 197 -81 197 -187c0 -151 -114 -235 -274 -247l-128 -10l-28 -142h-105l132 676h104l-17 -90h119zM290 253c99 9 165 50 165 139c0 57 -36 93 -107 93h-123l-47 -242z"/>
    <glyph glyph-name="Q" unicode="Q" horiz-adv-x="699" d="M431 687c156 0 247 -111 247 -258c0 -24 -3 -51 -7 -75l-8 -42c-17 -93 -61 -172 -123 -229l92 -148h-115l-56 91c-48 -24 -102 -38 -158 -38c-156 0 -247 111 -247 257c0 26 3 52 7 76l8 42c35 189 185 324 360 324zM563 352c5 22 7 41 7 64c0 101 -56 167 -150 167 c-123 0 -216 -90 -245 -236l-5 -24c-4 -23 -7 -40 -7 -65c0 -101 56 -166 151 -166c34 0 66 7 94 19l-76 124h114l40 -65c35 40 60 93 73 158z"/>
    <glyph glyph-name="R" unicode="R" horiz-adv-x="591" d="M574 497c0 -108 -67 -180 -161 -215l113 -282h-115l-98 258c-5 0 -9 -1 -14 -1l-122 -9l-48 -248h-103l131 676h221c128 0 196 -85 196 -179zM196 344l108 9c99 9 163 49 163 134c0 54 -38 90 -110 90h-116z"/>
    <glyph glyph-name="Racute" unicode="Ŕ" horiz-adv-x="591" d="M572 878l-189 -131h-117l172 131h134zM574 497c0 -108 -67 -180 -161 -215l113 -282h-115l-98 258c-5 0 -9 -1 -14 -1l-122 -9l-48 -248h-103l131 676h221c128 0 196 -85 196 -179zM196 344l108 9c99 9 163 49 163 134c0 54 -38 90 -110 90h-116z"/>
    <glyph glyph-name="Rcaron" unicode="Ř" horiz-adv-x="591" d="M402 748h-97l-120 140h96l80 -81l108 81h101zM574 497c0 -108 -67 -180 -161 -215l113 -282h-115l-98 258c-5 0 -9 -1 -14 -1l-122 -9l-48 -248h-103l131 676h221c128 0 196 -85 196 -179zM196 344l108 9c99 9 163 49 163 134c0 54 -38 90 -110 90h-116z"/>
    <glyph glyph-name="S" unicode="S" horiz-adv-x="538" d="M216 -12c-76 0 -160 24 -214 53l21 89c60 -27 127 -41 197 -41c87 0 155 29 155 101c0 46 -38 78 -125 114c-109 46 -159 94 -159 181c0 127 110 202 246 202c67 0 142 -20 199 -46l-20 -90c-59 25 -125 35 -178 35c-84 0 -143 -28 -143 -89c0 -46 38 -72 127 -110 c106 -45 160 -101 160 -187c0 -140 -108 -212 -266 -212z"/>
    <glyph glyph-name="Sacute" unicode="Ś" horiz-adv-x="538" d="M257 747l172 131h134l-189 -131h-117zM216 -12c-76 0 -160 24 -214 53l21 89c60 -27 127 -41 197 -41c87 0 155 29 155 101c0 46 -38 78 -125 114c-109 46 -159 94 -159 181c0 127 110 202 246 202c67 0 142 -20 199 -46l-20 -90c-59 25 -125 35 -178 35 c-84 0 -143 -28 -143 -89c0 -46 38 -72 127 -110c106 -45 160 -101 160 -187c0 -140 -108 -212 -266 -212z"/>
    <glyph glyph-name="Scaron" unicode="Š" horiz-adv-x="538" d="M296 748l-120 140h96l80 -81l108 81h101l-168 -140h-97zM216 -12c-76 0 -160 24 -214 53l21 89c60 -27 127 -41 197 -41c87 0 155 29 155 101c0 46 -38 78 -125 114c-109 46 -159 94 -159 181c0 127 110 202 246 202c67 0 142 -20 199 -46l-20 -90 c-59 25 -125 35 -178 35c-84 0 -143 -28 -143 -89c0 -46 38 -72 127 -110c106 -45 160 -101 160 -187c0 -140 -108 -212 -266 -212z"/>
    <glyph glyph-name="uni1E9E" unicode="ẞ" horiz-adv-x="662" d="M368 -11c-60 0 -114 15 -163 44l17 84c42 -23 87 -35 141 -35c86 0 145 42 145 117c0 59 -54 99 -138 99h-43l15 81l181 185c-30 17 -58 25 -108 25c-112 0 -192 -69 -220 -218l-72 -371h-103l73 377c40 211 165 310 322 310c104 0 173 -38 220 -69l-17 -64l-174 -179 l10 -2c95 -18 157 -88 157 -171c0 -131 -105 -213 -243 -213z"/>
    <glyph glyph-name="T" unicode="T" horiz-adv-x="546" d="M609 676l-20 -103h-200l-112 -573h-106l111 573h-200l20 103h507z"/>
    <glyph glyph-name="U" unicode="U" horiz-adv-x="673" d="M298 -12c-150 0 -225 97 -225 232c0 27 3 53 8 81l73 375h107l-73 -373c-5 -24 -8 -48 -8 -71c0 -86 41 -140 124 -140c113 0 176 79 203 217l71 367h106l-73 -376c-36 -188 -138 -312 -313 -312z"/>
    <glyph glyph-name="Uacute" unicode="Ú" horiz-adv-x="673" d="M334 747l172 131h134l-189 -131h-117zM298 -12c-150 0 -225 97 -225 232c0 27 3 53 8 81l73 375h107l-73 -373c-5 -24 -8 -48 -8 -71c0 -86 41 -140 124 -140c113 0 176 79 203 217l71 367h106l-73 -376c-36 -188 -138 -312 -313 -312z"/>
    <glyph glyph-name="Ucircumflex" unicode="Û" horiz-adv-x="673" d="M226 748l168 140h97l121 -140h-97l-79 81l-109 -81h-101zM298 -12c-150 0 -225 97 -225 232c0 27 3 53 8 81l73 375h107l-73 -373c-5 -24 -8 -48 -8 -71c0 -86 41 -140 124 -140c113 0 176 79 203 217l71 367h106l-73 -376c-36 -188 -138 -312 -313 -312z"/>
    <glyph glyph-name="Udieresis" unicode="Ü" horiz-adv-x="673" d="M326 748c-33 0 -55 21 -55 53c0 43 28 70 66 70c32 0 55 -21 55 -53c0 -43 -30 -70 -66 -70zM524 748c-33 0 -56 21 -56 53c0 43 30 70 66 70c34 0 55 -21 55 -53c0 -43 -28 -70 -65 -70zM298 -12c-150 0 -225 97 -225 232c0 27 3 53 8 81l73 375h107l-73 -373 c-5 -24 -8 -48 -8 -71c0 -86 41 -140 124 -140c113 0 176 79 203 217l71 367h106l-73 -376c-36 -188 -138 -312 -313 -312z"/>
    <glyph glyph-name="Ugrave" unicode="Ù" horiz-adv-x="673" d="M392 747l-141 131h125l127 -131h-111zM298 -12c-150 0 -225 97 -225 232c0 27 3 53 8 81l73 375h107l-73 -373c-5 -24 -8 -48 -8 -71c0 -86 41 -140 124 -140c113 0 176 79 203 217l71 367h106l-73 -376c-36 -188 -138 -312 -313 -312z"/>
    <glyph glyph-name="Umacron" unicode="Ū" horiz-adv-x="673" d="M276 852h325l-16 -85h-325zM298 -12c-150 0 -225 97 -225 232c0 27 3 53 8 81l73 375h107l-73 -373c-5 -24 -8 -48 -8 -71c0 -86 41 -140 124 -140c113 0 176 79 203 217l71 367h106l-73 -376c-36 -188 -138 -312 -313 -312z"/>
    <glyph glyph-name="Uring" unicode="Ů" horiz-adv-x="673" d="M437 724c-61 0 -113 47 -113 112c0 63 54 110 113 110c62 0 112 -47 112 -110c0 -65 -52 -112 -112 -112zM437 786c27 0 47 21 47 49s-21 49 -47 49c-28 0 -48 -20 -48 -49c0 -28 21 -49 48 -49zM298 -12c-150 0 -225 97 -225 232c0 27 3 53 8 81l73 375h107l-73 -373 c-5 -24 -8 -48 -8 -71c0 -86 41 -140 124 -140c113 0 176 79 203 217l71 367h106l-73 -376c-36 -188 -138 -312 -313 -312z"/>
    <glyph glyph-name="V" unicode="V" horiz-adv-x="645" d="M591 676h121l-383 -676h-110l-119 676h117l80 -543z"/>
    <glyph glyph-name="W" unicode="W" horiz-adv-x="918" d="M165 0l-49 676h113l20 -524l235 505h106l41 -506l224 525h114l-312 -676h-106l-43 511l-237 -511h-106z"/>
    <glyph glyph-name="Wacute" unicode="Ẃ" horiz-adv-x="918" d="M458 747l172 131h134l-189 -131h-117zM165 0l-49 676h113l20 -524l235 505h106l41 -506l224 525h114l-312 -676h-106l-43 511l-237 -511h-106z"/>
    <glyph glyph-name="Wcircumflex" unicode="Ŵ" horiz-adv-x="918" d="M350 748l168 140h97l121 -140h-97l-79 81l-109 -81h-101zM165 0l-49 676h113l20 -524l235 505h106l41 -506l224 525h114l-312 -676h-106l-43 511l-237 -511h-106z"/>
    <glyph glyph-name="Wdieresis" unicode="Ẅ" horiz-adv-x="918" d="M450 748c-33 0 -55 21 -55 53c0 43 28 70 66 70c32 0 55 -21 55 -53c0 -43 -30 -70 -66 -70zM648 748c-33 0 -56 21 -56 53c0 43 30 70 66 70c34 0 55 -21 55 -53c0 -43 -28 -70 -65 -70zM165 0l-49 676h113l20 -524l235 505h106l41 -506l224 525h114l-312 -676h-106 l-43 511l-237 -511h-106z"/>
    <glyph glyph-name="Wgrave" unicode="Ẁ" horiz-adv-x="918" d="M515 747l-141 131h125l127 -131h-111zM165 0l-49 676h113l20 -524l235 505h106l41 -506l224 525h114l-312 -676h-106l-43 511l-237 -511h-106z"/>
    <glyph glyph-name="X" unicode="X" horiz-adv-x="657" d="M693 676l-285 -322l178 -354h-122l-134 278l-236 -278h-126l318 364l-157 312h122l113 -238l205 238h124z"/>
    <glyph glyph-name="Y" unicode="Y" horiz-adv-x="586" d="M655 676l-311 -429l-48 -247h-107l49 254l-140 422h114l97 -318l226 318h120z"/>
    <glyph glyph-name="Yacute" unicode="Ý" horiz-adv-x="586" d="M592 878l-189 -131h-117l172 131h134zM655 676l-311 -429l-48 -247h-107l49 254l-140 422h114l97 -318l226 318h120z"/>
    <glyph glyph-name="Ycircumflex" unicode="Ŷ" horiz-adv-x="586" d="M388 829l-109 -81h-101l168 140h97l121 -140h-97zM655 676l-311 -429l-48 -247h-107l49 254l-140 422h114l97 -318l226 318h120z"/>
    <glyph glyph-name="Ydieresis" unicode="Ÿ" horiz-adv-x="586" d="M278 748c-33 0 -55 21 -55 53c0 43 28 70 66 70c32 0 55 -21 55 -53c0 -43 -30 -70 -66 -70zM476 748c-33 0 -56 21 -56 53c0 43 30 70 66 70c34 0 55 -21 55 -53c0 -43 -28 -70 -65 -70zM655 676l-311 -429l-48 -247h-107l49 254l-140 422h114l97 -318l226 318h120z"/>
    <glyph glyph-name="Ygrave" unicode="Ỳ" horiz-adv-x="586" d="M454 747h-111l-141 131h125zM655 676l-311 -429l-48 -247h-107l49 254l-140 422h114l97 -318l226 318h120z"/>
    <glyph glyph-name="Z" unicode="Z" horiz-adv-x="567" d="M-5 0l17 93l435 481h-330l20 102h458l-17 -94l-433 -480h350l-20 -102h-480z"/>
    <glyph glyph-name="Zacute" unicode="Ź" horiz-adv-x="567" d="M273 747l172 131h134l-189 -131h-117zM-5 0l17 93l435 481h-330l20 102h458l-17 -94l-433 -480h350l-20 -102h-480z"/>
    <glyph glyph-name="Zcaron" unicode="Ž" horiz-adv-x="567" d="M312 748l-120 140h96l80 -81l108 81h101l-168 -140h-97zM-5 0l17 93l435 481h-330l20 102h458l-17 -94l-433 -480h350l-20 -102h-480z"/>
    <glyph glyph-name="Zdotaccent" unicode="Ż" horiz-adv-x="567" d="M366 746c-36 0 -59 22 -59 56c0 45 31 74 71 74c35 0 58 -22 58 -56c0 -45 -31 -74 -70 -74zM-5 0l17 93l435 481h-330l20 102h458l-17 -94l-433 -480h350l-20 -102h-480z"/>
    <glyph glyph-name="a" unicode="a" horiz-adv-x="553" d="M537 505l-99 -505h-84l1 53c-49 -37 -102 -63 -154 -63c-106 0 -165 81 -165 190c0 19 1 33 4 51l5 26c31 169 169 248 314 248h178zM137 190c0 -61 29 -103 88 -103c49 0 89 20 139 60l52 264h-66c-112 0 -186 -58 -207 -170l-3 -15c-2 -13 -3 -22 -3 -36z"/>
    <glyph glyph-name="aacute" unicode="á" horiz-adv-x="553" d="M561 727l-174 -134h-105l160 134h119zM537 505l-99 -505h-84l1 53c-49 -37 -102 -63 -154 -63c-106 0 -165 81 -165 190c0 19 1 33 4 51l5 26c31 169 169 248 314 248h178zM137 190c0 -61 29 -103 88 -103c49 0 89 20 139 60l52 264h-66c-112 0 -186 -58 -207 -170 l-3 -15c-2 -13 -3 -22 -3 -36z"/>
    <glyph glyph-name="acircumflex" unicode="â" horiz-adv-x="553" d="M377 678l-92 -85h-88l143 143h91l86 -143h-84zM537 505l-99 -505h-84l1 53c-49 -37 -102 -63 -154 -63c-106 0 -165 81 -165 190c0 19 1 33 4 51l5 26c31 169 169 248 314 248h178zM137 190c0 -61 29 -103 88 -103c49 0 89 20 139 60l52 264h-66 c-112 0 -186 -58 -207 -170l-3 -15c-2 -13 -3 -22 -3 -36z"/>
    <glyph glyph-name="adieresis" unicode="ä" horiz-adv-x="553" d="M274 600c-33 0 -54 21 -54 52c0 42 26 68 63 68c33 0 53 -20 53 -52c0 -41 -27 -68 -62 -68zM458 600c-34 0 -54 21 -54 52c0 42 27 68 63 68c33 0 53 -20 53 -52c0 -41 -27 -68 -62 -68zM537 505l-99 -505h-84l1 53c-49 -37 -102 -63 -154 -63c-106 0 -165 81 -165 190 c0 19 1 33 4 51l5 26c31 169 169 248 314 248h178zM137 190c0 -61 29 -103 88 -103c49 0 89 20 139 60l52 264h-66c-112 0 -186 -58 -207 -170l-3 -15c-2 -13 -3 -22 -3 -36z"/>
    <glyph glyph-name="agrave" unicode="à" horiz-adv-x="553" d="M431 593h-96l-120 134h109zM537 505l-99 -505h-84l1 53c-49 -37 -102 -63 -154 -63c-106 0 -165 81 -165 190c0 19 1 33 4 51l5 26c31 169 169 248 314 248h178zM137 190c0 -61 29 -103 88 -103c49 0 89 20 139 60l52 264h-66c-112 0 -186 -58 -207 -170l-3 -15 c-2 -13 -3 -22 -3 -36z"/>
    <glyph glyph-name="amacron" unicode="ā" horiz-adv-x="553" d="M513 700l-16 -83h-267l16 83h267zM537 505l-99 -505h-84l1 53c-49 -37 -102 -63 -154 -63c-106 0 -165 81 -165 190c0 19 1 33 4 51l5 26c31 169 169 248 314 248h178zM137 190c0 -61 29 -103 88 -103c49 0 89 20 139 60l52 264h-66c-112 0 -186 -58 -207 -170l-3 -15 c-2 -13 -3 -22 -3 -36z"/>
    <glyph glyph-name="aring" unicode="å" horiz-adv-x="553" d="M377 584c-58 0 -108 46 -108 108c0 60 52 105 108 105c59 0 108 -45 108 -105c0 -62 -50 -108 -108 -108zM377 741c-29 0 -48 -20 -48 -50s20 -50 48 -50s48 20 48 50s-21 50 -48 50zM537 505l-99 -505h-84l1 53c-49 -37 -102 -63 -154 -63c-106 0 -165 81 -165 190 c0 19 1 33 4 51l5 26c31 169 169 248 314 248h178zM137 190c0 -61 29 -103 88 -103c49 0 89 20 139 60l52 264h-66c-112 0 -186 -58 -207 -170l-3 -15c-2 -13 -3 -22 -3 -36z"/>
    <glyph glyph-name="atilde" unicode="ã" horiz-adv-x="553" d="M308 653c-26 0 -44 -19 -51 -47h-70c13 78 58 122 119 122c30 0 51 -15 72 -30c18 -12 34 -24 54 -24c23 0 42 15 50 46h70c-11 -73 -59 -121 -119 -121c-32 0 -53 15 -72 28c-18 13 -34 26 -53 26zM537 505l-99 -505h-84l1 53c-49 -37 -102 -63 -154 -63 c-106 0 -165 81 -165 190c0 19 1 33 4 51l5 26c31 169 169 248 314 248h178zM137 190c0 -61 29 -103 88 -103c49 0 89 20 139 60l52 264h-66c-112 0 -186 -58 -207 -170l-3 -15c-2 -13 -3 -22 -3 -36z"/>
    <glyph glyph-name="ae" unicode="æ" horiz-adv-x="847" d="M629 213l-153 -12v-10c0 -70 43 -112 113 -112c50 0 99 8 145 24l-17 -89c-44 -16 -90 -26 -140 -26c-63 0 -110 28 -139 69l-11 -57h-77l1 53c-49 -38 -101 -63 -152 -63c-106 0 -163 81 -163 190c0 19 1 33 4 51l5 26c31 169 171 248 314 248h160l-11 -55 c45 41 102 65 164 65c100 0 154 -62 154 -136c0 -105 -76 -157 -197 -166zM662 428c-79 0 -144 -50 -172 -144l134 11c66 6 106 24 106 76c0 34 -23 57 -68 57zM137 190c0 -61 26 -103 85 -103c50 0 87 20 137 60l52 264h-64c-110 0 -183 -58 -204 -170l-3 -15 c-2 -13 -3 -22 -3 -36z"/>
    <glyph glyph-name="b" unicode="b" horiz-adv-x="554" d="M351 515c106 0 166 -85 166 -191c0 -16 -2 -31 -5 -49l-4 -27c-27 -164 -166 -248 -312 -248h-180l136 701h103l-46 -239c45 32 94 53 142 53zM411 281c2 12 3 23 3 32c0 60 -27 105 -86 105c-51 0 -89 -19 -139 -56l-52 -268h65c111 0 193 65 207 172z"/>
    <glyph glyph-name="c" unicode="c" horiz-adv-x="446" d="M238 -12c-127 0 -200 91 -200 205c0 15 1 32 4 50l5 25c25 148 149 247 284 247c40 0 79 -10 115 -28l-18 -85c-29 10 -51 18 -93 18c-92 0 -167 -60 -187 -161l-3 -16c-2 -12 -3 -23 -3 -39c0 -75 44 -121 115 -121c48 0 84 9 128 26l-18 -93c-44 -19 -87 -28 -129 -28z "/>
    <glyph glyph-name="cacute" unicode="ć" horiz-adv-x="446" d="M244 593l160 134h119l-174 -134h-105zM238 -12c-127 0 -200 91 -200 205c0 15 1 32 4 50l5 25c25 148 149 247 284 247c40 0 79 -10 115 -28l-18 -85c-29 10 -51 18 -93 18c-92 0 -167 -60 -187 -161l-3 -16c-2 -12 -3 -23 -3 -39c0 -75 44 -121 115 -121 c48 0 84 9 128 26l-18 -93c-44 -19 -87 -28 -129 -28z"/>
    <glyph glyph-name="ccaron" unicode="č" horiz-adv-x="446" d="M274 593l-86 143h84l55 -85l93 85h87l-142 -143h-91zM238 -12c-127 0 -200 91 -200 205c0 15 1 32 4 50l5 25c25 148 149 247 284 247c40 0 79 -10 115 -28l-18 -85c-29 10 -51 18 -93 18c-92 0 -167 -60 -187 -161l-3 -16c-2 -12 -3 -23 -3 -39c0 -75 44 -121 115 -121 c48 0 84 9 128 26l-18 -93c-44 -19 -87 -28 -129 -28z"/>
    <glyph glyph-name="ccedilla" unicode="ç" horiz-adv-x="446" d="M148 259l-3 -16c-2 -12 -3 -23 -3 -39c0 -75 44 -121 115 -121c48 0 84 9 128 26l-18 -93c-34 -15 -67 -23 -100 -27c6 -12 9 -27 9 -43c0 -74 -61 -124 -137 -124c-31 0 -58 7 -83 20l13 63c15 -7 33 -10 49 -10c52 0 79 29 79 72c0 9 -1 17 -5 25 c-98 19 -154 101 -154 201c0 15 1 32 4 50l5 25c25 148 149 247 284 247c40 0 79 -10 115 -28l-18 -85c-29 10 -51 18 -93 18c-92 0 -167 -60 -187 -161z"/>
    <glyph glyph-name="cdotaccent" unicode="ċ" horiz-adv-x="446" d="M327 592c-35 0 -57 23 -57 56c0 45 30 73 69 73c35 0 58 -22 58 -55c0 -44 -31 -74 -70 -74zM238 -12c-127 0 -200 91 -200 205c0 15 1 32 4 50l5 25c25 148 149 247 284 247c40 0 79 -10 115 -28l-18 -85c-29 10 -51 18 -93 18c-92 0 -167 -60 -187 -161l-3 -16 c-2 -12 -3 -23 -3 -39c0 -75 44 -121 115 -121c48 0 84 9 128 26l-18 -93c-44 -19 -87 -28 -129 -28z"/>
    <glyph glyph-name="d" unicode="d" horiz-adv-x="552" d="M473 701h102l-136 -701h-84l1 53c-50 -37 -103 -63 -155 -63c-106 0 -165 81 -165 190c0 19 1 33 4 51l5 26c31 169 169 248 314 248h76zM137 190c0 -61 29 -103 88 -103c49 0 89 20 140 60l51 264h-66c-112 0 -186 -58 -207 -170l-3 -15c-2 -13 -3 -22 -3 -36z"/>
    <glyph glyph-name="eth" unicode="ð" horiz-adv-x="556" d="M618 684l-14 -75l-104 -25c17 -55 28 -117 28 -178c0 -33 -3 -71 -10 -105l-6 -35c-34 -174 -146 -278 -280 -278c-130 0 -195 81 -195 192c0 12 1 28 4 44l4 30c19 136 128 229 269 229c41 0 80 -11 111 -27c-2 37 -8 73 -16 106l-149 -35l14 75l114 27 c-10 26 -22 50 -34 72h93c10 -15 19 -32 28 -51zM410 270l5 29c4 22 6 43 8 64c-27 16 -66 28 -108 28c-94 0 -155 -57 -170 -147l-4 -19c-2 -14 -3 -26 -3 -38c0 -63 33 -103 98 -103c86 0 153 61 174 186z"/>
    <glyph glyph-name="e" unicode="e" horiz-adv-x="506" d="M288 211l-153 -12v-8c0 -69 35 -111 113 -111c49 0 100 8 145 24l-17 -90c-43 -16 -90 -26 -140 -26c-130 0 -198 78 -198 197c0 18 1 39 5 58l4 26c27 153 150 246 277 246c105 0 161 -61 161 -136c0 -104 -76 -159 -197 -168zM321 427c-78 0 -146 -53 -172 -143l134 11 c62 5 106 26 106 76c0 34 -23 56 -68 56z"/>
    <glyph glyph-name="eacute" unicode="é" horiz-adv-x="506" d="M538 727l-174 -134h-105l160 134h119zM324 515c105 0 161 -61 161 -136c0 -104 -76 -159 -197 -168l-153 -12v-8c0 -69 35 -111 113 -111c49 0 100 8 145 24l-17 -90c-43 -16 -90 -26 -140 -26c-130 0 -198 78 -198 197c0 18 1 39 5 58l4 26c27 153 150 246 277 246z M283 295c62 5 106 26 106 76c0 34 -23 56 -68 56c-78 0 -146 -53 -172 -143z"/>
    <glyph glyph-name="ecaron" unicode="ě" horiz-adv-x="506" d="M381 593h-91l-86 143h84l55 -85l93 85h87zM324 515c105 0 161 -61 161 -136c0 -104 -76 -159 -197 -168l-153 -12v-8c0 -69 35 -111 113 -111c49 0 100 8 145 24l-17 -90c-43 -16 -90 -26 -140 -26c-130 0 -198 78 -198 197c0 18 1 39 5 58l4 26c27 153 150 246 277 246z M283 295c62 5 106 26 106 76c0 34 -23 56 -68 56c-78 0 -146 -53 -172 -143z"/>
    <glyph glyph-name="ecircumflex" unicode="ê" horiz-adv-x="506" d="M354 678l-92 -85h-88l143 143h91l86 -143h-84zM324 515c105 0 161 -61 161 -136c0 -104 -76 -159 -197 -168l-153 -12v-8c0 -69 35 -111 113 -111c49 0 100 8 145 24l-17 -90c-43 -16 -90 -26 -140 -26c-130 0 -198 78 -198 197c0 18 1 39 5 58l4 26 c27 153 150 246 277 246zM283 295c62 5 106 26 106 76c0 34 -23 56 -68 56c-78 0 -146 -53 -172 -143z"/>
    <glyph glyph-name="edieresis" unicode="ë" horiz-adv-x="506" d="M251 600c-33 0 -54 21 -54 52c0 42 26 68 63 68c33 0 53 -20 53 -52c0 -41 -27 -68 -62 -68zM435 600c-34 0 -54 21 -54 52c0 42 27 68 63 68c33 0 53 -20 53 -52c0 -41 -27 -68 -62 -68zM324 515c105 0 161 -61 161 -136c0 -104 -76 -159 -197 -168l-153 -12v-8 c0 -69 35 -111 113 -111c49 0 100 8 145 24l-17 -90c-43 -16 -90 -26 -140 -26c-130 0 -198 78 -198 197c0 18 1 39 5 58l4 26c27 153 150 246 277 246zM283 295c62 5 106 26 106 76c0 34 -23 56 -68 56c-78 0 -146 -53 -172 -143z"/>
    <glyph glyph-name="edotaccent" unicode="ė" horiz-adv-x="506" d="M343 592c-35 0 -57 23 -57 56c0 45 30 73 69 73c35 0 58 -22 58 -55c0 -44 -31 -74 -70 -74zM288 211l-153 -12v-8c0 -69 35 -111 113 -111c49 0 100 8 145 24l-17 -90c-43 -16 -90 -26 -140 -26c-130 0 -198 78 -198 197c0 18 1 39 5 58l4 26c27 153 150 246 277 246 c105 0 161 -61 161 -136c0 -104 -76 -159 -197 -168zM321 427c-78 0 -146 -53 -172 -143l134 11c62 5 106 26 106 76c0 34 -23 56 -68 56z"/>
    <glyph glyph-name="egrave" unicode="è" horiz-adv-x="506" d="M408 593h-96l-120 134h109zM288 211l-153 -12v-8c0 -69 35 -111 113 -111c49 0 100 8 145 24l-17 -90c-43 -16 -90 -26 -140 -26c-130 0 -198 78 -198 197c0 18 1 39 5 58l4 26c27 153 150 246 277 246c105 0 161 -61 161 -136c0 -104 -76 -159 -197 -168zM321 427 c-78 0 -146 -53 -172 -143l134 11c62 5 106 26 106 76c0 34 -23 56 -68 56z"/>
    <glyph glyph-name="emacron" unicode="ē" horiz-adv-x="506" d="M490 700l-16 -83h-267l16 83h267zM324 515c105 0 161 -61 161 -136c0 -104 -76 -159 -197 -168l-153 -12v-8c0 -69 35 -111 113 -111c49 0 100 8 145 24l-17 -90c-43 -16 -90 -26 -140 -26c-130 0 -198 78 -198 197c0 18 1 39 5 58l4 26c27 153 150 246 277 246zM283 295 c62 5 106 26 106 76c0 34 -23 56 -68 56c-78 0 -146 -53 -172 -143z"/>
    <glyph glyph-name="f" unicode="f" horiz-adv-x="402" d="M22 0l99 510c26 135 117 205 223 205c42 0 80 -9 114 -25l-19 -78c-23 8 -46 15 -83 15c-67 0 -117 -31 -132 -111l-2 -11h190l-18 -95h-190l-79 -410h-103z"/>
    <glyph glyph-name="g" unicode="g" horiz-adv-x="548" d="M531 505l-93 -483c-29 -147 -130 -228 -283 -228c-57 0 -112 13 -159 35l17 82c40 -15 87 -25 141 -25c101 0 165 47 185 151l5 27c-46 -31 -95 -52 -142 -52c-105 0 -168 77 -168 182c0 18 2 33 5 54l5 26c31 166 170 231 316 231h171zM224 106c50 0 89 20 140 57 l48 248h-62c-110 0 -188 -41 -207 -152l-3 -16c-2 -12 -3 -28 -3 -38c0 -58 29 -99 87 -99z"/>
    <glyph glyph-name="gdotaccent" unicode="ġ" horiz-adv-x="548" d="M368 592c-35 0 -57 23 -57 56c0 45 30 73 69 73c35 0 58 -22 58 -55c0 -44 -31 -74 -70 -74zM531 505l-93 -483c-29 -147 -130 -228 -283 -228c-57 0 -112 13 -159 35l17 82c40 -15 87 -25 141 -25c101 0 165 47 185 151l5 27c-46 -31 -95 -52 -142 -52 c-105 0 -168 77 -168 182c0 18 2 33 5 54l5 26c31 166 170 231 316 231h171zM224 106c50 0 89 20 140 57l48 248h-62c-110 0 -188 -41 -207 -152l-3 -16c-2 -12 -3 -28 -3 -38c0 -58 29 -99 87 -99z"/>
    <glyph glyph-name="h" unicode="h" horiz-adv-x="554" d="M310 515c120 0 193 -74 193 -188c0 -24 -2 -39 -6 -60l-52 -267h-103l49 255c4 19 7 37 7 55c0 66 -33 109 -103 109c-33 0 -70 -4 -97 -10l-79 -409h-103l136 701h103l-38 -196c31 6 64 10 93 10z"/>
    <glyph glyph-name="i" unicode="i" horiz-adv-x="238" d="M189 591c-37 0 -60 24 -60 58c0 44 31 73 71 73c36 0 60 -24 60 -58c0 -44 -31 -73 -71 -73zM18 0l98 505h104l-98 -505h-104z"/>
    <glyph glyph-name="dotlessi" unicode="ı" horiz-adv-x="238" d="M18 0l98 505h104l-98 -505h-104z"/>
    <glyph glyph-name="iacute" unicode="í" horiz-adv-x="238" d="M102 593l160 134h119l-174 -134h-105zM18 0l98 505h104l-98 -505h-104z"/>
    <glyph glyph-name="icircumflex" unicode="î" horiz-adv-x="238" d="M17 593l143 143h91l86 -143h-84l-56 85l-92 -85h-88zM18 0l98 505h104l-98 -505h-104z"/>
    <glyph glyph-name="idieresis" unicode="ï" horiz-adv-x="238" d="M93 600c-33 0 -54 21 -54 52c0 42 26 68 63 68c33 0 53 -20 53 -52c0 -41 -27 -68 -62 -68zM277 600c-34 0 -54 21 -54 52c0 42 27 68 63 68c33 0 53 -20 53 -52c0 -41 -27 -68 -62 -68zM18 0l98 505h104l-98 -505h-104z"/>
    <glyph glyph-name="i.loclTRK" horiz-adv-x="238" d="M185 592c-35 0 -57 23 -57 56c0 45 30 73 69 73c35 0 58 -22 58 -55c0 -44 -31 -74 -70 -74zM18 0l98 505h104l-98 -505h-104z"/>
    <glyph glyph-name="igrave" unicode="ì" horiz-adv-x="238" d="M155 593l-120 134h109l107 -134h-96zM18 0l98 505h104l-98 -505h-104z"/>
    <glyph glyph-name="ij" unicode="ĳ" horiz-adv-x="476" d="M189 591c-37 0 -60 24 -60 58c0 44 31 73 71 73c36 0 60 -24 60 -58c0 -44 -31 -73 -71 -73zM427 591c-37 0 -60 24 -60 58c0 44 31 73 71 73c37 0 61 -24 61 -58c0 -44 -32 -73 -72 -73zM18 0l98 505h104l-98 -505h-104zM160 -206c-37 0 -77 12 -99 25l15 79 c19 -7 43 -12 69 -12c59 0 97 37 109 100l101 519h104l-100 -514c-24 -123 -100 -197 -199 -197z"/>
    <glyph glyph-name="imacron" unicode="ī" horiz-adv-x="238" d="M65 700h267l-16 -83h-267zM18 0l98 505h104l-98 -505h-104z"/>
    <glyph glyph-name="j" unicode="j" horiz-adv-x="238" d="M189 591c-37 0 -60 24 -60 58c0 44 31 73 71 73c37 0 61 -24 61 -58c0 -44 -32 -73 -72 -73zM-78 -206c-37 0 -77 12 -99 25l15 79c19 -7 43 -12 69 -12c59 0 97 37 109 100l101 519h104l-100 -514c-24 -123 -100 -197 -199 -197z"/>
    <glyph glyph-name="k" unicode="k" horiz-adv-x="510" d="M536 505l-272 -239l188 -266h-123l-164 236l-46 -236h-103l136 701h103l-78 -403l231 207h128z"/>
    <glyph glyph-name="l" unicode="l" horiz-adv-x="234" d="M16 0l136 701h103l-136 -701h-103z"/>
    <glyph glyph-name="m" unicode="m" horiz-adv-x="827" d="M602 515c118 0 176 -70 176 -178c0 -20 -2 -43 -7 -69l-53 -268h-103l50 258c5 23 8 50 8 68c0 60 -27 93 -88 93c-45 0 -84 -12 -114 -25c6 -21 9 -44 9 -69c0 -18 -2 -44 -6 -66l-51 -259h-103l50 258c5 25 8 46 8 68c0 58 -24 93 -85 93c-32 0 -68 -5 -95 -11 l-79 -408h-103l95 488c63 16 132 27 192 27c52 0 94 -17 124 -46c55 25 119 46 175 46z"/>
    <glyph glyph-name="n" unicode="n" horiz-adv-x="554" d="M16 0l95 489c63 16 130 26 196 26c125 0 196 -74 196 -188c0 -24 -2 -39 -6 -60l-52 -267h-103l49 255c4 19 7 37 7 55c0 66 -33 109 -103 109c-34 0 -70 -4 -97 -10l-79 -409h-103z"/>
    <glyph glyph-name="nacute" unicode="ń" horiz-adv-x="554" d="M248 593l160 134h119l-174 -134h-105zM16 0l95 489c63 16 130 26 196 26c125 0 196 -74 196 -188c0 -24 -2 -39 -6 -60l-52 -267h-103l49 255c4 19 7 37 7 55c0 66 -33 109 -103 109c-34 0 -70 -4 -97 -10l-79 -409h-103z"/>
    <glyph glyph-name="ncaron" unicode="ň" horiz-adv-x="554" d="M279 593l-86 143h84l55 -85l93 85h87l-142 -143h-91zM16 0l95 489c63 16 130 26 196 26c125 0 196 -74 196 -188c0 -24 -2 -39 -6 -60l-52 -267h-103l49 255c4 19 7 37 7 55c0 66 -33 109 -103 109c-34 0 -70 -4 -97 -10l-79 -409h-103z"/>
    <glyph glyph-name="ntilde" unicode="ñ" horiz-adv-x="554" d="M399 599c-32 0 -53 15 -72 28c-18 13 -34 26 -53 26c-26 0 -44 -19 -51 -47h-70c13 78 58 122 119 122c30 0 51 -15 72 -30c18 -12 34 -24 54 -24c23 0 42 15 50 46h70c-11 -73 -59 -121 -119 -121zM16 0l95 489c63 16 130 26 196 26c125 0 196 -74 196 -188 c0 -24 -2 -39 -6 -60l-52 -267h-103l49 255c4 19 7 37 7 55c0 66 -33 109 -103 109c-34 0 -70 -4 -97 -10l-79 -409h-103z"/>
    <glyph glyph-name="o" unicode="o" horiz-adv-x="553" d="M237 -12c-126 0 -199 88 -199 206c0 16 1 34 5 51l6 32c27 136 129 238 266 238c126 0 199 -88 199 -206c0 -16 -1 -34 -4 -51l-7 -32c-26 -136 -130 -238 -266 -238zM244 83c82 0 143 63 161 160l3 17c3 14 4 27 4 39c0 70 -35 121 -104 121c-81 0 -143 -63 -161 -160 l-3 -17c-3 -14 -4 -27 -4 -39c0 -70 35 -121 104 -121z"/>
    <glyph glyph-name="oacute" unicode="ó" horiz-adv-x="553" d="M256 594l160 134h119l-174 -134h-105zM237 -12c-126 0 -199 88 -199 206c0 16 1 34 5 51l6 32c27 136 129 238 266 238c126 0 199 -88 199 -206c0 -16 -1 -34 -4 -51l-7 -32c-26 -136 -130 -238 -266 -238zM244 83c82 0 143 63 161 160l3 17c3 14 4 27 4 39 c0 70 -35 121 -104 121c-81 0 -143 -63 -161 -160l-3 -17c-3 -14 -4 -27 -4 -39c0 -70 35 -121 104 -121z"/>
    <glyph glyph-name="ocircumflex" unicode="ô" horiz-adv-x="553" d="M171 594l143 143h91l86 -143h-84l-56 85l-92 -85h-88zM237 -12c-126 0 -199 88 -199 206c0 16 1 34 5 51l6 32c27 136 129 238 266 238c126 0 199 -88 199 -206c0 -16 -1 -34 -4 -51l-7 -32c-26 -136 -130 -238 -266 -238zM244 83c82 0 143 63 161 160l3 17 c3 14 4 27 4 39c0 70 -35 121 -104 121c-81 0 -143 -63 -161 -160l-3 -17c-3 -14 -4 -27 -4 -39c0 -70 35 -121 104 -121z"/>
    <glyph glyph-name="odieresis" unicode="ö" horiz-adv-x="553" d="M248 601c-33 0 -54 21 -54 52c0 42 26 68 63 68c33 0 53 -20 53 -52c0 -41 -27 -68 -62 -68zM432 601c-34 0 -54 21 -54 52c0 42 27 68 63 68c33 0 53 -20 53 -52c0 -41 -27 -68 -62 -68zM237 -12c-126 0 -199 88 -199 206c0 16 1 34 5 51l6 32c27 136 129 238 266 238 c126 0 199 -88 199 -206c0 -16 -1 -34 -4 -51l-7 -32c-26 -136 -130 -238 -266 -238zM244 83c82 0 143 63 161 160l3 17c3 14 4 27 4 39c0 70 -35 121 -104 121c-81 0 -143 -63 -161 -160l-3 -17c-3 -14 -4 -27 -4 -39c0 -70 35 -121 104 -121z"/>
    <glyph glyph-name="ograve" unicode="ò" horiz-adv-x="553" d="M309 594l-120 134h109l107 -134h-96zM237 -12c-126 0 -199 88 -199 206c0 16 1 34 5 51l6 32c27 136 129 238 266 238c126 0 199 -88 199 -206c0 -16 -1 -34 -4 -51l-7 -32c-26 -136 -130 -238 -266 -238zM244 83c82 0 143 63 161 160l3 17c3 14 4 27 4 39 c0 70 -35 121 -104 121c-81 0 -143 -63 -161 -160l-3 -17c-3 -14 -4 -27 -4 -39c0 -70 35 -121 104 -121z"/>
    <glyph glyph-name="omacron" unicode="ō" horiz-adv-x="553" d="M220 701h267l-16 -83h-267zM237 -12c-126 0 -199 88 -199 206c0 16 1 34 5 51l6 32c27 136 129 238 266 238c126 0 199 -88 199 -206c0 -16 -1 -34 -4 -51l-7 -32c-26 -136 -130 -238 -266 -238zM244 83c82 0 143 63 161 160l3 17c3 14 4 27 4 39c0 70 -35 121 -104 121 c-81 0 -143 -63 -161 -160l-3 -17c-3 -14 -4 -27 -4 -39c0 -70 35 -121 104 -121z"/>
    <glyph glyph-name="oslash" unicode="ø" horiz-adv-x="553" d="M591 551l-109 -121c21 -34 32 -75 32 -121c0 -16 -1 -34 -4 -51l-7 -32c-26 -136 -130 -238 -266 -238c-48 0 -89 13 -121 36l-65 -73h-90l109 122c-21 33 -32 75 -32 121c0 16 1 34 5 51l6 32c27 136 129 238 266 238c48 0 89 -13 121 -36l64 72h91zM140 204 c0 -17 2 -33 6 -47l221 246c-15 11 -35 17 -59 17c-81 0 -143 -63 -161 -160l-3 -17c-3 -14 -4 -27 -4 -39zM412 299c0 17 -2 32 -6 46l-221 -245c16 -11 35 -17 59 -17c82 0 143 63 161 160l3 17c3 14 4 27 4 39z"/>
    <glyph glyph-name="otilde" unicode="õ" horiz-adv-x="553" d="M407 600c-32 0 -53 15 -72 28c-18 13 -34 26 -53 26c-26 0 -44 -19 -51 -47h-70c13 78 58 122 119 122c30 0 51 -15 72 -30c18 -12 34 -24 54 -24c23 0 42 15 50 46h70c-11 -73 -59 -121 -119 -121zM237 -12c-126 0 -199 88 -199 206c0 16 1 34 5 51l6 32 c27 136 129 238 266 238c126 0 199 -88 199 -206c0 -16 -1 -34 -4 -51l-7 -32c-26 -136 -130 -238 -266 -238zM244 83c82 0 143 63 161 160l3 17c3 14 4 27 4 39c0 70 -35 121 -104 121c-81 0 -143 -63 -161 -160l-3 -17c-3 -14 -4 -27 -4 -39c0 -70 35 -121 104 -121z"/>
    <glyph glyph-name="oe" unicode="œ" horiz-adv-x="869" d="M652 213l-153 -12v-10c0 -70 35 -112 113 -112c50 0 99 8 144 24l-17 -89c-43 -16 -89 -26 -139 -26c-89 0 -150 37 -178 99c-45 -61 -110 -99 -189 -99c-122 0 -195 88 -195 206c0 16 1 34 5 51l6 32c27 136 126 238 263 238c81 0 134 -43 161 -106 c54 68 133 106 215 106c105 0 160 -61 160 -136c0 -105 -76 -157 -196 -166zM685 428c-79 0 -144 -50 -172 -144l133 11c67 6 107 24 107 76c0 34 -23 57 -68 57zM244 83c82 0 143 63 161 160l3 17c3 14 4 27 4 39c0 70 -35 121 -104 121c-81 0 -143 -63 -161 -160l-3 -17 c-3 -14 -4 -27 -4 -39c0 -70 35 -121 104 -121z"/>
    <glyph glyph-name="p" unicode="p" horiz-adv-x="556" d="M353 515c106 0 166 -85 166 -191c0 -16 -2 -31 -5 -49l-4 -27c-27 -164 -166 -248 -312 -248h-79l-38 -196h-103l136 701h91l-4 -50c49 36 101 60 152 60zM413 281c2 12 3 23 3 32c0 60 -27 105 -86 105c-52 0 -90 -20 -141 -58l-52 -266h67c111 0 193 65 207 172z"/>
    <glyph glyph-name="thorn" unicode="þ" horiz-adv-x="556" d="M353 515c106 0 166 -85 166 -191c0 -16 -2 -31 -5 -49l-4 -27c-27 -164 -166 -248 -312 -248h-79l-38 -196h-103l174 897h103l-47 -240c47 32 96 54 145 54zM413 281c2 12 3 23 3 32c0 60 -27 105 -86 105c-52 0 -90 -20 -141 -58l-52 -266h67c111 0 193 65 207 172z"/>
    <glyph glyph-name="q" unicode="q" horiz-adv-x="553" d="M537 505l-137 -701h-103l47 241c-46 -33 -95 -55 -143 -55c-106 0 -165 81 -165 190c0 19 1 33 4 51l5 26c31 169 169 248 314 248h178zM225 87c49 0 88 20 139 59l52 265h-66c-112 0 -186 -58 -207 -170l-3 -15c-2 -13 -3 -22 -3 -36c0 -61 29 -103 88 -103z"/>
    <glyph glyph-name="r" unicode="r" horiz-adv-x="370" d="M16 0l94 485c61 16 132 29 192 29c27 0 64 -3 82 -8l-18 -96c-20 4 -49 6 -72 6c-30 0 -66 -5 -97 -11l-78 -405h-103z"/>
    <glyph glyph-name="racute" unicode="ŕ" horiz-adv-x="370" d="M185 593l160 134h119l-174 -134h-105zM16 0l94 485c61 16 132 29 192 29c27 0 64 -3 82 -8l-18 -96c-20 4 -49 6 -72 6c-30 0 -66 -5 -97 -11l-78 -405h-103z"/>
    <glyph glyph-name="rcaron" unicode="ř" horiz-adv-x="370" d="M215 593l-86 143h84l55 -85l93 85h87l-142 -143h-91zM16 0l94 485c61 16 132 29 192 29c27 0 64 -3 82 -8l-18 -96c-20 4 -49 6 -72 6c-30 0 -66 -5 -97 -11l-78 -405h-103z"/>
    <glyph glyph-name="s" unicode="s" horiz-adv-x="471" d="M187 -12c-67 0 -132 21 -175 44l18 84c45 -19 102 -36 160 -36c66 0 110 17 110 64c0 31 -25 51 -79 69c-88 29 -145 68 -145 143c0 101 87 159 197 159c70 0 120 -18 164 -38l-18 -83c-51 19 -96 29 -144 29c-62 0 -98 -20 -98 -58c0 -29 23 -44 85 -68 c85 -32 142 -70 142 -146c0 -106 -85 -163 -217 -163z"/>
    <glyph glyph-name="sacute" unicode="ś" horiz-adv-x="471" d="M214 593l160 134h119l-174 -134h-105zM187 -12c-67 0 -132 21 -175 44l18 84c45 -19 102 -36 160 -36c66 0 110 17 110 64c0 31 -25 51 -79 69c-88 29 -145 68 -145 143c0 101 87 159 197 159c70 0 120 -18 164 -38l-18 -83c-51 19 -96 29 -144 29c-62 0 -98 -20 -98 -58 c0 -29 23 -44 85 -68c85 -32 142 -70 142 -146c0 -106 -85 -163 -217 -163z"/>
    <glyph glyph-name="scaron" unicode="š" horiz-adv-x="471" d="M244 593l-86 143h84l55 -85l93 85h87l-142 -143h-91zM187 -12c-67 0 -132 21 -175 44l18 84c45 -19 102 -36 160 -36c66 0 110 17 110 64c0 31 -25 51 -79 69c-88 29 -145 68 -145 143c0 101 87 159 197 159c70 0 120 -18 164 -38l-18 -83c-51 19 -96 29 -144 29 c-62 0 -98 -20 -98 -58c0 -29 23 -44 85 -68c85 -32 142 -70 142 -146c0 -106 -85 -163 -217 -163z"/>
    <glyph glyph-name="germandbls" unicode="ß" horiz-adv-x="617" d="M358 -12c-65 0 -116 15 -157 38l16 78c35 -16 85 -26 124 -26c72 0 114 27 114 84c0 40 -36 62 -72 82c-42 23 -90 42 -90 108c0 103 137 141 137 213c0 32 -29 53 -74 53c-76 0 -132 -59 -149 -148l-91 -470h-101l92 471c30 159 132 240 259 240c106 0 167 -52 167 -124 c0 -121 -142 -144 -142 -220c0 -33 43 -49 82 -75c39 -25 82 -58 82 -125c0 -108 -89 -179 -197 -179z"/>
    <glyph glyph-name="t" unicode="t" horiz-adv-x="381" d="M198 410l-40 -206c-3 -14 -4 -29 -4 -40c0 -50 22 -80 72 -80c31 0 58 2 91 12l-17 -88c-36 -13 -70 -19 -106 -19c-92 0 -144 63 -144 161c0 20 2 40 6 61l84 432h104l-27 -138h175l-19 -95h-175z"/>
    <glyph glyph-name="u" unicode="u" horiz-adv-x="549" d="M243 -10c-125 0 -193 74 -193 188c0 22 3 39 7 61l51 266h104l-50 -254c-4 -19 -6 -37 -6 -56c0 -66 29 -109 99 -109c34 0 68 5 95 11l79 408h104l-95 -489c-64 -16 -129 -26 -195 -26z"/>
    <glyph glyph-name="uacute" unicode="ú" horiz-adv-x="549" d="M256 593l160 134h119l-174 -134h-105zM243 -10c-125 0 -193 74 -193 188c0 22 3 39 7 61l51 266h104l-50 -254c-4 -19 -6 -37 -6 -56c0 -66 29 -109 99 -109c34 0 68 5 95 11l79 408h104l-95 -489c-64 -16 -129 -26 -195 -26z"/>
    <glyph glyph-name="ucircumflex" unicode="û" horiz-adv-x="549" d="M171 593l143 143h91l86 -143h-84l-56 85l-92 -85h-88zM243 -10c-125 0 -193 74 -193 188c0 22 3 39 7 61l51 266h104l-50 -254c-4 -19 -6 -37 -6 -56c0 -66 29 -109 99 -109c34 0 68 5 95 11l79 408h104l-95 -489c-64 -16 -129 -26 -195 -26z"/>
    <glyph glyph-name="udieresis" unicode="ü" horiz-adv-x="549" d="M248 600c-33 0 -54 21 -54 52c0 42 26 68 63 68c33 0 53 -20 53 -52c0 -41 -27 -68 -62 -68zM432 600c-34 0 -54 21 -54 52c0 42 27 68 63 68c33 0 53 -20 53 -52c0 -41 -27 -68 -62 -68zM243 -10c-125 0 -193 74 -193 188c0 22 3 39 7 61l51 266h104l-50 -254 c-4 -19 -6 -37 -6 -56c0 -66 29 -109 99 -109c34 0 68 5 95 11l79 408h104l-95 -489c-64 -16 -129 -26 -195 -26z"/>
    <glyph glyph-name="ugrave" unicode="ù" horiz-adv-x="549" d="M309 593l-120 134h109l107 -134h-96zM243 -10c-125 0 -193 74 -193 188c0 22 3 39 7 61l51 266h104l-50 -254c-4 -19 -6 -37 -6 -56c0 -66 29 -109 99 -109c34 0 68 5 95 11l79 408h104l-95 -489c-64 -16 -129 -26 -195 -26z"/>
    <glyph glyph-name="umacron" unicode="ū" horiz-adv-x="549" d="M220 700h267l-16 -83h-267zM243 -10c-125 0 -193 74 -193 188c0 22 3 39 7 61l51 266h104l-50 -254c-4 -19 -6 -37 -6 -56c0 -66 29 -109 99 -109c34 0 68 5 95 11l79 408h104l-95 -489c-64 -16 -129 -26 -195 -26z"/>
    <glyph glyph-name="uring" unicode="ů" horiz-adv-x="549" d="M350 584c-59 0 -109 46 -109 108c0 60 52 105 109 105c58 0 107 -45 107 -105c0 -62 -50 -108 -107 -108zM350 641c27 0 47 20 47 50s-21 50 -47 50c-29 0 -49 -20 -49 -50s21 -50 49 -50zM243 -10c-125 0 -193 74 -193 188c0 22 3 39 7 61l51 266h104l-50 -254 c-4 -19 -6 -37 -6 -56c0 -66 29 -109 99 -109c34 0 68 5 95 11l79 408h104l-95 -489c-64 -16 -129 -26 -195 -26z"/>
    <glyph glyph-name="v" unicode="v" horiz-adv-x="518" d="M436 505h118l-290 -505h-108l-93 505h116l52 -384z"/>
    <glyph glyph-name="w" unicode="w" horiz-adv-x="746" d="M126 0l-49 505h111l15 -372l165 358h99l28 -358l160 372h112l-244 -505h-99l-32 359l-166 -359h-100z"/>
    <glyph glyph-name="wacute" unicode="ẃ" horiz-adv-x="746" d="M350 593l160 134h119l-174 -134h-105zM126 0l-49 505h111l15 -372l165 358h99l28 -358l160 372h112l-244 -505h-99l-32 359l-166 -359h-100z"/>
    <glyph glyph-name="wcircumflex" unicode="ŵ" horiz-adv-x="746" d="M265 593l143 143h91l86 -143h-84l-56 85l-92 -85h-88zM126 0l-49 505h111l15 -372l165 358h99l28 -358l160 372h112l-244 -505h-99l-32 359l-166 -359h-100z"/>
    <glyph glyph-name="wdieresis" unicode="ẅ" horiz-adv-x="746" d="M341 600c-33 0 -54 21 -54 52c0 42 26 68 63 68c33 0 53 -20 53 -52c0 -41 -27 -68 -62 -68zM525 600c-34 0 -54 21 -54 52c0 42 27 68 63 68c33 0 53 -20 53 -52c0 -41 -27 -68 -62 -68zM126 0l-49 505h111l15 -372l165 358h99l28 -358l160 372h112l-244 -505h-99 l-32 359l-166 -359h-100z"/>
    <glyph glyph-name="wgrave" unicode="ẁ" horiz-adv-x="746" d="M403 593l-120 134h109l107 -134h-96zM126 0l-49 505h111l15 -372l165 358h99l28 -358l160 372h112l-244 -505h-99l-32 359l-166 -359h-100z"/>
    <glyph glyph-name="x" unicode="x" horiz-adv-x="536" d="M550 505l-223 -242l144 -263h-120l-98 192l-172 -192h-119l248 273l-130 232h119l82 -164l150 164h119z"/>
    <glyph glyph-name="y" unicode="y" horiz-adv-x="520" d="M46 -206c-31 0 -65 10 -85 23l16 79c20 -8 37 -10 61 -10c48 0 81 34 112 86l21 35l-107 498h115l64 -380l194 380h118l-307 -551c-63 -112 -120 -160 -202 -160z"/>
    <glyph glyph-name="yacute" unicode="ý" horiz-adv-x="520" d="M235 593l160 134h119l-174 -134h-105zM46 -206c-31 0 -65 10 -85 23l16 79c20 -8 37 -10 61 -10c48 0 81 34 112 86l21 35l-107 498h115l64 -380l194 380h118l-307 -551c-63 -112 -120 -160 -202 -160z"/>
    <glyph glyph-name="ycircumflex" unicode="ŷ" horiz-adv-x="520" d="M150 593l143 143h91l86 -143h-84l-56 85l-92 -85h-88zM46 -206c-31 0 -65 10 -85 23l16 79c20 -8 37 -10 61 -10c48 0 81 34 112 86l21 35l-107 498h115l64 -380l194 380h118l-307 -551c-63 -112 -120 -160 -202 -160z"/>
    <glyph glyph-name="ydieresis" unicode="ÿ" horiz-adv-x="520" d="M226 600c-33 0 -54 21 -54 52c0 42 26 68 63 68c33 0 53 -20 53 -52c0 -41 -27 -68 -62 -68zM410 600c-34 0 -54 21 -54 52c0 42 27 68 63 68c33 0 53 -20 53 -52c0 -41 -27 -68 -62 -68zM46 -206c-31 0 -65 10 -85 23l16 79c20 -8 37 -10 61 -10c48 0 81 34 112 86 l21 35l-107 498h115l64 -380l194 380h118l-307 -551c-63 -112 -120 -160 -202 -160z"/>
    <glyph glyph-name="ygrave" unicode="ỳ" horiz-adv-x="520" d="M288 593l-120 134h109l107 -134h-96zM46 -206c-31 0 -65 10 -85 23l16 79c20 -8 37 -10 61 -10c48 0 81 34 112 86l21 35l-107 498h115l64 -380l194 380h118l-307 -551c-63 -112 -120 -160 -202 -160z"/>
    <glyph glyph-name="z" unicode="z" horiz-adv-x="451" d="M-9 0l16 88l314 324h-242l18 93h361l-17 -88l-310 -324h254l-17 -93h-377z"/>
    <glyph glyph-name="zacute" unicode="ź" horiz-adv-x="451" d="M210 593l160 134h119l-174 -134h-105zM-9 0l16 88l314 324h-242l18 93h361l-17 -88l-310 -324h254l-17 -93h-377z"/>
    <glyph glyph-name="zcaron" unicode="ž" horiz-adv-x="451" d="M240 593l-86 143h84l55 -85l93 85h87l-142 -143h-91zM-9 0l16 88l314 324h-242l18 93h361l-17 -88l-310 -324h254l-17 -93h-377z"/>
    <glyph glyph-name="zdotaccent" unicode="ż" horiz-adv-x="451" d="M293 592c-35 0 -57 23 -57 56c0 45 30 73 69 73c35 0 58 -22 58 -55c0 -44 -31 -74 -70 -74zM-9 0l16 88l314 324h-242l18 93h361l-17 -88l-310 -324h254l-17 -93h-377z"/>
    <glyph glyph-name="ordfeminine" unicode="ª" horiz-adv-x="442" d="M474 709l-73 -370h-77v38c-36 -28 -75 -46 -112 -46c-80 0 -127 62 -127 143c0 20 1 26 3 37l3 17c23 121 124 181 235 181h148zM177 486c0 -42 23 -67 59 -67c34 0 61 13 96 40l33 167h-42c-74 0 -131 -36 -143 -110l-1 -11c-2 -8 -2 -13 -2 -19z"/>
    <glyph glyph-name="ordmasculine" unicode="º" horiz-adv-x="452" d="M254 333c-99 0 -159 68 -159 152c0 15 1 23 3 35l4 20c18 101 97 179 202 179c100 0 160 -69 160 -153c0 -11 -1 -22 -3 -33l-4 -21c-17 -100 -97 -179 -203 -179zM259 416c59 0 102 44 112 107l2 12c1 6 1 13 1 21c0 46 -27 80 -74 80c-59 0 -103 -44 -113 -106l-2 -13 c-1 -6 -1 -14 -1 -21c0 -47 28 -80 75 -80z"/>
    <glyph glyph-name="zero" unicode="0" horiz-adv-x="572" d="M246 -12c-123 0 -188 95 -188 223c0 21 3 66 10 103l8 38c38 186 145 325 289 325c123 0 189 -94 189 -221c0 -22 -2 -67 -10 -104l-9 -38c-40 -182 -143 -326 -289 -326zM256 90c83 0 147 94 175 234l5 29c8 37 13 73 13 102c0 77 -31 120 -93 120 c-82 0 -145 -94 -175 -232l-6 -29c-9 -40 -12 -75 -12 -103c0 -76 31 -121 93 -121z"/>
    <glyph glyph-name="one" unicode="1" horiz-adv-x="504" d="M311 95h135l-18 -95h-405l18 95h165l91 463l-184 -42l17 90l222 60h70z"/>
    <glyph glyph-name="two" unicode="2" horiz-adv-x="535" d="M318 226l-150 -131h273l-18 -95h-408l20 95l219 195c76 68 154 127 154 205c0 49 -38 81 -109 81c-66 0 -121 -14 -185 -37l17 96c58 25 124 42 191 42c124 0 192 -73 192 -167c0 -116 -87 -190 -196 -284z"/>
    <glyph glyph-name="three" unicode="3" horiz-adv-x="550" d="M385 350c57 -27 89 -78 89 -137c0 -137 -110 -225 -265 -225c-67 0 -141 20 -200 50l19 88c58 -24 116 -38 173 -38c104 0 169 43 169 121c0 50 -38 89 -111 89h-93l18 95h72c95 0 160 38 160 110c0 43 -36 74 -110 74c-65 0 -133 -14 -188 -33l18 94 c52 21 125 39 186 39c132 0 199 -70 199 -155c0 -84 -56 -143 -136 -172z"/>
    <glyph glyph-name="four" unicode="4" horiz-adv-x="570" d="M533 253l-18 -91h-92l-31 -162h-99l32 162h-298l18 91l378 413h98l-80 -413h92zM146 253h197l53 273z"/>
    <glyph glyph-name="five" unicode="5" horiz-adv-x="542" d="M214 -11c-84 0 -153 28 -200 51l18 87c56 -24 112 -40 176 -40c109 0 171 46 171 125c0 61 -43 95 -120 95h-158l103 359h324l-19 -97h-237l-49 -171h64c123 0 196 -71 196 -174c0 -143 -108 -235 -269 -235z"/>
    <glyph glyph-name="six" unicode="6" horiz-adv-x="558" d="M404 581c-112 0 -194 -68 -227 -200c47 17 95 28 144 28c107 0 182 -72 182 -176c0 -138 -93 -244 -237 -244c-129 0 -207 96 -207 227c0 44 4 70 11 108l5 26c39 205 172 327 319 327c54 0 108 -16 148 -39l-19 -84c-34 17 -76 27 -119 27zM407 219 c0 61 -37 102 -105 102c-51 0 -96 -10 -142 -28c-4 -27 -7 -50 -7 -74c0 -87 48 -137 121 -137c84 0 133 59 133 137z"/>
    <glyph glyph-name="seven" unicode="7" horiz-adv-x="542" d="M87 0l338 566h-318l20 100h436l-16 -85l-343 -581h-117z"/>
    <glyph glyph-name="eight" unicode="8" horiz-adv-x="579" d="M445 349c49 -32 77 -81 77 -138c0 -139 -116 -222 -266 -222c-126 0 -212 74 -212 170s59 165 143 200c-40 28 -64 70 -64 117c0 123 113 201 245 201c126 0 199 -69 199 -152c0 -82 -50 -143 -122 -176zM359 588c-74 0 -139 -37 -139 -109c0 -48 35 -85 102 -85 c79 0 143 40 143 111c0 49 -34 83 -106 83zM268 81c89 0 157 45 157 127c0 55 -39 100 -116 100c-91 0 -162 -45 -162 -130c0 -54 38 -97 121 -97z"/>
    <glyph glyph-name="nine" unicode="9" horiz-adv-x="556" d="M325 677c129 0 203 -98 203 -229c0 -33 -4 -65 -11 -108l-4 -24c-35 -210 -172 -327 -319 -327c-54 0 -108 15 -147 38l18 84c33 -16 78 -27 121 -27c115 0 192 70 224 201c-47 -17 -97 -28 -146 -28c-107 0 -180 75 -180 180c0 137 98 240 241 240zM180 451 c0 -62 39 -105 106 -105c50 0 97 10 140 26c5 27 7 44 7 75c0 86 -45 136 -117 136c-82 0 -136 -55 -136 -132z"/>
    <glyph glyph-name="zero.tf" d="M238 -12c-124 0 -189 95 -189 223c0 21 3 66 10 103l8 38c38 186 146 325 289 325c124 0 189 -94 189 -221c0 -22 -2 -67 -10 -104l-8 -38c-41 -182 -144 -326 -289 -326zM247 90c83 0 147 94 175 234l5 29c8 37 13 73 13 102c0 77 -31 120 -93 120 c-81 0 -144 -94 -175 -232l-6 -29c-8 -40 -11 -75 -11 -103c0 -76 30 -121 92 -121z"/>
    <glyph glyph-name="one.tf" d="M337 95h135l-19 -95h-405l19 95h164l91 463l-183 -42l16 90l222 60h71z"/>
    <glyph glyph-name="two.tf" d="M332 226l-150 -131h273l-18 -95h-408l19 95l220 195c76 68 153 127 153 205c0 49 -38 81 -109 81c-66 0 -121 -14 -185 -37l17 96c59 25 124 42 191 42c125 0 193 -73 193 -167c0 -116 -87 -190 -196 -284z"/>
    <glyph glyph-name="three.tf" d="M390 350c58 -27 90 -78 90 -137c0 -137 -110 -225 -266 -225c-66 0 -141 20 -199 50l19 88c57 -24 115 -38 173 -38c103 0 169 43 169 121c0 50 -39 89 -111 89h-93l18 95h72c95 0 160 38 160 110c0 43 -36 74 -111 74c-65 0 -132 -14 -188 -33l18 94 c53 21 125 39 187 39c131 0 199 -70 199 -155c0 -84 -56 -143 -137 -172z"/>
    <glyph glyph-name="four.tf" d="M526 253l-19 -91h-91l-31 -162h-99l32 162h-298l18 90l-1 1l378 413h99l-80 -413h92zM139 253h197l53 273z"/>
    <glyph glyph-name="five.tf" d="M221 -11c-83 0 -152 28 -200 51l18 87c57 -24 112 -40 176 -40c109 0 171 46 171 125c0 61 -42 95 -120 95h-158l104 359h324l-19 -97h-238l-48 -171h64c123 0 196 -71 196 -174c0 -143 -108 -235 -270 -235z"/>
    <glyph glyph-name="six.tf" d="M403 581c-113 0 -194 -68 -228 -200c47 17 96 28 145 28c107 0 181 -72 181 -176c0 -138 -93 -244 -237 -244c-128 0 -207 96 -207 227c0 44 4 70 11 108l5 26c40 205 173 327 320 327c54 0 108 -16 147 -39l-19 -84c-33 17 -75 27 -118 27zM406 219 c0 61 -37 102 -105 102c-51 0 -96 -10 -142 -28c-5 -27 -7 -50 -7 -74c0 -87 48 -137 121 -137c83 0 133 59 133 137z"/>
    <glyph glyph-name="seven.tf" d="M91 0l338 566h-318l20 100h436l-16 -85l-343 -581h-117z"/>
    <glyph glyph-name="eight.tf" d="M434 349c49 -32 77 -81 77 -138c0 -139 -116 -222 -266 -222c-126 0 -212 74 -212 170s59 165 143 200c-40 28 -64 70 -64 117c0 123 113 201 245 201c126 0 198 -69 198 -152c0 -82 -49 -143 -121 -176zM347 588c-74 0 -138 -37 -138 -109c0 -48 34 -85 102 -85 c78 0 142 40 142 111c0 49 -33 83 -106 83zM256 81c90 0 157 45 157 127c0 55 -39 100 -115 100c-91 0 -162 -45 -162 -130c0 -54 38 -97 120 -97z"/>
    <glyph glyph-name="nine.tf" d="M326 677c128 0 203 -98 203 -229c0 -33 -4 -65 -11 -108l-4 -24c-35 -210 -172 -327 -319 -327c-54 0 -108 15 -147 38l18 84c33 -16 78 -27 121 -27c115 0 192 70 224 201c-47 -17 -97 -28 -146 -28c-107 0 -180 75 -180 180c0 137 98 240 241 240zM181 451 c0 -62 38 -105 106 -105c50 0 97 10 140 26c5 27 7 44 7 75c0 86 -45 136 -117 136c-82 0 -136 -55 -136 -132z"/>
    <glyph glyph-name="uni2070" unicode="⁰" horiz-adv-x="418" d="M225 285c-93 0 -141 66 -141 147c0 13 1 27 4 41l3 20c17 96 96 183 191 183c91 0 141 -65 141 -144c0 -13 -1 -27 -4 -42l-4 -21c-19 -97 -93 -184 -190 -184zM228 366c49 0 89 48 102 111l3 14c2 13 3 25 3 34c0 43 -20 70 -58 70c-49 0 -88 -47 -101 -112l-3 -14 c-3 -13 -4 -24 -4 -33c0 -42 20 -70 58 -70z"/>
    <glyph glyph-name="uni00B9" unicode="¹" horiz-adv-x="390" d="M286 369h86l-14 -77h-281l15 77h108l41 213l-119 -22l14 73l151 37h58z"/>
    <glyph glyph-name="uni00B2" unicode="²" horiz-adv-x="392" d="M268 417l-71 -50h159l-14 -75h-280l15 75l133 99c55 42 95 64 95 95c0 26 -20 36 -61 36c-42 0 -84 -8 -130 -23l15 77c40 15 82 25 127 25c89 0 137 -46 137 -103c0 -66 -56 -109 -125 -156z"/>
    <glyph glyph-name="uni00B3" unicode="³" horiz-adv-x="430" d="M419 584c0 -45 -30 -76 -79 -92c35 -16 54 -46 54 -81c0 -76 -71 -126 -174 -126c-54 0 -103 13 -139 29l14 68c38 -14 75 -20 115 -20c61 0 100 19 100 51c0 23 -24 38 -70 38h-67l13 70h55c54 0 92 19 92 47c0 21 -22 32 -66 32c-42 0 -89 -5 -134 -19l15 72 c43 15 88 23 130 23c90 0 141 -39 141 -92z"/>
    <glyph glyph-name="uni2074" unicode="⁴" horiz-adv-x="397" d="M404 447l-14 -71h-60l-16 -84h-78l17 84h-193l14 71l238 223h75l-43 -223h60zM157 447h110l25 127z"/>
    <glyph glyph-name="fraction" unicode="⁄" horiz-adv-x="627" d="M-25 0l599 666h110l-600 -666h-109z"/>
    <glyph glyph-name="onehalf" unicode="½" horiz-adv-x="1008" d="M387 369l-15 -77h-280l15 77h108l41 213l-120 -22l14 73l152 37h57l-59 -301h87zM777 666h109l-599 -666h-110zM832 124l-71 -49h159l-15 -75h-279l15 75l132 99c56 42 95 64 95 95c0 26 -20 35 -61 35s-84 -7 -130 -22l15 77c40 15 83 25 128 25c88 0 136 -46 136 -104 c0 -66 -56 -108 -124 -156z"/>
    <glyph glyph-name="onequarter" unicode="¼" horiz-adv-x="952" d="M387 369l-15 -77h-280l15 77h108l41 213l-120 -22l14 73l152 37h57l-59 -301h87zM781 666h109l-600 -666h-109zM862 379l-43 -223h60l-14 -71h-60l-16 -84h-78l17 84h-193l14 71l238 223h75zM632 156h110l25 127z"/>
    <glyph glyph-name="threequarters" unicode="¾" horiz-adv-x="927" d="M397 411c0 -76 -72 -126 -175 -126c-53 0 -103 13 -139 29l14 68c38 -14 75 -20 115 -20c61 0 100 19 100 51c0 23 -23 38 -70 38h-67l13 70h55c54 0 92 19 92 47c0 21 -22 32 -66 32c-42 0 -89 -5 -134 -19l15 72c44 15 88 23 130 23c90 0 141 -39 141 -92 c0 -45 -30 -76 -79 -92c35 -16 55 -46 55 -81zM755 666h110l-600 -666h-109zM837 379l-43 -223h60l-14 -71h-60l-16 -84h-78l17 84h-193l14 71l238 223h75zM607 156h110l25 127z"/>
    <glyph glyph-name="period" unicode="." horiz-adv-x="228" d="M72 -10c-37 0 -58 26 -58 59c0 40 30 75 70 75c37 0 58 -25 58 -58c0 -40 -30 -76 -70 -76z"/>
    <glyph glyph-name="comma" unicode="," horiz-adv-x="228" d="M-41 -98l102 206h99l-112 -206h-89z"/>
    <glyph glyph-name="colon" unicode=":" horiz-adv-x="228" d="M147 379c-36 0 -58 25 -58 59c0 40 30 75 70 75c37 0 59 -25 59 -58c0 -41 -30 -76 -71 -76zM72 -10c-37 0 -58 26 -58 59c0 40 30 75 70 75c37 0 59 -25 59 -58c0 -40 -30 -76 -71 -76z"/>
    <glyph glyph-name="semicolon" unicode=";" horiz-adv-x="228" d="M156 379c-37 0 -58 25 -58 59c0 40 30 75 70 75c37 0 59 -25 59 -58c0 -41 -31 -76 -71 -76zM-46 -98l102 206h100l-113 -206h-89z"/>
    <glyph glyph-name="ellipsis" unicode="…" horiz-adv-x="698" d="M72 -10c-37 0 -58 26 -58 59c0 40 30 75 70 75c37 0 58 -25 58 -58c0 -40 -30 -76 -70 -76zM306 -10c-36 0 -58 26 -58 59c0 40 31 75 71 75c37 0 58 -25 58 -58c0 -40 -30 -76 -71 -76zM542 -10c-37 0 -58 26 -58 59c0 40 30 75 70 75c37 0 59 -25 59 -58 c0 -40 -31 -76 -71 -76z"/>
    <glyph glyph-name="exclam" unicode="!" horiz-adv-x="286" d="M84 199l83 477h116l-104 -477h-95zM104 -10c-36 0 -58 26 -58 59c0 40 30 75 71 75c37 0 58 -25 58 -58c0 -40 -30 -76 -71 -76z"/>
    <glyph glyph-name="exclamdown" unicode="¡" horiz-adv-x="286" d="M190 515c37 0 58 -25 58 -59c0 -40 -30 -75 -70 -75c-37 0 -59 25 -59 58c0 41 30 76 71 76zM210 306l-83 -477h-116l104 477h95z"/>
    <glyph glyph-name="question" unicode="?" horiz-adv-x="514" d="M183 199l31 159c118 29 192 71 192 148c0 53 -40 82 -115 82c-65 0 -124 -17 -188 -40l18 93c57 24 126 46 198 46c126 0 197 -69 197 -166c0 -117 -90 -183 -215 -221l-32 -101h-86zM200 -10c-36 0 -58 26 -58 59c0 40 30 75 71 75c37 0 58 -25 58 -58 c0 -40 -30 -76 -71 -76z"/>
    <glyph glyph-name="questiondown" unicode="¿" horiz-adv-x="509" d="M337 515c37 0 58 -25 58 -59c0 -40 -30 -75 -70 -75c-37 0 -58 25 -58 58c0 41 30 76 70 76zM355 306l-31 -159c-118 -29 -193 -71 -193 -148c0 -53 41 -82 116 -82c64 0 123 18 188 40l-18 -93c-57 -24 -126 -46 -199 -46c-125 0 -197 70 -197 166c0 117 90 183 216 221 l31 101h87z"/>
    <glyph glyph-name="periodcentered" unicode="·" horiz-adv-x="215" d="M121 263c-37 0 -58 25 -58 58c0 41 30 75 70 75c37 0 59 -25 59 -58c0 -40 -30 -75 -71 -75z"/>
    <glyph glyph-name="bullet" unicode="•" horiz-adv-x="342" d="M172 220c-62 0 -103 42 -103 102c0 76 63 137 135 137c61 0 102 -43 102 -101c0 -77 -63 -138 -134 -138z"/>
    <glyph glyph-name="asterisk" unicode="*" horiz-adv-x="463" d="M157 367l-52 56l114 99l-104 51l48 71l97 -53l21 128h82l-29 -128l115 53l21 -71l-123 -51l76 -100l-67 -55l-78 110z"/>
    <glyph glyph-name="numbersign" unicode="#" horiz-adv-x="684" d="M668 423h-113l-62 -176h114l-32 -94h-114l-54 -153h-94l54 153h-145l-54 -153h-93l54 153h-115l34 94h113l62 176h-116l33 94h116l52 149h94l-52 -149h145l52 149h93l-52 -149h112zM400 247l62 176h-145l-62 -176h145z"/>
    <glyph glyph-name="slash" unicode="/" horiz-adv-x="461" d="M-69 -130l515 901h110l-514 -901h-111z"/>
    <glyph glyph-name="backslash" unicode="\" horiz-adv-x="424" d="M261 -130l-164 901h101l164 -901h-101z"/>
    <glyph glyph-name="exclamdown.case" horiz-adv-x="286" d="M215 686c37 0 58 -26 58 -59c0 -40 -30 -75 -70 -75c-37 0 -59 25 -59 58c0 40 30 76 71 76zM235 477l-83 -477h-116l104 477h95z"/>
    <glyph glyph-name="questiondown.case" horiz-adv-x="520" d="M357 684c37 0 58 -25 58 -58c0 -41 -30 -75 -70 -75c-37 0 -58 25 -58 58c0 40 30 75 70 75zM374 476l-31 -160c-117 -28 -192 -70 -192 -147c0 -53 41 -82 115 -82c65 0 124 17 188 40l-17 -93c-57 -25 -127 -46 -199 -46c-125 0 -197 69 -197 166c0 117 90 182 216 221 l31 101h86z"/>
    <glyph glyph-name="slash.case" horiz-adv-x="462" d="M-66 -112l514 901h111l-514 -901h-111z"/>
    <glyph glyph-name="backslash.case" horiz-adv-x="423" d="M254 -112l-164 901h101l164 -901h-101z"/>
    <glyph glyph-name="parenleft" unicode="(" horiz-adv-x="365" d="M81 314l4 18c29 160 123 321 252 439h112c-130 -123 -230 -291 -260 -445l-4 -20c-8 -39 -12 -82 -12 -118c0 -115 33 -227 96 -319h-102c-63 89 -98 205 -98 325c0 41 5 80 12 120z"/>
    <glyph glyph-name="parenright" unicode=")" horiz-adv-x="359" d="M303 326l-3 -18c-30 -160 -123 -321 -253 -439h-111c129 123 229 291 260 445l4 20c8 39 11 82 11 118c0 115 -32 227 -95 319h102c63 -89 97 -205 97 -325c0 -41 -5 -80 -12 -120z"/>
    <glyph glyph-name="braceleft" unicode="{" horiz-adv-x="442" d="M264 -131c-101 0 -161 62 -161 160c0 21 2 38 5 55l14 68c2 11 3 20 3 34c0 51 -27 81 -76 92l17 87c62 13 109 59 123 131l13 67c26 131 113 208 230 208h86l-19 -92h-59c-75 0 -124 -46 -142 -133l-12 -63c-12 -55 -28 -116 -127 -167c47 -32 67 -73 67 -121 c0 -17 -3 -32 -5 -47l-12 -62c-3 -15 -5 -31 -5 -43c0 -59 33 -82 89 -82h67l-17 -92h-79z"/>
    <glyph glyph-name="braceright" unicode="}" horiz-adv-x="438" d="M209 771c102 0 161 -62 161 -160c0 -21 -2 -38 -5 -55l-13 -68c-2 -11 -4 -20 -4 -35c0 -50 28 -80 77 -91l-17 -87c-63 -13 -109 -60 -123 -131l-13 -67c-26 -131 -114 -208 -231 -208h-86l19 92h60c74 0 124 45 141 133l13 63c11 55 28 115 127 167 c-48 32 -68 72 -68 121c0 16 3 32 6 46l12 63c3 15 4 31 4 43c0 59 -32 82 -89 82h-67l18 92h78z"/>
    <glyph glyph-name="bracketleft" unicode="[" horiz-adv-x="415" d="M465 674h-194l-137 -708h193l-19 -97h-297l175 902h297z"/>
    <glyph glyph-name="bracketright" unicode="]" horiz-adv-x="407" d="M440 771l-175 -902h-297l18 97h194l137 708h-193l19 97h297z"/>
    <glyph glyph-name="parenleft.case" horiz-adv-x="371" d="M81 332l4 18c29 160 123 321 252 439h112c-130 -123 -230 -291 -260 -445l-4 -20c-8 -39 -12 -82 -12 -118c0 -115 33 -227 96 -319h-102c-63 89 -98 205 -98 325c0 41 5 80 12 120z"/>
    <glyph glyph-name="parenright.case" horiz-adv-x="366" d="M306 344l-4 -18c-29 -160 -123 -321 -252 -439h-112c130 123 230 291 260 445l4 20c8 39 12 82 12 118c0 115 -33 227 -96 319h102c63 -89 98 -205 98 -325c0 -41 -5 -80 -12 -120z"/>
    <glyph glyph-name="braceleft.case" horiz-adv-x="446" d="M266 -113c-102 0 -161 62 -161 160c0 21 2 38 5 55l13 68c2 11 4 20 4 34c0 51 -28 81 -77 92l17 87c63 13 109 59 123 131l13 67c26 131 114 208 231 208h86l-19 -92h-60c-74 0 -124 -46 -141 -133l-13 -63c-11 -55 -28 -116 -127 -167c48 -32 68 -73 68 -121 c0 -17 -3 -32 -6 -47l-12 -62c-3 -15 -4 -31 -4 -43c0 -59 32 -82 89 -82h67l-18 -92h-78z"/>
    <glyph glyph-name="braceright.case" horiz-adv-x="445" d="M211 789c101 0 161 -62 161 -160c0 -21 -2 -38 -6 -55l-13 -68c-2 -11 -4 -20 -4 -35c0 -50 28 -80 77 -91l-17 -87c-63 -13 -109 -60 -123 -131l-13 -67c-26 -131 -113 -208 -231 -208h-85l18 92h60c75 0 124 45 141 133l13 63c11 55 28 115 127 167 c-48 32 -67 72 -67 121c0 16 2 32 5 46l12 63c3 15 4 31 4 43c0 59 -32 82 -88 82h-68l18 92h79z"/>
    <glyph glyph-name="bracketleft.case" horiz-adv-x="423" d="M465 692h-194l-137 -708h193l-18 -97h-298l175 902h298z"/>
    <glyph glyph-name="bracketright.case" horiz-adv-x="418" d="M441 789l-175 -902h-297l18 97h194l137 708h-193l19 97h297z"/>
    <glyph glyph-name="hyphen" unicode="-" horiz-adv-x="413" d="M51 228l19 100h302l-20 -100h-301z"/>
    <glyph glyph-name="uni00AD" unicode="&shy;" horiz-adv-x="413" d="M51 228l19 100h302l-20 -100h-301z"/>
    <glyph glyph-name="endash" unicode="–" horiz-adv-x="490" d="M-4 230l19 97h490l-19 -97h-490z"/>
    <glyph glyph-name="emdash" unicode="—" horiz-adv-x="980" d="M-4 230l19 97h980l-19 -97h-980z"/>
    <glyph glyph-name="underscore" unicode="_" horiz-adv-x="500" d="M-85 -182l19 93h500l-19 -93h-500z"/>
    <glyph glyph-name="hyphen.case" horiz-adv-x="418" d="M61 296l20 99h301l-19 -99h-302z"/>
    <glyph glyph-name="uni00AD.case" horiz-adv-x="418" d="M61 296l20 99h301l-19 -99h-302z"/>
    <glyph glyph-name="endash.case" horiz-adv-x="490" d="M9 297l19 97h490l-19 -97h-490z"/>
    <glyph glyph-name="emdash.case" horiz-adv-x="980" d="M9 297l19 97h980l-19 -97h-980z"/>
    <glyph glyph-name="quotesinglbase" unicode="‚" horiz-adv-x="228" d="M-35 -98l102 206h100l-113 -206h-89z"/>
    <glyph glyph-name="quotedblbase" unicode="„" horiz-adv-x="412" d="M-34 -92l101 205h100l-112 -205h-89zM151 -92l101 205h100l-112 -205h-89z"/>
    <glyph glyph-name="quotedblleft" unicode="“" horiz-adv-x="413" d="M299 711l-102 -206h-99l111 206h90zM484 711l-102 -206h-99l111 206h90z"/>
    <glyph glyph-name="quotedblright" unicode="”" horiz-adv-x="413" d="M79 505l102 206h99l-111 -206h-90zM264 505l102 206h99l-111 -206h-90z"/>
    <glyph glyph-name="quoteleft" unicode="‘" horiz-adv-x="228" d="M299 711l-102 -206h-99l111 206h90z"/>
    <glyph glyph-name="quoteright" unicode="’" horiz-adv-x="228" d="M79 505l102 206h99l-111 -206h-90z"/>
    <glyph glyph-name="guillemotleft" unicode="«" horiz-adv-x="525" d="M311 435l-159 -182l84 -174h-106l-89 178l156 178h114zM529 435l-159 -182l84 -174h-106l-89 178l156 178h114z"/>
    <glyph glyph-name="guillemotright" unicode="»" horiz-adv-x="525" d="M0 79l159 182l-84 174h106l89 -178l-156 -178h-114zM217 79l160 182l-84 174h106l89 -178l-156 -178h-115z"/>
    <glyph glyph-name="guilsinglleft" unicode="‹" horiz-adv-x="307" d="M311 435l-159 -182l84 -174h-106l-89 178l156 178h114z"/>
    <glyph glyph-name="guilsinglright" unicode="›" horiz-adv-x="307" d="M0 79l159 182l-84 174h106l89 -178l-156 -178h-114z"/>
    <glyph glyph-name="quotedbl" unicode="&quot;" horiz-adv-x="422" d="M105 448l51 263h97l-51 -263h-97zM297 448l51 263h96l-50 -263h-97z"/>
    <glyph glyph-name="quotesingle" unicode="'" horiz-adv-x="231" d="M105 448l51 263h97l-51 -263h-97z"/>
    <glyph glyph-name="guillemotleft.case" horiz-adv-x="525" d="M323 523l-159 -182l84 -174h-106l-90 178l157 178h114zM541 523l-159 -182l84 -174h-106l-90 178l157 178h114z"/>
    <glyph glyph-name="guillemotright.case" horiz-adv-x="529" d="M15 167l160 182l-85 174h106l90 -178l-156 -178h-115zM233 167l159 182l-84 174h106l90 -178l-157 -178h-114z"/>
    <glyph glyph-name="guilsinglleft.case" horiz-adv-x="307" d="M323 523l-159 -182l84 -174h-106l-90 178l157 178h114z"/>
    <glyph glyph-name="guilsinglright.case" horiz-adv-x="311" d="M15 167l160 182l-85 174h106l90 -178l-156 -178h-115z"/>
    <glyph glyph-name="uni2001" unicode=" " horiz-adv-x="980"/>
    <glyph glyph-name="uni2003" unicode="&emsp;" horiz-adv-x="980"/>
    <glyph glyph-name="uni2002" unicode="&ensp;" horiz-adv-x="490"/>
    <glyph glyph-name="uni2007" unicode=" " horiz-adv-x="555"/>
    <glyph glyph-name="uni2005" unicode=" " horiz-adv-x="588"/>
    <glyph glyph-name="uni200A" unicode="&hairsp;" horiz-adv-x="98"/>
    <glyph glyph-name="uni2008" unicode=" " horiz-adv-x="223"/>
    <glyph glyph-name="uni2006" unicode=" " horiz-adv-x="163"/>
    <glyph glyph-name="uni00A0" unicode="&nbsp;" horiz-adv-x="223"/>
    <glyph glyph-name="uni2009" unicode="&thinsp;" horiz-adv-x="196"/>
    <glyph glyph-name="uni2004" unicode=" " horiz-adv-x="326"/>
    <glyph glyph-name="cent" unicode="¢" d="M214 341l-3 -15c-3 -14 -4 -26 -4 -37c0 -73 48 -113 118 -113c46 0 86 8 129 24l-18 -93c-37 -16 -76 -24 -113 -27l-24 -121h-88l25 131c-83 26 -131 100 -131 188c0 15 2 31 4 47l4 24c21 122 113 209 222 233l24 121h88l-23 -116c31 -3 62 -13 89 -25l-18 -87 c-28 11 -53 17 -94 17c-92 0 -167 -51 -187 -151z"/>
    <glyph glyph-name="dollar" unicode="$" horiz-adv-x="559" d="M341 559c-77 0 -129 -25 -129 -81c0 -42 34 -66 116 -99c96 -39 148 -92 148 -171c0 -115 -80 -179 -201 -191l-26 -135h-88l27 136c-56 7 -113 26 -152 47l17 82c54 -24 117 -40 182 -40c80 0 140 28 140 93c0 41 -34 69 -114 101c-100 40 -148 87 -148 166 c0 108 89 174 200 183l23 120h89l-24 -125c44 -7 87 -22 119 -37l-16 -83c-54 21 -114 34 -163 34z"/>
    <glyph glyph-name="Euro" unicode="€" d="M470 582c-88 0 -164 -43 -210 -125h224l-34 -77h-220l-6 -27l-7 -38c-2 -11 -4 -21 -5 -31h199l-35 -77h-164c12 -78 63 -125 144 -125c57 0 99 11 142 25l-18 -89c-43 -19 -92 -29 -142 -29c-136 0 -215 92 -226 218h-86l15 77h71c1 12 3 24 5 36l8 42c1 6 2 12 4 18 h-69l15 77h79c58 134 177 218 311 218c49 0 98 -12 134 -31l-15 -81c-35 13 -68 19 -114 19z"/>
    <glyph glyph-name="sterling" unicode="£" d="M410 579c-99 0 -172 -56 -192 -159l-8 -39h256l-18 -95h-256l-37 -191h323l-18 -95h-427l81 416c32 162 146 261 289 261c70 0 128 -17 174 -43l-20 -87c-41 19 -82 32 -147 32z"/>
    <glyph glyph-name="yen" unicode="¥" d="M610 666l-221 -308h120l-14 -76h-155l-16 -83h154l-15 -77h-154l-23 -122h-106l24 122h-153l15 77h153l16 83h-153l14 76h121l-100 308h109l78 -285l199 285h107z"/>
    <glyph glyph-name="plus" unicode="+" d="M509 380l-19 -96h-153l-30 -152h-96l30 152h-155l19 96h154l30 153h96l-30 -153h154z"/>
    <glyph glyph-name="minus" unicode="−" d="M93 282l20 101h390l-20 -101h-390z"/>
    <glyph glyph-name="multiply" unicode="×" d="M495 447l-138 -118l89 -117l-78 -62l-87 114l-136 -116l-58 69l139 119l-89 116l78 62l87 -114l136 116z"/>
    <glyph glyph-name="divide" unicode="÷" d="M330 460c-38 0 -58 25 -58 58c0 40 28 74 69 74c37 0 58 -25 58 -59c0 -39 -29 -73 -69 -73zM90 283l19 98h397l-19 -98h-397zM255 73c-38 0 -58 24 -58 58c0 40 28 74 69 74c37 0 58 -26 58 -59c0 -40 -29 -73 -69 -73z"/>
    <glyph glyph-name="equal" unicode="=" d="M123 395l19 97h374l-19 -97h-374zM80 173l19 97h373l-19 -97h-373z"/>
    <glyph glyph-name="notequal" unicode="≠" d="M526 597l-72 -105h67l-19 -97h-114l-86 -125h175l-19 -97h-222l-72 -105h-94l72 105h-57l19 97h104l85 125h-165l19 97h212l72 105h95z"/>
    <glyph glyph-name="greater" unicode="&gt;" d="M78 112l19 101l283 123l-236 115l19 101l326 -175l-16 -90z"/>
    <glyph glyph-name="less" unicode="&lt;" d="M511 552l-19 -101l-283 -123l236 -115l-18 -101l-326 175l15 90z"/>
    <glyph glyph-name="greaterequal" unicode="≥" d="M87 163l19 97l281 110l-238 108l17 97l330 -162l-17 -88zM55 0l19 96h361l-19 -96h-361z"/>
    <glyph glyph-name="lessequal" unicode="≤" d="M438 163l-328 162l15 88l392 162l-17 -97l-282 -111l239 -107zM406 0h-361l19 96h361z"/>
    <glyph glyph-name="plusminus" unicode="±" d="M362 420h155l-18 -93h-155l-30 -154h-93l30 154h-156l18 93h156l30 155h93zM39 0l18 96h390l-19 -96h-389z"/>
    <glyph glyph-name="asciitilde" unicode="~" d="M391 247c-45 0 -77 25 -106 44c-25 17 -51 31 -71 31c-40 0 -69 -18 -83 -72h-91c23 101 79 169 165 169c44 0 74 -26 104 -45c25 -16 51 -31 73 -31c42 0 70 23 84 74h90c-22 -100 -79 -170 -165 -170z"/>
    <glyph glyph-name="logicalnot" unicode="¬" d="M353 174l32 158h-273l18 96h369l-49 -254h-97z"/>
    <glyph glyph-name="asciicircum" unicode="^" d="M95 383l221 293h96l106 -293h-100l-68 202l-152 -202h-103z"/>
    <glyph glyph-name="percent" unicode="%" horiz-adv-x="924" d="M231 285c-93 0 -141 66 -141 147c0 13 1 27 4 41l4 20c17 96 95 183 190 183c91 0 141 -65 141 -144c0 -13 -1 -27 -4 -42l-4 -21c-19 -97 -93 -184 -190 -184zM120 0l600 666h109l-600 -666h-109zM235 366c48 0 89 48 101 111l3 14c3 13 4 25 4 34c0 43 -21 70 -59 70 c-49 0 -88 -47 -101 -112l-3 -14c-2 -13 -3 -24 -3 -33c0 -42 20 -70 58 -70zM666 -12c-93 0 -141 66 -141 147c0 13 2 27 5 40l3 20c17 96 95 184 191 184c91 0 140 -65 140 -145c0 -12 -1 -26 -4 -42l-4 -20c-19 -97 -93 -184 -190 -184zM670 69c49 0 89 47 102 111l2 13 c3 14 4 26 4 35c0 43 -21 70 -58 70c-49 0 -88 -47 -102 -113l-2 -13c-3 -13 -4 -24 -4 -33c0 -43 20 -70 58 -70z"/>
    <glyph glyph-name="perthousand" unicode="‰" horiz-adv-x="1312" d="M231 285c-93 0 -141 66 -141 147c0 13 1 27 4 41l4 20c17 96 95 183 190 183c91 0 141 -65 141 -144c0 -13 -1 -27 -4 -42l-4 -21c-19 -97 -93 -184 -190 -184zM120 0l600 666h109l-600 -666h-109zM235 366c48 0 89 48 101 111l3 14c3 13 4 25 4 34c0 43 -21 70 -59 70 c-49 0 -88 -47 -101 -112l-3 -14c-2 -13 -3 -24 -3 -33c0 -42 20 -70 58 -70zM666 -12c-93 0 -141 66 -141 147c0 13 2 27 5 40l3 20c17 96 95 184 191 184c91 0 140 -65 140 -145c0 -12 -1 -26 -4 -42l-4 -20c-19 -97 -93 -184 -190 -184zM1054 -12c-93 0 -141 66 -141 147 c0 13 1 27 4 40l4 20c17 96 95 184 190 184c91 0 141 -65 141 -145c0 -12 -1 -26 -4 -42l-4 -20c-19 -97 -93 -184 -190 -184zM670 69c49 0 89 47 102 111l2 13c3 14 4 26 4 35c0 43 -21 70 -58 70c-49 0 -88 -47 -102 -113l-2 -13c-3 -13 -4 -24 -4 -33 c0 -43 20 -70 58 -70zM1058 69c48 0 89 47 101 111l3 13c3 14 4 26 4 35c0 43 -21 70 -59 70c-49 0 -88 -47 -101 -113l-3 -13c-2 -13 -3 -24 -3 -33c0 -43 20 -70 58 -70z"/>
    <glyph glyph-name="at" unicode="@" horiz-adv-x="979" d="M601 64h-46l2 42c-49 -38 -98 -59 -139 -59c-81 0 -130 59 -130 148c0 15 2 30 4 42l3 19c20 128 128 207 256 207h156l-61 -316c124 12 219 129 219 262c0 128 -90 215 -269 215c-253 0 -456 -200 -456 -448c0 -165 105 -284 276 -284c76 0 153 12 221 37l-16 -81 c-65 -26 -135 -39 -211 -39c-217 0 -357 151 -357 365c0 300 252 532 545 532c224 0 350 -121 350 -292c0 -197 -161 -350 -347 -350zM381 210c0 -47 25 -79 68 -79c37 0 74 16 111 45l38 204h-50c-88 0 -151 -50 -163 -133l-2 -14c-1 -7 -2 -15 -2 -23z"/>
    <glyph glyph-name="ampersand" unicode="&amp;" horiz-adv-x="701" d="M670 289h-90c-16 -72 -46 -134 -88 -182l64 -107h-109l-26 44c-54 -36 -118 -55 -188 -55c-119 0 -194 79 -194 179c0 109 76 183 181 220c-19 40 -30 75 -30 107c0 119 95 192 221 192c54 0 112 -18 153 -39l-19 -84c-41 18 -87 28 -129 28c-79 0 -127 -37 -127 -103 c0 -43 25 -84 72 -162l85 -143c26 34 44 75 53 121l14 70h174zM249 80c45 0 89 14 128 38l-83 140c-12 21 -24 40 -35 59c-71 -25 -122 -73 -122 -140c0 -55 44 -97 112 -97z"/>
    <glyph glyph-name="paragraph" unicode="¶" horiz-adv-x="703" d="M490 676l-160 -823h-102l80 409h-45c-107 0 -178 64 -178 161c0 152 103 253 254 253h151zM588 676h102l-160 -823h-102z"/>
    <glyph glyph-name="copyright" unicode="©" horiz-adv-x="758" d="M394 -12c-194 0 -344 147 -344 349c0 200 150 348 344 348s345 -147 345 -348c0 -202 -150 -349 -345 -349zM394 58c154 0 272 119 272 279c0 159 -118 277 -272 277c-153 0 -271 -118 -271 -277c0 -160 118 -279 271 -279zM405 160c-107 0 -169 74 -169 165v17 c0 100 75 170 177 170c33 0 59 -6 85 -17v-76c-27 9 -48 13 -75 13c-59 0 -98 -36 -98 -91v-11c0 -54 39 -90 95 -90c33 0 55 6 83 14v-76c-31 -13 -63 -18 -98 -18z"/>
    <glyph glyph-name="registered" unicode="®" horiz-adv-x="629" d="M353 722c147 0 262 -112 262 -264c0 -151 -114 -262 -262 -262c-149 0 -264 111 -264 262c0 152 115 264 264 264zM353 248c117 0 208 87 208 210c0 125 -90 212 -208 212c-120 0 -210 -87 -210 -212c0 -124 90 -210 210 -210zM459 503c0 -28 -14 -55 -43 -69l64 -92h-69 l-51 80h-1h-50v-80h-59v245h110c68 0 99 -40 99 -84zM309 531v-56h45c28 0 41 9 41 29c0 18 -14 27 -42 27h-44z"/>
    <glyph glyph-name="trademark" unicode="™" horiz-adv-x="848" d="M416 676l-16 -87h-116l-57 -295h-87l57 295h-115l17 87h317zM799 676h85l-75 -382h-82l49 248l-111 -138h-66l-57 138l-48 -248h-80l73 382h84l73 -188z"/>
    <glyph glyph-name="degree" unicode="°" horiz-adv-x="421" d="M270 409c-88 0 -156 69 -156 156c0 86 68 154 156 154c86 0 154 -68 154 -154c0 -87 -68 -156 -154 -156zM270 489c42 0 74 33 74 76c0 42 -32 75 -74 75s-76 -33 -76 -75c0 -43 33 -76 76 -76z"/>
    <glyph glyph-name="bar" unicode="|" horiz-adv-x="302" d="M23 -130l175 901h107l-175 -901h-107z"/>
    <glyph glyph-name="brokenbar" unicode="¦" horiz-adv-x="303" d="M136 451l62 320h108l-62 -320h-108zM23 -130l68 348h107l-68 -348h-107z"/>
    <glyph glyph-name="dagger" unicode="†" horiz-adv-x="399" d="M406 605l-15 -78h-96l-40 -210h-85l41 210h-97l15 78h97l23 117h84l-23 -117h96z"/>
    <glyph glyph-name="daggerdbl" unicode="‡" horiz-adv-x="397" d="M398 570h-96l-18 -92h97l-15 -72h-96l-17 -89h-82l17 89h-97l14 72h97l18 92h-97l14 72h97l16 80h81l-15 -80h96z"/>
    <glyph glyph-name="at.case" horiz-adv-x="979" d="M617 145h-46l2 43c-49 -38 -98 -60 -140 -60c-81 0 -130 59 -130 148c0 15 2 30 4 42l3 19c20 128 129 208 257 208h155l-60 -317c125 13 219 131 219 263c0 127 -91 214 -269 214c-254 0 -456 -200 -456 -448c0 -164 105 -284 275 -284c77 0 154 13 221 37l-15 -81 c-65 -26 -135 -39 -211 -39c-217 0 -357 151 -357 365c0 301 252 532 545 532c224 0 349 -121 349 -292c0 -197 -160 -350 -346 -350zM397 291c0 -47 24 -78 67 -78c38 0 74 15 111 44l39 204h-51c-88 0 -151 -50 -162 -133l-2 -14c-1 -7 -2 -15 -2 -23z"/>
    <glyph glyph-name="uni0308" unicode="̈" horiz-adv-x="0" d="M-265 600c-33 0 -54 21 -54 52c0 42 26 68 63 68c33 0 53 -20 53 -52c0 -41 -27 -68 -62 -68zM-81 600c-34 0 -54 21 -54 52c0 42 27 68 63 68c33 0 53 -20 53 -52c0 -41 -27 -68 -62 -68z"/>
    <glyph glyph-name="uni0307" unicode="̇" horiz-adv-x="0" d="M-173 592c-35 0 -57 23 -57 56c0 45 30 73 69 73c35 0 58 -22 58 -55c0 -44 -31 -74 -70 -74z"/>
    <glyph glyph-name="gravecomb" unicode="̀" horiz-adv-x="0" d="M-152 593l-120 134h109l107 -134h-96z"/>
    <glyph glyph-name="acutecomb" unicode="́" horiz-adv-x="0" d="M-308 593l160 134h119l-174 -134h-105z"/>
    <glyph glyph-name="uni0302" unicode="̂" horiz-adv-x="0" d="M-342 593l143 143h91l86 -143h-84l-56 85l-92 -85h-88z"/>
    <glyph glyph-name="uni030C" unicode="̌" horiz-adv-x="0" d="M-224 593l-86 143h84l55 -85l93 85h87l-142 -143h-91z"/>
    <glyph glyph-name="uni030A" unicode="̊" horiz-adv-x="0" d="M-163 584c-58 0 -108 46 -108 108c0 60 51 105 108 105c59 0 107 -45 107 -105c0 -62 -49 -108 -107 -108zM-163 641c28 0 48 20 48 50s-21 50 -48 50c-29 0 -48 -20 -48 -50s20 -50 48 -50z"/>
    <glyph glyph-name="tildecomb" unicode="̃" horiz-adv-x="0" d="M-106 599c-32 0 -53 15 -72 28c-18 13 -34 26 -53 26c-26 0 -44 -19 -51 -47h-70c13 78 58 122 119 122c30 0 51 -15 72 -30c18 -12 34 -24 54 -24c23 0 42 15 50 46h70c-11 -73 -59 -121 -119 -121z"/>
    <glyph glyph-name="uni0304" unicode="̄" horiz-adv-x="0" d="M-293 700h267l-16 -83h-267z"/>
    <glyph glyph-name="uni0327" unicode="̧" horiz-adv-x="0" d="M-342 -178c-31 0 -58 7 -83 20l13 63c15 -7 33 -10 49 -10c52 0 79 29 79 72c0 18 -6 34 -19 48l73 1c15 -17 25 -42 25 -70c0 -74 -61 -124 -137 -124z"/>
    <glyph glyph-name="acute" unicode="´" horiz-adv-x="511" d="M182 593l160 134h119l-174 -134h-105z"/>
    <glyph glyph-name="caron" unicode="ˇ" horiz-adv-x="524" d="M266 593l-86 143h84l55 -85l93 85h87l-142 -143h-91z"/>
    <glyph glyph-name="cedilla" unicode="¸" horiz-adv-x="524" d="M148 -178c-31 0 -58 7 -83 20l13 63c15 -7 33 -10 49 -10c52 0 79 29 79 72c0 18 -6 34 -19 48l73 1c15 -17 25 -42 25 -70c0 -74 -61 -124 -137 -124z"/>
    <glyph glyph-name="circumflex" unicode="ˆ" horiz-adv-x="545" d="M148 593l143 143h91l86 -143h-84l-56 85l-92 -85h-88z"/>
    <glyph glyph-name="dieresis" unicode="¨" horiz-adv-x="524" d="M225 600c-33 0 -54 21 -54 52c0 42 26 68 63 68c33 0 53 -20 53 -52c0 -41 -27 -68 -62 -68zM409 600c-34 0 -54 21 -54 52c0 42 27 68 63 68c33 0 53 -20 53 -52c0 -41 -27 -68 -62 -68z"/>
    <glyph glyph-name="dotaccent" unicode="˙" horiz-adv-x="545" d="M317 592c-35 0 -57 23 -57 56c0 45 30 73 69 73c35 0 58 -22 58 -55c0 -44 -31 -74 -70 -74z"/>
    <glyph glyph-name="grave" unicode="`" horiz-adv-x="524" d="M338 593l-120 134h109l107 -134h-96z"/>
    <glyph glyph-name="macron" unicode="¯" horiz-adv-x="545" d="M197 700h267l-16 -83h-267z"/>
    <glyph glyph-name="ring" unicode="˚" horiz-adv-x="524" d="M327 584c-58 0 -108 46 -108 108c0 60 51 105 108 105c59 0 107 -45 107 -105c0 -62 -49 -108 -107 -108zM327 641c28 0 48 20 48 50s-21 50 -48 50c-29 0 -48 -20 -48 -50s20 -50 48 -50z"/>
    <glyph glyph-name="tilde" unicode="˜" horiz-adv-x="545" d="M384 599c-32 0 -53 15 -72 28c-18 13 -34 26 -53 26c-26 0 -44 -19 -51 -47h-70c13 78 58 122 119 122c30 0 51 -15 72 -30c18 -12 34 -24 54 -24c23 0 42 15 50 46h70c-11 -73 -59 -121 -119 -121z"/>
    <glyph glyph-name="uni0308.case" horiz-adv-x="0" d="M-300 748c-33 0 -55 21 -55 53c0 43 28 70 66 70c32 0 55 -21 55 -53c0 -43 -30 -70 -66 -70zM-102 748c-33 0 -56 21 -56 53c0 43 30 70 66 70c34 0 55 -21 55 -53c0 -43 -28 -70 -65 -70z"/>
    <glyph glyph-name="uni0307.case" horiz-adv-x="0" d="M-336 746c-36 0 -59 22 -59 56c0 45 31 74 71 74c35 0 58 -22 58 -56c0 -45 -31 -74 -70 -74z"/>
    <glyph glyph-name="gravecomb.case" horiz-adv-x="0" d="M-308 747l-141 131h125l127 -131h-111z"/>
    <glyph glyph-name="acutecomb.case" horiz-adv-x="0" d="M-356 747l172 131h134l-189 -131h-117z"/>
    <glyph glyph-name="uni0302.case" horiz-adv-x="0" d="M-537 748l168 140h97l121 -140h-97l-79 81l-109 -81h-101z"/>
    <glyph glyph-name="uni030C.case" horiz-adv-x="0" d="M-390 748l-120 140h96l80 -81l108 81h101l-168 -140h-97z"/>
    <glyph glyph-name="uni030A.case" horiz-adv-x="0" d="M-171 726c-60 0 -112 46 -112 111c0 63 53 110 112 110c62 0 113 -47 113 -110c0 -65 -53 -111 -113 -111zM-171 788c27 0 47 20 47 49c0 27 -20 48 -47 48s-47 -20 -47 -48c0 -29 21 -49 47 -49z"/>
    <glyph glyph-name="tildecomb.case" horiz-adv-x="0" d="M-131 747c-38 0 -63 20 -84 33c-22 14 -41 27 -62 27c-32 0 -51 -21 -59 -51h-79c14 80 64 126 134 126c33 0 61 -16 84 -30c21 -13 41 -29 63 -29c29 0 50 20 59 52h79c-14 -77 -67 -128 -135 -128z"/>
    <glyph glyph-name="uni0304.case" horiz-adv-x="0" d="M-486 852h325l-16 -85h-325z"/>
    <glyph glyph-name="uni0327.case" horiz-adv-x="0" d="M-417 -188c-43 0 -77 10 -104 21l14 67c21 -8 46 -11 64 -11c63 0 103 27 103 73c0 19 -8 34 -26 50h82c19 -17 33 -47 33 -78c0 -74 -76 -122 -166 -122z"/>
    </font>
</defs>
</svg>
