<svg xmlns="http://www.w3.org/2000/svg" xmlns:xlink="http://www.w3.org/1999/xlink" version="1.1">
<metadata>
Created by FontForge 20181003 at Fri Dec 21 12:40:01 2018
 By Henrique Beier
Copyright \(c\) 2018 GOL Linhas Aereas SA. All rights reserved.
</metadata>
<defs>
<font id="GOLSansDisplay-Bold" horiz-adv-x="566">
  <font-face font-family="GOL Sans Display" font-weight="600" font-stretch="normal" units-per-em="1000" panose-1="2 1 8 3 3 4 7 2 2 3" ascent="803" descent="-197" x-height="509" cap-height="676" bbox="-531 -225 1316 959" underline-thickness="50" underline-position="-100" stemh="118" stemv="131" unicode-range="U+0020-FB02"/>
<missing-glyph horiz-adv-x="468" d="M384 711v-936h-297v936h297zM312 648h-155v-31h61v-34h-62v-31h156v31h-62v34h62v31zM250 528h-94v-98h156v32h-62v66zM218 496v-34h-31v34h31zM312 405h-156v-31h62v-35h-62v-30h94v65h62v31zM312 349h-31v-62h-125v-32h156v94zM312 235h-94v-53h32v22h31v-44h-94v75 h-31v-106h156v106zM312 73h-156v-106h156v106zM281 42v-44h-94v44h94zM312 -55h-156v-31h66l-66 -44v-30h156v30h-96l66 44h30v31z"/>
    <glyph glyph-name="fi" unicode="fi" horiz-adv-x="676" d="M544 588c-46 0 -77 29 -77 73c0 45 32 74 77 74s77 -29 77 -74c0 -44 -32 -73 -77 -73zM65 0v491c0 145 87 228 209 228c48 0 84 -9 118 -22v-96c-31 10 -57 15 -90 15c-64 0 -106 -28 -106 -100v-7h185v-117h-185v-392h-131zM479 0v509h131v-509h-131z"/>
    <glyph glyph-name="fl" unicode="fl" horiz-adv-x="674" d="M65 0v491c0 145 87 228 209 228c48 0 84 -9 118 -22v-96c-31 10 -57 15 -90 15c-64 0 -106 -28 -106 -100v-7h185v-117h-185v-392h-131zM478 0v701h131v-701h-131z"/>
    <glyph glyph-name=".notdef" horiz-adv-x="468" d="M384 711v-936h-297v936h297zM312 648h-155v-31h61v-34h-62v-31h156v31h-62v34h62v31zM250 528h-94v-98h156v32h-62v66zM218 496v-34h-31v34h31zM312 405h-156v-31h62v-35h-62v-30h94v65h62v31zM312 349h-31v-62h-125v-32h156v94zM312 235h-94v-53h32v22h31v-44h-94v75 h-31v-106h156v106zM312 73h-156v-106h156v106zM281 42v-44h-94v44h94zM312 -55h-156v-31h66l-66 -44v-30h156v30h-96l66 44h30v31z"/>
    <glyph glyph-name="space" unicode=" " horiz-adv-x="228"/>
    <glyph glyph-name="A" unicode="A" horiz-adv-x="690" d="M519 0l-51 155h-254l-52 -155h-140l251 676h144l250 -676h-148zM254 275h174l-86 262z"/>
    <glyph glyph-name="Aacute" unicode="Á" horiz-adv-x="690" d="M555 879l-167 -132h-135l149 132h153zM519 0l-51 155h-254l-52 -155h-140l251 676h144l250 -676h-148zM254 275h174l-86 262z"/>
    <glyph glyph-name="Acircumflex" unicode="Â" horiz-adv-x="690" d="M345 823l-85 -77h-121l144 147h127l143 -147h-123zM519 0l-51 155h-254l-52 -155h-140l251 676h144l250 -676h-148zM254 275h174l-86 262z"/>
    <glyph glyph-name="Adieresis" unicode="Ä" horiz-adv-x="690" d="M240 747c-43 0 -72 28 -72 71c0 42 30 70 72 70c43 0 72 -28 72 -70c0 -43 -30 -71 -72 -71zM450 747c-43 0 -72 28 -72 71c0 42 29 70 72 70c42 0 72 -28 72 -70c0 -43 -31 -71 -72 -71zM519 0l-51 155h-254l-52 -155h-140l251 676h144l250 -676h-148zM254 275h174 l-86 262z"/>
    <glyph glyph-name="Agrave" unicode="À" horiz-adv-x="690" d="M440 746h-141l-167 133h159zM519 0l-51 155h-254l-52 -155h-140l251 676h144l250 -676h-148zM254 275h174l-86 262z"/>
    <glyph glyph-name="Amacron" unicode="Ā" horiz-adv-x="690" d="M512 863v-104h-336v104h336zM519 0l-51 155h-254l-52 -155h-140l251 676h144l250 -676h-148zM254 275h174l-86 262z"/>
    <glyph glyph-name="Aring" unicode="Å" horiz-adv-x="690" d="M519 0l-51 155h-254l-52 -155h-140l247 665c-27 21 -44 54 -44 92c0 67 56 117 119 117c66 0 119 -50 119 -117c0 -37 -17 -69 -42 -91l246 -666h-148zM344 803c-25 0 -44 -20 -44 -46c0 -27 19 -46 44 -46s44 19 44 46c0 26 -19 46 -44 46zM254 275h174l-86 262z"/>
    <glyph glyph-name="Atilde" unicode="Ã" horiz-adv-x="690" d="M275 802c-30 0 -42 -21 -42 -48h-89c7 78 46 136 123 136c37 0 67 -17 91 -31c21 -11 38 -22 56 -22c26 0 43 15 44 48h87c-6 -82 -45 -137 -125 -137c-32 0 -58 15 -86 30c-21 13 -41 24 -59 24zM519 0l-51 155h-254l-52 -155h-140l251 676h144l250 -676h-148zM254 275 h174l-86 262z"/>
    <glyph glyph-name="AE" unicode="Æ" horiz-adv-x="969" d="M630 125h294v-125h-424v156h-247l-101 -156h-143l441 676h466v-125h-286v-147h259v-119h-259v-160zM330 276h170v263z"/>
    <glyph glyph-name="B" unicode="B" horiz-adv-x="610" d="M456 361c76 -29 118 -94 118 -174c0 -109 -85 -187 -211 -187h-290v676h249c136 0 219 -72 219 -179c0 -58 -31 -107 -85 -136zM322 561h-123v-157h124c59 0 91 30 91 79c0 46 -33 78 -92 78zM346 117c64 0 97 32 97 82s-33 87 -100 87h-144v-169h147z"/>
    <glyph glyph-name="C" unicode="C" horiz-adv-x="587" d="M364 -12c-195 0 -316 141 -316 326v36c0 195 138 337 327 337c60 0 110 -12 157 -31v-122c-49 16 -85 25 -143 25c-126 0 -204 -80 -204 -208v-24c0 -128 77 -210 200 -210c61 0 107 11 157 28v-121c-54 -23 -111 -36 -178 -36z"/>
    <glyph glyph-name="Cacute" unicode="Ć" horiz-adv-x="587" d="M265 756l149 132h153l-167 -132h-135zM364 -12c-195 0 -316 141 -316 326v36c0 195 138 337 327 337c60 0 110 -12 157 -31v-122c-49 16 -85 25 -143 25c-126 0 -204 -80 -204 -208v-24c0 -128 77 -210 200 -210c61 0 107 11 157 28v-121c-54 -23 -111 -36 -178 -36z"/>
    <glyph glyph-name="Ccaron" unicode="Č" horiz-adv-x="587" d="M292 755l-142 147h123l84 -78l86 78h121l-143 -147h-129zM364 -12c-195 0 -316 141 -316 326v36c0 195 138 337 327 337c60 0 110 -12 157 -31v-122c-49 16 -85 25 -143 25c-126 0 -204 -80 -204 -208v-24c0 -128 77 -210 200 -210c61 0 107 11 157 28v-121 c-54 -23 -111 -36 -178 -36z"/>
    <glyph glyph-name="Ccedilla" unicode="Ç" horiz-adv-x="587" d="M542 145v-121c-37 -16 -76 -27 -118 -32c15 -21 23 -46 23 -69c0 -73 -63 -117 -145 -117c-38 0 -65 6 -94 19v84c22 -8 45 -13 66 -13c44 0 70 17 70 50c0 18 -7 32 -17 44c-173 17 -279 151 -279 324v36c0 195 138 337 327 337c60 0 110 -12 157 -31v-122 c-49 16 -85 25 -143 25c-126 0 -204 -80 -204 -208v-24c0 -128 77 -210 200 -210c61 0 107 11 157 28z"/>
    <glyph glyph-name="Cdotaccent" unicode="Ċ" horiz-adv-x="587" d="M356 751c-47 0 -79 30 -79 76s33 75 79 75s80 -29 80 -75s-34 -76 -80 -76zM364 -12c-195 0 -316 141 -316 326v36c0 195 138 337 327 337c60 0 110 -12 157 -31v-122c-49 16 -85 25 -143 25c-126 0 -204 -80 -204 -208v-24c0 -128 77 -210 200 -210c61 0 107 11 157 28 v-121c-54 -23 -111 -36 -178 -36z"/>
    <glyph glyph-name="D" unicode="D" horiz-adv-x="689" d="M319 676c193 0 322 -128 322 -316v-38c0 -186 -131 -322 -322 -322h-246v676h246zM504 325v24c0 130 -74 199 -185 199h-111v-420h111c109 0 185 71 185 197z"/>
    <glyph glyph-name="Eth" unicode="Ð" horiz-adv-x="727" d="M357 676c193 0 322 -128 322 -316v-38c0 -186 -131 -322 -322 -322h-246v277h-88v125h88v274h246zM542 325v24c0 130 -74 199 -185 199h-111v-146h168v-125h-168v-149h111c109 0 185 71 185 197z"/>
    <glyph glyph-name="E" unicode="E" horiz-adv-x="549" d="M205 125h300v-125h-432v676h423v-125h-291v-147h265v-119h-265v-160z"/>
    <glyph glyph-name="Eacute" unicode="É" horiz-adv-x="549" d="M499 879l-167 -132h-135l149 132h153zM205 125h300v-125h-432v676h423v-125h-291v-147h265v-119h-265v-160z"/>
    <glyph glyph-name="Ecaron" unicode="Ě" horiz-adv-x="549" d="M353 746h-129l-142 147h123l84 -78l86 78h121zM205 125h300v-125h-432v676h423v-125h-291v-147h265v-119h-265v-160z"/>
    <glyph glyph-name="Ecircumflex" unicode="Ê" horiz-adv-x="549" d="M288 823l-85 -77h-121l144 147h127l143 -147h-123zM205 125h300v-125h-432v676h423v-125h-291v-147h265v-119h-265v-160z"/>
    <glyph glyph-name="Edieresis" unicode="Ë" horiz-adv-x="549" d="M184 747c-43 0 -72 28 -72 71c0 42 30 70 72 70c43 0 72 -28 72 -70c0 -43 -30 -71 -72 -71zM394 747c-43 0 -72 28 -72 71c0 42 29 70 72 70c42 0 72 -28 72 -70c0 -43 -31 -71 -72 -71zM205 125h300v-125h-432v676h423v-125h-291v-147h265v-119h-265v-160z"/>
    <glyph glyph-name="Edotaccent" unicode="Ė" horiz-adv-x="549" d="M288 742c-47 0 -79 30 -79 76s33 75 79 75s80 -29 80 -75s-34 -76 -80 -76zM205 125h300v-125h-432v676h423v-125h-291v-147h265v-119h-265v-160z"/>
    <glyph glyph-name="Egrave" unicode="È" horiz-adv-x="549" d="M384 746h-141l-167 133h159zM205 125h300v-125h-432v676h423v-125h-291v-147h265v-119h-265v-160z"/>
    <glyph glyph-name="Emacron" unicode="Ē" horiz-adv-x="549" d="M456 863v-104h-336v104h336zM205 125h300v-125h-432v676h423v-125h-291v-147h265v-119h-265v-160z"/>
    <glyph glyph-name="F" unicode="F" horiz-adv-x="538" d="M504 548h-299v-156h262v-127h-262v-265h-132v676h431v-128z"/>
    <glyph glyph-name="G" unicode="G" horiz-adv-x="652" d="M346 377h246v-343c-63 -28 -138 -46 -225 -46c-205 0 -319 143 -319 323v41c0 191 137 335 330 335c70 0 117 -13 174 -34v-120c-58 20 -103 28 -162 28c-123 0 -209 -72 -209 -213v-24c0 -129 71 -212 202 -212c31 0 60 3 88 9v140h-125v116z"/>
    <glyph glyph-name="Gdotaccent" unicode="Ġ" horiz-adv-x="652" d="M362 751c-47 0 -79 30 -79 76s33 75 79 75s80 -29 80 -75s-34 -76 -80 -76zM346 377h246v-343c-63 -28 -138 -46 -225 -46c-205 0 -319 143 -319 323v41c0 191 137 335 330 335c70 0 117 -13 174 -34v-120c-58 20 -103 28 -162 28c-123 0 -209 -72 -209 -213v-24 c0 -129 71 -212 202 -212c31 0 60 3 88 9v140h-125v116z"/>
    <glyph glyph-name="H" unicode="H" horiz-adv-x="696" d="M487 676h136v-676h-136v284h-278v-284h-136v676h136v-261h278v261z"/>
    <glyph glyph-name="I" unicode="I" horiz-adv-x="282" d="M73 0v676h136v-676h-136z"/>
    <glyph glyph-name="IJ" unicode="Ĳ" horiz-adv-x="746" d="M73 0v676h136v-676h-136zM456 -12c-57 0 -103 11 -137 27v119c32 -11 63 -17 112 -17c70 0 108 45 108 117v442h135v-445c0 -145 -88 -243 -218 -243z"/>
    <glyph glyph-name="Iacute" unicode="Í" horiz-adv-x="282" d="M50 747l149 132h153l-167 -132h-135zM73 0v676h136v-676h-136z"/>
    <glyph glyph-name="Icircumflex" unicode="Î" horiz-adv-x="282" d="M-65 746l144 147h127l143 -147h-123l-85 77l-85 -77h-121zM73 0v676h136v-676h-136z"/>
    <glyph glyph-name="Idieresis" unicode="Ï" horiz-adv-x="282" d="M37 747c-43 0 -72 28 -72 71c0 42 30 70 72 70c43 0 72 -28 72 -70c0 -43 -30 -71 -72 -71zM247 747c-43 0 -72 28 -72 71c0 42 29 70 72 70c42 0 72 -28 72 -70c0 -43 -31 -71 -72 -71zM73 0v676h136v-676h-136z"/>
    <glyph glyph-name="Idotaccent" unicode="İ" horiz-adv-x="282" d="M141 742c-47 0 -79 30 -79 76s33 75 79 75s80 -29 80 -75s-34 -76 -80 -76zM73 0v676h136v-676h-136z"/>
    <glyph glyph-name="Igrave" unicode="Ì" horiz-adv-x="282" d="M96 746l-167 133h159l149 -133h-141zM73 0v676h136v-676h-136z"/>
    <glyph glyph-name="Imacron" unicode="Ī" horiz-adv-x="282" d="M-28 863h336v-104h-336v104zM73 0v676h136v-676h-136z"/>
    <glyph glyph-name="J" unicode="J" horiz-adv-x="464" d="M174 -12c-57 0 -103 11 -137 27v119c32 -11 63 -17 112 -17c70 0 108 45 108 117v442h135v-445c0 -145 -88 -243 -218 -243z"/>
    <glyph glyph-name="K" unicode="K" horiz-adv-x="668" d="M655 0h-169l-278 315v-315h-135v676h135v-286l262 286h157l-289 -314z"/>
    <glyph glyph-name="L" unicode="L" horiz-adv-x="539" d="M209 131h295v-131h-431v676h136v-545z"/>
    <glyph glyph-name="M" unicode="M" horiz-adv-x="810" d="M73 0v676h133l198 -348l214 348h119v-676h-132v456l-156 -258h-98l-150 256v-454h-128z"/>
    <glyph glyph-name="N" unicode="N" horiz-adv-x="696" d="M73 0v676h118l307 -458v458h124v-676h-118l-306 450v-450h-125z"/>
    <glyph glyph-name="Nacute" unicode="Ń" horiz-adv-x="696" d="M255 747l149 132h153l-167 -132h-135zM73 0v676h118l307 -458v458h124v-676h-118l-306 450v-450h-125z"/>
    <glyph glyph-name="Ncaron" unicode="Ň" horiz-adv-x="696" d="M283 746l-142 147h123l84 -78l86 78h121l-143 -147h-129zM73 0v676h118l307 -458v458h124v-676h-118l-306 450v-450h-125z"/>
    <glyph glyph-name="Ntilde" unicode="Ñ" horiz-adv-x="696" d="M422 748c-32 0 -58 15 -86 30c-21 13 -41 24 -59 24c-30 0 -42 -21 -42 -48h-89c7 78 46 136 123 136c37 0 67 -17 91 -31c21 -11 38 -22 56 -22c26 0 43 15 44 48h87c-6 -82 -45 -137 -125 -137zM73 0v676h118l307 -458v458h124v-676h-118l-306 450v-450h-125z"/>
    <glyph glyph-name="O" unicode="O" horiz-adv-x="726" d="M363 -12c-190 0 -315 140 -315 326v38c0 185 125 335 315 335c193 0 315 -141 315 -326v-39c0 -184 -124 -334 -315 -334zM363 117c111 0 178 82 178 209v22c0 130 -66 211 -178 211c-111 0 -178 -83 -178 -211v-22c0 -128 66 -209 178 -209z"/>
    <glyph glyph-name="Oacute" unicode="Ó" horiz-adv-x="726" d="M272 756l149 132h153l-167 -132h-135zM363 -12c-190 0 -315 140 -315 326v38c0 185 125 335 315 335c193 0 315 -141 315 -326v-39c0 -184 -124 -334 -315 -334zM363 117c111 0 178 82 178 209v22c0 130 -66 211 -178 211c-111 0 -178 -83 -178 -211v-22 c0 -128 66 -209 178 -209z"/>
    <glyph glyph-name="Ocircumflex" unicode="Ô" horiz-adv-x="726" d="M157 754l144 147h127l143 -147h-123l-85 77l-85 -77h-121zM363 -12c-190 0 -315 140 -315 326v38c0 185 125 335 315 335c193 0 315 -141 315 -326v-39c0 -184 -124 -334 -315 -334zM363 117c111 0 178 82 178 209v22c0 130 -66 211 -178 211c-111 0 -178 -83 -178 -211 v-22c0 -128 66 -209 178 -209z"/>
    <glyph glyph-name="Odieresis" unicode="Ö" horiz-adv-x="726" d="M259 756c-43 0 -72 28 -72 71c0 42 30 70 72 70c43 0 72 -28 72 -70c0 -43 -30 -71 -72 -71zM469 756c-43 0 -72 28 -72 71c0 42 29 70 72 70c42 0 72 -28 72 -70c0 -43 -31 -71 -72 -71zM363 -12c-190 0 -315 140 -315 326v38c0 185 125 335 315 335 c193 0 315 -141 315 -326v-39c0 -184 -124 -334 -315 -334zM363 117c111 0 178 82 178 209v22c0 130 -66 211 -178 211c-111 0 -178 -83 -178 -211v-22c0 -128 66 -209 178 -209z"/>
    <glyph glyph-name="Ograve" unicode="Ò" horiz-adv-x="726" d="M318 755l-167 133h159l149 -133h-141zM363 -12c-190 0 -315 140 -315 326v38c0 185 125 335 315 335c193 0 315 -141 315 -326v-39c0 -184 -124 -334 -315 -334zM363 117c111 0 178 82 178 209v22c0 130 -66 211 -178 211c-111 0 -178 -83 -178 -211v-22 c0 -128 66 -209 178 -209z"/>
    <glyph glyph-name="Omacron" unicode="Ō" horiz-adv-x="726" d="M194 872h336v-104h-336v104zM363 -12c-190 0 -315 140 -315 326v38c0 185 125 335 315 335c193 0 315 -141 315 -326v-39c0 -184 -124 -334 -315 -334zM363 117c111 0 178 82 178 209v22c0 130 -66 211 -178 211c-111 0 -178 -83 -178 -211v-22c0 -128 66 -209 178 -209z "/>
    <glyph glyph-name="Oslash" unicode="Ø" horiz-adv-x="726" d="M700 735l-101 -150c49 -58 77 -136 77 -224v-39c0 -184 -123 -334 -314 -334c-54 0 -104 11 -146 32l-54 -80h-137l101 149c-51 57 -80 136 -80 225v38c0 185 125 335 316 335c55 0 104 -12 147 -32l54 80h137zM184 326c0 -45 8 -84 24 -116l227 335c-22 9 -46 14 -73 14 c-112 0 -178 -83 -178 -211v-22zM539 348c0 45 -8 84 -23 116l-225 -334c21 -8 45 -13 71 -13c110 0 177 82 177 209v22z"/>
    <glyph glyph-name="Otilde" unicode="Õ" horiz-adv-x="726" d="M439 757c-32 0 -58 15 -86 30c-21 13 -41 24 -59 24c-30 0 -42 -21 -42 -48h-89c7 78 46 136 123 136c37 0 67 -17 91 -31c21 -11 38 -22 56 -22c26 0 43 15 44 48h87c-6 -82 -45 -137 -125 -137zM363 -12c-190 0 -315 140 -315 326v38c0 185 125 335 315 335 c193 0 315 -141 315 -326v-39c0 -184 -124 -334 -315 -334zM363 117c111 0 178 82 178 209v22c0 130 -66 211 -178 211c-111 0 -178 -83 -178 -211v-22c0 -128 66 -209 178 -209z"/>
    <glyph glyph-name="OE" unicode="Œ" horiz-adv-x="1002" d="M663 125h294v-125h-424v77c-45 -55 -109 -89 -188 -89c-175 0 -297 140 -297 326v38c0 185 122 335 299 335c79 0 141 -31 186 -83v72h416v-125h-286v-147h259v-119h-259v-160zM358 117c111 0 175 82 175 209v22c0 130 -63 211 -175 211c-109 0 -173 -83 -173 -211v-22 c0 -128 64 -209 173 -209z"/>
    <glyph glyph-name="P" unicode="P" horiz-adv-x="602" d="M332 676c157 0 233 -101 233 -218c0 -114 -74 -215 -233 -227l-125 -10v-221h-134v676h259zM317 354c75 7 111 35 111 102c0 61 -35 95 -111 95h-110v-207z"/>
    <glyph glyph-name="Thorn" unicode="Þ" horiz-adv-x="602" d="M332 587c158 0 234 -101 234 -218c0 -115 -75 -214 -234 -227l-125 -10v-132h-134v676h134v-89h125zM318 264c77 7 110 39 110 103c0 62 -35 97 -111 97h-110v-210z"/>
    <glyph glyph-name="Q" unicode="Q" horiz-adv-x="726" d="M694 -65h-148l-58 77c-38 -15 -79 -24 -125 -24c-190 0 -315 140 -315 326v38c0 185 125 335 315 335c193 0 315 -141 315 -326v-39c0 -95 -33 -182 -92 -243zM363 117c15 0 29 1 42 4l-95 126h150l44 -59c24 35 37 82 37 138v22c0 130 -66 211 -178 211 c-111 0 -178 -83 -178 -211v-22c0 -128 66 -209 178 -209z"/>
    <glyph glyph-name="R" unicode="R" horiz-adv-x="625" d="M613 0h-154l-134 239h-4l-117 -9v-230h-131v676h257c161 0 234 -103 234 -220c0 -79 -36 -146 -112 -184zM204 554v-205l108 9c81 7 115 38 115 101c0 59 -36 95 -113 95h-110z"/>
    <glyph glyph-name="Racute" unicode="Ŕ" horiz-adv-x="625" d="M484 879l-167 -132h-135l149 132h153zM613 0h-154l-134 239h-4l-117 -9v-230h-131v676h257c161 0 234 -103 234 -220c0 -79 -36 -146 -112 -184zM204 554v-205l108 9c81 7 115 38 115 101c0 59 -36 95 -113 95h-110z"/>
    <glyph glyph-name="Rcaron" unicode="Ř" horiz-adv-x="625" d="M338 746h-129l-142 147h123l84 -78l86 78h121zM613 0h-154l-134 239h-4l-117 -9v-230h-131v676h257c161 0 234 -103 234 -220c0 -79 -36 -146 -112 -184zM204 554v-205l108 9c81 7 115 38 115 101c0 59 -36 95 -113 95h-110z"/>
    <glyph glyph-name="S" unicode="S" horiz-adv-x="565" d="M267 -12c-82 0 -156 20 -220 50v120c67 -27 136 -45 222 -45c75 0 114 24 114 74c0 52 -40 71 -123 97c-138 44 -217 80 -217 211c0 107 94 192 232 192c84 0 146 -16 209 -42v-118c-72 27 -128 37 -203 37c-67 0 -104 -24 -104 -67c0 -50 43 -65 133 -94 c122 -37 211 -85 211 -209c0 -117 -74 -206 -254 -206z"/>
    <glyph glyph-name="Sacute" unicode="Ś" horiz-adv-x="565" d="M190 747l149 132h153l-167 -132h-135zM267 -12c-82 0 -156 20 -220 50v120c67 -27 136 -45 222 -45c75 0 114 24 114 74c0 52 -40 71 -123 97c-138 44 -217 80 -217 211c0 107 94 192 232 192c84 0 146 -16 209 -42v-118c-72 27 -128 37 -203 37c-67 0 -104 -24 -104 -67 c0 -50 43 -65 133 -94c122 -37 211 -85 211 -209c0 -117 -74 -206 -254 -206z"/>
    <glyph glyph-name="Scaron" unicode="Š" horiz-adv-x="565" d="M217 746l-142 147h123l84 -78l86 78h121l-143 -147h-129zM267 -12c-82 0 -156 20 -220 50v120c67 -27 136 -45 222 -45c75 0 114 24 114 74c0 52 -40 71 -123 97c-138 44 -217 80 -217 211c0 107 94 192 232 192c84 0 146 -16 209 -42v-118c-72 27 -128 37 -203 37 c-67 0 -104 -24 -104 -67c0 -50 43 -65 133 -94c122 -37 211 -85 211 -209c0 -117 -74 -206 -254 -206z"/>
    <glyph glyph-name="uni1E9E" unicode="ẞ" horiz-adv-x="697" d="M436 -12c-55 0 -108 10 -166 39v108c53 -24 98 -35 155 -35c69 0 101 35 101 89c0 53 -39 98 -149 98h-43v94l130 167c-30 14 -54 20 -103 20c-99 0 -161 -62 -161 -203v-365h-132v368c0 215 118 319 290 319c103 0 171 -28 234 -58v-91l-131 -160l17 -4 c105 -20 180 -98 180 -182c0 -120 -71 -204 -222 -204z"/>
    <glyph glyph-name="T" unicode="T" horiz-adv-x="584" d="M559 676v-129h-199v-547h-136v547h-199v129h534z"/>
    <glyph glyph-name="U" unicode="U" horiz-adv-x="706" d="M352 -12c-189 0 -281 125 -281 313v375h136v-365c0 -124 41 -194 146 -194c103 0 146 71 146 194v365h136v-367c0 -182 -94 -321 -283 -321z"/>
    <glyph glyph-name="Uacute" unicode="Ú" horiz-adv-x="706" d="M262 747l149 132h153l-167 -132h-135zM352 -12c-189 0 -281 125 -281 313v375h136v-365c0 -124 41 -194 146 -194c103 0 146 71 146 194v365h136v-367c0 -182 -94 -321 -283 -321z"/>
    <glyph glyph-name="Ucircumflex" unicode="Û" horiz-adv-x="706" d="M147 746l144 147h127l143 -147h-123l-85 77l-85 -77h-121zM352 -12c-189 0 -281 125 -281 313v375h136v-365c0 -124 41 -194 146 -194c103 0 146 71 146 194v365h136v-367c0 -182 -94 -321 -283 -321z"/>
    <glyph glyph-name="Udieresis" unicode="Ü" horiz-adv-x="706" d="M249 747c-43 0 -72 28 -72 71c0 42 30 70 72 70c43 0 72 -28 72 -70c0 -43 -30 -71 -72 -71zM459 747c-43 0 -72 28 -72 71c0 42 29 70 72 70c42 0 72 -28 72 -70c0 -43 -31 -71 -72 -71zM352 -12c-189 0 -281 125 -281 313v375h136v-365c0 -124 41 -194 146 -194 c103 0 146 71 146 194v365h136v-367c0 -182 -94 -321 -283 -321z"/>
    <glyph glyph-name="Ugrave" unicode="Ù" horiz-adv-x="706" d="M308 746l-167 133h159l149 -133h-141zM352 -12c-189 0 -281 125 -281 313v375h136v-365c0 -124 41 -194 146 -194c103 0 146 71 146 194v365h136v-367c0 -182 -94 -321 -283 -321z"/>
    <glyph glyph-name="Umacron" unicode="Ū" horiz-adv-x="706" d="M184 863h336v-104h-336v104zM352 -12c-189 0 -281 125 -281 313v375h136v-365c0 -124 41 -194 146 -194c103 0 146 71 146 194v365h136v-367c0 -182 -94 -321 -283 -321z"/>
    <glyph glyph-name="Uring" unicode="Ů" horiz-adv-x="706" d="M353 725c-64 0 -119 49 -119 118c0 67 56 116 119 116c66 0 119 -49 119 -116c0 -69 -55 -118 -119 -118zM353 796c25 0 44 19 44 46c0 26 -19 46 -44 46s-44 -19 -44 -46s19 -46 44 -46zM352 -12c-189 0 -281 125 -281 313v375h136v-365c0 -124 41 -194 146 -194 c103 0 146 71 146 194v365h136v-367c0 -182 -94 -321 -283 -321z"/>
    <glyph glyph-name="V" unicode="V" horiz-adv-x="690" d="M527 676h147l-258 -676h-144l-256 676h155l177 -516z"/>
    <glyph glyph-name="W" unicode="W" horiz-adv-x="950" d="M206 0l-184 676h146l113 -489l129 470h131l135 -470l112 489h140l-183 -676h-133l-140 482l-132 -482h-134z"/>
    <glyph glyph-name="Wacute" unicode="Ẃ" horiz-adv-x="950" d="M384 747l149 132h153l-167 -132h-135zM206 0l-184 676h146l113 -489l129 470h131l135 -470l112 489h140l-183 -676h-133l-140 482l-132 -482h-134z"/>
    <glyph glyph-name="Wcircumflex" unicode="Ŵ" horiz-adv-x="950" d="M269 746l144 147h127l143 -147h-123l-85 77l-85 -77h-121zM206 0l-184 676h146l113 -489l129 470h131l135 -470l112 489h140l-183 -676h-133l-140 482l-132 -482h-134z"/>
    <glyph glyph-name="Wdieresis" unicode="Ẅ" horiz-adv-x="950" d="M371 747c-43 0 -72 28 -72 71c0 42 30 70 72 70c43 0 72 -28 72 -70c0 -43 -30 -71 -72 -71zM581 747c-43 0 -72 28 -72 71c0 42 29 70 72 70c42 0 72 -28 72 -70c0 -43 -31 -71 -72 -71zM206 0l-184 676h146l113 -489l129 470h131l135 -470l112 489h140l-183 -676h-133 l-140 482l-132 -482h-134z"/>
    <glyph glyph-name="Wgrave" unicode="Ẁ" horiz-adv-x="950" d="M430 746l-167 133h159l149 -133h-141zM206 0l-184 676h146l113 -489l129 470h131l135 -470l112 489h140l-183 -676h-133l-140 482l-132 -482h-134z"/>
    <glyph glyph-name="X" unicode="X" horiz-adv-x="688" d="M674 0h-165l-171 253l-170 -253h-153l249 354l-228 322h164l148 -217l147 217h151l-225 -316z"/>
    <glyph glyph-name="Y" unicode="Y" horiz-adv-x="618" d="M607 676l-230 -430v-246h-136v244l-230 432h154l147 -294l150 294h145z"/>
    <glyph glyph-name="Yacute" unicode="Ý" horiz-adv-x="618" d="M519 879l-167 -132h-135l149 132h153zM607 676l-230 -430v-246h-136v244l-230 432h154l147 -294l150 294h145z"/>
    <glyph glyph-name="Ycircumflex" unicode="Ŷ" horiz-adv-x="618" d="M309 823l-85 -77h-121l144 147h127l143 -147h-123zM607 676l-230 -430v-246h-136v244l-230 432h154l147 -294l150 294h145z"/>
    <glyph glyph-name="Ydieresis" unicode="Ÿ" horiz-adv-x="618" d="M204 747c-43 0 -72 28 -72 71c0 42 30 70 72 70c43 0 72 -28 72 -70c0 -43 -30 -71 -72 -71zM414 747c-43 0 -72 28 -72 71c0 42 29 70 72 70c42 0 72 -28 72 -70c0 -43 -31 -71 -72 -71zM607 676l-230 -430v-246h-136v244l-230 432h154l147 -294l150 294h145z"/>
    <glyph glyph-name="Ygrave" unicode="Ỳ" horiz-adv-x="618" d="M404 746h-141l-167 133h159zM607 676l-230 -430v-246h-136v244l-230 432h154l147 -294l150 294h145z"/>
    <glyph glyph-name="Z" unicode="Z" horiz-adv-x="585" d="M47 0v114l326 436h-316v126h473v-115l-319 -435h330v-126h-494z"/>
    <glyph glyph-name="Zacute" unicode="Ź" horiz-adv-x="585" d="M199 747l149 132h153l-167 -132h-135zM47 0v114l326 436h-316v126h473v-115l-319 -435h330v-126h-494z"/>
    <glyph glyph-name="Zcaron" unicode="Ž" horiz-adv-x="585" d="M226 746l-142 147h123l84 -78l86 78h121l-143 -147h-129zM47 0v114l326 436h-316v126h473v-115l-319 -435h330v-126h-494z"/>
    <glyph glyph-name="Zdotaccent" unicode="Ż" horiz-adv-x="585" d="M290 742c-47 0 -79 30 -79 76s33 75 79 75s80 -29 80 -75s-34 -76 -80 -76zM47 0v114l326 436h-316v126h473v-115l-319 -435h330v-126h-494z"/>
    <glyph glyph-name="a" unicode="a" horiz-adv-x="519" d="M241 519c133 0 221 -62 221 -217v-302h-109l-7 55c-40 -37 -88 -65 -156 -65c-99 0 -154 60 -154 155c0 86 64 143 166 153l137 14c-5 67 -40 97 -112 97c-54 0 -97 -7 -149 -22v106c51 15 107 26 163 26zM150 151c0 -37 20 -58 64 -58c36 0 82 15 126 49v82l-127 -15 c-39 -5 -63 -27 -63 -58z"/>
    <glyph glyph-name="aacute" unicode="á" horiz-adv-x="519" d="M432 728l-140 -135h-122l124 135h138zM241 519c133 0 221 -62 221 -217v-302h-109l-7 55c-40 -37 -88 -65 -156 -65c-99 0 -154 60 -154 155c0 86 64 143 166 153l137 14c-5 67 -40 97 -112 97c-54 0 -97 -7 -149 -22v106c51 15 107 26 163 26zM150 151 c0 -37 20 -58 64 -58c36 0 82 15 126 49v82l-127 -15c-39 -5 -63 -27 -63 -58z"/>
    <glyph glyph-name="acircumflex" unicode="â" horiz-adv-x="519" d="M252 674l-68 -81h-101l112 146h114l113 -146h-103zM241 519c133 0 221 -62 221 -217v-302h-109l-7 55c-40 -37 -88 -65 -156 -65c-99 0 -154 60 -154 155c0 86 64 143 166 153l137 14c-5 67 -40 97 -112 97c-54 0 -97 -7 -149 -22v106c51 15 107 26 163 26zM150 151 c0 -37 20 -58 64 -58c36 0 82 15 126 49v82l-127 -15c-39 -5 -63 -27 -63 -58z"/>
    <glyph glyph-name="adieresis" unicode="ä" horiz-adv-x="519" d="M153 595c-42 0 -70 28 -70 68c0 41 29 69 70 69c40 0 69 -28 69 -69c0 -40 -29 -68 -69 -68zM351 595c-42 0 -70 28 -70 68c0 41 29 69 70 69c40 0 68 -28 68 -69c0 -40 -28 -68 -68 -68zM241 519c133 0 221 -62 221 -217v-302h-109l-7 55c-40 -37 -88 -65 -156 -65 c-99 0 -154 60 -154 155c0 86 64 143 166 153l137 14c-5 67 -40 97 -112 97c-54 0 -97 -7 -149 -22v106c51 15 107 26 163 26zM150 151c0 -37 20 -58 64 -58c36 0 82 15 126 49v82l-127 -15c-39 -5 -63 -27 -63 -58z"/>
    <glyph glyph-name="agrave" unicode="à" horiz-adv-x="519" d="M333 593h-122l-140 135h137zM241 519c133 0 221 -62 221 -217v-302h-109l-7 55c-40 -37 -88 -65 -156 -65c-99 0 -154 60 -154 155c0 86 64 143 166 153l137 14c-5 67 -40 97 -112 97c-54 0 -97 -7 -149 -22v106c51 15 107 26 163 26zM150 151c0 -37 20 -58 64 -58 c36 0 82 15 126 49v82l-127 -15c-39 -5 -63 -27 -63 -58z"/>
    <glyph glyph-name="amacron" unicode="ā" horiz-adv-x="519" d="M388 708v-100h-275v100h275zM241 519c133 0 221 -62 221 -217v-302h-109l-7 55c-40 -37 -88 -65 -156 -65c-99 0 -154 60 -154 155c0 86 64 143 166 153l137 14c-5 67 -40 97 -112 97c-54 0 -97 -7 -149 -22v106c51 15 107 26 163 26zM150 151c0 -37 20 -58 64 -58 c36 0 82 15 126 49v82l-127 -15c-39 -5 -63 -27 -63 -58z"/>
    <glyph glyph-name="aring" unicode="å" horiz-adv-x="519" d="M251 585c-60 0 -112 46 -112 112c0 63 53 110 112 110c62 0 112 -48 112 -110c0 -65 -52 -112 -112 -112zM251 740c-25 0 -43 -19 -43 -44c0 -26 19 -45 43 -45c25 0 43 19 43 45c0 25 -19 44 -43 44zM241 519c133 0 221 -62 221 -217v-302h-109l-7 55 c-40 -37 -88 -65 -156 -65c-99 0 -154 60 -154 155c0 86 64 143 166 153l137 14c-5 67 -40 97 -112 97c-54 0 -97 -7 -149 -22v106c51 15 107 26 163 26zM150 151c0 -37 20 -58 64 -58c36 0 82 15 126 49v82l-127 -15c-39 -5 -63 -27 -63 -58z"/>
    <glyph glyph-name="atilde" unicode="ã" horiz-adv-x="519" d="M193 647c-24 0 -34 -19 -34 -46h-82c4 76 37 133 108 133c32 0 56 -16 77 -30c18 -12 32 -21 47 -21c23 0 34 15 35 46h82c-5 -80 -40 -133 -109 -133c-32 0 -58 17 -78 30c-15 10 -31 21 -46 21zM241 519c133 0 221 -62 221 -217v-302h-109l-7 55 c-40 -37 -88 -65 -156 -65c-99 0 -154 60 -154 155c0 86 64 143 166 153l137 14c-5 67 -40 97 -112 97c-54 0 -97 -7 -149 -22v106c51 15 107 26 163 26zM150 151c0 -37 20 -58 64 -58c36 0 82 15 126 49v82l-127 -15c-39 -5 -63 -27 -63 -58z"/>
    <glyph glyph-name="ae" unicode="æ" horiz-adv-x="821" d="M785 366c0 -95 -59 -142 -167 -150l-153 -12c12 -65 54 -105 137 -105c53 0 87 6 138 24v-107c-44 -18 -89 -28 -152 -28c-94 0 -161 34 -200 94c-51 -53 -113 -92 -199 -92c-98 0 -153 60 -153 153c0 86 63 141 166 151l138 14c-4 69 -40 101 -112 101 c-55 0 -98 -8 -151 -23v108c52 15 108 25 165 25c80 0 137 -31 168 -85c47 53 114 85 184 85c119 0 191 -65 191 -153zM464 296l134 13c43 4 70 17 70 56c0 33 -27 53 -74 53c-71 0 -119 -45 -130 -122zM214 93c40 0 93 20 143 63c-5 20 -8 41 -9 64l-134 -16 c-40 -5 -64 -26 -64 -54c0 -35 20 -57 64 -57z"/>
    <glyph glyph-name="b" unicode="b" horiz-adv-x="582" d="M338 519c116 0 202 -89 202 -233v-22c0 -162 -120 -264 -279 -264h-196v701h130v-239c44 35 92 57 143 57zM410 270v13c0 71 -37 116 -96 116c-43 0 -77 -14 -119 -47v-236h55c102 0 160 56 160 154z"/>
    <glyph glyph-name="c" unicode="c" horiz-adv-x="462" d="M284 -12c-153 0 -242 111 -242 249v27c0 150 107 255 254 255c47 0 84 -10 122 -25v-111c-40 13 -65 18 -106 18c-84 0 -140 -54 -140 -139v-17c0 -85 55 -139 136 -139c45 0 77 8 117 21v-111c-44 -19 -89 -28 -141 -28z"/>
    <glyph glyph-name="cacute" unicode="ć" horiz-adv-x="462" d="M187 593l124 135h138l-140 -135h-122zM284 -12c-153 0 -242 111 -242 249v27c0 150 107 255 254 255c47 0 84 -10 122 -25v-111c-40 13 -65 18 -106 18c-84 0 -140 -54 -140 -139v-17c0 -85 55 -139 136 -139c45 0 77 8 117 21v-111c-44 -19 -89 -28 -141 -28z"/>
    <glyph glyph-name="ccaron" unicode="č" horiz-adv-x="462" d="M211 593l-112 146h102l67 -80l69 80h101l-112 -146h-115zM284 -12c-153 0 -242 111 -242 249v27c0 150 107 255 254 255c47 0 84 -10 122 -25v-111c-40 13 -65 18 -106 18c-84 0 -140 -54 -140 -139v-17c0 -85 55 -139 136 -139c45 0 77 8 117 21v-111 c-44 -19 -89 -28 -141 -28z"/>
    <glyph glyph-name="ccedilla" unicode="ç" horiz-adv-x="462" d="M425 127v-111c-29 -13 -58 -21 -90 -25c11 -19 17 -41 17 -62c0 -72 -57 -115 -128 -115c-35 0 -57 7 -83 18v82c19 -8 38 -14 56 -14c36 0 58 17 58 51c0 16 -4 29 -12 40c-128 18 -201 121 -201 246v27c0 150 107 255 254 255c47 0 84 -10 122 -25v-111 c-40 13 -65 18 -106 18c-84 0 -140 -54 -140 -139v-17c0 -85 55 -139 136 -139c45 0 77 8 117 21z"/>
    <glyph glyph-name="cdotaccent" unicode="ċ" horiz-adv-x="462" d="M268 588c-46 0 -77 29 -77 73c0 45 32 74 77 74s77 -29 77 -74c0 -44 -32 -73 -77 -73zM284 -12c-153 0 -242 111 -242 249v27c0 150 107 255 254 255c47 0 84 -10 122 -25v-111c-40 13 -65 18 -106 18c-84 0 -140 -54 -140 -139v-17c0 -85 55 -139 136 -139 c45 0 77 8 117 21v-111c-44 -19 -89 -28 -141 -28z"/>
    <glyph glyph-name="d" unicode="d" horiz-adv-x="582" d="M388 701h130v-701h-118l-6 53c-45 -38 -96 -63 -150 -63c-116 0 -202 90 -202 234v23c0 161 119 262 277 262h69v192zM172 227c0 -71 37 -117 96 -117c43 0 78 15 120 47v236h-58c-102 0 -158 -54 -158 -153v-13z"/>
    <glyph glyph-name="eth" unicode="ð" horiz-adv-x="583" d="M561 686v-85l-90 -21c39 -79 66 -175 66 -277v-34c0 -166 -98 -281 -247 -281c-153 0 -247 100 -247 231v27c0 135 89 233 243 233c38 0 71 -7 99 -19c-8 33 -19 63 -32 93l-144 -34v85l106 25c-14 25 -30 49 -45 72h125c11 -14 22 -29 33 -46zM407 263v32 c0 14 0 28 -1 42c-43 22 -72 29 -110 29c-77 0 -123 -42 -123 -121v-17c0 -76 42 -122 116 -122c73 0 118 48 118 157z"/>
    <glyph glyph-name="e" unicode="e" horiz-adv-x="522" d="M486 364c0 -98 -59 -145 -166 -154l-152 -12c13 -62 55 -99 136 -99c52 0 87 6 138 24v-107c-44 -18 -90 -28 -153 -28c-161 0 -247 97 -247 251v25c0 150 115 255 253 255c119 0 191 -65 191 -155zM164 290l136 13c42 4 70 17 70 60c0 34 -27 55 -74 55 c-72 0 -123 -47 -132 -128z"/>
    <glyph glyph-name="eacute" unicode="é" horiz-adv-x="522" d="M467 728l-140 -135h-122l124 135h138zM486 364c0 -98 -59 -145 -166 -154l-152 -12c13 -62 55 -99 136 -99c52 0 87 6 138 24v-107c-44 -18 -90 -28 -153 -28c-161 0 -247 97 -247 251v25c0 150 115 255 253 255c119 0 191 -65 191 -155zM164 290l136 13 c42 4 70 17 70 60c0 34 -27 55 -74 55c-72 0 -123 -47 -132 -128z"/>
    <glyph glyph-name="ecaron" unicode="ě" horiz-adv-x="522" d="M345 593h-115l-112 146h102l67 -80l69 80h101zM486 364c0 -98 -59 -145 -166 -154l-152 -12c13 -62 55 -99 136 -99c52 0 87 6 138 24v-107c-44 -18 -90 -28 -153 -28c-161 0 -247 97 -247 251v25c0 150 115 255 253 255c119 0 191 -65 191 -155zM164 290l136 13 c42 4 70 17 70 60c0 34 -27 55 -74 55c-72 0 -123 -47 -132 -128z"/>
    <glyph glyph-name="ecircumflex" unicode="ê" horiz-adv-x="522" d="M287 674l-68 -81h-101l112 146h114l113 -146h-103zM486 364c0 -98 -59 -145 -166 -154l-152 -12c13 -62 55 -99 136 -99c52 0 87 6 138 24v-107c-44 -18 -90 -28 -153 -28c-161 0 -247 97 -247 251v25c0 150 115 255 253 255c119 0 191 -65 191 -155zM164 290l136 13 c42 4 70 17 70 60c0 34 -27 55 -74 55c-72 0 -123 -47 -132 -128z"/>
    <glyph glyph-name="edieresis" unicode="ë" horiz-adv-x="522" d="M188 595c-42 0 -70 28 -70 68c0 41 29 69 70 69c40 0 69 -28 69 -69c0 -40 -29 -68 -69 -68zM386 595c-42 0 -70 28 -70 68c0 41 29 69 70 69c40 0 68 -28 68 -69c0 -40 -28 -68 -68 -68zM486 364c0 -98 -59 -145 -166 -154l-152 -12c13 -62 55 -99 136 -99 c52 0 87 6 138 24v-107c-44 -18 -90 -28 -153 -28c-161 0 -247 97 -247 251v25c0 150 115 255 253 255c119 0 191 -65 191 -155zM164 290l136 13c42 4 70 17 70 60c0 34 -27 55 -74 55c-72 0 -123 -47 -132 -128z"/>
    <glyph glyph-name="edotaccent" unicode="ė" horiz-adv-x="522" d="M287 588c-46 0 -77 29 -77 73c0 45 32 74 77 74s77 -29 77 -74c0 -44 -32 -73 -77 -73zM486 364c0 -98 -59 -145 -166 -154l-152 -12c13 -62 55 -99 136 -99c52 0 87 6 138 24v-107c-44 -18 -90 -28 -153 -28c-161 0 -247 97 -247 251v25c0 150 115 255 253 255 c119 0 191 -65 191 -155zM164 290l136 13c42 4 70 17 70 60c0 34 -27 55 -74 55c-72 0 -123 -47 -132 -128z"/>
    <glyph glyph-name="egrave" unicode="è" horiz-adv-x="522" d="M368 593h-122l-140 135h137zM486 364c0 -98 -59 -145 -166 -154l-152 -12c13 -62 55 -99 136 -99c52 0 87 6 138 24v-107c-44 -18 -90 -28 -153 -28c-161 0 -247 97 -247 251v25c0 150 115 255 253 255c119 0 191 -65 191 -155zM164 290l136 13c42 4 70 17 70 60 c0 34 -27 55 -74 55c-72 0 -123 -47 -132 -128z"/>
    <glyph glyph-name="emacron" unicode="ē" horiz-adv-x="522" d="M423 708v-100h-275v100h275zM486 364c0 -98 -59 -145 -166 -154l-152 -12c13 -62 55 -99 136 -99c52 0 87 6 138 24v-107c-44 -18 -90 -28 -153 -28c-161 0 -247 97 -247 251v25c0 150 115 255 253 255c119 0 191 -65 191 -155zM164 290l136 13c42 4 70 17 70 60 c0 34 -27 55 -74 55c-72 0 -123 -47 -132 -128z"/>
    <glyph glyph-name="f" unicode="f" horiz-adv-x="413" d="M65 0v491c0 145 87 228 209 228c48 0 84 -9 118 -22v-96c-31 10 -57 15 -90 15c-64 0 -106 -28 -106 -100v-7h185v-117h-185v-392h-131z"/>
    <glyph glyph-name="g" unicode="g" horiz-adv-x="579" d="M515 509v-463c0 -149 -107 -252 -269 -252c-63 0 -118 13 -169 33v106c49 -16 96 -27 162 -27c92 0 148 52 148 143v26c-43 -35 -91 -58 -147 -58c-114 0 -198 76 -198 220v21c0 152 134 251 274 251h199zM266 133c45 0 80 16 121 49v211h-58c-98 0 -159 -53 -159 -140 v-13c0 -72 38 -107 96 -107z"/>
    <glyph glyph-name="gdotaccent" unicode="ġ" horiz-adv-x="579" d="M313 588c-46 0 -77 29 -77 73c0 45 32 74 77 74s77 -29 77 -74c0 -44 -32 -73 -77 -73zM515 509v-463c0 -149 -107 -252 -269 -252c-63 0 -118 13 -169 33v106c49 -16 96 -27 162 -27c92 0 148 52 148 143v26c-43 -35 -91 -58 -147 -58c-114 0 -198 76 -198 220v21 c0 152 134 251 274 251h199zM266 133c45 0 80 16 121 49v211h-58c-98 0 -159 -53 -159 -140v-13c0 -72 38 -107 96 -107z"/>
    <glyph glyph-name="h" unicode="h" horiz-adv-x="581" d="M285 519c164 0 240 -100 240 -251v-268h-131v248c0 94 -24 152 -123 152c-24 0 -53 -3 -75 -9v-391h-131v701h131v-194c30 8 61 12 89 12z"/>
    <glyph glyph-name="i" unicode="i" horiz-adv-x="263" d="M131 588c-46 0 -77 29 -77 73c0 45 32 74 77 74s77 -29 77 -74c0 -44 -32 -73 -77 -73zM66 0v509h131v-509h-131z"/>
    <glyph glyph-name="dotlessi" unicode="ı" horiz-adv-x="263" d="M66 0v509h131v-509h-131z"/>
    <glyph glyph-name="iacute" unicode="í" horiz-adv-x="263" d="M50 593l124 135h138l-140 -135h-122zM66 0v509h131v-509h-131z"/>
    <glyph glyph-name="icircumflex" unicode="î" horiz-adv-x="263" d="M-38 593l112 146h114l113 -146h-103l-67 81l-68 -81h-101zM66 0v509h131v-509h-131z"/>
    <glyph glyph-name="idieresis" unicode="ï" horiz-adv-x="263" d="M33 595c-42 0 -70 28 -70 68c0 41 29 69 70 69c40 0 69 -28 69 -69c0 -40 -29 -68 -69 -68zM231 595c-42 0 -70 28 -70 68c0 41 29 69 70 69c40 0 68 -28 68 -69c0 -40 -28 -68 -68 -68zM66 0v509h131v-509h-131z"/>
    <glyph glyph-name="i.loclTRK" horiz-adv-x="263" d="M131 588c-46 0 -77 29 -77 73c0 45 32 74 77 74s77 -29 77 -74c0 -44 -32 -73 -77 -73zM66 0v509h131v-509h-131z"/>
    <glyph glyph-name="igrave" unicode="ì" horiz-adv-x="263" d="M90 593l-140 135h137l125 -135h-122zM66 0v509h131v-509h-131z"/>
    <glyph glyph-name="ij" unicode="ĳ" horiz-adv-x="526" d="M131 588c-46 0 -77 29 -77 73c0 45 32 74 77 74s77 -29 77 -74c0 -44 -32 -73 -77 -73zM394 588c-46 0 -77 29 -77 73c0 45 32 74 77 74s77 -29 77 -74c0 -44 -32 -73 -77 -73zM66 0v509h131v-509h-131zM274 -206c-38 0 -79 9 -108 23v103c24 -9 47 -14 83 -14 c49 0 80 29 80 87v516h131v-499c0 -135 -74 -216 -186 -216z"/>
    <glyph glyph-name="imacron" unicode="ī" horiz-adv-x="263" d="M-7 708h275v-100h-275v100zM66 0v509h131v-509h-131z"/>
    <glyph glyph-name="j" unicode="j" horiz-adv-x="263" d="M131 588c-46 0 -77 29 -77 73c0 45 32 74 77 74s77 -29 77 -74c0 -44 -32 -73 -77 -73zM11 -206c-38 0 -79 9 -108 23v103c24 -9 47 -14 83 -14c49 0 80 29 80 87v516h131v-499c0 -135 -74 -216 -186 -216z"/>
    <glyph glyph-name="k" unicode="k" horiz-adv-x="553" d="M548 0h-164l-190 229v-229h-129v701h129v-399l189 207h152l-215 -232z"/>
    <glyph glyph-name="l" unicode="l" horiz-adv-x="261" d="M65 0v701h131v-701h-131z"/>
    <glyph glyph-name="m" unicode="m" horiz-adv-x="867" d="M592 519c156 0 219 -97 219 -247v-272h-131v252c0 98 -29 149 -111 149c-33 0 -62 -8 -85 -18c15 -38 23 -82 23 -129v-254h-132v251c0 99 -26 150 -110 150c-24 0 -49 -4 -69 -9v-392h-131v488c62 17 141 31 210 31c61 0 109 -17 146 -47c43 22 106 47 171 47z"/>
    <glyph glyph-name="n" unicode="n" horiz-adv-x="581" d="M65 0v488c62 17 145 31 213 31c171 0 247 -100 247 -251v-268h-131v248c0 94 -24 152 -123 152c-24 0 -53 -3 -75 -9v-391h-131z"/>
    <glyph glyph-name="nacute" unicode="ń" horiz-adv-x="581" d="M207 593l124 135h138l-140 -135h-122zM65 0v488c62 17 145 31 213 31c171 0 247 -100 247 -251v-268h-131v248c0 94 -24 152 -123 152c-24 0 -53 -3 -75 -9v-391h-131z"/>
    <glyph glyph-name="ncaron" unicode="ň" horiz-adv-x="581" d="M232 593l-112 146h102l67 -80l69 80h101l-112 -146h-115zM65 0v488c62 17 145 31 213 31c171 0 247 -100 247 -251v-268h-131v248c0 94 -24 152 -123 152c-24 0 -53 -3 -75 -9v-391h-131z"/>
    <glyph glyph-name="ntilde" unicode="ñ" horiz-adv-x="581" d="M354 596c-32 0 -58 17 -78 30c-15 10 -31 21 -46 21c-24 0 -34 -19 -34 -46h-82c4 76 37 133 108 133c32 0 56 -16 77 -30c18 -12 32 -21 47 -21c23 0 34 15 35 46h82c-5 -80 -40 -133 -109 -133zM65 0v488c62 17 145 31 213 31c171 0 247 -100 247 -251v-268h-131v248 c0 94 -24 152 -123 152c-24 0 -53 -3 -75 -9v-391h-131z"/>
    <glyph glyph-name="o" unicode="o" horiz-adv-x="580" d="M289 -12c-152 0 -247 107 -247 248v27c0 138 96 256 247 256c153 0 248 -107 248 -248v-26c0 -140 -97 -257 -248 -257zM289 106c74 0 118 54 118 140v16c0 86 -42 139 -116 139s-119 -55 -119 -139v-16c0 -87 42 -140 117 -140z"/>
    <glyph glyph-name="oacute" unicode="ó" horiz-adv-x="580" d="M208 593l124 135h138l-140 -135h-122zM289 -12c-152 0 -247 107 -247 248v27c0 138 96 256 247 256c153 0 248 -107 248 -248v-26c0 -140 -97 -257 -248 -257zM289 106c74 0 118 54 118 140v16c0 86 -42 139 -116 139s-119 -55 -119 -139v-16c0 -87 42 -140 117 -140z "/>
    <glyph glyph-name="ocircumflex" unicode="ô" horiz-adv-x="580" d="M121 593l112 146h114l113 -146h-103l-67 81l-68 -81h-101zM289 -12c-152 0 -247 107 -247 248v27c0 138 96 256 247 256c153 0 248 -107 248 -248v-26c0 -140 -97 -257 -248 -257zM289 106c74 0 118 54 118 140v16c0 86 -42 139 -116 139s-119 -55 -119 -139v-16 c0 -87 42 -140 117 -140z"/>
    <glyph glyph-name="odieresis" unicode="ö" horiz-adv-x="580" d="M191 595c-42 0 -70 28 -70 68c0 41 29 69 70 69c40 0 69 -28 69 -69c0 -40 -29 -68 -69 -68zM389 595c-42 0 -70 28 -70 68c0 41 29 69 70 69c40 0 68 -28 68 -69c0 -40 -28 -68 -68 -68zM289 -12c-152 0 -247 107 -247 248v27c0 138 96 256 247 256 c153 0 248 -107 248 -248v-26c0 -140 -97 -257 -248 -257zM289 106c74 0 118 54 118 140v16c0 86 -42 139 -116 139s-119 -55 -119 -139v-16c0 -87 42 -140 117 -140z"/>
    <glyph glyph-name="ograve" unicode="ò" horiz-adv-x="580" d="M249 593l-140 135h137l125 -135h-122zM289 -12c-152 0 -247 107 -247 248v27c0 138 96 256 247 256c153 0 248 -107 248 -248v-26c0 -140 -97 -257 -248 -257zM289 106c74 0 118 54 118 140v16c0 86 -42 139 -116 139s-119 -55 -119 -139v-16c0 -87 42 -140 117 -140z "/>
    <glyph glyph-name="omacron" unicode="ō" horiz-adv-x="580" d="M151 708h275v-100h-275v100zM289 -12c-152 0 -247 107 -247 248v27c0 138 96 256 247 256c153 0 248 -107 248 -248v-26c0 -140 -97 -257 -248 -257zM289 106c74 0 118 54 118 140v16c0 86 -42 139 -116 139s-119 -55 -119 -139v-16c0 -87 42 -140 117 -140z"/>
    <glyph glyph-name="oslash" unicode="ø" horiz-adv-x="580" d="M556 557l-82 -115c40 -44 62 -103 62 -171v-26c0 -140 -98 -257 -248 -257c-45 0 -85 9 -119 26l-46 -65h-99l81 113c-41 44 -64 105 -64 174v27c0 138 96 256 246 256c47 0 88 -10 123 -28l47 66h99zM171 246c0 -28 4 -52 13 -73l155 218c-15 7 -31 10 -50 10 c-74 0 -118 -55 -118 -139v-16zM406 262c0 26 -4 49 -11 68l-154 -216c13 -5 29 -8 46 -8c74 0 119 54 119 140v16z"/>
    <glyph glyph-name="otilde" unicode="õ" horiz-adv-x="580" d="M355 596c-32 0 -58 17 -78 30c-15 10 -31 21 -46 21c-24 0 -34 -19 -34 -46h-82c4 76 37 133 108 133c32 0 56 -16 77 -30c18 -12 32 -21 47 -21c23 0 34 15 35 46h82c-5 -80 -40 -133 -109 -133zM289 -12c-152 0 -247 107 -247 248v27c0 138 96 256 247 256 c153 0 248 -107 248 -248v-26c0 -140 -97 -257 -248 -257zM289 106c74 0 118 54 118 140v16c0 86 -42 139 -116 139s-119 -55 -119 -139v-16c0 -87 42 -140 117 -140z"/>
    <glyph glyph-name="oe" unicode="œ" horiz-adv-x="897" d="M861 364c0 -97 -59 -145 -166 -153l-153 -12c13 -63 55 -100 137 -100c52 0 87 6 138 24v-107c-44 -18 -90 -28 -153 -28c-91 0 -157 31 -198 87c-37 -53 -95 -87 -176 -87c-152 0 -248 107 -248 249v26c0 139 97 256 247 256c88 0 150 -36 186 -93c46 58 118 93 195 93 c119 0 191 -65 191 -155zM539 290l136 13c42 4 70 18 70 60c0 34 -28 55 -74 55c-72 0 -123 -47 -132 -128zM407 246v16c0 86 -43 139 -116 139c-74 0 -118 -55 -118 -139v-16c0 -87 42 -140 116 -140s118 55 118 140z"/>
    <glyph glyph-name="p" unicode="p" horiz-adv-x="582" d="M338 519c116 0 202 -90 202 -234v-23c0 -161 -118 -262 -277 -262h-68v-196h-130v705h117l6 -53c46 38 96 63 150 63zM411 269v13c0 71 -38 117 -97 117c-43 0 -77 -15 -119 -47v-236h57c102 0 159 54 159 153z"/>
    <glyph glyph-name="thorn" unicode="þ" horiz-adv-x="582" d="M338 519c116 0 202 -90 202 -234v-23c0 -161 -118 -262 -277 -262h-67v-196h-131v897h131v-238c43 34 92 56 142 56zM411 269v13c0 71 -38 117 -97 117c-43 0 -77 -14 -118 -46v-237h56c102 0 159 54 159 153z"/>
    <glyph glyph-name="q" unicode="q" horiz-adv-x="581" d="M516 509v-705h-130v242c-44 -34 -92 -56 -142 -56c-116 0 -202 90 -202 234v23c0 161 121 262 279 262h195zM268 110c42 0 77 14 118 46v237h-54c-102 0 -160 -54 -160 -153v-13c0 -71 37 -117 96 -117z"/>
    <glyph glyph-name="r" unicode="r" horiz-adv-x="389" d="M65 0v486c63 18 134 32 203 32c29 0 67 -2 89 -6v-122c-22 5 -56 8 -80 8c-22 0 -54 -3 -81 -9v-389h-131z"/>
    <glyph glyph-name="racute" unicode="ŕ" horiz-adv-x="389" d="M134 593l124 135h138l-140 -135h-122zM65 0v486c63 18 134 32 203 32c29 0 67 -2 89 -6v-122c-22 5 -56 8 -80 8c-22 0 -54 -3 -81 -9v-389h-131z"/>
    <glyph glyph-name="rcaron" unicode="ř" horiz-adv-x="389" d="M159 593l-112 146h102l67 -80l69 80h101l-112 -146h-115zM65 0v486c63 18 134 32 203 32c29 0 67 -2 89 -6v-122c-22 5 -56 8 -80 8c-22 0 -54 -3 -81 -9v-389h-131z"/>
    <glyph glyph-name="s" unicode="s" horiz-adv-x="491" d="M234 -12c-68 0 -129 15 -181 38v110c54 -20 114 -36 182 -36c56 0 82 15 82 46s-29 43 -86 58c-116 30 -178 61 -178 165c0 85 77 150 192 150c80 0 124 -13 177 -34v-108c-63 22 -109 30 -171 30c-46 0 -69 -14 -69 -40c0 -29 27 -41 93 -58c105 -26 173 -65 173 -158 s-60 -163 -214 -163z"/>
    <glyph glyph-name="sacute" unicode="ś" horiz-adv-x="491" d="M166 593l124 135h138l-140 -135h-122zM234 -12c-68 0 -129 15 -181 38v110c54 -20 114 -36 182 -36c56 0 82 15 82 46s-29 43 -86 58c-116 30 -178 61 -178 165c0 85 77 150 192 150c80 0 124 -13 177 -34v-108c-63 22 -109 30 -171 30c-46 0 -69 -14 -69 -40 c0 -29 27 -41 93 -58c105 -26 173 -65 173 -158s-60 -163 -214 -163z"/>
    <glyph glyph-name="scaron" unicode="š" horiz-adv-x="491" d="M190 593l-112 146h102l67 -80l69 80h101l-112 -146h-115zM234 -12c-68 0 -129 15 -181 38v110c54 -20 114 -36 182 -36c56 0 82 15 82 46s-29 43 -86 58c-116 30 -178 61 -178 165c0 85 77 150 192 150c80 0 124 -13 177 -34v-108c-63 22 -109 30 -171 30 c-46 0 -69 -14 -69 -40c0 -29 27 -41 93 -58c105 -26 173 -65 173 -158s-60 -163 -214 -163z"/>
    <glyph glyph-name="germandbls" unicode="ß" horiz-adv-x="649" d="M430 -12c-77 0 -122 13 -165 34v103c39 -17 79 -27 124 -27c57 0 90 19 90 62c0 52 -46 63 -85 81c-55 24 -107 43 -107 116c0 76 85 111 85 171c0 43 -28 67 -81 67c-68 0 -99 -52 -99 -128v-467h-128v454c0 163 90 257 234 257c138 0 202 -72 202 -149 c0 -90 -92 -119 -92 -175c0 -42 53 -54 98 -78c49 -25 101 -64 101 -154c0 -94 -74 -167 -177 -167z"/>
    <glyph glyph-name="t" unicode="t" horiz-adv-x="402" d="M281 107c33 0 59 3 86 11v-109c-33 -13 -75 -20 -120 -20c-112 0 -184 82 -184 224v433h131v-137h168v-117h-168v-179c0 -72 34 -106 87 -106z"/>
    <glyph glyph-name="u" unicode="u" horiz-adv-x="576" d="M299 -9c-169 0 -242 99 -242 250v268h131v-248c0 -94 22 -151 119 -151c24 0 50 3 73 8v391h131v-487c-62 -17 -143 -31 -212 -31z"/>
    <glyph glyph-name="uacute" unicode="ú" horiz-adv-x="576" d="M205 593l124 135h138l-140 -135h-122zM299 -9c-169 0 -242 99 -242 250v268h131v-248c0 -94 22 -151 119 -151c24 0 50 3 73 8v391h131v-487c-62 -17 -143 -31 -212 -31z"/>
    <glyph glyph-name="ucircumflex" unicode="û" horiz-adv-x="576" d="M117 593l112 146h114l113 -146h-103l-67 81l-68 -81h-101zM299 -9c-169 0 -242 99 -242 250v268h131v-248c0 -94 22 -151 119 -151c24 0 50 3 73 8v391h131v-487c-62 -17 -143 -31 -212 -31z"/>
    <glyph glyph-name="udieresis" unicode="ü" horiz-adv-x="576" d="M188 595c-42 0 -70 28 -70 68c0 41 29 69 70 69c40 0 69 -28 69 -69c0 -40 -29 -68 -69 -68zM386 595c-42 0 -70 28 -70 68c0 41 29 69 70 69c40 0 68 -28 68 -69c0 -40 -28 -68 -68 -68zM299 -9c-169 0 -242 99 -242 250v268h131v-248c0 -94 22 -151 119 -151 c24 0 50 3 73 8v391h131v-487c-62 -17 -143 -31 -212 -31z"/>
    <glyph glyph-name="ugrave" unicode="ù" horiz-adv-x="576" d="M245 593l-140 135h137l125 -135h-122zM299 -9c-169 0 -242 99 -242 250v268h131v-248c0 -94 22 -151 119 -151c24 0 50 3 73 8v391h131v-487c-62 -17 -143 -31 -212 -31z"/>
    <glyph glyph-name="umacron" unicode="ū" horiz-adv-x="576" d="M148 708h275v-100h-275v100zM299 -9c-169 0 -242 99 -242 250v268h131v-248c0 -94 22 -151 119 -151c24 0 50 3 73 8v391h131v-487c-62 -17 -143 -31 -212 -31z"/>
    <glyph glyph-name="uring" unicode="ů" horiz-adv-x="576" d="M286 585c-60 0 -112 46 -112 112c0 63 53 110 112 110c62 0 112 -48 112 -110c0 -65 -52 -112 -112 -112zM286 651c25 0 43 19 43 45c0 25 -19 44 -43 44c-25 0 -43 -19 -43 -44c0 -26 19 -45 43 -45zM299 -9c-169 0 -242 99 -242 250v268h131v-248 c0 -94 22 -151 119 -151c24 0 50 3 73 8v391h131v-487c-62 -17 -143 -31 -212 -31z"/>
    <glyph glyph-name="v" unicode="v" horiz-adv-x="553" d="M394 509h146l-193 -509h-141l-193 509h151l116 -359z"/>
    <glyph glyph-name="w" unicode="w" horiz-adv-x="786" d="M175 0l-149 509h145l74 -350l88 334h121l93 -334l73 350h139l-147 -509h-122l-99 339l-91 -339h-125z"/>
    <glyph glyph-name="wacute" unicode="ẃ" horiz-adv-x="786" d="M312 593l124 135h138l-140 -135h-122zM175 0l-149 509h145l74 -350l88 334h121l93 -334l73 350h139l-147 -509h-122l-99 339l-91 -339h-125z"/>
    <glyph glyph-name="wcircumflex" unicode="ŵ" horiz-adv-x="786" d="M224 593l112 146h114l113 -146h-103l-67 81l-68 -81h-101zM175 0l-149 509h145l74 -350l88 334h121l93 -334l73 350h139l-147 -509h-122l-99 339l-91 -339h-125z"/>
    <glyph glyph-name="wdieresis" unicode="ẅ" horiz-adv-x="786" d="M295 595c-42 0 -70 28 -70 68c0 41 29 69 70 69c40 0 69 -28 69 -69c0 -40 -29 -68 -69 -68zM493 595c-42 0 -70 28 -70 68c0 41 29 69 70 69c40 0 68 -28 68 -69c0 -40 -28 -68 -68 -68zM175 0l-149 509h145l74 -350l88 334h121l93 -334l73 350h139l-147 -509h-122 l-99 339l-91 -339h-125z"/>
    <glyph glyph-name="wgrave" unicode="ẁ" horiz-adv-x="786" d="M352 593l-140 135h137l125 -135h-122zM175 0l-149 509h145l74 -350l88 334h121l93 -334l73 350h139l-147 -509h-122l-99 339l-91 -339h-125z"/>
    <glyph glyph-name="x" unicode="x" horiz-adv-x="577" d="M566 0h-159l-125 173l-125 -173h-146l201 265l-187 244h158l108 -151l108 151h146l-183 -239z"/>
    <glyph glyph-name="y" unicode="y" horiz-adv-x="551" d="M148 -206c-31 0 -73 10 -96 24v102c26 -10 53 -15 81 -15c38 0 63 18 83 69l9 22l-213 513h149l127 -350l106 350h146l-201 -548c-39 -110 -95 -167 -191 -167z"/>
    <glyph glyph-name="yacute" unicode="ý" horiz-adv-x="551" d="M190 593l124 135h138l-140 -135h-122zM148 -206c-31 0 -73 10 -96 24v102c26 -10 53 -15 81 -15c38 0 63 18 83 69l9 22l-213 513h149l127 -350l106 350h146l-201 -548c-39 -110 -95 -167 -191 -167z"/>
    <glyph glyph-name="ycircumflex" unicode="ŷ" horiz-adv-x="551" d="M102 593l112 146h114l113 -146h-103l-67 81l-68 -81h-101zM148 -206c-31 0 -73 10 -96 24v102c26 -10 53 -15 81 -15c38 0 63 18 83 69l9 22l-213 513h149l127 -350l106 350h146l-201 -548c-39 -110 -95 -167 -191 -167z"/>
    <glyph glyph-name="ydieresis" unicode="ÿ" horiz-adv-x="551" d="M173 595c-42 0 -70 28 -70 68c0 41 29 69 70 69c40 0 69 -28 69 -69c0 -40 -29 -68 -69 -68zM371 595c-42 0 -70 28 -70 68c0 41 29 69 70 69c40 0 68 -28 68 -69c0 -40 -28 -68 -68 -68zM148 -206c-31 0 -73 10 -96 24v102c26 -10 53 -15 81 -15c38 0 63 18 83 69l9 22 l-213 513h149l127 -350l106 350h146l-201 -548c-39 -110 -95 -167 -191 -167z"/>
    <glyph glyph-name="ygrave" unicode="ỳ" horiz-adv-x="551" d="M230 593l-140 135h137l125 -135h-122zM148 -206c-31 0 -73 10 -96 24v102c26 -10 53 -15 81 -15c38 0 63 18 83 69l9 22l-213 513h149l127 -350l106 350h146l-201 -548c-39 -110 -95 -167 -191 -167z"/>
    <glyph glyph-name="z" unicode="z" horiz-adv-x="483" d="M48 0v107l239 288h-232v114h378v-107l-235 -288h243v-114h-393z"/>
    <glyph glyph-name="zacute" unicode="ź" horiz-adv-x="483" d="M166 593l124 135h138l-140 -135h-122zM48 0v107l239 288h-232v114h378v-107l-235 -288h243v-114h-393z"/>
    <glyph glyph-name="zcaron" unicode="ž" horiz-adv-x="483" d="M190 593l-112 146h102l67 -80l69 80h101l-112 -146h-115zM48 0v107l239 288h-232v114h378v-107l-235 -288h243v-114h-393z"/>
    <glyph glyph-name="zdotaccent" unicode="ż" horiz-adv-x="483" d="M247 588c-46 0 -77 29 -77 73c0 45 32 74 77 74s77 -29 77 -74c0 -44 -32 -73 -77 -73zM48 0v107l239 288h-232v114h378v-107l-235 -288h243v-114h-393z"/>
    <glyph glyph-name="ordfeminine" unicode="ª" horiz-adv-x="442" d="M208 718c105 0 178 -53 178 -173v-216h-86l-6 44c-32 -29 -72 -52 -127 -52c-79 0 -124 46 -124 117c0 66 52 111 133 119l112 10c-7 40 -34 65 -91 65c-40 0 -77 -5 -121 -17v83c41 12 90 20 132 20zM137 443c0 -26 19 -41 50 -41c27 0 66 14 102 40v53l-102 -12 c-32 -4 -50 -19 -50 -40z"/>
    <glyph glyph-name="ordmasculine" unicode="º" horiz-adv-x="487" d="M243 322c-121 0 -194 81 -194 186v18c0 103 74 191 193 191c122 0 196 -79 196 -185v-17c0 -105 -75 -193 -195 -193zM243 423c54 0 86 38 86 92v11c0 55 -32 91 -85 91c-52 0 -85 -37 -85 -91v-11c0 -57 31 -92 84 -92z"/>
    <glyph glyph-name="zero" unicode="0" horiz-adv-x="589" d="M295 -12c-157 0 -244 138 -244 322v37c0 183 86 330 243 330c158 0 244 -136 244 -321v-37c0 -184 -85 -331 -243 -331zM295 115c72 0 107 76 107 206v24c0 132 -34 206 -107 206s-108 -75 -108 -206v-24c0 -130 34 -206 108 -206z"/>
    <glyph glyph-name="one" unicode="1" horiz-adv-x="525" d="M360 117h132v-117h-429v117h165v415l-177 -39v110l221 63h88v-549z"/>
    <glyph glyph-name="two" unicode="2" horiz-adv-x="553" d="M233 117h262v-117h-428v117l181 184c67 68 109 111 109 168c0 59 -47 85 -114 85c-58 0 -116 -13 -182 -37v116c59 26 129 44 201 44c146 0 229 -81 229 -192c0 -92 -46 -153 -150 -259z"/>
    <glyph glyph-name="three" unicode="3" horiz-adv-x="564" d="M402 361c70 -30 106 -91 106 -170c0 -119 -95 -203 -243 -203c-82 0 -157 22 -215 47v115c67 -25 134 -41 198 -41c82 0 125 33 125 88s-41 87 -123 87h-96v120h87c82 0 120 27 120 76c0 48 -38 76 -120 76c-55 0 -117 -9 -184 -34v115c61 25 125 40 202 40 c150 0 235 -72 235 -175c0 -63 -35 -113 -92 -141z"/>
    <glyph glyph-name="four" unicode="4" horiz-adv-x="584" d="M544 264v-112h-86v-152h-124v152h-298v112l300 402h122v-402h86zM156 264h178v239z"/>
    <glyph glyph-name="five" unicode="5" horiz-adv-x="555" d="M262 -12c-82 0 -153 23 -211 48v115c67 -26 130 -41 195 -41c81 0 129 35 129 93c0 57 -39 92 -121 92h-173l51 371h334v-121h-233l-17 -141h68c139 0 225 -77 225 -207c0 -121 -98 -209 -247 -209z"/>
    <glyph glyph-name="six" unicode="6" horiz-adv-x="571" d="M313 414c122 0 210 -69 210 -204c0 -116 -76 -222 -223 -222c-160 0 -250 122 -250 329v24c0 201 128 336 283 336c58 0 109 -13 152 -36v-108c-40 19 -89 27 -134 27c-105 0 -166 -62 -178 -173c45 17 93 27 140 27zM301 103c68 0 102 45 102 102c0 64 -35 102 -101 102 c-47 0 -82 -6 -131 -24c6 -119 54 -180 130 -180z"/>
    <glyph glyph-name="seven" unicode="7" horiz-adv-x="553" d="M131 0l218 541h-302v125h450v-111l-222 -555h-144z"/>
    <glyph glyph-name="eight" unicode="8" horiz-adv-x="588" d="M439 353c63 -31 102 -86 102 -153v-10c0 -119 -104 -202 -247 -202c-148 0 -247 80 -247 199v10c0 67 39 122 102 155c-52 32 -84 80 -84 132v10c0 109 94 183 231 183c136 0 230 -72 230 -177v-10c0 -52 -34 -103 -87 -137zM190 490v-6c0 -49 37 -81 105 -81 c66 0 104 33 104 82v6c0 45 -39 77 -103 77s-106 -33 -106 -78zM415 198v4c0 60 -41 97 -120 97c-77 0 -123 -37 -123 -96v-5c0 -60 48 -97 124 -97c71 0 119 38 119 97z"/>
    <glyph glyph-name="nine" unicode="9" horiz-adv-x="569" d="M274 678c153 0 243 -121 243 -329v-24c0 -216 -125 -337 -279 -337c-63 0 -114 14 -159 37v108c41 -18 90 -28 141 -28c103 0 164 53 174 172c-45 -16 -94 -26 -140 -26c-122 0 -210 70 -210 205c0 116 79 222 230 222zM163 463c0 -65 42 -104 110 -104c46 0 78 6 123 22 c-5 119 -52 182 -123 182c-73 0 -110 -41 -110 -100z"/>
    <glyph glyph-name="zero.tf" d="M284 -12c-158 0 -245 138 -245 322v37c0 183 87 330 244 330c158 0 244 -136 244 -321v-37c0 -184 -86 -331 -243 -331zM284 115c72 0 106 76 106 206v24c0 132 -34 206 -106 206c-74 0 -108 -75 -108 -206v-24c0 -130 33 -206 108 -206z"/>
    <glyph glyph-name="one.tf" d="M381 117h132v-117h-430v117h166v415l-177 -39v110l221 63h88v-549z"/>
    <glyph glyph-name="two.tf" d="M237 117h262v-117h-428v117l181 184c67 68 109 111 109 168c0 59 -47 85 -114 85c-58 0 -116 -13 -182 -37v116c59 26 129 44 201 44c146 0 229 -81 229 -192c0 -92 -46 -153 -150 -259z"/>
    <glyph glyph-name="three.tf" d="M405 361c70 -30 106 -91 106 -170c0 -119 -95 -203 -243 -203c-82 0 -157 22 -215 47v115c67 -25 134 -41 198 -41c82 0 125 33 125 88s-41 87 -123 87h-96v120h87c82 0 120 27 120 76c0 48 -38 76 -120 76c-55 0 -117 -9 -184 -34v115c61 25 125 40 202 40 c150 0 235 -72 235 -175c0 -63 -35 -113 -92 -141z"/>
    <glyph glyph-name="four.tf" d="M538 264v-112h-86v-152h-124v152h-298v112l300 402h122v-402h86zM150 264h178v239z"/>
    <glyph glyph-name="five.tf" d="M269 -12c-82 0 -153 23 -211 48v115c68 -26 131 -41 195 -41c82 0 130 35 130 93c0 57 -40 92 -122 92h-172l50 371h334v-121h-232l-18 -141h69c138 0 224 -77 224 -207c0 -121 -98 -209 -247 -209z"/>
    <glyph glyph-name="six.tf" d="M310 414c122 0 211 -69 211 -204c0 -116 -77 -222 -223 -222c-161 0 -251 122 -251 329v24c0 201 128 336 283 336c58 0 109 -13 153 -36v-108c-40 19 -90 27 -135 27c-104 0 -166 -62 -178 -173c45 17 93 27 140 27zM298 103c68 0 103 45 103 102c0 64 -36 102 -101 102 c-48 0 -82 -6 -132 -24c6 -119 54 -180 130 -180z"/>
    <glyph glyph-name="seven.tf" d="M136 0l218 541h-302v125h450v-111l-222 -555h-144z"/>
    <glyph glyph-name="eight.tf" d="M428 353c63 -31 102 -86 102 -153v-10c0 -119 -104 -202 -247 -202c-148 0 -247 80 -247 199v10c0 67 39 122 102 155c-52 32 -84 80 -84 132v10c0 109 94 183 231 183c136 0 230 -72 230 -177v-10c0 -52 -34 -103 -87 -137zM179 490v-6c0 -49 37 -81 105 -81 c66 0 104 33 104 82v6c0 45 -39 77 -103 77s-106 -33 -106 -78zM404 198v4c0 60 -41 97 -120 97c-77 0 -123 -37 -123 -96v-5c0 -60 48 -97 124 -97c71 0 119 38 119 97z"/>
    <glyph glyph-name="nine.tf" d="M273 678c153 0 243 -121 243 -329v-24c0 -216 -124 -337 -278 -337c-64 0 -115 14 -159 37v108c40 -18 89 -28 141 -28c102 0 163 53 174 172c-45 -16 -94 -26 -140 -26c-122 0 -211 70 -211 205c0 116 79 222 230 222zM162 463c0 -65 43 -104 110 -104c47 0 78 6 124 22 c-5 119 -53 182 -124 182c-72 0 -110 -41 -110 -100z"/>
    <glyph glyph-name="uni2070" unicode="⁰" horiz-adv-x="428" d="M214 283c-110 0 -172 82 -172 185v20c0 102 62 190 172 190s172 -80 172 -185v-20c0 -103 -61 -190 -172 -190zM214 376c47 0 71 35 71 98v13c0 63 -24 98 -71 98s-70 -35 -70 -98v-13c0 -63 23 -98 70 -98z"/>
    <glyph glyph-name="uni00B9" unicode="¹" horiz-adv-x="403" d="M277 378h86v-88h-296v88h109v193l-116 -22v83l150 39h67v-293z"/>
    <glyph glyph-name="uni00B2" unicode="²" horiz-adv-x="404" d="M191 376h154v-86h-292v86l120 95c42 34 70 55 70 80c0 29 -31 36 -71 36c-38 0 -79 -5 -123 -20v86c41 15 87 25 137 25c100 0 157 -46 157 -114c0 -52 -32 -88 -102 -146z"/>
    <glyph glyph-name="uni00B3" unicode="³" horiz-adv-x="424" d="M293 496c50 -15 76 -49 76 -94c0 -72 -66 -119 -166 -119c-53 0 -107 12 -147 27v83c48 -16 90 -24 134 -24c52 0 79 15 79 40c0 29 -33 38 -78 38h-66v76h61c49 0 76 10 76 36c0 21 -25 33 -76 33c-38 0 -79 -4 -125 -19v82c43 16 88 23 137 23c102 0 161 -40 161 -101 c0 -37 -25 -65 -66 -81z"/>
    <glyph glyph-name="uni2074" unicode="⁴" horiz-adv-x="415" d="M382 451v-78h-61v-83h-89v83h-196v78l205 220h80v-220h61zM124 451h108v116z"/>
    <glyph glyph-name="fraction" unicode="⁄" horiz-adv-x="658" d="M29 0l476 666h124l-476 -666h-124z"/>
    <glyph glyph-name="onehalf" unicode="½" horiz-adv-x="1052" d="M80 378h109v193l-116 -22v83l150 39h68v-293h85v-88h-296v88zM714 666h125l-476 -666h-125zM842 86h155v-86h-292v86l119 95c42 34 71 56 71 81c0 29 -32 36 -71 36c-38 0 -79 -6 -123 -21v86c41 16 86 25 137 25c99 0 156 -46 156 -114c0 -52 -32 -87 -101 -146z"/>
    <glyph glyph-name="onequarter" unicode="¼" horiz-adv-x="994" d="M79 378h109v193l-116 -22v83l150 39h68v-293h85v-88h-296v88zM715 666h125l-476 -666h-125zM941 162v-78h-60v-83h-89v83h-196v78l204 220h81v-220h60zM684 162h108v116z"/>
    <glyph glyph-name="threequarters" unicode="¾" horiz-adv-x="975" d="M384 402c0 -72 -66 -119 -166 -119c-53 0 -107 12 -147 27v83c48 -16 90 -24 134 -24c52 0 79 15 79 40c0 29 -33 38 -78 38h-66v76h61c49 0 76 10 76 36c0 21 -25 33 -76 33c-38 0 -79 -4 -125 -19v82c43 16 88 23 137 23c102 0 161 -40 161 -101c0 -37 -25 -65 -66 -81 c50 -15 76 -49 76 -94zM697 666h125l-476 -666h-125zM924 162v-78h-61v-83h-89v83h-196v78l205 220h80v-220h61zM666 162h108v116z"/>
    <glyph glyph-name="period" unicode="." horiz-adv-x="228" d="M114 -10c-46 0 -75 35 -75 76s29 76 75 76c47 0 75 -35 75 -76c0 -40 -28 -76 -75 -76z"/>
    <glyph glyph-name="comma" unicode="," horiz-adv-x="228" d="M13 -99l65 217h121l-81 -217h-105z"/>
    <glyph glyph-name="colon" unicode=":" horiz-adv-x="228" d="M114 364c-46 0 -75 36 -75 76c0 41 29 76 75 76c47 0 75 -35 75 -75c0 -41 -28 -77 -75 -77zM114 -10c-46 0 -75 35 -75 76s29 76 75 76c47 0 75 -35 75 -76c0 -40 -28 -76 -75 -76z"/>
    <glyph glyph-name="semicolon" unicode=";" horiz-adv-x="228" d="M127 364c-47 0 -75 36 -75 76c0 41 28 76 75 76c46 0 75 -35 75 -75c0 -41 -28 -77 -75 -77zM6 -99l65 217h121l-81 -217h-105z"/>
    <glyph glyph-name="ellipsis" unicode="…" horiz-adv-x="727" d="M114 -10c-46 0 -75 35 -75 76s29 76 75 76c47 0 75 -35 75 -76c0 -40 -28 -76 -75 -76zM364 -10c-47 0 -75 35 -75 76s28 76 75 76c46 0 75 -35 75 -76c0 -40 -28 -76 -75 -76zM614 -10c-47 0 -75 35 -75 76s28 76 75 76c46 0 75 -35 75 -76c0 -40 -29 -76 -75 -76z"/>
    <glyph glyph-name="exclam" unicode="!" horiz-adv-x="289" d="M84 214l-11 462h143l-12 -462h-120zM145 -10c-47 0 -75 35 -75 76s28 76 75 76c46 0 75 -35 75 -76c0 -40 -29 -76 -75 -76z"/>
    <glyph glyph-name="exclamdown" unicode="¡" horiz-adv-x="289" d="M145 519c46 0 75 -35 75 -76s-29 -76 -75 -76c-47 0 -75 35 -75 76c0 40 28 76 75 76zM205 295l11 -462h-143l12 462h120z"/>
    <glyph glyph-name="question" unicode="?" horiz-adv-x="538" d="M201 214l-4 159c105 24 153 54 153 110c0 62 -46 83 -128 83c-59 0 -112 -14 -177 -38v113c60 26 129 46 205 46c149 0 239 -72 239 -190c0 -88 -55 -156 -175 -196l-3 -87h-110zM258 -10c-47 0 -75 35 -75 76s28 76 75 76c46 0 75 -35 75 -76c0 -40 -29 -76 -75 -76z "/>
    <glyph glyph-name="questiondown" unicode="¿" horiz-adv-x="538" d="M294 519c47 0 75 -35 75 -76s-28 -76 -75 -76c-46 0 -75 35 -75 76c0 40 29 76 75 76zM351 295l4 -159c-105 -24 -153 -54 -153 -110c0 -62 46 -83 128 -83c59 0 112 14 177 38v-113c-60 -26 -129 -46 -205 -46c-149 0 -239 72 -239 190c0 88 55 156 175 196l3 87h110z "/>
    <glyph glyph-name="periodcentered" unicode="·" horiz-adv-x="228" d="M114 254c-46 0 -75 36 -75 76c0 41 29 76 75 76c47 0 75 -35 75 -75c0 -41 -28 -77 -75 -77z"/>
    <glyph glyph-name="bullet" unicode="•" horiz-adv-x="380" d="M190 211c-73 0 -129 55 -129 129c0 73 56 128 129 128s128 -55 128 -128c0 -74 -55 -129 -128 -129z"/>
    <glyph glyph-name="asterisk" unicode="*" horiz-adv-x="470" d="M135 351l-73 67l94 95l-113 49l42 86l104 -51l-5 124h102l-5 -124l105 51l41 -86l-113 -49l95 -97l-74 -65l-100 109z"/>
    <glyph glyph-name="numbersign" unicode="#" horiz-adv-x="712" d="M656 407h-107l-23 -145h107l-19 -116h-107l-23 -146h-114l23 146h-134l-23 -146h-114l23 146h-107l18 116h108l23 145h-107l18 116h107l23 143h114l-23 -143h134l23 143h114l-23 -143h107zM412 262l23 145h-134l-23 -145h134z"/>
    <glyph glyph-name="slash" unicode="/" horiz-adv-x="486" d="M8 -130l337 901h133l-336 -901h-134z"/>
    <glyph glyph-name="backslash" unicode="\" horiz-adv-x="486" d="M479 -130h-133l-337 901h133z"/>
    <glyph glyph-name="exclamdown.case" horiz-adv-x="289" d="M145 686c46 0 75 -35 75 -76s-29 -76 -75 -76c-47 0 -75 35 -75 76c0 40 28 76 75 76zM205 462l11 -462h-143l12 462h120z"/>
    <glyph glyph-name="questiondown.case" horiz-adv-x="538" d="M287 685c47 0 75 -35 75 -75c0 -41 -28 -77 -75 -77c-46 0 -75 36 -75 76c0 41 28 76 75 76zM344 462l3 -160c-104 -24 -153 -53 -153 -109c0 -63 47 -84 129 -84c59 0 111 15 176 38v-113c-60 -26 -129 -46 -205 -46c-149 0 -238 72 -238 191c0 88 55 155 174 195l3 88 h111z"/>
    <glyph glyph-name="slash.case" horiz-adv-x="486" d="M7 -112l337 901h133l-336 -901h-134z"/>
    <glyph glyph-name="backslash.case" horiz-adv-x="486" d="M478 -112h-133l-337 901h133z"/>
    <glyph glyph-name="parenleft" unicode="(" horiz-adv-x="403" d="M81 310v20c0 159 63 322 169 441h134c-107 -124 -171 -288 -171 -441v-20c0 -153 64 -317 171 -441h-134c-106 119 -169 282 -169 441z"/>
    <glyph glyph-name="parenright" unicode=")" horiz-adv-x="403" d="M322 310c0 -159 -63 -322 -169 -441h-134c108 124 171 288 171 441v20c0 153 -63 317 -171 441h134c106 -119 169 -282 169 -441v-20z"/>
    <glyph glyph-name="braceleft" unicode="{" horiz-adv-x="482" d="M356 -132c-127 0 -208 88 -208 222v59c0 71 -36 107 -97 117v108c61 9 97 46 97 116v59c0 134 81 222 208 222h92v-114h-68c-64 0 -108 -37 -108 -121v-52c0 -71 -20 -123 -93 -165c73 -42 93 -93 93 -164v-52c0 -84 44 -121 108 -121h68v-114h-92z"/>
    <glyph glyph-name="braceright" unicode="}" horiz-adv-x="482" d="M126 -132h-92v114h68c64 0 108 37 108 121v52c0 71 20 122 93 164c-73 42 -93 94 -93 165v52c0 84 -44 121 -108 121h-68v114h92c127 0 208 -88 208 -222v-59c0 -70 36 -107 97 -116v-108c-61 -10 -97 -46 -97 -117v-59c0 -134 -81 -222 -208 -222z"/>
    <glyph glyph-name="bracketleft" unicode="[" horiz-adv-x="459" d="M422 650h-195v-660h195v-121h-327v902h327v-121z"/>
    <glyph glyph-name="bracketright" unicode="]" horiz-adv-x="459" d="M364 771v-902h-326v121h194v660h-194v121h326z"/>
    <glyph glyph-name="parenleft.case" horiz-adv-x="403" d="M81 328v20c0 159 63 322 169 441h134c-107 -124 -171 -288 -171 -441v-20c0 -153 64 -317 171 -441h-134c-106 119 -169 282 -169 441z"/>
    <glyph glyph-name="parenright.case" horiz-adv-x="403" d="M322 328c0 -159 -63 -322 -169 -441h-134c108 124 171 288 171 441v20c0 153 -63 317 -171 441h134c106 -119 169 -282 169 -441v-20z"/>
    <glyph glyph-name="braceleft.case" horiz-adv-x="482" d="M356 -114c-127 0 -208 88 -208 222v59c0 71 -36 107 -97 117v108c61 9 97 46 97 116v59c0 134 81 222 208 222h92v-114h-68c-64 0 -108 -37 -108 -121v-52c0 -71 -20 -123 -93 -165c73 -42 93 -93 93 -164v-52c0 -84 44 -121 108 -121h68v-114h-92z"/>
    <glyph glyph-name="braceright.case" horiz-adv-x="482" d="M126 -114h-92v114h68c64 0 108 37 108 121v52c0 71 20 122 93 164c-73 42 -93 94 -93 165v52c0 84 -44 121 -108 121h-68v114h92c127 0 208 -88 208 -222v-59c0 -70 36 -107 97 -116v-108c-61 -10 -97 -46 -97 -117v-59c0 -134 -81 -222 -208 -222z"/>
    <glyph glyph-name="bracketleft.case" horiz-adv-x="459" d="M422 668h-195v-660h195v-121h-327v902h327v-121z"/>
    <glyph glyph-name="bracketright.case" horiz-adv-x="459" d="M364 789v-902h-326v121h194v660h-194v121h326z"/>
    <glyph glyph-name="hyphen" unicode="-" horiz-adv-x="450" d="M67 221v124h317v-124h-317z"/>
    <glyph glyph-name="uni00AD" unicode="&shy;" horiz-adv-x="450" d="M67 221v124h317v-124h-317z"/>
    <glyph glyph-name="endash" unicode="–" horiz-adv-x="500" d="M0 224v118h500v-118h-500z"/>
    <glyph glyph-name="emdash" unicode="—" horiz-adv-x="1000" d="M0 224v118h1000v-118h-1000z"/>
    <glyph glyph-name="underscore" unicode="_" horiz-adv-x="500" d="M0 -194v111h500v-111h-500z"/>
    <glyph glyph-name="hyphen.case" horiz-adv-x="450" d="M67 284v123h317v-123h-317z"/>
    <glyph glyph-name="uni00AD.case" horiz-adv-x="450" d="M67 284v123h317v-123h-317z"/>
    <glyph glyph-name="endash.case" horiz-adv-x="500" d="M0 287v118h500v-118h-500z"/>
    <glyph glyph-name="emdash.case" horiz-adv-x="1000" d="M0 287v118h1000v-118h-1000z"/>
    <glyph glyph-name="quotesinglbase" unicode="‚" horiz-adv-x="247" d="M25 -99l66 217h120l-80 -217h-106z"/>
    <glyph glyph-name="quotedblbase" unicode="„" horiz-adv-x="433" d="M25 -95l66 218h120l-80 -218h-106zM211 -95l66 218h120l-80 -218h-106z"/>
    <glyph glyph-name="quotedblleft" unicode="“" horiz-adv-x="425" d="M221 711l-66 -218h-120l80 218h106zM406 711l-65 -218h-121l81 218h105z"/>
    <glyph glyph-name="quotedblright" unicode="”" horiz-adv-x="425" d="M28 493l66 218h120l-80 -218h-106zM214 493l65 218h121l-81 -218h-105z"/>
    <glyph glyph-name="quoteleft" unicode="‘" horiz-adv-x="240" d="M221 711l-66 -218h-120l80 218h106z"/>
    <glyph glyph-name="quoteright" unicode="’" horiz-adv-x="240" d="M28 493l66 218h120l-80 -218h-106z"/>
    <glyph glyph-name="guillemotleft" unicode="«" horiz-adv-x="594" d="M309 440l-125 -183l125 -183h-138l-125 183l125 183h138zM553 440l-125 -183l125 -183h-139l-124 183l124 183h139z"/>
    <glyph glyph-name="guillemotright" unicode="»" horiz-adv-x="594" d="M41 74l125 183l-125 183h138l125 -183l-125 -183h-138zM285 74l124 183l-124 183h138l125 -183l-125 -183h-138z"/>
    <glyph glyph-name="guilsinglleft" unicode="‹" horiz-adv-x="350" d="M309 440l-125 -183l125 -183h-138l-125 183l125 183h138z"/>
    <glyph glyph-name="guilsinglright" unicode="›" horiz-adv-x="350" d="M41 74l125 183l-125 183h138l125 -183l-125 -183h-138z"/>
    <glyph glyph-name="quotedbl" unicode="&quot;" horiz-adv-x="486" d="M78 441v270h118v-270h-118zM289 441v270h118v-270h-118z"/>
    <glyph glyph-name="quotesingle" unicode="'" horiz-adv-x="275" d="M78 441v270h118v-270h-118z"/>
    <glyph glyph-name="guillemotleft.case" horiz-adv-x="594" d="M309 528l-125 -183l125 -183h-138l-125 183l125 183h138zM553 528l-125 -183l125 -183h-139l-124 183l124 183h139z"/>
    <glyph glyph-name="guillemotright.case" horiz-adv-x="594" d="M41 162l125 183l-125 183h138l125 -183l-125 -183h-138zM285 162l124 183l-124 183h138l125 -183l-125 -183h-138z"/>
    <glyph glyph-name="guilsinglleft.case" horiz-adv-x="350" d="M309 528l-125 -183l125 -183h-138l-125 183l125 183h138z"/>
    <glyph glyph-name="guilsinglright.case" horiz-adv-x="350" d="M41 162l125 183l-125 183h138l125 -183l-125 -183h-138z"/>
    <glyph glyph-name="uni2001" unicode=" " horiz-adv-x="1000"/>
    <glyph glyph-name="uni2003" unicode="&emsp;" horiz-adv-x="1000"/>
    <glyph glyph-name="uni2002" unicode="&ensp;" horiz-adv-x="500"/>
    <glyph glyph-name="uni2007" unicode=" "/>
    <glyph glyph-name="uni2005" unicode=" " horiz-adv-x="600"/>
    <glyph glyph-name="uni200A" unicode="&hairsp;" horiz-adv-x="100"/>
    <glyph glyph-name="uni2008" unicode=" " horiz-adv-x="228"/>
    <glyph glyph-name="uni2006" unicode=" " horiz-adv-x="166"/>
    <glyph glyph-name="uni00A0" unicode="&nbsp;" horiz-adv-x="228"/>
    <glyph glyph-name="uni2009" unicode="&thinsp;" horiz-adv-x="200"/>
    <glyph glyph-name="uni2004" unicode=" " horiz-adv-x="333"/>
    <glyph glyph-name="cent" unicode="¢" d="M471 216v-110c-33 -14 -67 -22 -106 -25v-117h-110v125c-109 28 -170 120 -170 229v27c0 117 70 203 174 233v121h110v-111c36 -2 66 -10 97 -23v-111c-41 14 -70 16 -107 16c-86 0 -144 -47 -144 -127v-17c0 -79 56 -128 139 -128c47 0 76 6 117 18z"/>
    <glyph glyph-name="dollar" unicode="$" d="M503 205c0 -91 -54 -164 -170 -183v-140h-109v137c-56 6 -110 22 -158 43v111c62 -24 128 -41 204 -41c68 0 105 22 105 65c0 45 -39 62 -112 86c-123 38 -201 71 -201 191c0 83 69 153 166 171v123h109v-122c51 -7 93 -20 133 -36v-108c-67 24 -119 34 -188 34 c-59 0 -94 -21 -94 -59c0 -46 46 -58 121 -83c105 -35 194 -75 194 -189z"/>
    <glyph glyph-name="Euro" unicode="€" d="M404 102c52 0 90 10 133 25v-107c-47 -22 -98 -32 -151 -32c-143 0 -240 87 -274 214h-83v87h70v17v38c0 9 0 17 1 26h-71v87h86c38 130 144 218 281 218c46 0 91 -9 133 -28v-107c-43 15 -74 20 -121 20c-79 0 -136 -37 -163 -103h203l-20 -87h-202v-19v-41 c0 -7 0 -14 1 -21h183l-19 -87h-145c27 -64 82 -100 158 -100z"/>
    <glyph glyph-name="sterling" unicode="£" d="M198 117h318v-117h-448v402c0 170 107 275 264 275c71 0 125 -11 178 -38v-113c-53 24 -86 33 -162 33c-93 0 -150 -50 -150 -141v-29h248v-115h-248v-157z"/>
    <glyph glyph-name="yen" unicode="¥" d="M545 666l-157 -299h116v-87h-153v-74h153v-87h-153v-119h-135v119h-152v87h152v74h-152v87h111l-155 299h143l122 -267l127 267h133z"/>
    <glyph glyph-name="plus" unicode="+" d="M492 391v-118h-148v-145h-122v145h-148v118h148v145h122v-145h148z"/>
    <glyph glyph-name="minus" unicode="−" d="M80 270v125h406v-125h-406z"/>
    <glyph glyph-name="multiply" unicode="×" d="M478 444l-112 -112l112 -112l-83 -83l-112 112l-112 -112l-83 83l112 112l-112 112l83 83l112 -112l112 112z"/>
    <glyph glyph-name="divide" unicode="÷" d="M283 460c-46 0 -74 35 -74 75c0 41 28 76 74 76s74 -35 74 -75s-28 -76 -74 -76zM74 271v122h418v-122h-418zM283 54c-46 0 -74 35 -74 75s28 75 74 75s74 -35 74 -75s-28 -75 -74 -75z"/>
    <glyph glyph-name="equal" unicode="=" d="M87 385v120h392v-120h-392zM87 159v120h392v-120h-392z"/>
    <glyph glyph-name="notequal" unicode="≠" d="M479 385h-116l-50 -106h166v-120h-223l-48 -103h-110l48 103h-59v120h116l50 106h-166v120h222l49 104h110l-49 -104h60v-120z"/>
    <glyph glyph-name="greater" unicode="&gt;" d="M95 95v127l247 110l-247 110v127l376 -180v-114z"/>
    <glyph glyph-name="less" unicode="&lt;" d="M471 569v-127l-247 -110l247 -110v-127l-376 180v114z"/>
    <glyph glyph-name="greaterequal" unicode="≥" d="M94 172v119l249 91l-249 91v118l377 -155v-109zM94 0v118h379v-118h-379z"/>
    <glyph glyph-name="lessequal" unicode="≤" d="M472 172l-377 155v109l377 155v-118l-249 -91l249 -91v-119zM472 0h-379v118h379v-118z"/>
    <glyph glyph-name="plusminus" unicode="±" d="M342 445h150v-115h-150v-146h-118v146h-150v115h150v147h118v-147zM80 0v118h406v-118h-406z"/>
    <glyph glyph-name="asciitilde" unicode="~" d="M388 238c-46 0 -83 22 -115 42c-27 17 -50 30 -73 30c-35 0 -58 -18 -60 -70h-115c2 104 53 189 154 189c44 0 80 -22 112 -42c26 -17 52 -30 76 -30c35 0 58 20 60 70h115c-2 -104 -53 -189 -154 -189z"/>
    <glyph glyph-name="logicalnot" unicode="¬" d="M87 435h390v-270h-121v152h-269v118z"/>
    <glyph glyph-name="asciicircum" unicode="^" d="M55 379l164 297h128l164 -297h-130l-99 186l-100 -186h-127z"/>
    <glyph glyph-name="percent" unicode="%" horiz-adv-x="968" d="M226 283c-110 0 -172 82 -172 185v20c0 102 62 190 172 190s172 -80 172 -185v-20c0 -103 -61 -190 -172 -190zM179 0l476 666h125l-476 -666h-125zM226 376c47 0 71 35 71 98v13c0 63 -24 98 -71 98s-70 -35 -70 -98v-13c0 -63 23 -98 70 -98zM742 -12 c-111 0 -172 82 -172 186v20c0 101 61 189 172 189c110 0 172 -80 172 -184v-21c0 -103 -61 -190 -172 -190zM742 81c46 0 70 36 70 98v13c0 63 -23 99 -70 99s-71 -36 -71 -99v-13c0 -62 24 -98 71 -98z"/>
    <glyph glyph-name="perthousand" unicode="‰" horiz-adv-x="1370" d="M226 283c-110 0 -172 82 -172 185v20c0 102 62 190 172 190s172 -80 172 -185v-20c0 -103 -61 -190 -172 -190zM179 0l476 666h125l-476 -666h-125zM226 376c47 0 71 35 71 98v13c0 63 -24 98 -71 98s-70 -35 -70 -98v-13c0 -63 23 -98 70 -98zM742 -12 c-111 0 -172 82 -172 186v20c0 101 61 189 172 189c110 0 172 -80 172 -184v-21c0 -103 -61 -190 -172 -190zM1144 -12c-110 0 -172 82 -172 186v20c0 101 62 189 172 189c111 0 172 -80 172 -184v-21c0 -103 -61 -190 -172 -190zM742 81c46 0 70 36 70 98v13 c0 63 -23 99 -70 99s-71 -36 -71 -99v-13c0 -62 24 -98 71 -98zM1144 81c47 0 71 36 71 98v13c0 63 -24 99 -71 99c-46 0 -70 -36 -70 -99v-13c0 -62 23 -98 70 -98z"/>
    <glyph glyph-name="at" unicode="@" horiz-adv-x="998" d="M684 465v-304c94 9 166 85 166 198c0 155 -112 258 -323 258c-214 0 -369 -154 -369 -369c0 -210 139 -347 343 -347c74 0 148 12 213 38v-95c-62 -27 -134 -39 -216 -39c-257 0 -443 178 -443 446c0 265 208 462 472 462c262 0 420 -146 420 -353 c0 -186 -153 -294 -299 -294h-55l-7 46c-43 -38 -91 -62 -133 -62c-95 0 -156 73 -156 187v16c0 127 97 212 230 212h157zM407 239c0 -56 31 -92 77 -92c32 0 60 11 91 35v186h-41c-80 0 -127 -42 -127 -119v-10z"/>
    <glyph glyph-name="ampersand" unicode="&amp;" horiz-adv-x="711" d="M675 283h-86c-5 -63 -23 -118 -53 -163l98 -120h-142l-34 40c-49 -33 -111 -52 -183 -52c-152 0 -231 93 -231 202c0 81 47 154 134 194c-30 46 -47 88 -47 130c0 108 87 173 213 173c65 0 113 -14 158 -33v-111c-56 21 -104 28 -145 28c-58 0 -94 -28 -94 -72 s33 -84 94 -159l107 -131c14 30 22 66 22 106v75h189v-107zM293 100c35 0 67 9 95 24l-102 122l-47 56c-46 -21 -71 -57 -71 -104c0 -61 45 -98 125 -98z"/>
    <glyph glyph-name="paragraph" unicode="¶" horiz-adv-x="749" d="M431 676v-829h-129v418h-38c-145 0 -212 92 -212 203c0 107 62 208 213 208h166zM527 676h129v-829h-129v829z"/>
    <glyph glyph-name="copyright" unicode="©" horiz-adv-x="761" d="M380 -12c-195 0 -346 147 -346 349c0 200 151 348 346 348s346 -147 346 -348c0 -202 -150 -349 -346 -349zM380 62c153 0 269 116 269 275c0 156 -116 273 -269 273c-152 0 -268 -117 -268 -273c0 -159 116 -275 268 -275zM392 160c-109 0 -170 76 -170 166v16 c0 100 76 170 179 170c32 0 58 -7 85 -18v-86c-28 9 -45 12 -72 12c-54 0 -90 -30 -90 -80v-9c0 -49 36 -79 87 -79c31 0 52 5 80 14v-87c-32 -13 -65 -19 -99 -19z"/>
    <glyph glyph-name="registered" unicode="®" horiz-adv-x="641" d="M321 723c152 0 270 -114 270 -271c0 -156 -117 -270 -270 -270c-154 0 -271 114 -271 270c0 157 117 271 271 271zM321 237c120 0 213 88 213 215s-92 216 -213 216s-215 -89 -215 -216c0 -128 94 -215 215 -215zM432 498c0 -29 -14 -55 -43 -71l65 -96h-76l-50 82h-2 h-46v-82h-66v255h116c71 0 102 -43 102 -88zM280 524v-53h43c27 0 39 9 39 28c0 17 -12 25 -38 25h-44z"/>
    <glyph glyph-name="trademark" unicode="™" horiz-adv-x="875" d="M349 676v-108h-110v-278h-113v278h-110v108h333zM747 676h95v-386h-104v226l-72 -115h-78l-69 116v-227h-99v386h107l104 -171z"/>
    <glyph glyph-name="degree" unicode="°" horiz-adv-x="442" d="M222 397c-92 0 -163 71 -163 163c0 90 71 161 163 161c90 0 161 -71 161 -161c0 -91 -71 -163 -161 -163zM222 490c38 0 67 30 67 70c0 38 -29 68 -67 68c-40 0 -69 -30 -69 -68c0 -41 29 -70 69 -70z"/>
    <glyph glyph-name="bar" unicode="|" horiz-adv-x="309" d="M86 -130v901h137v-901h-137z"/>
    <glyph glyph-name="brokenbar" unicode="¦" horiz-adv-x="309" d="M86 448v323h137v-323h-137zM86 -130v352h137v-352h-137z"/>
    <glyph glyph-name="dagger" unicode="†" horiz-adv-x="410" d="M356 605v-93h-98v-210h-105v210h-99v93h99v121h105v-121h98z"/>
    <glyph glyph-name="daggerdbl" unicode="‡" horiz-adv-x="414" d="M357 561h-100v-82h100v-87h-100v-90h-99v90h-101v87h101v82h-101v86h101v79h99v-79h100v-86z"/>
    <glyph glyph-name="at.case" horiz-adv-x="997" d="M680 544v-303c94 9 166 85 166 197c0 155 -113 259 -323 259c-215 0 -369 -155 -369 -369c0 -210 138 -347 342 -347c74 0 148 12 213 37v-94c-62 -27 -134 -40 -216 -40c-257 0 -442 178 -442 447c0 265 207 462 472 462c262 0 420 -146 420 -354 c0 -186 -153 -293 -300 -293h-54l-7 46c-43 -38 -91 -62 -133 -62c-95 0 -157 72 -157 186v17c0 126 97 211 230 211h158zM402 318c0 -55 31 -91 77 -91c32 0 60 11 91 34v187h-41c-79 0 -127 -42 -127 -119v-11z"/>
    <glyph glyph-name="uni0308" unicode="̈" horiz-adv-x="0" d="M-326 595c-42 0 -70 28 -70 68c0 41 29 69 70 69c40 0 69 -28 69 -69c0 -40 -29 -68 -69 -68zM-128 595c-42 0 -70 28 -70 68c0 41 29 69 70 69c40 0 68 -28 68 -69c0 -40 -28 -68 -68 -68z"/>
    <glyph glyph-name="uni0307" unicode="̇" horiz-adv-x="0" d="M-250 588c-46 0 -77 29 -77 73c0 45 32 74 77 74s77 -29 77 -74c0 -44 -32 -73 -77 -73z"/>
    <glyph glyph-name="gravecomb" unicode="̀" horiz-adv-x="0" d="M-219 593l-140 135h137l125 -135h-122z"/>
    <glyph glyph-name="acutecomb" unicode="́" horiz-adv-x="0" d="M-359 593l124 135h138l-140 -135h-122z"/>
    <glyph glyph-name="uni0302" unicode="̂" horiz-adv-x="0" d="M-398 593l112 146h114l113 -146h-103l-67 81l-68 -81h-101z"/>
    <glyph glyph-name="uni030C" unicode="̌" horiz-adv-x="0" d="M-286 593l-112 146h102l67 -80l69 80h101l-112 -146h-115z"/>
    <glyph glyph-name="uni030A" unicode="̊" horiz-adv-x="0" d="M-229 585c-60 0 -112 46 -112 112c0 63 53 110 112 110c62 0 112 -48 112 -110c0 -65 -52 -112 -112 -112zM-229 651c25 0 43 19 43 45c0 25 -19 44 -43 44c-25 0 -43 -19 -43 -44c0 -26 19 -45 43 -45z"/>
    <glyph glyph-name="tildecomb" unicode="̃" horiz-adv-x="0" d="M-163 596c-32 0 -58 17 -78 30c-15 10 -31 21 -46 21c-24 0 -34 -19 -34 -46h-82c4 76 37 133 108 133c32 0 56 -16 77 -30c18 -12 32 -21 47 -21c23 0 34 15 35 46h82c-5 -80 -40 -133 -109 -133z"/>
    <glyph glyph-name="uni0304" unicode="̄" horiz-adv-x="0" d="M-366 708h275v-100h-275v100z"/>
    <glyph glyph-name="uni0327" unicode="̧" horiz-adv-x="0" d="M-258 -186c-35 0 -57 7 -83 18v82c19 -8 38 -14 56 -14c36 0 58 17 58 51c0 26 -11 43 -30 60l90 6c23 -22 37 -57 37 -88c0 -72 -57 -115 -128 -115z"/>
    <glyph glyph-name="acute" unicode="´" horiz-adv-x="541" d="M97 593l124 135h138l-140 -135h-122z"/>
    <glyph glyph-name="caron" unicode="ˇ" horiz-adv-x="518" d="M171 593l-112 146h102l67 -80l69 80h101l-112 -146h-115z"/>
    <glyph glyph-name="cedilla" unicode="¸" horiz-adv-x="518" d="M212 -186c-35 0 -57 7 -83 18v82c19 -8 38 -14 56 -14c36 0 58 17 58 51c0 26 -11 43 -30 60l90 6c23 -22 37 -57 37 -88c0 -72 -57 -115 -128 -115z"/>
    <glyph glyph-name="circumflex" unicode="ˆ" horiz-adv-x="559" d="M59 593l112 146h114l113 -146h-103l-67 81l-68 -81h-101z"/>
    <glyph glyph-name="dieresis" unicode="¨" horiz-adv-x="518" d="M130 595c-42 0 -70 28 -70 68c0 41 29 69 70 69c40 0 69 -28 69 -69c0 -40 -29 -68 -69 -68zM328 595c-42 0 -70 28 -70 68c0 41 29 69 70 69c40 0 68 -28 68 -69c0 -40 -28 -68 -68 -68z"/>
    <glyph glyph-name="dotaccent" unicode="˙" horiz-adv-x="559" d="M250 588c-46 0 -77 29 -77 73c0 45 32 74 77 74s77 -29 77 -74c0 -44 -32 -73 -77 -73z"/>
    <glyph glyph-name="grave" unicode="`" horiz-adv-x="518" d="M237 593l-140 135h137l125 -135h-122z"/>
    <glyph glyph-name="macron" unicode="¯" horiz-adv-x="559" d="M90 708h275v-100h-275v100z"/>
    <glyph glyph-name="ring" unicode="˚" horiz-adv-x="518" d="M228 585c-60 0 -112 46 -112 112c0 63 53 110 112 110c62 0 112 -48 112 -110c0 -65 -52 -112 -112 -112zM228 651c25 0 43 19 43 45c0 25 -19 44 -43 44c-25 0 -43 -19 -43 -44c0 -26 19 -45 43 -45z"/>
    <glyph glyph-name="tilde" unicode="˜" horiz-adv-x="559" d="M293 596c-32 0 -58 17 -78 30c-15 10 -31 21 -46 21c-24 0 -34 -19 -34 -46h-82c4 76 37 133 108 133c32 0 56 -16 77 -30c18 -12 32 -21 47 -21c23 0 34 15 35 46h82c-5 -80 -40 -133 -109 -133z"/>
    <glyph glyph-name="uni0308.case" horiz-adv-x="0" d="M-397 747c-43 0 -72 28 -72 71c0 42 30 70 72 70c43 0 72 -28 72 -70c0 -43 -30 -71 -72 -71zM-187 747c-43 0 -72 28 -72 71c0 42 29 70 72 70c42 0 72 -28 72 -70c0 -43 -31 -71 -72 -71z"/>
    <glyph glyph-name="uni0307.case" horiz-adv-x="0" d="M-294 742c-47 0 -79 30 -79 76s33 75 79 75s80 -29 80 -75s-34 -76 -80 -76z"/>
    <glyph glyph-name="gravecomb.case" horiz-adv-x="0" d="M-277 746l-167 133h159l149 -133h-141z"/>
    <glyph glyph-name="acutecomb.case" horiz-adv-x="0" d="M-447 747l149 132h153l-167 -132h-135z"/>
    <glyph glyph-name="uni0302.case" horiz-adv-x="0" d="M-501 746l144 147h127l143 -147h-123l-85 77l-85 -77h-121z"/>
    <glyph glyph-name="uni030C.case" horiz-adv-x="0" d="M-359 746l-142 147h123l84 -78l86 78h121l-143 -147h-129z"/>
    <glyph glyph-name="uni030A.case" horiz-adv-x="0" d="M-268 725c-64 0 -119 49 -119 118c0 67 56 116 119 116c66 0 119 -49 119 -116c0 -69 -55 -118 -119 -118zM-268 796c25 0 44 19 44 46c0 26 -19 46 -44 46s-44 -19 -44 -46s19 -46 44 -46z"/>
    <glyph glyph-name="tildecomb.case" horiz-adv-x="0" d="M-255 748c-32 0 -58 15 -86 30c-21 13 -41 24 -59 24c-30 0 -42 -21 -42 -48h-89c7 78 46 136 123 136c37 0 67 -17 91 -31c21 -11 38 -22 56 -22c26 0 43 15 44 48h87c-6 -82 -45 -137 -125 -137z"/>
    <glyph glyph-name="uni0304.case" horiz-adv-x="0" d="M-462 863h336v-104h-336v104z"/>
    <glyph glyph-name="uni0327.case" horiz-adv-x="0" d="M-304 -194c-38 0 -65 6 -94 19v84c22 -8 45 -13 66 -13c44 0 70 17 70 50c0 27 -15 45 -36 61l97 6c27 -23 42 -59 42 -90c0 -73 -63 -117 -145 -117z"/>
    </font>
</defs>
</svg>
