<svg xmlns="http://www.w3.org/2000/svg" xmlns:xlink="http://www.w3.org/1999/xlink" version="1.1">
<metadata>
Created by FontForge 20181003 at Fri Dec 21 12:44:36 2018
 By Henrique Beier
Copyright \(c\) 2018 GOL Linhas Aereas SA. All rights reserved.
</metadata>
<defs>
<font id="GOLSansText-Regular" horiz-adv-x="566">
  <font-face font-family="GOL Sans Text" font-weight="400" font-stretch="normal" units-per-em="1000" panose-1="2 1 5 3 3 4 7 2 2 3" ascent="803" descent="-197" x-height="501" cap-height="676" bbox="-487 -225 1248 944" underline-thickness="50" underline-position="-100" stemh="73" stemv="78" unicode-range="U+0020-FB02"/>
<missing-glyph horiz-adv-x="468" d="M384 711v-936h-297v936h297zM312 648h-155v-31h61v-34h-62v-31h156v31h-62v34h62v31zM250 528h-94v-98h156v32h-62v66zM218 496v-34h-31v34h31zM312 405h-156v-31h62v-35h-62v-30h94v65h62v31zM312 349h-31v-62h-125v-32h156v94zM312 235h-94v-53h32v22h31v-44h-94v75 h-31v-106h156v106zM312 73h-156v-106h156v106zM281 42v-44h-94v44h94zM312 -55h-156v-31h66l-66 -44v-30h156v30h-96l66 44h30v31z"/>
    <glyph glyph-name="fi" unicode="fi" horiz-adv-x="651" d="M80 0v510c0 139 79 211 197 211c35 0 73 -9 107 -23v-68c-32 12 -62 18 -104 18c-72 0 -122 -31 -122 -134v-13h212v-72h-212v-429h-78zM532 605c-32 0 -55 23 -55 57c0 35 23 56 55 56s55 -21 55 -56c0 -34 -23 -57 -55 -57zM493 0v501h78v-501h-78z"/>
    <glyph glyph-name="fl" unicode="fl" horiz-adv-x="651" d="M80 0v510c0 139 79 211 197 211c35 0 73 -9 107 -23v-68c-32 12 -62 18 -104 18c-72 0 -122 -31 -122 -134v-13h212v-72h-212v-429h-78zM493 0v711h78v-711h-78z"/>
    <glyph glyph-name=".notdef" horiz-adv-x="468" d="M384 711v-936h-297v936h297zM312 648h-155v-31h61v-34h-62v-31h156v31h-62v34h62v31zM250 528h-94v-98h156v32h-62v66zM218 496v-34h-31v34h31zM312 405h-156v-31h62v-35h-62v-30h94v65h62v31zM312 349h-31v-62h-125v-32h156v94zM312 235h-94v-53h32v22h31v-44h-94v75 h-31v-106h156v106zM312 73h-156v-106h156v106zM281 42v-44h-94v44h94zM312 -55h-156v-31h66l-66 -44v-30h156v30h-96l66 44h30v31z"/>
    <glyph glyph-name="space" unicode=" " horiz-adv-x="228"/>
    <glyph glyph-name="A" unicode="A" horiz-adv-x="654" d="M534 0l-67 185h-284l-66 -185h-84l255 676h78l254 -676h-86zM210 258h231l-116 321z"/>
    <glyph glyph-name="Aacute" unicode="Á" horiz-adv-x="654" d="M525 886l-180 -137h-93l167 137h106zM534 0l-67 185h-284l-66 -185h-84l255 676h78l254 -676h-86zM210 258h231l-116 321z"/>
    <glyph glyph-name="Acircumflex" unicode="Â" horiz-adv-x="654" d="M327 840l-94 -91h-84l143 143h73l141 -143h-84zM534 0l-67 185h-284l-66 -185h-84l255 676h78l254 -676h-86zM210 258h231l-116 321z"/>
    <glyph glyph-name="Adieresis" unicode="Ä" horiz-adv-x="654" d="M229 752c-32 0 -54 21 -54 55s22 54 54 54c30 0 53 -20 53 -54s-23 -55 -53 -55zM425 752c-32 0 -54 21 -54 55s22 54 54 54c30 0 53 -20 53 -54s-23 -55 -53 -55zM534 0l-67 185h-284l-66 -185h-84l255 676h78l254 -676h-86zM210 258h231l-116 321z"/>
    <glyph glyph-name="Agrave" unicode="À" horiz-adv-x="654" d="M403 749h-94l-179 137h105zM534 0l-67 185h-284l-66 -185h-84l255 676h78l254 -676h-86zM210 258h231l-116 321z"/>
    <glyph glyph-name="Amacron" unicode="Ā" horiz-adv-x="654" d="M482 845v-68h-312v68h312zM534 0l-67 185h-284l-66 -185h-84l255 676h78l254 -676h-86zM210 258h231l-116 321z"/>
    <glyph glyph-name="Aring" unicode="Å" horiz-adv-x="654" d="M534 0l-67 185h-284l-66 -185h-84l248 658c-37 17 -64 54 -64 100c0 62 52 108 110 108c60 0 109 -46 109 -108c0 -46 -26 -83 -64 -99l248 -659h-86zM327 813c-32 0 -54 -23 -54 -55c0 -33 23 -56 54 -56s53 23 53 56c0 32 -23 55 -53 55zM210 258h231l-116 321z"/>
    <glyph glyph-name="Atilde" unicode="Ã" horiz-adv-x="654" d="M249 815c-32 0 -50 -27 -51 -53h-67c8 70 48 119 114 119c38 0 70 -18 96 -35c22 -14 42 -28 64 -28c28 0 49 19 52 53h66c-7 -68 -41 -119 -118 -119c-27 0 -54 15 -80 31c-27 16 -52 32 -76 32zM534 0l-67 185h-284l-66 -185h-84l255 676h78l254 -676h-86zM210 258h231 l-116 321z"/>
    <glyph glyph-name="AE" unicode="Æ" horiz-adv-x="944" d="M570 77h321v-77h-399v189h-266l-127 -189h-89l457 676h413v-77h-310v-216h278v-77h-278v-229zM275 262h217v324z"/>
    <glyph glyph-name="B" unicode="B" horiz-adv-x="594" d="M429 359c77 -28 121 -95 121 -175c0 -96 -68 -184 -197 -184h-261v676h229c125 0 197 -77 197 -178c0 -63 -32 -112 -89 -139zM312 604h-142v-219h144c81 0 125 43 125 111s-48 108 -127 108zM343 72c85 0 127 47 127 110c0 72 -47 129 -135 129h-165v-239h173z"/>
    <glyph glyph-name="C" unicode="C" horiz-adv-x="588" d="M368 -12c-184 0 -308 138 -308 324v43c0 191 132 331 313 331c56 0 108 -12 151 -29v-74c-46 15 -86 25 -147 25c-145 0 -237 -101 -237 -257v-27c0 -157 92 -258 235 -258c61 0 113 12 159 28v-73c-49 -20 -104 -33 -166 -33z"/>
    <glyph glyph-name="Cacute" unicode="Ć" horiz-adv-x="588" d="M282 755l167 137h106l-180 -137h-93zM368 -12c-184 0 -308 138 -308 324v43c0 191 132 331 313 331c56 0 108 -12 151 -29v-74c-46 15 -86 25 -147 25c-145 0 -237 -101 -237 -257v-27c0 -157 92 -258 235 -258c61 0 113 12 159 28v-73c-49 -20 -104 -33 -166 -33z"/>
    <glyph glyph-name="Ccaron" unicode="Č" horiz-adv-x="588" d="M320 755l-141 143h84l95 -92l94 92h84l-142 -143h-74zM368 -12c-184 0 -308 138 -308 324v43c0 191 132 331 313 331c56 0 108 -12 151 -29v-74c-46 15 -86 25 -147 25c-145 0 -237 -101 -237 -257v-27c0 -157 92 -258 235 -258c61 0 113 12 159 28v-73 c-49 -20 -104 -33 -166 -33z"/>
    <glyph glyph-name="Ccedilla" unicode="Ç" horiz-adv-x="588" d="M534 94v-73c-39 -16 -82 -28 -130 -31c12 -19 19 -41 19 -62c0 -66 -52 -109 -127 -109c-35 0 -57 8 -80 17v55c20 -7 43 -13 63 -13c49 0 75 23 75 61c0 19 -6 36 -17 50c-167 15 -277 148 -277 323v43c0 191 132 331 313 331c56 0 108 -12 151 -29v-74 c-46 15 -86 25 -147 25c-145 0 -237 -101 -237 -257v-27c0 -157 92 -258 235 -258c61 0 113 12 159 28z"/>
    <glyph glyph-name="Cdotaccent" unicode="Ċ" horiz-adv-x="588" d="M357 757c-32 0 -55 23 -55 57s23 56 55 56s55 -22 55 -56s-23 -57 -55 -57zM368 -12c-184 0 -308 138 -308 324v43c0 191 132 331 313 331c56 0 108 -12 151 -29v-74c-46 15 -86 25 -147 25c-145 0 -237 -101 -237 -257v-27c0 -157 92 -258 235 -258c61 0 113 12 159 28 v-73c-49 -20 -104 -33 -166 -33z"/>
    <glyph glyph-name="D" unicode="D" horiz-adv-x="681" d="M315 676c181 0 306 -124 306 -315v-40c0 -191 -130 -321 -307 -321h-222v676h223zM541 322v29c0 157 -91 250 -226 250h-144v-526h143c132 0 227 94 227 247z"/>
    <glyph glyph-name="Eth" unicode="Ð" horiz-adv-x="716" d="M350 676c181 0 306 -124 306 -315v-40c0 -191 -130 -321 -307 -321h-222v303h-106v74h106v299h223zM576 322v29c0 157 -91 250 -226 250h-144v-224h196v-74h-196v-228h143c132 0 227 94 227 247z"/>
    <glyph glyph-name="E" unicode="E" horiz-adv-x="549" d="M170 77h326v-77h-404v676h393v-77h-315v-216h283v-77h-283v-229z"/>
    <glyph glyph-name="Eacute" unicode="É" horiz-adv-x="549" d="M498 886l-180 -137h-93l167 137h106zM170 306v-229h326v-77h-404v676h393v-77h-315v-216h283v-77h-283z"/>
    <glyph glyph-name="Ecaron" unicode="Ě" horiz-adv-x="549" d="M337 749h-74l-141 143h84l95 -92l94 92h84zM170 77h326v-77h-404v676h393v-77h-315v-216h283v-77h-283v-229z"/>
    <glyph glyph-name="Ecircumflex" unicode="Ê" horiz-adv-x="549" d="M300 840l-94 -91h-84l143 143h73l141 -143h-84zM170 77h326v-77h-404v676h393v-77h-315v-216h283v-77h-283v-229z"/>
    <glyph glyph-name="Edieresis" unicode="Ë" horiz-adv-x="549" d="M202 752c-32 0 -54 21 -54 55s22 54 54 54c30 0 53 -20 53 -54s-23 -55 -53 -55zM398 752c-32 0 -54 21 -54 55s22 54 54 54c30 0 53 -20 53 -54s-23 -55 -53 -55zM170 77h326v-77h-404v676h393v-77h-315v-216h283v-77h-283v-229z"/>
    <glyph glyph-name="Edotaccent" unicode="Ė" horiz-adv-x="549" d="M300 751c-32 0 -55 23 -55 57s23 56 55 56s55 -22 55 -56s-23 -57 -55 -57zM170 77h326v-77h-404v676h393v-77h-315v-216h283v-77h-283v-229z"/>
    <glyph glyph-name="Egrave" unicode="È" horiz-adv-x="549" d="M376 749h-94l-179 137h105zM170 77h326v-77h-404v676h393v-77h-315v-216h283v-77h-283v-229z"/>
    <glyph glyph-name="Emacron" unicode="Ē" horiz-adv-x="549" d="M455 845v-68h-312v68h312zM170 77h326v-77h-404v676h393v-77h-315v-216h283v-77h-283v-229z"/>
    <glyph glyph-name="F" unicode="F" horiz-adv-x="531" d="M493 599h-323v-216h281v-77h-281v-306h-78v676h401v-77z"/>
    <glyph glyph-name="G" unicode="G" horiz-adv-x="648" d="M347 354h231v-319c-62 -26 -123 -45 -212 -45c-191 0 -306 138 -306 320v45c0 197 138 331 316 331c65 0 109 -13 163 -32v-75c-53 19 -97 29 -163 29c-138 0 -236 -86 -236 -257v-27c0 -155 80 -257 227 -257c50 0 94 7 134 19v192h-154v76z"/>
    <glyph glyph-name="Gdotaccent" unicode="Ġ" horiz-adv-x="648" d="M362 757c-32 0 -55 23 -55 57s23 56 55 56s55 -22 55 -56s-23 -57 -55 -57zM347 354h231v-319c-62 -26 -123 -45 -212 -45c-191 0 -306 138 -306 320v45c0 197 138 331 316 331c65 0 109 -13 163 -32v-75c-53 19 -97 29 -163 29c-138 0 -236 -86 -236 -257v-27 c0 -155 80 -257 227 -257c50 0 94 7 134 19v192h-154v76z"/>
    <glyph glyph-name="H" unicode="H" horiz-adv-x="685" d="M514 676h79v-676h-79v307h-343v-307h-79v676h79v-292h343v292z"/>
    <glyph glyph-name="I" unicode="I" horiz-adv-x="263" d="M92 0v676h79v-676h-79z"/>
    <glyph glyph-name="IJ" unicode="Ĳ" horiz-adv-x="692" d="M92 0v676h79v-676h-79zM413 -12c-49 0 -83 10 -115 24v71c30 -10 62 -17 110 -17c74 0 118 53 118 133v477h79v-478c0 -125 -80 -210 -192 -210z"/>
    <glyph glyph-name="Iacute" unicode="Í" horiz-adv-x="263" d="M57 749l167 137h106l-180 -137h-93zM92 0v676h79v-676h-79z"/>
    <glyph glyph-name="Icircumflex" unicode="Î" horiz-adv-x="263" d="M-46 749l143 143h73l141 -143h-84l-95 91l-94 -91h-84zM92 0v676h79v-676h-79z"/>
    <glyph glyph-name="Idieresis" unicode="Ï" horiz-adv-x="263" d="M34 752c-32 0 -54 21 -54 55s22 54 54 54c30 0 53 -20 53 -54s-23 -55 -53 -55zM230 752c-32 0 -54 21 -54 55s22 54 54 54c30 0 53 -20 53 -54s-23 -55 -53 -55zM92 0v676h79v-676h-79z"/>
    <glyph glyph-name="Idotaccent" unicode="İ" horiz-adv-x="263" d="M132 751c-32 0 -55 23 -55 57s23 56 55 56s55 -22 55 -56s-23 -57 -55 -57zM92 0v676h79v-676h-79z"/>
    <glyph glyph-name="Igrave" unicode="Ì" horiz-adv-x="263" d="M114 749l-179 137h105l168 -137h-94zM92 0v676h79v-676h-79z"/>
    <glyph glyph-name="Imacron" unicode="Ī" horiz-adv-x="263" d="M-25 845h312v-68h-312v68zM92 0v676h79v-676h-79z"/>
    <glyph glyph-name="J" unicode="J" horiz-adv-x="429" d="M150 -12c-49 0 -83 10 -115 24v71c30 -10 62 -17 110 -17c74 0 118 53 118 133v477h79v-478c0 -125 -80 -210 -192 -210z"/>
    <glyph glyph-name="K" unicode="K" horiz-adv-x="615" d="M602 0h-104l-327 331v-331h-79v676h79v-303l302 303h94l-316 -318z"/>
    <glyph glyph-name="L" unicode="L" horiz-adv-x="551" d="M171 77h332v-77h-411v676h79v-599z"/>
    <glyph glyph-name="M" unicode="M" horiz-adv-x="787" d="M92 0v676h72l227 -375l232 375h72v-676h-77v529l-201 -321h-53l-195 312v-520h-77z"/>
    <glyph glyph-name="N" unicode="N" horiz-adv-x="683" d="M92 0v676h70l355 -540v540h74v-676h-70l-355 536v-536h-74z"/>
    <glyph glyph-name="Nacute" unicode="Ń" horiz-adv-x="683" d="M266 749l167 137h106l-180 -137h-93zM92 0v676h70l355 -540v540h74v-676h-70l-355 536v-536h-74z"/>
    <glyph glyph-name="Ncaron" unicode="Ň" horiz-adv-x="683" d="M304 749l-141 143h84l95 -92l94 92h84l-142 -143h-74zM92 0v676h70l355 -540v540h74v-676h-70l-355 536v-536h-74z"/>
    <glyph glyph-name="Ntilde" unicode="Ñ" horiz-adv-x="683" d="M419 752c-27 0 -54 15 -80 31c-27 16 -52 32 -76 32c-32 0 -50 -27 -51 -53h-67c8 70 48 119 114 119c38 0 70 -18 96 -35c22 -14 42 -28 64 -28c28 0 49 19 52 53h66c-7 -68 -41 -119 -118 -119zM92 0v676h70l355 -540v540h74v-676h-70l-355 536v-536h-74z"/>
    <glyph glyph-name="O" unicode="O" horiz-adv-x="716" d="M358 -12c-178 0 -298 140 -298 324v42c0 185 121 332 298 332c179 0 298 -139 298 -323v-42c0 -186 -121 -333 -298 -333zM358 66c136 0 218 103 218 260v23c0 156 -80 259 -218 259c-136 0 -218 -102 -218 -259v-23c0 -157 80 -260 218 -260z"/>
    <glyph glyph-name="Oacute" unicode="Ó" horiz-adv-x="716" d="M283 755l167 137h106l-180 -137h-93zM358 -12c-178 0 -298 140 -298 324v42c0 185 121 332 298 332c179 0 298 -139 298 -323v-42c0 -186 -121 -333 -298 -333zM358 66c136 0 218 103 218 260v23c0 156 -80 259 -218 259c-136 0 -218 -102 -218 -259v-23 c0 -157 80 -260 218 -260z"/>
    <glyph glyph-name="Ocircumflex" unicode="Ô" horiz-adv-x="716" d="M180 755l143 143h73l141 -143h-84l-95 91l-94 -91h-84zM358 -12c-178 0 -298 140 -298 324v42c0 185 121 332 298 332c179 0 298 -139 298 -323v-42c0 -186 -121 -333 -298 -333zM358 66c136 0 218 103 218 260v23c0 156 -80 259 -218 259c-136 0 -218 -102 -218 -259 v-23c0 -157 80 -260 218 -260z"/>
    <glyph glyph-name="Odieresis" unicode="Ö" horiz-adv-x="716" d="M260 758c-32 0 -54 21 -54 55s22 54 54 54c30 0 53 -20 53 -54s-23 -55 -53 -55zM456 758c-32 0 -54 21 -54 55s22 54 54 54c30 0 53 -20 53 -54s-23 -55 -53 -55zM358 -12c-178 0 -298 140 -298 324v42c0 185 121 332 298 332c179 0 298 -139 298 -323v-42 c0 -186 -121 -333 -298 -333zM358 66c136 0 218 103 218 260v23c0 156 -80 259 -218 259c-136 0 -218 -102 -218 -259v-23c0 -157 80 -260 218 -260z"/>
    <glyph glyph-name="Ograve" unicode="Ò" horiz-adv-x="716" d="M340 755l-179 137h105l168 -137h-94zM358 -12c-178 0 -298 140 -298 324v42c0 185 121 332 298 332c179 0 298 -139 298 -323v-42c0 -186 -121 -333 -298 -333zM358 66c136 0 218 103 218 260v23c0 156 -80 259 -218 259c-136 0 -218 -102 -218 -259v-23 c0 -157 80 -260 218 -260z"/>
    <glyph glyph-name="Omacron" unicode="Ō" horiz-adv-x="716" d="M201 851h312v-68h-312v68zM358 -12c-178 0 -298 140 -298 324v42c0 185 121 332 298 332c179 0 298 -139 298 -323v-42c0 -186 -121 -333 -298 -333zM358 66c136 0 218 103 218 260v23c0 156 -80 259 -218 259c-136 0 -218 -102 -218 -259v-23c0 -157 80 -260 218 -260z "/>
    <glyph glyph-name="Oslash" unicode="Ø" horiz-adv-x="716" d="M678 729l-99 -141c49 -57 77 -136 77 -225v-42c0 -186 -121 -333 -298 -333c-64 0 -121 18 -167 50l-67 -94h-86l100 142c-50 57 -78 136 -78 226v42c0 185 121 332 298 332c65 0 122 -18 168 -50l66 93h86zM140 326c0 -70 16 -129 45 -173l296 419 c-33 23 -74 36 -123 36c-136 0 -218 -102 -218 -259v-23zM576 349c0 69 -16 128 -45 172l-296 -419c33 -23 75 -36 123 -36c136 0 218 103 218 260v23z"/>
    <glyph glyph-name="Otilde" unicode="Õ" horiz-adv-x="716" d="M436 758c-27 0 -54 15 -80 31c-27 16 -52 32 -76 32c-32 0 -50 -27 -51 -53h-67c8 70 48 119 114 119c38 0 70 -18 96 -35c22 -14 42 -28 64 -28c28 0 49 19 52 53h66c-7 -68 -41 -119 -118 -119zM358 -12c-178 0 -298 140 -298 324v42c0 185 121 332 298 332 c179 0 298 -139 298 -323v-42c0 -186 -121 -333 -298 -333zM358 66c136 0 218 103 218 260v23c0 156 -80 259 -218 259c-136 0 -218 -102 -218 -259v-23c0 -157 80 -260 218 -260z"/>
    <glyph glyph-name="OE" unicode="Œ" horiz-adv-x="1022" d="M648 77h321v-77h-399v104c-46 -71 -118 -116 -216 -116c-176 0 -294 140 -294 324v42c0 185 119 332 294 332c98 0 171 -42 216 -110v100h388v-77h-310v-216h278v-77h-278v-229zM354 66c136 0 216 103 216 260v23c0 156 -78 259 -216 259c-134 0 -214 -102 -214 -259v-23 c0 -157 78 -260 214 -260z"/>
    <glyph glyph-name="P" unicode="P" horiz-adv-x="583" d="M318 676c141 0 219 -89 219 -207c0 -116 -78 -215 -219 -215h-148v-254h-78v676h226zM309 328c98 0 148 54 148 141c0 86 -52 133 -148 133h-139v-274h139z"/>
    <glyph glyph-name="Thorn" unicode="Þ" horiz-adv-x="583" d="M318 584c141 0 219 -89 219 -207c0 -116 -78 -215 -219 -215h-148v-162h-78v676h78v-92h148zM309 236c98 0 148 54 148 141c0 86 -52 133 -148 133h-139v-274h139z"/>
    <glyph glyph-name="Q" unicode="Q" horiz-adv-x="716" d="M656 321c0 -104 -38 -196 -102 -257l96 -148h-89l-68 105c-39 -21 -85 -33 -135 -33c-178 0 -298 140 -298 324v42c0 185 121 332 298 332c179 0 298 -139 298 -323v-42zM450 223l61 -94c42 46 65 114 65 197v23c0 156 -80 259 -218 259c-136 0 -218 -102 -218 -259v-23 c0 -157 80 -260 218 -260c35 0 66 7 93 19l-89 138h88z"/>
    <glyph glyph-name="R" unicode="R" horiz-adv-x="591" d="M571 0h-91l-157 270c-9 -1 -19 -1 -29 -1h-124v-269h-78v676h213c145 0 220 -86 220 -201c0 -80 -42 -153 -123 -187zM286 343c104 0 158 51 158 133c0 81 -52 127 -150 127h-124v-260h116z"/>
    <glyph glyph-name="Racute" unicode="Ŕ" horiz-adv-x="591" d="M470 886l-180 -137h-93l167 137h106zM571 0h-91l-157 270c-9 -1 -19 -1 -29 -1h-124v-269h-78v676h213c145 0 220 -86 220 -201c0 -80 -42 -153 -123 -187zM286 343c104 0 158 51 158 133c0 81 -52 127 -150 127h-124v-260h116z"/>
    <glyph glyph-name="Rcaron" unicode="Ř" horiz-adv-x="591" d="M309 749h-74l-141 143h84l95 -92l94 92h84zM571 0h-91l-157 270c-9 -1 -19 -1 -29 -1h-124v-269h-78v676h213c145 0 220 -86 220 -201c0 -80 -42 -153 -123 -187zM286 343c104 0 158 51 158 133c0 81 -52 127 -150 127h-124v-260h116z"/>
    <glyph glyph-name="S" unicode="S" horiz-adv-x="541" d="M266 -12c-76 0 -153 18 -212 47v75c65 -27 132 -44 213 -44c90 0 147 36 147 108s-52 101 -156 136c-138 47 -202 87 -202 196c0 101 88 180 221 180c69 0 132 -17 183 -37v-74c-59 23 -115 33 -181 33c-96 0 -145 -37 -145 -101c0 -67 46 -86 159 -125 c125 -43 201 -93 201 -205c0 -111 -74 -189 -228 -189z"/>
    <glyph glyph-name="Sacute" unicode="Ś" horiz-adv-x="541" d="M199 749l167 137h106l-180 -137h-93zM266 -12c-76 0 -153 18 -212 47v75c65 -27 132 -44 213 -44c90 0 147 36 147 108s-52 101 -156 136c-138 47 -202 87 -202 196c0 101 88 180 221 180c69 0 132 -17 183 -37v-74c-59 23 -115 33 -181 33c-96 0 -145 -37 -145 -101 c0 -67 46 -86 159 -125c125 -43 201 -93 201 -205c0 -111 -74 -189 -228 -189z"/>
    <glyph glyph-name="Scaron" unicode="Š" horiz-adv-x="541" d="M237 749l-141 143h84l95 -92l94 92h84l-142 -143h-74zM266 -12c-76 0 -153 18 -212 47v75c65 -27 132 -44 213 -44c90 0 147 36 147 108s-52 101 -156 136c-138 47 -202 87 -202 196c0 101 88 180 221 180c69 0 132 -17 183 -37v-74c-59 23 -115 33 -181 33 c-96 0 -145 -37 -145 -101c0 -67 46 -86 159 -125c125 -43 201 -93 201 -205c0 -111 -74 -189 -228 -189z"/>
    <glyph glyph-name="uni1E9E" unicode="ẞ" horiz-adv-x="667" d="M414 -11c-61 0 -116 13 -172 43v71c54 -27 104 -41 165 -41c89 0 134 47 134 118c0 87 -76 130 -178 130h-37v64l158 204c-39 21 -76 33 -138 33c-120 0 -186 -73 -186 -230v-381h-78v379c0 205 108 307 259 307c100 0 167 -36 218 -66v-49l-156 -197l10 -1 c122 -12 207 -88 207 -190c0 -117 -75 -194 -206 -194z"/>
    <glyph glyph-name="T" unicode="T" horiz-adv-x="535" d="M517 676v-77h-210v-599h-79v599h-210v77h499z"/>
    <glyph glyph-name="U" unicode="U" horiz-adv-x="690" d="M344 -12c-173 0 -257 118 -257 302v386h79v-377c0 -144 52 -233 179 -233c123 0 179 89 179 233v377h79v-378c0 -181 -89 -310 -259 -310z"/>
    <glyph glyph-name="Uacute" unicode="Ú" horiz-adv-x="690" d="M270 749l167 137h106l-180 -137h-93zM344 -12c-173 0 -257 118 -257 302v386h79v-377c0 -144 52 -233 179 -233c123 0 179 89 179 233v377h79v-378c0 -181 -89 -310 -259 -310z"/>
    <glyph glyph-name="Ucircumflex" unicode="Û" horiz-adv-x="690" d="M167 749l143 143h73l141 -143h-84l-95 91l-94 -91h-84zM344 -12c-173 0 -257 118 -257 302v386h79v-377c0 -144 52 -233 179 -233c123 0 179 89 179 233v377h79v-378c0 -181 -89 -310 -259 -310z"/>
    <glyph glyph-name="Udieresis" unicode="Ü" horiz-adv-x="690" d="M247 752c-32 0 -54 21 -54 55s22 54 54 54c30 0 53 -20 53 -54s-23 -55 -53 -55zM443 752c-32 0 -54 21 -54 55s22 54 54 54c30 0 53 -20 53 -54s-23 -55 -53 -55zM344 -12c-173 0 -257 118 -257 302v386h79v-377c0 -144 52 -233 179 -233c123 0 179 89 179 233v377h79 v-378c0 -181 -89 -310 -259 -310z"/>
    <glyph glyph-name="Ugrave" unicode="Ù" horiz-adv-x="690" d="M327 749l-179 137h105l168 -137h-94zM344 -12c-173 0 -257 118 -257 302v386h79v-377c0 -144 52 -233 179 -233c123 0 179 89 179 233v377h79v-378c0 -181 -89 -310 -259 -310z"/>
    <glyph glyph-name="Umacron" unicode="Ū" horiz-adv-x="690" d="M188 845h312v-68h-312v68zM344 -12c-173 0 -257 118 -257 302v386h79v-377c0 -144 52 -233 179 -233c123 0 179 89 179 233v377h79v-378c0 -181 -89 -310 -259 -310z"/>
    <glyph glyph-name="Uring" unicode="Ů" horiz-adv-x="690" d="M345 727c-60 0 -110 46 -110 109c0 62 52 108 110 108c60 0 109 -46 109 -108c0 -63 -50 -109 -109 -109zM345 780c31 0 53 23 53 56c0 32 -23 55 -53 55c-32 0 -54 -23 -54 -55c0 -33 23 -56 54 -56zM344 -12c-173 0 -257 118 -257 302v386h79v-377 c0 -144 52 -233 179 -233c123 0 179 89 179 233v377h79v-378c0 -181 -89 -310 -259 -310z"/>
    <glyph glyph-name="V" unicode="V" horiz-adv-x="631" d="M523 676h86l-255 -676h-78l-254 676h88l207 -574z"/>
    <glyph glyph-name="W" unicode="W" horiz-adv-x="912" d="M223 0l-183 676h89l137 -562l150 544h81l152 -545l138 563h85l-185 -676h-82l-152 543l-148 -543h-82z"/>
    <glyph glyph-name="Wacute" unicode="Ẃ" horiz-adv-x="912" d="M381 749l167 137h106l-180 -137h-93zM223 0l-183 676h89l137 -562l150 544h81l152 -545l138 563h85l-185 -676h-82l-152 543l-148 -543h-82z"/>
    <glyph glyph-name="Wcircumflex" unicode="Ŵ" horiz-adv-x="912" d="M278 749l143 143h73l141 -143h-84l-95 91l-94 -91h-84zM223 0l-183 676h89l137 -562l150 544h81l152 -545l138 563h85l-185 -676h-82l-152 543l-148 -543h-82z"/>
    <glyph glyph-name="Wdieresis" unicode="Ẅ" horiz-adv-x="912" d="M358 752c-32 0 -54 21 -54 55s22 54 54 54c30 0 53 -20 53 -54s-23 -55 -53 -55zM554 752c-32 0 -54 21 -54 55s22 54 54 54c30 0 53 -20 53 -54s-23 -55 -53 -55zM223 0l-183 676h89l137 -562l150 544h81l152 -545l138 563h85l-185 -676h-82l-152 543l-148 -543h-82z "/>
    <glyph glyph-name="Wgrave" unicode="Ẁ" horiz-adv-x="912" d="M438 749l-179 137h105l168 -137h-94zM223 0l-183 676h89l137 -562l150 544h81l152 -545l138 563h85l-185 -676h-82l-152 543l-148 -543h-82z"/>
    <glyph glyph-name="X" unicode="X" horiz-adv-x="659" d="M631 0h-96l-209 298l-207 -298h-91l253 360l-226 316h97l179 -256l180 256h88l-224 -317z"/>
    <glyph glyph-name="Y" unicode="Y" horiz-adv-x="578" d="M558 676l-230 -423h-1v-253h-79v255l-228 421h88l183 -340l182 340h85z"/>
    <glyph glyph-name="Yacute" unicode="Ý" horiz-adv-x="578" d="M487 886l-180 -137h-93l167 137h106zM558 676l-230 -423h-1v-253h-79v255l-228 421h88l183 -340l182 340h85z"/>
    <glyph glyph-name="Ycircumflex" unicode="Ŷ" horiz-adv-x="578" d="M289 840l-94 -91h-84l143 143h73l141 -143h-84zM558 676l-230 -423h-1v-253h-79v255l-228 421h88l183 -340l182 340h85z"/>
    <glyph glyph-name="Ydieresis" unicode="Ÿ" horiz-adv-x="578" d="M191 752c-32 0 -54 21 -54 55s22 54 54 54c30 0 53 -20 53 -54s-23 -55 -53 -55zM387 752c-32 0 -54 21 -54 55s22 54 54 54c30 0 53 -20 53 -54s-23 -55 -53 -55zM558 676l-230 -423h-1v-253h-79v255l-228 421h88l183 -340l182 340h85z"/>
    <glyph glyph-name="Ygrave" unicode="Ỳ" horiz-adv-x="578" d="M365 749h-94l-179 137h105zM558 676l-230 -423h-1v-253h-79v255l-228 421h88l183 -340l182 340h85z"/>
    <glyph glyph-name="Z" unicode="Z" horiz-adv-x="584" d="M50 0v72l381 527h-370v77h461v-72l-379 -527h391v-77h-484z"/>
    <glyph glyph-name="Zacute" unicode="Ź" horiz-adv-x="584" d="M212 749l167 137h106l-180 -137h-93zM50 0v72l381 527h-370v77h461v-72l-379 -527h391v-77h-484z"/>
    <glyph glyph-name="Zcaron" unicode="Ž" horiz-adv-x="584" d="M250 749l-141 143h84l95 -92l94 92h84l-142 -143h-74zM50 0v72l381 527h-370v77h461v-72l-379 -527h391v-77h-484z"/>
    <glyph glyph-name="Zdotaccent" unicode="Ż" horiz-adv-x="584" d="M287 751c-32 0 -55 23 -55 57s23 56 55 56s55 -22 55 -56s-23 -57 -55 -57zM50 0v72l381 527h-370v77h461v-72l-379 -527h391v-77h-484z"/>
    <glyph glyph-name="a" unicode="a" horiz-adv-x="518" d="M239 511c121 0 203 -64 203 -198v-313h-67l-6 58c-45 -37 -98 -68 -161 -68c-100 0 -156 53 -156 148c0 83 63 137 159 147l155 16c-1 97 -42 138 -135 138c-48 0 -93 -8 -139 -21v68c48 15 98 25 147 25zM128 141c0 -48 24 -81 88 -81c52 0 97 21 150 64v114l-149 -16 c-55 -6 -89 -33 -89 -81z"/>
    <glyph glyph-name="aacute" unicode="á" horiz-adv-x="518" d="M426 741l-154 -143h-84l143 143h95zM239 511c121 0 203 -64 203 -198v-313h-67l-6 58c-45 -37 -98 -68 -161 -68c-100 0 -156 53 -156 148c0 83 63 137 159 147l155 16c-1 97 -42 138 -135 138c-48 0 -93 -8 -139 -21v68c48 15 98 25 147 25zM128 141 c0 -48 24 -81 88 -81c52 0 97 21 150 64v114l-149 -16c-55 -6 -89 -33 -89 -81z"/>
    <glyph glyph-name="acircumflex" unicode="â" horiz-adv-x="518" d="M256 694l-80 -96h-73l119 148h70l118 -148h-75zM239 511c121 0 203 -64 203 -198v-313h-67l-6 58c-45 -37 -98 -68 -161 -68c-100 0 -156 53 -156 148c0 83 63 137 159 147l155 16c-1 97 -42 138 -135 138c-48 0 -93 -8 -139 -21v68c48 15 98 25 147 25zM128 141 c0 -48 24 -81 88 -81c52 0 97 21 150 64v114l-149 -16c-55 -6 -89 -33 -89 -81z"/>
    <glyph glyph-name="adieresis" unicode="ä" horiz-adv-x="518" d="M168 613c-30 0 -51 21 -51 53s21 52 51 52c29 0 51 -20 51 -52s-22 -53 -51 -53zM344 613c-30 0 -51 21 -51 53s21 52 51 52c29 0 51 -20 51 -52s-22 -53 -51 -53zM239 511c121 0 203 -64 203 -198v-313h-67l-6 58c-45 -37 -98 -68 -161 -68c-100 0 -156 53 -156 148 c0 83 63 137 159 147l155 16c-1 97 -42 138 -135 138c-48 0 -93 -8 -139 -21v68c48 15 98 25 147 25zM128 141c0 -48 24 -81 88 -81c52 0 97 21 150 64v114l-149 -16c-55 -6 -89 -33 -89 -81z"/>
    <glyph glyph-name="agrave" unicode="à" horiz-adv-x="518" d="M324 598h-84l-154 143h95zM239 511c121 0 203 -64 203 -198v-313h-67l-6 58c-45 -37 -98 -68 -161 -68c-100 0 -156 53 -156 148c0 83 63 137 159 147l155 16c-1 97 -42 138 -135 138c-48 0 -93 -8 -139 -21v68c48 15 98 25 147 25zM128 141c0 -48 24 -81 88 -81 c52 0 97 21 150 64v114l-149 -16c-55 -6 -89 -33 -89 -81z"/>
    <glyph glyph-name="amacron" unicode="ā" horiz-adv-x="518" d="M388 702v-68h-265v68h265zM239 511c121 0 203 -64 203 -198v-313h-67l-6 58c-45 -37 -98 -68 -161 -68c-100 0 -156 53 -156 148c0 83 63 137 159 147l155 16c-1 97 -42 138 -135 138c-48 0 -93 -8 -139 -21v68c48 15 98 25 147 25zM128 141c0 -48 24 -81 88 -81 c52 0 97 21 150 64v114l-149 -16c-55 -6 -89 -33 -89 -81z"/>
    <glyph glyph-name="aring" unicode="å" horiz-adv-x="518" d="M256 590c-60 0 -110 46 -110 109c0 62 52 108 110 108c60 0 109 -46 109 -108c0 -63 -50 -109 -109 -109zM256 756c-33 0 -56 -24 -56 -57c0 -34 24 -58 56 -58s55 24 55 58c0 33 -24 57 -55 57zM239 511c121 0 203 -64 203 -198v-313h-67l-6 58 c-45 -37 -98 -68 -161 -68c-100 0 -156 53 -156 148c0 83 63 137 159 147l155 16c-1 97 -42 138 -135 138c-48 0 -93 -8 -139 -21v68c48 15 98 25 147 25zM128 141c0 -48 24 -81 88 -81c52 0 97 21 150 64v114l-149 -16c-55 -6 -89 -33 -89 -81z"/>
    <glyph glyph-name="atilde" unicode="ã" horiz-adv-x="518" d="M190 666c-26 0 -40 -22 -41 -47h-66c6 66 42 112 104 112c34 0 59 -17 82 -33c18 -12 36 -24 54 -24c23 0 39 17 41 47h66c-6 -66 -43 -112 -104 -112c-34 0 -59 17 -82 33c-19 13 -36 24 -54 24zM239 511c121 0 203 -64 203 -198v-313h-67l-6 58 c-45 -37 -98 -68 -161 -68c-100 0 -156 53 -156 148c0 83 63 137 159 147l155 16c-1 97 -42 138 -135 138c-48 0 -93 -8 -139 -21v68c48 15 98 25 147 25zM128 141c0 -48 24 -81 88 -81c52 0 97 21 150 64v114l-149 -16c-55 -6 -89 -33 -89 -81z"/>
    <glyph glyph-name="ae" unicode="æ" horiz-adv-x="818" d="M772 362c0 -85 -59 -136 -162 -136h-170c5 -102 50 -165 159 -165c48 0 87 6 132 22v-69c-46 -18 -84 -26 -135 -26c-94 0 -156 35 -192 92c-51 -46 -120 -90 -196 -90c-100 0 -156 52 -156 143c0 83 63 136 159 146l155 16v4c0 98 -41 140 -135 140 c-48 0 -93 -8 -139 -21v68c48 15 98 25 147 25c85 0 146 -33 175 -98c41 60 108 98 184 98c119 0 174 -72 174 -149zM442 291h162c61 0 91 23 91 72c0 48 -34 77 -98 77c-81 0 -143 -56 -155 -149zM216 60c54 0 107 25 164 75c-9 30 -13 62 -13 97l-150 -16 c-55 -6 -89 -32 -89 -80c0 -44 24 -76 88 -76z"/>
    <glyph glyph-name="b" unicode="b" horiz-adv-x="561" d="M314 511c103 0 193 -78 193 -224v-28c0 -169 -130 -259 -274 -259h-153v711h78v-262c44 34 97 62 156 62zM429 268v14c0 95 -49 156 -125 156c-53 0 -94 -19 -146 -61v-305h76c123 0 195 73 195 196z"/>
    <glyph glyph-name="c" unicode="c" horiz-adv-x="461" d="M290 -12c-141 0 -236 104 -236 244v27c0 143 101 252 240 252c46 0 81 -11 114 -24v-69c-34 11 -63 20 -110 20c-100 0 -166 -72 -166 -181v-16c0 -108 65 -180 165 -180c46 0 86 10 122 23v-69c-40 -16 -81 -27 -129 -27z"/>
    <glyph glyph-name="cacute" unicode="ć" horiz-adv-x="461" d="M200 598l143 143h95l-154 -143h-84zM290 -12c-141 0 -236 104 -236 244v27c0 143 101 252 240 252c46 0 81 -11 114 -24v-69c-34 11 -63 20 -110 20c-100 0 -166 -72 -166 -181v-16c0 -108 65 -180 165 -180c46 0 86 10 122 23v-69c-40 -16 -81 -27 -129 -27z"/>
    <glyph glyph-name="ccaron" unicode="č" horiz-adv-x="461" d="M233 598l-118 148h75l79 -96l80 96h73l-119 -148h-70zM290 -12c-141 0 -236 104 -236 244v27c0 143 101 252 240 252c46 0 81 -11 114 -24v-69c-34 11 -63 20 -110 20c-100 0 -166 -72 -166 -181v-16c0 -108 65 -180 165 -180c46 0 86 10 122 23v-69 c-40 -16 -81 -27 -129 -27z"/>
    <glyph glyph-name="ccedilla" unicode="ç" horiz-adv-x="461" d="M419 84v-69c-30 -12 -61 -21 -95 -25c10 -18 15 -38 15 -59c0 -67 -46 -111 -116 -111c-34 0 -53 9 -74 18v54c18 -7 39 -13 57 -13c45 0 67 23 67 63c0 17 -5 33 -13 48c-125 14 -206 112 -206 242v27c0 143 101 252 240 252c46 0 81 -11 114 -24v-69 c-34 11 -63 20 -110 20c-100 0 -166 -72 -166 -181v-16c0 -108 65 -180 165 -180c46 0 86 10 122 23z"/>
    <glyph glyph-name="cdotaccent" unicode="ċ" horiz-adv-x="461" d="M268 605c-32 0 -55 23 -55 57c0 35 23 56 55 56s55 -21 55 -56c0 -34 -23 -57 -55 -57zM290 -12c-141 0 -236 104 -236 244v27c0 143 101 252 240 252c46 0 81 -11 114 -24v-69c-34 11 -63 20 -110 20c-100 0 -166 -72 -166 -181v-16c0 -108 65 -180 165 -180 c46 0 86 10 122 23v-69c-40 -16 -81 -27 -129 -27z"/>
    <glyph glyph-name="d" unicode="d" horiz-adv-x="562" d="M404 711h78v-711h-69l-5 55c-46 -36 -100 -65 -161 -65c-103 0 -193 78 -193 223v29c0 169 131 259 274 259h76v210zM132 218c0 -94 49 -155 126 -155c53 0 93 20 146 61v305h-77c-123 0 -195 -73 -195 -197v-14z"/>
    <glyph glyph-name="eth" unicode="ð" horiz-adv-x="564" d="M535 686v-64l-102 -27c45 -84 77 -189 77 -289v-35c0 -177 -93 -283 -228 -283c-137 0 -227 99 -227 232v33c0 135 91 235 239 235c43 0 82 -11 114 -26c-12 41 -27 80 -45 115l-143 -37v64l113 29c-18 30 -37 56 -57 78h77c16 -17 32 -37 47 -60zM432 269v27 c0 28 -2 57 -7 85c-34 21 -78 36 -127 36c-104 0 -165 -63 -165 -167v-21c0 -103 56 -168 148 -168c93 0 151 64 151 208z"/>
    <glyph glyph-name="e" unicode="e" horiz-adv-x="508" d="M462 358c0 -90 -59 -143 -162 -143h-169c7 -95 53 -154 158 -154c48 0 87 6 132 22v-69c-46 -18 -84 -26 -135 -26c-159 0 -232 104 -232 245v27c0 141 104 251 234 251c119 0 174 -71 174 -153zM131 280h163c61 0 91 25 91 79c0 53 -34 81 -98 81 c-84 0 -148 -60 -156 -160z"/>
    <glyph glyph-name="eacute" unicode="é" horiz-adv-x="508" d="M451 741l-154 -143h-84l143 143h95zM462 358c0 -90 -59 -143 -162 -143h-169c7 -95 53 -154 158 -154c48 0 87 6 132 22v-69c-46 -18 -84 -26 -135 -26c-159 0 -232 104 -232 245v27c0 141 104 251 234 251c119 0 174 -71 174 -153zM131 280h163c61 0 91 25 91 79 c0 53 -34 81 -98 81c-84 0 -148 -60 -156 -160z"/>
    <glyph glyph-name="ecaron" unicode="ě" horiz-adv-x="508" d="M316 598h-70l-118 148h75l79 -96l80 96h73zM462 358c0 -90 -59 -143 -162 -143h-169c7 -95 53 -154 158 -154c48 0 87 6 132 22v-69c-46 -18 -84 -26 -135 -26c-159 0 -232 104 -232 245v27c0 141 104 251 234 251c119 0 174 -71 174 -153zM131 280h163c61 0 91 25 91 79 c0 53 -34 81 -98 81c-84 0 -148 -60 -156 -160z"/>
    <glyph glyph-name="ecircumflex" unicode="ê" horiz-adv-x="508" d="M281 694l-80 -96h-73l119 148h70l118 -148h-75zM462 358c0 -90 -59 -143 -162 -143h-169c7 -95 53 -154 158 -154c48 0 87 6 132 22v-69c-46 -18 -84 -26 -135 -26c-159 0 -232 104 -232 245v27c0 141 104 251 234 251c119 0 174 -71 174 -153zM131 280h163 c61 0 91 25 91 79c0 53 -34 81 -98 81c-84 0 -148 -60 -156 -160z"/>
    <glyph glyph-name="edieresis" unicode="ë" horiz-adv-x="508" d="M193 613c-30 0 -51 21 -51 53s21 52 51 52c29 0 51 -20 51 -52s-22 -53 -51 -53zM369 613c-30 0 -51 21 -51 53s21 52 51 52c29 0 51 -20 51 -52s-22 -53 -51 -53zM462 358c0 -90 -59 -143 -162 -143h-169c7 -95 53 -154 158 -154c48 0 87 6 132 22v-69 c-46 -18 -84 -26 -135 -26c-159 0 -232 104 -232 245v27c0 141 104 251 234 251c119 0 174 -71 174 -153zM131 280h163c61 0 91 25 91 79c0 53 -34 81 -98 81c-84 0 -148 -60 -156 -160z"/>
    <glyph glyph-name="edotaccent" unicode="ė" horiz-adv-x="508" d="M281 605c-32 0 -55 23 -55 57c0 35 23 56 55 56s55 -21 55 -56c0 -34 -23 -57 -55 -57zM462 358c0 -90 -59 -143 -162 -143h-169c7 -95 53 -154 158 -154c48 0 87 6 132 22v-69c-46 -18 -84 -26 -135 -26c-159 0 -232 104 -232 245v27c0 141 104 251 234 251 c119 0 174 -71 174 -153zM131 280h163c61 0 91 25 91 79c0 53 -34 81 -98 81c-84 0 -148 -60 -156 -160z"/>
    <glyph glyph-name="egrave" unicode="è" horiz-adv-x="508" d="M349 598h-84l-154 143h95zM462 358c0 -90 -59 -143 -162 -143h-169c7 -95 53 -154 158 -154c48 0 87 6 132 22v-69c-46 -18 -84 -26 -135 -26c-159 0 -232 104 -232 245v27c0 141 104 251 234 251c119 0 174 -71 174 -153zM131 280h163c61 0 91 25 91 79 c0 53 -34 81 -98 81c-84 0 -148 -60 -156 -160z"/>
    <glyph glyph-name="emacron" unicode="ē" horiz-adv-x="508" d="M413 702v-68h-265v68h265zM462 358c0 -90 -59 -143 -162 -143h-169c7 -95 53 -154 158 -154c48 0 87 6 132 22v-69c-46 -18 -84 -26 -135 -26c-159 0 -232 104 -232 245v27c0 141 104 251 234 251c119 0 174 -71 174 -153zM131 280h163c61 0 91 25 91 79 c0 53 -34 81 -98 81c-84 0 -148 -60 -156 -160z"/>
    <glyph glyph-name="f" unicode="f" horiz-adv-x="413" d="M80 0v510c0 139 79 211 197 211c35 0 73 -9 107 -23v-68c-32 12 -62 18 -104 18c-72 0 -122 -31 -122 -134v-13h212v-72h-212v-429h-78z"/>
    <glyph glyph-name="g" unicode="g" horiz-adv-x="557" d="M477 501v-480c0 -137 -87 -237 -240 -237c-54 0 -99 13 -142 29v69c45 -16 89 -25 140 -25c104 0 165 62 165 173v38c-45 -34 -98 -61 -157 -61c-103 0 -189 81 -189 219v23c0 146 121 252 266 252h157zM254 78c51 0 94 20 146 62v290h-81c-116 0 -187 -82 -187 -184v-15 c0 -102 53 -153 122 -153z"/>
    <glyph glyph-name="gdotaccent" unicode="ġ" horiz-adv-x="557" d="M298 605c-32 0 -55 23 -55 57c0 35 23 56 55 56s55 -21 55 -56c0 -34 -23 -57 -55 -57zM477 501v-480c0 -137 -87 -237 -240 -237c-54 0 -99 13 -142 29v69c45 -16 89 -25 140 -25c104 0 165 62 165 173v38c-45 -34 -98 -61 -157 -61c-103 0 -189 81 -189 219v23 c0 146 121 252 266 252h157zM254 78c51 0 94 20 146 62v290h-81c-116 0 -187 -82 -187 -184v-15c0 -102 53 -153 122 -153z"/>
    <glyph glyph-name="h" unicode="h" horiz-adv-x="570" d="M273 511c147 0 222 -93 222 -238v-273h-78v253c0 110 -33 185 -151 185c-35 0 -77 -5 -108 -12v-426h-78v711h78v-213c37 8 76 13 115 13z"/>
    <glyph glyph-name="i" unicode="i" horiz-adv-x="238" d="M119 605c-32 0 -55 23 -55 57c0 35 23 56 55 56s55 -21 55 -56c0 -34 -23 -57 -55 -57zM80 0v501h78v-501h-78z"/>
    <glyph glyph-name="dotlessi" unicode="ı" horiz-adv-x="238" d="M80 0v501h78v-501h-78z"/>
    <glyph glyph-name="iacute" unicode="í" horiz-adv-x="238" d="M51 598l143 143h95l-154 -143h-84zM80 0v501h78v-501h-78z"/>
    <glyph glyph-name="icircumflex" unicode="î" horiz-adv-x="238" d="M-34 598l119 148h70l118 -148h-75l-79 96l-80 -96h-73zM80 0v501h78v-501h-78z"/>
    <glyph glyph-name="idieresis" unicode="ï" horiz-adv-x="238" d="M31 613c-30 0 -51 21 -51 53s21 52 51 52c29 0 51 -20 51 -52s-22 -53 -51 -53zM207 613c-30 0 -51 21 -51 53s21 52 51 52c29 0 51 -20 51 -52s-22 -53 -51 -53zM80 0v501h78v-501h-78z"/>
    <glyph glyph-name="i.loclTRK" horiz-adv-x="238" d="M119 605c-32 0 -55 23 -55 57c0 35 23 56 55 56s55 -21 55 -56c0 -34 -23 -57 -55 -57zM80 0v501h78v-501h-78z"/>
    <glyph glyph-name="igrave" unicode="ì" horiz-adv-x="238" d="M103 598l-154 143h95l143 -143h-84zM80 0v501h78v-501h-78z"/>
    <glyph glyph-name="ij" unicode="ĳ" horiz-adv-x="476" d="M119 605c-32 0 -55 23 -55 57c0 35 23 56 55 56s55 -21 55 -56c0 -34 -23 -57 -55 -57zM357 605c-32 0 -55 23 -55 57c0 35 23 56 55 56s55 -21 55 -56c0 -34 -23 -57 -55 -57zM80 0v501h78v-501h-78zM243 -216c-32 0 -65 9 -88 19v67c19 -8 45 -13 75 -13 c50 0 88 30 88 103v541h78v-532c0 -119 -60 -185 -153 -185z"/>
    <glyph glyph-name="imacron" unicode="ī" horiz-adv-x="238" d="M-14 702h265v-68h-265v68zM80 0v501h78v-501h-78z"/>
    <glyph glyph-name="j" unicode="j" horiz-adv-x="238" d="M119 605c-32 0 -55 23 -55 57c0 35 23 56 55 56s55 -21 55 -56c0 -34 -23 -57 -55 -57zM5 -216c-32 0 -65 9 -88 19v67c19 -8 45 -13 75 -13c50 0 88 30 88 103v541h78v-532c0 -119 -60 -185 -153 -185z"/>
    <glyph glyph-name="k" unicode="k" horiz-adv-x="498" d="M487 0h-99l-231 246v-246h-77v711h77v-421l218 211h92l-235 -227z"/>
    <glyph glyph-name="l" unicode="l" horiz-adv-x="238" d="M80 0v711h78v-711h-78z"/>
    <glyph glyph-name="m" unicode="m" horiz-adv-x="842" d="M562 511c139 0 205 -88 205 -233v-278h-78v258c0 111 -25 180 -134 180c-47 0 -86 -13 -116 -25c19 -37 29 -83 29 -137v-276h-78v258c0 105 -22 180 -129 180c-33 0 -72 -5 -103 -12v-426h-78v485c61 15 128 26 188 26c52 0 94 -15 127 -42c53 23 112 42 167 42z"/>
    <glyph glyph-name="n" unicode="n" horiz-adv-x="570" d="M80 0v485c61 15 133 26 193 26c147 0 222 -93 222 -238v-273h-78v253c0 110 -33 185 -151 185c-35 0 -77 -5 -108 -12v-426h-78z"/>
    <glyph glyph-name="nacute" unicode="ń" horiz-adv-x="570" d="M212 598l143 143h95l-154 -143h-84zM80 0v485c61 15 133 26 193 26c147 0 222 -93 222 -238v-273h-78v253c0 110 -33 185 -151 185c-35 0 -77 -5 -108 -12v-426h-78z"/>
    <glyph glyph-name="ncaron" unicode="ň" horiz-adv-x="570" d="M245 598l-118 148h75l79 -96l80 96h73l-119 -148h-70zM80 0v485c61 15 133 26 193 26c147 0 222 -93 222 -238v-273h-78v253c0 110 -33 185 -151 185c-35 0 -77 -5 -108 -12v-426h-78z"/>
    <glyph glyph-name="ntilde" unicode="ñ" horiz-adv-x="570" d="M350 609c-34 0 -59 17 -82 33c-19 13 -36 24 -54 24c-26 0 -40 -22 -41 -47h-66c6 66 42 112 104 112c34 0 59 -17 82 -33c18 -12 36 -24 54 -24c23 0 39 17 41 47h66c-6 -66 -43 -112 -104 -112zM80 0v485c61 15 133 26 193 26c147 0 222 -93 222 -238v-273h-78v253 c0 110 -33 185 -151 185c-35 0 -77 -5 -108 -12v-426h-78z"/>
    <glyph glyph-name="o" unicode="o" horiz-adv-x="565" d="M281 -12c-136 0 -227 105 -227 243v30c0 137 92 250 229 250s228 -106 228 -243v-30c0 -138 -92 -250 -230 -250zM282 61c96 0 151 66 151 181v15c0 114 -54 181 -150 181s-151 -67 -151 -181v-15c0 -114 54 -181 150 -181z"/>
    <glyph glyph-name="oacute" unicode="ó" horiz-adv-x="565" d="M214 598l143 143h95l-154 -143h-84zM281 -12c-136 0 -227 105 -227 243v30c0 137 92 250 229 250s228 -106 228 -243v-30c0 -138 -92 -250 -230 -250zM282 61c96 0 151 66 151 181v15c0 114 -54 181 -150 181s-151 -67 -151 -181v-15c0 -114 54 -181 150 -181z"/>
    <glyph glyph-name="ocircumflex" unicode="ô" horiz-adv-x="565" d="M129 598l119 148h70l118 -148h-75l-79 96l-80 -96h-73zM281 -12c-136 0 -227 105 -227 243v30c0 137 92 250 229 250s228 -106 228 -243v-30c0 -138 -92 -250 -230 -250zM282 61c96 0 151 66 151 181v15c0 114 -54 181 -150 181s-151 -67 -151 -181v-15 c0 -114 54 -181 150 -181z"/>
    <glyph glyph-name="odieresis" unicode="ö" horiz-adv-x="565" d="M194 613c-30 0 -51 21 -51 53s21 52 51 52c29 0 51 -20 51 -52s-22 -53 -51 -53zM370 613c-30 0 -51 21 -51 53s21 52 51 52c29 0 51 -20 51 -52s-22 -53 -51 -53zM281 -12c-136 0 -227 105 -227 243v30c0 137 92 250 229 250s228 -106 228 -243v-30 c0 -138 -92 -250 -230 -250zM282 61c96 0 151 66 151 181v15c0 114 -54 181 -150 181s-151 -67 -151 -181v-15c0 -114 54 -181 150 -181z"/>
    <glyph glyph-name="ograve" unicode="ò" horiz-adv-x="565" d="M266 598l-154 143h95l143 -143h-84zM281 -12c-136 0 -227 105 -227 243v30c0 137 92 250 229 250s228 -106 228 -243v-30c0 -138 -92 -250 -230 -250zM282 61c96 0 151 66 151 181v15c0 114 -54 181 -150 181s-151 -67 -151 -181v-15c0 -114 54 -181 150 -181z"/>
    <glyph glyph-name="omacron" unicode="ō" horiz-adv-x="565" d="M149 702h265v-68h-265v68zM281 -12c-136 0 -227 105 -227 243v30c0 137 92 250 229 250s228 -106 228 -243v-30c0 -138 -92 -250 -230 -250zM282 61c96 0 151 66 151 181v15c0 114 -54 181 -150 181s-151 -67 -151 -181v-15c0 -114 54 -181 150 -181z"/>
    <glyph glyph-name="oslash" unicode="ø" horiz-adv-x="565" d="M536 544l-81 -111c36 -43 56 -101 56 -165v-30c0 -138 -92 -250 -230 -250c-47 0 -89 13 -124 35l-51 -70h-79l82 113c-35 43 -55 100 -55 165v30c0 137 92 250 229 250c48 0 90 -13 124 -35l50 68h79zM132 242c0 -45 8 -82 24 -111l208 286c-22 14 -49 21 -81 21 c-96 0 -151 -67 -151 -181v-15zM433 257c0 45 -8 83 -24 112l-209 -286c23 -15 50 -22 82 -22c96 0 151 66 151 181v15z"/>
    <glyph glyph-name="otilde" unicode="õ" horiz-adv-x="565" d="M352 609c-34 0 -59 17 -82 33c-19 13 -36 24 -54 24c-26 0 -40 -22 -41 -47h-66c6 66 42 112 104 112c34 0 59 -17 82 -33c18 -12 36 -24 54 -24c23 0 39 17 41 47h66c-6 -66 -43 -112 -104 -112zM281 -12c-136 0 -227 105 -227 243v30c0 137 92 250 229 250 s228 -106 228 -243v-30c0 -138 -92 -250 -230 -250zM282 61c96 0 151 66 151 181v15c0 114 -54 181 -150 181s-151 -67 -151 -181v-15c0 -114 54 -181 150 -181z"/>
    <glyph glyph-name="oe" unicode="œ" horiz-adv-x="889" d="M843 358c0 -90 -59 -143 -162 -143h-169c7 -95 53 -154 158 -154c48 0 87 6 132 22v-69c-46 -18 -84 -26 -135 -26c-99 0 -165 41 -201 106c-37 -64 -101 -106 -185 -106c-136 0 -227 105 -227 243v30c0 137 92 250 229 250c88 0 154 -44 190 -112c42 68 114 112 196 112 c119 0 174 -71 174 -153zM512 280h163c61 0 91 25 91 79c0 53 -34 81 -98 81c-84 0 -148 -60 -156 -160zM433 242v15c0 114 -54 181 -150 181s-151 -67 -151 -181v-15c0 -114 54 -181 150 -181s151 66 151 181z"/>
    <glyph glyph-name="p" unicode="p" horiz-adv-x="562" d="M315 511c103 0 193 -78 193 -223v-29c0 -169 -131 -259 -274 -259h-76v-206h-78v707h69l5 -55c46 36 100 65 161 65zM430 269v14c0 94 -49 155 -126 155c-53 0 -93 -20 -146 -61v-305h77c123 0 195 73 195 197z"/>
    <glyph glyph-name="thorn" unicode="þ" horiz-adv-x="562" d="M315 511c103 0 193 -78 193 -223v-29c0 -169 -131 -259 -274 -259h-76v-206h-78v917h78v-262c44 34 97 62 157 62zM430 269v14c0 94 -49 155 -126 155c-53 0 -93 -20 -146 -61v-305h77c123 0 195 73 195 197z"/>
    <glyph glyph-name="q" unicode="q" horiz-adv-x="562" d="M482 501v-707h-78v258c-44 -34 -97 -62 -157 -62c-103 0 -193 78 -193 223v29c0 169 131 259 274 259h154zM258 63c53 0 93 20 146 61v305h-77c-123 0 -195 -73 -195 -197v-14c0 -94 49 -155 126 -155z"/>
    <glyph glyph-name="r" unicode="r" horiz-adv-x="383" d="M80 0v481c61 16 133 28 193 28c19 0 49 -1 66 -4v-76c-26 3 -51 5 -71 5c-31 0 -78 -5 -110 -12v-422h-78z"/>
    <glyph glyph-name="racute" unicode="ŕ" horiz-adv-x="383" d="M151 598l143 143h95l-154 -143h-84zM80 0v481c61 16 133 28 193 28c19 0 49 -1 66 -4v-76c-26 3 -51 5 -71 5c-31 0 -78 -5 -110 -12v-422h-78z"/>
    <glyph glyph-name="rcaron" unicode="ř" horiz-adv-x="383" d="M184 598l-118 148h75l79 -96l80 96h73l-119 -148h-70zM80 0v481c61 16 133 28 193 28c19 0 49 -1 66 -4v-76c-26 3 -51 5 -71 5c-31 0 -78 -5 -110 -12v-422h-78z"/>
    <glyph glyph-name="s" unicode="s" horiz-adv-x="482" d="M237 -12c-65 0 -121 14 -167 36v71c52 -21 103 -34 169 -34c67 0 105 26 105 73c0 51 -42 68 -112 87c-96 26 -164 51 -164 150c0 76 67 140 174 140c62 0 102 -10 151 -30v-70c-50 20 -91 27 -148 27c-71 0 -101 -26 -101 -67c0 -44 35 -59 116 -82 c88 -25 162 -56 162 -151c0 -86 -57 -150 -185 -150z"/>
    <glyph glyph-name="sacute" unicode="ś" horiz-adv-x="482" d="M177 598l143 143h95l-154 -143h-84zM237 -12c-65 0 -121 14 -167 36v71c52 -21 103 -34 169 -34c67 0 105 26 105 73c0 51 -42 68 -112 87c-96 26 -164 51 -164 150c0 76 67 140 174 140c62 0 102 -10 151 -30v-70c-50 20 -91 27 -148 27c-71 0 -101 -26 -101 -67 c0 -44 35 -59 116 -82c88 -25 162 -56 162 -151c0 -86 -57 -150 -185 -150z"/>
    <glyph glyph-name="scaron" unicode="š" horiz-adv-x="482" d="M210 598l-118 148h75l79 -96l80 96h73l-119 -148h-70zM237 -12c-65 0 -121 14 -167 36v71c52 -21 103 -34 169 -34c67 0 105 26 105 73c0 51 -42 68 -112 87c-96 26 -164 51 -164 150c0 76 67 140 174 140c62 0 102 -10 151 -30v-70c-50 20 -91 27 -148 27 c-71 0 -101 -26 -101 -67c0 -44 35 -59 116 -82c88 -25 162 -56 162 -151c0 -86 -57 -150 -185 -150z"/>
    <glyph glyph-name="germandbls" unicode="ß" horiz-adv-x="635" d="M402 -12c-66 0 -114 14 -159 36v62c43 -19 102 -29 148 -29c68 0 106 31 106 88c0 60 -48 80 -98 102c-59 27 -116 49 -116 127c0 100 112 135 112 199c0 52 -36 83 -106 83c-85 0 -134 -64 -134 -166v-490h-77v488c0 154 94 237 215 237c118 0 177 -63 177 -139 c0 -103 -117 -129 -117 -198c0 -50 54 -66 106 -90c54 -26 115 -65 115 -154c0 -86 -67 -156 -172 -156z"/>
    <glyph glyph-name="t" unicode="t" horiz-adv-x="406" d="M271 61c29 0 59 2 94 14v-67c-34 -14 -72 -20 -106 -20c-108 0 -179 75 -179 212v439h78v-138h200v-72h-200v-232c0 -95 44 -136 113 -136z"/>
    <glyph glyph-name="u" unicode="u" d="M296 -8c-144 0 -218 93 -218 238v271h78v-251c0 -110 32 -185 147 -185c35 0 74 5 105 12v424h78v-483c-61 -15 -130 -26 -190 -26z"/>
    <glyph glyph-name="uacute" unicode="ú" d="M218 598l143 143h95l-154 -143h-84zM296 -8c-144 0 -218 93 -218 238v271h78v-251c0 -110 32 -185 147 -185c35 0 74 5 105 12v424h78v-483c-61 -15 -130 -26 -190 -26z"/>
    <glyph glyph-name="ucircumflex" unicode="û" d="M133 598l119 148h70l118 -148h-75l-79 96l-80 -96h-73zM296 -8c-144 0 -218 93 -218 238v271h78v-251c0 -110 32 -185 147 -185c35 0 74 5 105 12v424h78v-483c-61 -15 -130 -26 -190 -26z"/>
    <glyph glyph-name="udieresis" unicode="ü" d="M198 613c-30 0 -51 21 -51 53s21 52 51 52c29 0 51 -20 51 -52s-22 -53 -51 -53zM374 613c-30 0 -51 21 -51 53s21 52 51 52c29 0 51 -20 51 -52s-22 -53 -51 -53zM296 -8c-144 0 -218 93 -218 238v271h78v-251c0 -110 32 -185 147 -185c35 0 74 5 105 12v424h78v-483 c-61 -15 -130 -26 -190 -26z"/>
    <glyph glyph-name="ugrave" unicode="ù" d="M270 598l-154 143h95l143 -143h-84zM296 -8c-144 0 -218 93 -218 238v271h78v-251c0 -110 32 -185 147 -185c35 0 74 5 105 12v424h78v-483c-61 -15 -130 -26 -190 -26z"/>
    <glyph glyph-name="umacron" unicode="ū" d="M153 702h265v-68h-265v68zM296 -8c-144 0 -218 93 -218 238v271h78v-251c0 -110 32 -185 147 -185c35 0 74 5 105 12v424h78v-483c-61 -15 -130 -26 -190 -26z"/>
    <glyph glyph-name="uring" unicode="ů" d="M286 590c-60 0 -110 46 -110 109c0 62 52 108 110 108c60 0 109 -46 109 -108c0 -63 -50 -109 -109 -109zM286 641c32 0 55 24 55 58c0 33 -24 57 -55 57c-33 0 -56 -24 -56 -57c0 -34 24 -58 56 -58zM296 -8c-144 0 -218 93 -218 238v271h78v-251 c0 -110 32 -185 147 -185c35 0 74 5 105 12v424h78v-483c-61 -15 -130 -26 -190 -26z"/>
    <glyph glyph-name="v" unicode="v" horiz-adv-x="506" d="M402 501h87l-198 -501h-77l-197 501h89l148 -405z"/>
    <glyph glyph-name="w" unicode="w" horiz-adv-x="755" d="M194 0l-154 501h87l106 -395l105 382h80l109 -382l105 395h83l-152 -501h-77l-111 382l-104 -382h-77z"/>
    <glyph glyph-name="wacute" unicode="ẃ" horiz-adv-x="755" d="M311 598l143 143h95l-154 -143h-84zM194 0l-154 501h87l106 -395l105 382h80l109 -382l105 395h83l-152 -501h-77l-111 382l-104 -382h-77z"/>
    <glyph glyph-name="wcircumflex" unicode="ŵ" horiz-adv-x="755" d="M226 598l119 148h70l118 -148h-75l-79 96l-80 -96h-73zM194 0l-154 501h87l106 -395l105 382h80l109 -382l105 395h83l-152 -501h-77l-111 382l-104 -382h-77z"/>
    <glyph glyph-name="wdieresis" unicode="ẅ" horiz-adv-x="755" d="M291 613c-30 0 -51 21 -51 53s21 52 51 52c29 0 51 -20 51 -52s-22 -53 -51 -53zM467 613c-30 0 -51 21 -51 53s21 52 51 52c29 0 51 -20 51 -52s-22 -53 -51 -53zM194 0l-154 501h87l106 -395l105 382h80l109 -382l105 395h83l-152 -501h-77l-111 382l-104 -382h-77z "/>
    <glyph glyph-name="wgrave" unicode="ẁ" horiz-adv-x="755" d="M363 598l-154 143h95l143 -143h-84zM194 0l-154 501h87l106 -395l105 382h80l109 -382l105 395h83l-152 -501h-77l-111 382l-104 -382h-77z"/>
    <glyph glyph-name="x" unicode="x" horiz-adv-x="518" d="M501 0h-96l-151 207l-151 -207h-86l193 267l-174 234h95l128 -177l131 177h85l-172 -233z"/>
    <glyph glyph-name="y" unicode="y" horiz-adv-x="512" d="M492 501l-184 -486l-26 -70c-38 -105 -83 -161 -163 -161c-26 0 -51 7 -71 17v66c24 -8 39 -11 64 -11c41 0 67 29 95 98l20 49l-207 498h89l157 -401l139 401h87z"/>
    <glyph glyph-name="yacute" unicode="ý" horiz-adv-x="512" d="M426 741l-154 -143h-84l143 143h95zM492 501l-184 -486l-26 -70c-38 -105 -83 -161 -163 -161c-26 0 -51 7 -71 17v66c24 -8 39 -11 64 -11c41 0 67 29 95 98l20 49l-207 498h89l157 -401l139 401h87z"/>
    <glyph glyph-name="ycircumflex" unicode="ŷ" horiz-adv-x="512" d="M256 694l-80 -96h-73l119 148h70l118 -148h-75zM492 501l-184 -486l-26 -70c-38 -105 -83 -161 -163 -161c-26 0 -51 7 -71 17v66c24 -8 39 -11 64 -11c41 0 67 29 95 98l20 49l-207 498h89l157 -401l139 401h87z"/>
    <glyph glyph-name="ydieresis" unicode="ÿ" horiz-adv-x="512" d="M168 613c-30 0 -51 21 -51 53s21 52 51 52c29 0 51 -20 51 -52s-22 -53 -51 -53zM344 613c-30 0 -51 21 -51 53s21 52 51 52c29 0 51 -20 51 -52s-22 -53 -51 -53zM492 501l-184 -486l-26 -70c-38 -105 -83 -161 -163 -161c-26 0 -51 7 -71 17v66c24 -8 39 -11 64 -11 c41 0 67 29 95 98l20 49l-207 498h89l157 -401l139 401h87z"/>
    <glyph glyph-name="ygrave" unicode="ỳ" horiz-adv-x="512" d="M324 598h-84l-154 143h95zM492 501l-184 -486l-26 -70c-38 -105 -83 -161 -163 -161c-26 0 -51 7 -71 17v66c24 -8 39 -11 64 -11c41 0 67 29 95 98l20 49l-207 498h89l157 -401l139 401h87z"/>
    <glyph glyph-name="z" unicode="z" horiz-adv-x="465" d="M49 0v67l276 362h-268v72h358v-67l-274 -362h283v-72h-375z"/>
    <glyph glyph-name="zacute" unicode="ź" horiz-adv-x="465" d="M176 598l143 143h95l-154 -143h-84zM49 0v67l276 362h-268v72h358v-67l-274 -362h283v-72h-375z"/>
    <glyph glyph-name="zcaron" unicode="ž" horiz-adv-x="465" d="M209 598l-118 148h75l79 -96l80 96h73l-119 -148h-70zM49 0v67l276 362h-268v72h358v-67l-274 -362h283v-72h-375z"/>
    <glyph glyph-name="zdotaccent" unicode="ż" horiz-adv-x="465" d="M244 605c-32 0 -55 23 -55 57c0 35 23 56 55 56s55 -21 55 -56c0 -34 -23 -57 -55 -57zM49 0v67l276 362h-268v72h358v-67l-274 -362h283v-72h-375z"/>
    <glyph glyph-name="ordfeminine" unicode="ª" horiz-adv-x="427" d="M201 721c99 0 166 -49 166 -154v-230h-57l-7 46c-35 -28 -80 -54 -132 -54c-79 0 -124 43 -124 112c0 64 52 109 129 116l123 11c-2 44 -21 89 -106 89c-40 0 -76 -6 -114 -16v61c42 12 86 19 122 19zM116 444c0 -33 19 -54 66 -54c39 0 79 17 117 44v77l-116 -12 c-39 -4 -67 -22 -67 -55z"/>
    <glyph glyph-name="ordmasculine" unicode="º" horiz-adv-x="471" d="M235 328c-111 0 -186 79 -186 183v21c0 102 75 188 187 188c111 0 186 -79 186 -182v-22c0 -103 -75 -188 -187 -188zM236 396c70 0 113 48 113 122v12c0 73 -41 123 -113 123c-70 0 -113 -49 -113 -123v-12c0 -75 42 -122 113 -122z"/>
    <glyph glyph-name="zero" unicode="0" d="M283 -12c-146 0 -233 139 -233 321v41c0 183 88 326 233 326s233 -134 233 -317v-41c0 -186 -90 -330 -233 -330zM283 66c103 0 154 101 154 256v23c0 155 -50 253 -154 253s-154 -97 -154 -253v-23c0 -156 49 -256 154 -256z"/>
    <glyph glyph-name="one" unicode="1" d="M361 72h145v-72h-396v72h172v513l-186 -43v66l212 58h53v-594z"/>
    <glyph glyph-name="two" unicode="2" d="M180 72h312v-72h-409v72l198 208c78 82 123 130 123 206c0 72 -51 114 -149 114c-66 0 -127 -16 -181 -36v70c49 22 123 42 192 42c143 0 216 -81 216 -182c0 -100 -54 -164 -147 -261z"/>
    <glyph glyph-name="three" unicode="3" d="M381 357c79 -29 118 -96 118 -175c0 -109 -84 -194 -231 -194c-83 0 -158 23 -208 45v72c57 -22 124 -41 200 -41c108 0 159 46 159 121c0 72 -53 125 -160 125h-87v74h73c108 0 162 45 162 110s-47 106 -154 106c-65 0 -129 -14 -185 -34v70c51 21 124 40 195 40 c147 0 223 -76 223 -172c0 -66 -37 -120 -105 -147z"/>
    <glyph glyph-name="four" unicode="4" d="M525 242v-69h-102v-173h-76v173h-309v69l311 424h74v-424h102zM118 242h229v316z"/>
    <glyph glyph-name="five" unicode="5" d="M270 -11c-84 0 -156 24 -206 46v71c57 -22 122 -42 198 -42c102 0 162 52 162 130c0 79 -50 126 -158 126h-164l46 346h309v-72h-247l-27 -202h96c140 0 224 -76 224 -201c0 -112 -91 -202 -233 -202z"/>
    <glyph glyph-name="six" unicode="6" d="M306 403c124 0 204 -74 204 -202c0 -111 -73 -213 -211 -213c-154 0 -237 117 -237 332v24c0 197 114 332 264 332c56 0 107 -12 148 -34v-67c-40 20 -85 28 -136 28c-120 0 -193 -86 -200 -235c56 23 112 35 168 35zM299 62c94 0 133 63 133 138c0 82 -43 132 -131 132 c-62 0 -107 -10 -163 -33c4 -156 61 -237 161 -237z"/>
    <glyph glyph-name="seven" unicode="7" d="M161 0l244 592h-352v74h440v-58l-248 -608h-84z"/>
    <glyph glyph-name="eight" unicode="8" d="M405 353c71 -30 114 -88 114 -159v-11c0 -113 -98 -194 -236 -194c-146 0 -236 80 -236 191v11c0 70 43 129 114 161c-59 30 -95 82 -95 137v11c0 100 91 176 219 176c127 0 217 -74 217 -171v-10c0 -56 -38 -110 -97 -142zM144 499v-6c0 -61 49 -109 140 -109 c87 0 138 49 138 110v6c0 60 -53 103 -137 103c-83 0 -141 -44 -141 -104zM439 188v5c0 73 -49 125 -155 125c-104 0 -158 -52 -158 -125v-6c0 -75 58 -125 158 -125c95 0 155 51 155 126z"/>
    <glyph glyph-name="nine" unicode="9" d="M271 677c148 0 232 -115 232 -331v-24c0 -206 -108 -333 -262 -333c-57 0 -110 14 -153 35v66c41 -18 87 -30 141 -30c120 0 192 79 198 238c-54 -22 -111 -35 -168 -35c-124 0 -204 75 -204 202c0 112 77 212 216 212zM130 468c0 -84 50 -134 137 -134 c61 0 103 10 160 34c-3 155 -56 234 -157 234c-95 0 -140 -59 -140 -134z"/>
    <glyph glyph-name="zero.lf" horiz-adv-x="578" d="M289 -12c-146 0 -233 139 -233 321v41c0 183 88 326 233 326s233 -134 233 -317v-41c0 -186 -90 -330 -233 -330zM289 66c103 0 154 101 154 256v23c0 155 -50 253 -154 253s-154 -97 -154 -253v-23c0 -156 49 -256 154 -256z"/>
    <glyph glyph-name="one.lf" horiz-adv-x="508" d="M331 72h145v-72h-396v72h172v513l-186 -43v66l212 58h53v-594z"/>
    <glyph glyph-name="two.lf" horiz-adv-x="541" d="M164 72h312v-72h-409v72l198 208c78 82 123 130 123 206c0 72 -51 114 -149 114c-66 0 -127 -16 -181 -36v70c49 22 123 42 192 42c143 0 216 -81 216 -182c0 -100 -54 -164 -147 -261z"/>
    <glyph glyph-name="three.lf" horiz-adv-x="558" d="M373 357c79 -29 118 -96 118 -175c0 -109 -84 -194 -231 -194c-83 0 -158 23 -208 45v72c57 -22 124 -41 200 -41c108 0 159 46 159 121c0 72 -53 125 -160 125h-87v74h73c108 0 162 45 162 110s-47 106 -154 106c-65 0 -129 -14 -185 -34v70c51 21 124 40 195 40 c147 0 223 -76 223 -172c0 -66 -37 -120 -105 -147z"/>
    <glyph glyph-name="four.lf" horiz-adv-x="573" d="M529 242v-69h-102v-173h-76v173h-309v69l311 424h74v-424h102zM122 242h229v316z"/>
    <glyph glyph-name="five.lf" horiz-adv-x="550" d="M262 -11c-84 0 -156 24 -206 46v71c57 -22 122 -42 198 -42c102 0 162 52 162 130c0 79 -50 126 -158 126h-164l46 346h309v-72h-247l-27 -202h96c140 0 224 -76 224 -201c0 -112 -91 -202 -233 -202z"/>
    <glyph glyph-name="six.lf" d="M306 403c124 0 204 -74 204 -202c0 -111 -73 -213 -211 -213c-154 0 -237 117 -237 332v24c0 197 114 332 264 332c56 0 107 -12 148 -34v-67c-40 20 -85 28 -136 28c-120 0 -193 -86 -200 -235c56 23 112 35 168 35zM299 62c94 0 133 63 133 138c0 82 -43 132 -131 132 c-62 0 -107 -10 -163 -33c4 -156 61 -237 161 -237z"/>
    <glyph glyph-name="seven.lf" horiz-adv-x="553" d="M158 0l244 592h-352v74h440v-58l-248 -608h-84z"/>
    <glyph glyph-name="eight.lf" horiz-adv-x="580" d="M412 353c71 -30 114 -88 114 -159v-11c0 -113 -98 -194 -236 -194c-146 0 -236 80 -236 191v11c0 70 43 129 114 161c-59 30 -95 82 -95 137v11c0 100 91 176 219 176c127 0 217 -74 217 -171v-10c0 -56 -38 -110 -97 -142zM151 499v-6c0 -61 49 -109 140 -109 c87 0 138 49 138 110v6c0 60 -53 103 -137 103c-83 0 -141 -44 -141 -104zM446 188v5c0 73 -49 125 -155 125c-104 0 -158 -52 -158 -125v-6c0 -75 58 -125 158 -125c95 0 155 51 155 126z"/>
    <glyph glyph-name="nine.lf" d="M269 677c148 0 232 -115 232 -331v-24c0 -206 -108 -333 -262 -333c-57 0 -110 14 -153 35v66c41 -18 87 -30 141 -30c120 0 192 79 198 238c-54 -22 -111 -35 -168 -35c-124 0 -204 75 -204 202c0 112 77 212 216 212zM128 468c0 -84 50 -134 137 -134 c61 0 103 10 160 34c-3 155 -56 234 -157 234c-95 0 -140 -59 -140 -134z"/>
    <glyph glyph-name="uni2070" unicode="⁰" horiz-adv-x="424" d="M212 288c-101 0 -162 79 -162 181v20c0 101 61 185 162 185s162 -78 162 -180v-21c0 -101 -61 -185 -162 -185zM212 358c58 0 88 44 88 116v14c0 74 -29 118 -87 118c-59 0 -88 -44 -88 -118v-14c0 -72 28 -116 87 -116z"/>
    <glyph glyph-name="uni00B9" unicode="¹" horiz-adv-x="393" d="M259 359h91v-64h-275v64h112v235l-120 -22v61l144 35h48v-309z"/>
    <glyph glyph-name="uni00B2" unicode="²" horiz-adv-x="396" d="M160 359h176v-64h-277v64l121 104c46 39 77 62 77 95s-32 48 -83 48c-40 0 -80 -7 -120 -21v64c35 14 81 25 130 25c95 0 148 -45 148 -107c0 -56 -40 -94 -99 -145z"/>
    <glyph glyph-name="uni00B3" unicode="³" horiz-adv-x="455" d="M307 496c45 -16 69 -50 69 -94c0 -67 -60 -114 -157 -114c-54 0 -104 13 -140 27v63c42 -14 87 -23 131 -23c60 0 90 20 90 51s-30 50 -89 50h-61v63h53c60 0 90 17 90 45c0 27 -28 44 -87 44c-40 0 -82 -6 -122 -19v63c38 14 85 22 131 22c97 0 152 -40 152 -98 c0 -36 -22 -64 -60 -80z"/>
    <glyph glyph-name="uni2074" unicode="⁴" horiz-adv-x="395" d="M365 442v-62h-62v-85h-70v85h-195v62l196 226h69v-226h62zM112 442h121v139z"/>
    <glyph glyph-name="fraction" unicode="⁄" horiz-adv-x="620" d="M24 0l488 666h84l-488 -666h-84z"/>
    <glyph glyph-name="onehalf" unicode="½" horiz-adv-x="990" d="M95 359h112v235l-120 -22v61l144 35h48v-309h91v-64h-275v64zM720 666h84l-488 -666h-84zM777 64h176v-64h-277v64l121 104c46 39 77 62 77 95s-32 48 -83 48c-40 0 -80 -7 -120 -21v64c35 14 81 25 130 25c95 0 148 -45 148 -107c0 -56 -40 -94 -99 -145z"/>
    <glyph glyph-name="onequarter" unicode="¼" horiz-adv-x="947" d="M92 359h112v235l-120 -22v61l144 35h48v-309h91v-64h-275v64zM723 666h84l-488 -666h-84zM888 149v-62h-62v-85h-70v85h-195v62l196 226h69v-226h62zM635 149h121v139z"/>
    <glyph glyph-name="threequarters" unicode="¾" horiz-adv-x="907" d="M365 402c0 -67 -60 -114 -157 -114c-54 0 -104 13 -140 27v63c42 -14 87 -23 131 -23c60 0 90 20 90 51s-30 50 -89 50h-61v63h53c60 0 90 17 90 45c0 27 -28 44 -87 44c-40 0 -82 -6 -122 -19v63c38 14 85 22 131 22c97 0 152 -40 152 -98c0 -36 -22 -64 -60 -80 c45 -16 69 -50 69 -94zM689 666h84l-488 -666h-84zM855 149v-62h-62v-85h-70v85h-195v62l196 226h69v-226h62zM602 149h121v139z"/>
    <glyph glyph-name="period" unicode="." horiz-adv-x="228" d="M115 -10c-35 0 -59 25 -59 61c0 35 24 60 59 60c34 0 59 -25 59 -60s-24 -61 -59 -61z"/>
    <glyph glyph-name="comma" unicode="," horiz-adv-x="228" d="M24 -119l71 222h86l-79 -222h-78z"/>
    <glyph glyph-name="colon" unicode=":" horiz-adv-x="228" d="M115 387c-35 0 -59 25 -59 61c0 35 24 60 59 60c34 0 59 -25 59 -60s-24 -61 -59 -61zM115 -10c-35 0 -59 25 -59 61c0 35 24 60 59 60c34 0 59 -25 59 -60s-24 -61 -59 -61z"/>
    <glyph glyph-name="semicolon" unicode=";" horiz-adv-x="228" d="M125 387c-35 0 -59 25 -59 61c0 35 24 60 59 60c34 0 59 -25 59 -60s-24 -61 -59 -61zM19 -119l71 222h86l-79 -222h-78z"/>
    <glyph glyph-name="ellipsis" unicode="…" horiz-adv-x="686" d="M115 -10c-35 0 -59 25 -59 61c0 35 24 60 59 60c34 0 59 -25 59 -60s-24 -61 -59 -61zM344 -10c-35 0 -59 25 -59 61c0 35 24 60 59 60c34 0 59 -25 59 -60s-24 -61 -59 -61zM573 -10c-35 0 -59 25 -59 61c0 35 24 60 59 60c34 0 59 -25 59 -60s-24 -61 -59 -61z"/>
    <glyph glyph-name="exclam" unicode="!" horiz-adv-x="274" d="M100 183l-8 493h90l-10 -493h-72zM137 -10c-35 0 -59 25 -59 61c0 35 24 60 59 60c34 0 59 -25 59 -60s-24 -61 -59 -61z"/>
    <glyph glyph-name="exclamdown" unicode="¡" horiz-adv-x="274" d="M137 511c35 0 59 -25 59 -61c0 -35 -24 -60 -59 -60c-34 0 -59 25 -59 60s24 61 59 61zM174 318l8 -493h-90l10 493h72z"/>
    <glyph glyph-name="question" unicode="?" horiz-adv-x="527" d="M217 183l-3 157c117 31 173 80 173 150c0 83 -56 121 -158 121c-67 0 -122 -20 -179 -42v69c52 24 117 48 197 48c135 0 222 -69 222 -188c0 -90 -60 -162 -184 -204l-3 -111h-65zM249 -10c-35 0 -59 25 -59 61c0 35 24 60 59 60c34 0 59 -25 59 -60s-24 -61 -59 -61z "/>
    <glyph glyph-name="questiondown" unicode="¿" horiz-adv-x="527" d="M288 511c35 0 59 -25 59 -61c0 -35 -24 -60 -59 -60c-34 0 -59 25 -59 60s24 61 59 61zM320 318l3 -157c-117 -31 -173 -80 -173 -150c0 -83 56 -121 158 -121c67 0 122 20 179 42v-69c-52 -24 -117 -48 -197 -48c-135 0 -222 69 -222 188c0 90 60 162 184 204l3 111h65z "/>
    <glyph glyph-name="periodcentered" unicode="·" horiz-adv-x="228" d="M115 271c-35 0 -59 25 -59 61c0 35 24 60 59 60c34 0 59 -25 59 -60s-24 -61 -59 -61z"/>
    <glyph glyph-name="bullet" unicode="•" horiz-adv-x="349" d="M175 229c-63 0 -111 48 -111 111c0 62 48 110 111 110c62 0 110 -48 110 -110c0 -63 -48 -111 -110 -111z"/>
    <glyph glyph-name="asterisk" unicode="*" horiz-adv-x="480" d="M131 370l-47 44l106 108l-126 56l28 57l119 -58l-3 140h65l-3 -140l119 58l27 -56l-125 -57l106 -109l-48 -43l-109 117z"/>
    <glyph glyph-name="numbersign" unicode="#" horiz-adv-x="702" d="M650 440h-126l-33 -209h125l-11 -70h-125l-26 -161h-73l26 161h-166l-26 -161h-73l26 161h-126l11 70h126l33 209h-125l11 70h125l25 156h73l-25 -156h166l25 156h73l-25 -156h126zM418 231l33 209h-166l-33 -209h166z"/>
    <glyph glyph-name="slash" unicode="/" horiz-adv-x="455" d="M8 -130l356 901h83l-355 -901h-84z"/>
    <glyph glyph-name="backslash" unicode="\" horiz-adv-x="455" d="M447 -130h-84l-355 901h83z"/>
    <glyph glyph-name="exclamdown.case" horiz-adv-x="274" d="M137 686c35 0 59 -25 59 -61c0 -35 -24 -60 -59 -60c-34 0 -59 25 -59 60s24 61 59 61zM174 493l8 -493h-90l10 493h72z"/>
    <glyph glyph-name="questiondown.case" horiz-adv-x="527" d="M288 684c35 0 59 -25 59 -61c0 -35 -24 -60 -59 -60c-34 0 -59 25 -59 60s24 61 59 61zM320 491l3 -157c-117 -31 -173 -80 -173 -150c0 -83 56 -121 158 -121c67 0 122 20 179 42v-69c-52 -24 -117 -48 -197 -48c-135 0 -222 69 -222 188c0 90 60 162 184 204l3 111h65z "/>
    <glyph glyph-name="slash.case" horiz-adv-x="455" d="M8 -112l356 901h83l-355 -901h-84z"/>
    <glyph glyph-name="backslash.case" horiz-adv-x="455" d="M447 -112h-84l-355 901h83z"/>
    <glyph glyph-name="parenleft" unicode="(" horiz-adv-x="366" d="M80 310v20c0 160 66 323 177 441h84c-113 -121 -180 -285 -180 -441v-20c0 -156 67 -320 180 -441h-84c-111 118 -177 281 -177 441z"/>
    <glyph glyph-name="parenright" unicode=")" horiz-adv-x="366" d="M286 310c0 -160 -66 -323 -177 -441h-84c113 121 180 285 180 441v20c0 156 -67 320 -180 441h84c111 -118 177 -281 177 -441v-20z"/>
    <glyph glyph-name="braceleft" unicode="{" horiz-adv-x="440" d="M341 -131c-115 0 -187 76 -187 200v78c0 72 -35 123 -101 140v66c66 17 101 68 101 140v77c0 124 72 201 187 201h74v-69h-61c-76 0 -122 -39 -122 -137v-76c0 -68 -23 -126 -100 -169c77 -44 100 -102 100 -170v-75c0 -99 46 -137 122 -137h61v-69h-74z"/>
    <glyph glyph-name="braceright" unicode="}" horiz-adv-x="440" d="M99 -131h-74v69h61c76 0 122 38 122 137v75c0 68 23 126 100 170c-77 43 -100 101 -100 169v76c0 98 -46 137 -122 137h-61v69h74c115 0 187 -77 187 -201v-77c0 -72 35 -123 101 -140v-66c-66 -17 -101 -68 -101 -140v-78c0 -124 -72 -200 -187 -200z"/>
    <glyph glyph-name="bracketleft" unicode="[" horiz-adv-x="422" d="M385 700h-200v-760h200v-71h-279v902h279v-71z"/>
    <glyph glyph-name="bracketright" unicode="]" horiz-adv-x="422" d="M316 771v-902h-279v71h200v760h-200v71h279z"/>
    <glyph glyph-name="parenleft.case" horiz-adv-x="366" d="M80 328v20c0 160 66 323 177 441h84c-113 -121 -180 -285 -180 -441v-20c0 -156 67 -320 180 -441h-84c-111 118 -177 281 -177 441z"/>
    <glyph glyph-name="parenright.case" horiz-adv-x="366" d="M286 328c0 -160 -66 -323 -177 -441h-84c113 121 180 285 180 441v20c0 156 -67 320 -180 441h84c111 -118 177 -281 177 -441v-20z"/>
    <glyph glyph-name="braceleft.case" horiz-adv-x="440" d="M341 -113c-115 0 -187 76 -187 200v78c0 72 -35 123 -101 140v66c66 17 101 68 101 140v77c0 124 72 201 187 201h74v-69h-61c-76 0 -122 -39 -122 -137v-76c0 -68 -23 -126 -100 -169c77 -44 100 -102 100 -170v-75c0 -99 46 -137 122 -137h61v-69h-74z"/>
    <glyph glyph-name="braceright.case" horiz-adv-x="440" d="M99 -113h-74v69h61c76 0 122 38 122 137v75c0 68 23 126 100 170c-77 43 -100 101 -100 169v76c0 98 -46 137 -122 137h-61v69h74c115 0 187 -77 187 -201v-77c0 -72 35 -123 101 -140v-66c-66 -17 -101 -68 -101 -140v-78c0 -124 -72 -200 -187 -200z"/>
    <glyph glyph-name="bracketleft.case" horiz-adv-x="422" d="M385 718h-200v-760h200v-71h-279v902h279v-71z"/>
    <glyph glyph-name="bracketright.case" horiz-adv-x="422" d="M316 789v-902h-279v71h200v760h-200v71h279z"/>
    <glyph glyph-name="hyphen" unicode="-" horiz-adv-x="425" d="M64 236v74h297v-74h-297z"/>
    <glyph glyph-name="uni00AD" unicode="&shy;" horiz-adv-x="425" d="M64 236v74h297v-74h-297z"/>
    <glyph glyph-name="endash" unicode="–" horiz-adv-x="500" d="M0 236v74h500v-74h-500z"/>
    <glyph glyph-name="emdash" unicode="—" horiz-adv-x="1000" d="M0 236v74h1000v-74h-1000z"/>
    <glyph glyph-name="underscore" unicode="_" horiz-adv-x="500" d="M0 -170v74h500v-74h-500z"/>
    <glyph glyph-name="hyphen.case" horiz-adv-x="425" d="M64 308v74h297v-74h-297z"/>
    <glyph glyph-name="uni00AD.case" horiz-adv-x="425" d="M64 308v74h297v-74h-297z"/>
    <glyph glyph-name="endash.case" horiz-adv-x="500" d="M0 308v74h500v-74h-500z"/>
    <glyph glyph-name="emdash.case" horiz-adv-x="1000" d="M0 308v74h1000v-74h-1000z"/>
    <glyph glyph-name="quotesinglbase" unicode="‚" horiz-adv-x="238" d="M34 -119l71 222h86l-79 -222h-78z"/>
    <glyph glyph-name="quotedblbase" unicode="„" horiz-adv-x="409" d="M34 -119l71 222h86l-79 -222h-78zM205 -119l71 222h86l-79 -222h-78z"/>
    <glyph glyph-name="quotedblleft" unicode="“" horiz-adv-x="409" d="M204 711l-71 -222h-86l79 222h78zM375 711l-71 -222h-86l79 222h78z"/>
    <glyph glyph-name="quotedblright" unicode="”" horiz-adv-x="409" d="M34 489l71 222h86l-79 -222h-78zM205 489l71 222h86l-79 -222h-78z"/>
    <glyph glyph-name="quoteleft" unicode="‘" horiz-adv-x="238" d="M204 711l-71 -222h-86l79 222h78z"/>
    <glyph glyph-name="quoteright" unicode="’" horiz-adv-x="238" d="M34 489l71 222h86l-79 -222h-78z"/>
    <glyph glyph-name="guillemotleft" unicode="«" horiz-adv-x="497" d="M256 429l-125 -172l125 -172h-86l-126 172l126 172h86zM455 429l-125 -172l125 -172h-86l-126 172l126 172h86z"/>
    <glyph glyph-name="guillemotright" unicode="»" horiz-adv-x="497" d="M42 85l125 172l-125 172h86l126 -172l-126 -172h-86zM241 85l125 172l-125 172h86l126 -172l-126 -172h-86z"/>
    <glyph glyph-name="guilsinglleft" unicode="‹" horiz-adv-x="298" d="M256 429l-125 -172l125 -172h-86l-126 172l126 172h86z"/>
    <glyph glyph-name="guilsinglright" unicode="›" horiz-adv-x="298" d="M42 85l125 172l-125 172h86l126 -172l-126 -172h-86z"/>
    <glyph glyph-name="quotedbl" unicode="&quot;" horiz-adv-x="412" d="M79 456v255h78v-255h-78zM255 456v255h78v-255h-78z"/>
    <glyph glyph-name="quotesingle" unicode="'" horiz-adv-x="236" d="M79 456v255h78v-255h-78z"/>
    <glyph glyph-name="guillemotleft.case" horiz-adv-x="497" d="M256 517l-125 -172l125 -172h-86l-126 172l126 172h86zM455 517l-125 -172l125 -172h-86l-126 172l126 172h86z"/>
    <glyph glyph-name="guillemotright.case" horiz-adv-x="497" d="M42 173l125 172l-125 172h86l126 -172l-126 -172h-86zM241 173l125 172l-125 172h86l126 -172l-126 -172h-86z"/>
    <glyph glyph-name="guilsinglleft.case" horiz-adv-x="298" d="M256 517l-125 -172l125 -172h-86l-126 172l126 172h86z"/>
    <glyph glyph-name="guilsinglright.case" horiz-adv-x="298" d="M42 173l125 172l-125 172h86l126 -172l-126 -172h-86z"/>
    <glyph glyph-name="uni2001" unicode=" " horiz-adv-x="1000"/>
    <glyph glyph-name="uni2003" unicode="&emsp;" horiz-adv-x="1000"/>
    <glyph glyph-name="uni2002" unicode="&ensp;" horiz-adv-x="500"/>
    <glyph glyph-name="uni2007" unicode=" "/>
    <glyph glyph-name="uni2005" unicode=" " horiz-adv-x="600"/>
    <glyph glyph-name="uni200A" unicode="&hairsp;" horiz-adv-x="100"/>
    <glyph glyph-name="uni2008" unicode=" " horiz-adv-x="228"/>
    <glyph glyph-name="uni2006" unicode=" " horiz-adv-x="166"/>
    <glyph glyph-name="uni00A0" unicode="&nbsp;" horiz-adv-x="228"/>
    <glyph glyph-name="uni2009" unicode="&thinsp;" horiz-adv-x="200"/>
    <glyph glyph-name="uni2004" unicode=" " horiz-adv-x="333"/>
    <glyph glyph-name="cent" unicode="¢" d="M461 172v-68c-32 -13 -67 -20 -109 -22v-129h-69v132c-115 20 -185 116 -185 233v29c0 123 77 214 187 237v122h69v-117c38 -2 73 -9 103 -21v-69c-37 13 -70 16 -109 16c-103 0 -170 -67 -170 -170v-20c0 -101 64 -170 166 -170c48 0 81 6 117 17z"/>
    <glyph glyph-name="dollar" unicode="$" d="M486 188c0 -92 -54 -160 -168 -173v-134h-69v132c-63 3 -122 19 -171 42v72c60 -25 125 -40 197 -40c81 0 134 34 134 97c0 65 -49 90 -143 122c-128 44 -187 79 -187 181c0 85 68 153 172 165v120h69v-120c51 -4 97 -17 135 -32v-71c-54 21 -107 31 -169 31 c-85 0 -131 -33 -131 -90c0 -60 44 -77 145 -113c115 -41 186 -86 186 -189z"/>
    <glyph glyph-name="Euro" unicode="€" d="M393 60c56 0 96 9 137 23v-65c-42 -19 -92 -29 -146 -29c-139 0 -238 89 -268 222h-84v66h75c-1 8 -1 17 -1 25v46c0 13 1 26 2 39h-76v66h87c36 133 139 223 272 223c48 0 94 -9 133 -26v-66c-42 14 -74 21 -128 21c-98 0 -169 -57 -198 -152h249l-19 -66h-243 c-1 -13 -2 -26 -2 -39v-37c0 -12 0 -23 1 -34h219l-19 -66h-187c27 -94 97 -151 196 -151z"/>
    <glyph glyph-name="sterling" unicode="£" d="M170 72h342v-72h-421v422c0 154 97 254 240 254c65 0 121 -12 168 -38v-70c-49 23 -90 32 -160 32c-104 0 -169 -61 -169 -169v-59h273v-72h-273v-228z"/>
    <glyph glyph-name="yen" unicode="¥" d="M523 666l-174 -318h134v-65h-162v-92h162v-65h-162v-126h-78v126h-161v65h161v92h-161v65h132l-172 318h84l158 -303l160 303h79z"/>
    <glyph glyph-name="plus" unicode="+" d="M485 368v-72h-165v-161h-73v161h-166v72h166v162h73v-162h165z"/>
    <glyph glyph-name="minus" unicode="−" d="M89 296v74h388v-74h-388z"/>
    <glyph glyph-name="multiply" unicode="×" horiz-adv-x="568" d="M454 453l-121 -121l121 -121l-49 -49l-121 121l-121 -121l-49 49l121 121l-121 121l49 49l121 -121l121 121z"/>
    <glyph glyph-name="divide" unicode="÷" d="M283 459c-33 0 -55 23 -55 57c0 33 22 56 55 56c32 0 55 -23 55 -56s-22 -57 -55 -57zM87 296v73h392v-73h-392zM283 93c-33 0 -55 23 -55 57c0 33 22 56 55 56c32 0 55 -23 55 -56s-22 -57 -55 -57z"/>
    <glyph glyph-name="equal" unicode="=" d="M98 405v72h370v-72h-370zM98 188v72h370v-72h-370z"/>
    <glyph glyph-name="notequal" unicode="≠" d="M468 405h-110l-78 -145h188v-72h-227l-58 -107h-72l58 107h-71v72h110l78 145h-188v72h227l58 107h72l-58 -107h71v-72z"/>
    <glyph glyph-name="greater" unicode="&gt;" d="M109 130v73l284 129l-284 129v73l358 -170v-64z"/>
    <glyph glyph-name="less" unicode="&lt;" d="M467 534v-73l-284 -129l284 -129v-73l-358 170v64z"/>
    <glyph glyph-name="greaterequal" unicode="≥" d="M109 153v73l284 129l-284 129v73l358 -170v-64zM109 0v71h357v-71h-357z"/>
    <glyph glyph-name="lessequal" unicode="≤" d="M457 153l-358 170v64l358 170v-73l-284 -129l284 -129v-73zM457 0h-357v71h357v-71z"/>
    <glyph glyph-name="plusminus" unicode="±" d="M319 393h166v-69h-166v-163h-71v163h-167v69h167v164h71v-164zM89 0v71h388v-71h-388z"/>
    <glyph glyph-name="asciitilde" unicode="~" d="M385 256c-46 0 -86 24 -121 47c-27 18 -51 33 -73 33c-41 0 -69 -20 -74 -75h-69c6 86 52 147 133 147c43 0 79 -23 113 -45c28 -18 56 -35 82 -35c43 0 69 26 74 78h69c-6 -86 -52 -150 -134 -150z"/>
    <glyph glyph-name="logicalnot" unicode="¬" d="M100 420h360v-236h-72v165h-288v71z"/>
    <glyph glyph-name="asciicircum" unicode="^" d="M80 388l170 288h68l168 -288h-78l-125 218l-127 -218h-76z"/>
    <glyph glyph-name="percent" unicode="%" horiz-adv-x="907" d="M212 288c-101 0 -162 79 -162 181v20c0 101 61 185 162 185s162 -78 162 -180v-21c0 -101 -61 -185 -162 -185zM163 0l488 666h84l-488 -666h-84zM212 358c58 0 88 44 88 116v14c0 74 -29 118 -87 118c-59 0 -88 -44 -88 -118v-14c0 -72 28 -116 87 -116zM695 -12 c-101 0 -162 79 -162 181v20c0 101 61 185 162 185s162 -78 162 -180v-21c0 -101 -61 -185 -162 -185zM695 58c58 0 88 44 88 116v14c0 74 -29 118 -87 118c-59 0 -88 -44 -88 -118v-14c0 -72 28 -116 87 -116z"/>
    <glyph glyph-name="perthousand" unicode="‰" horiz-adv-x="1298" d="M212 288c-101 0 -162 79 -162 181v20c0 101 61 185 162 185s162 -78 162 -180v-21c0 -101 -61 -185 -162 -185zM163 0l488 666h84l-488 -666h-84zM212 358c58 0 88 44 88 116v14c0 74 -29 118 -87 118c-59 0 -88 -44 -88 -118v-14c0 -72 28 -116 87 -116zM695 -12 c-101 0 -162 79 -162 181v20c0 101 61 185 162 185s162 -78 162 -180v-21c0 -101 -61 -185 -162 -185zM1086 -12c-101 0 -162 79 -162 181v20c0 101 61 185 162 185s162 -78 162 -180v-21c0 -101 -61 -185 -162 -185zM695 58c58 0 88 44 88 116v14c0 74 -29 118 -87 118 c-59 0 -88 -44 -88 -118v-14c0 -72 28 -116 87 -116zM1086 58c58 0 88 44 88 116v14c0 74 -29 118 -87 118c-59 0 -88 -44 -88 -118v-14c0 -72 28 -116 87 -116z"/>
    <glyph glyph-name="at" unicode="@" horiz-adv-x="984" d="M665 462v-332c104 8 188 96 188 218c0 171 -118 280 -333 280c-221 0 -381 -158 -381 -382c0 -215 144 -361 357 -361c75 0 145 13 207 37v-69c-60 -26 -128 -39 -210 -39c-249 0 -429 174 -429 435s200 449 456 449c252 0 406 -141 406 -349c0 -174 -145 -287 -286 -287 h-38l-7 46c-47 -42 -95 -64 -141 -64c-93 0 -157 74 -157 186v19c0 128 95 213 227 213h141zM375 232c0 -70 40 -118 98 -118c40 0 76 15 114 45v234h-59c-95 0 -153 -55 -153 -148v-13z"/>
    <glyph glyph-name="ampersand" unicode="&amp;" horiz-adv-x="699" d="M563 296v-5c0 -74 -20 -138 -55 -188l82 -103h-88l-42 52c-49 -40 -112 -63 -187 -63c-134 0 -223 85 -223 198c0 81 51 158 146 195c-37 52 -55 92 -55 138c0 103 79 166 189 166c56 0 103 -14 144 -34v-66c-49 19 -92 29 -138 29c-70 0 -119 -33 -119 -99 c0 -56 42 -102 116 -195l130 -163c21 35 33 79 33 128v75h165v-65h-98zM282 59c53 0 99 16 135 45l-129 160c-20 24 -38 46 -53 66c-71 -24 -110 -76 -110 -139c0 -81 64 -132 157 -132z"/>
    <glyph glyph-name="paragraph" unicode="¶" horiz-adv-x="684" d="M400 676v-816h-78v399h-61c-144 0 -219 85 -219 205c0 114 68 212 218 212h140zM504 676h78v-816h-78v816z"/>
    <glyph glyph-name="copyright" unicode="©" horiz-adv-x="782" d="M391 -12c-193 0 -342 147 -342 349c0 201 149 348 342 348s342 -147 342 -348c0 -202 -149 -349 -342 -349zM391 55c155 0 274 120 274 282c0 161 -119 281 -274 281s-274 -120 -274 -281c0 -162 119 -282 274 -282zM401 159c-105 0 -170 73 -170 166v18 c0 99 75 170 176 170c35 0 59 -7 84 -17v-65c-26 9 -49 13 -77 13c-64 0 -107 -41 -107 -103v-11c0 -61 42 -102 105 -102c34 0 58 6 85 14v-65c-30 -12 -62 -18 -96 -18z"/>
    <glyph glyph-name="registered" unicode="®" horiz-adv-x="628" d="M315 720c142 0 253 -108 253 -255c0 -146 -110 -253 -253 -253c-144 0 -255 107 -255 253c0 147 111 255 255 255zM315 260c115 0 203 85 203 205c0 121 -87 207 -203 207c-117 0 -205 -86 -205 -207s88 -205 205 -205zM416 509c0 -28 -13 -54 -43 -68l63 -87h-62l-51 78 h-55v-78h-52v234h104c65 0 96 -37 96 -79zM268 539v-60h48c29 0 43 9 43 31c0 19 -16 29 -47 29h-44z"/>
    <glyph glyph-name="trademark" unicode="™" horiz-adv-x="854" d="M336 676v-68h-123v-311h-72v311h-123v68h318zM740 676h61v-379h-67v266l-103 -154h-52l-100 153v-265h-65v379h68l125 -201z"/>
    <glyph glyph-name="degree" unicode="°" horiz-adv-x="416" d="M209 423c-84 0 -148 65 -148 148c0 82 64 146 148 146c82 0 146 -64 146 -146c0 -83 -64 -148 -146 -148zM209 487c45 0 81 37 81 84c0 46 -35 82 -81 82s-83 -36 -83 -82c0 -47 36 -84 83 -84z"/>
    <glyph glyph-name="bar" unicode="|" horiz-adv-x="281" d="M100 -130v901h81v-901h-81z"/>
    <glyph glyph-name="brokenbar" unicode="¦" horiz-adv-x="281" d="M100 453v318h81v-318h-81zM100 -130v343h81v-343h-81z"/>
    <glyph glyph-name="dagger" unicode="†" horiz-adv-x="380" d="M321 604v-61h-97v-209h-67v209h-98v61h98v114h67v-114h97z"/>
    <glyph glyph-name="daggerdbl" unicode="‡" horiz-adv-x="379" d="M320 579h-97v-101h97v-57h-97v-87h-66v87h-98v57h98v101h-98v57h98v82h66v-82h97v-57z"/>
    <glyph glyph-name="at.case" horiz-adv-x="984" d="M665 545v-332c104 8 188 96 188 218c0 171 -118 280 -333 280c-221 0 -381 -158 -381 -382c0 -215 144 -361 357 -361c75 0 145 13 207 37v-69c-60 -26 -128 -39 -210 -39c-249 0 -429 174 -429 435s200 449 456 449c252 0 406 -141 406 -349c0 -174 -145 -287 -286 -287 h-38l-7 46c-47 -42 -95 -64 -141 -64c-93 0 -157 74 -157 186v19c0 128 95 213 227 213h141zM375 315c0 -70 40 -118 98 -118c40 0 76 15 114 45v234h-59c-95 0 -153 -55 -153 -148v-13z"/>
    <glyph glyph-name="uni0308" unicode="̈" horiz-adv-x="0" d="M-338 613c-30 0 -51 21 -51 53s21 52 51 52c29 0 51 -20 51 -52s-22 -53 -51 -53zM-162 613c-30 0 -51 21 -51 53s21 52 51 52c29 0 51 -20 51 -52s-22 -53 -51 -53z"/>
    <glyph glyph-name="uni0307" unicode="̇" horiz-adv-x="0" d="M-250 605c-32 0 -55 23 -55 57c0 35 23 56 55 56s55 -21 55 -56c0 -34 -23 -57 -55 -57z"/>
    <glyph glyph-name="gravecomb" unicode="̀" horiz-adv-x="0" d="M-215 598l-154 143h95l143 -143h-84z"/>
    <glyph glyph-name="acutecomb" unicode="́" horiz-adv-x="0" d="M-369 598l143 143h95l-154 -143h-84z"/>
    <glyph glyph-name="uni0302" unicode="̂" horiz-adv-x="0" d="M-404 598l119 148h70l118 -148h-75l-79 96l-80 -96h-73z"/>
    <glyph glyph-name="uni030C" unicode="̌" horiz-adv-x="0" d="M-286 598l-118 148h75l79 -96l80 96h73l-119 -148h-70z"/>
    <glyph glyph-name="uni030A" unicode="̊" horiz-adv-x="0" d="M-250 590c-60 0 -110 46 -110 109c0 62 52 108 110 108c60 0 109 -46 109 -108c0 -63 -50 -109 -109 -109zM-250 641c32 0 55 24 55 58c0 33 -24 57 -55 57c-33 0 -56 -24 -56 -57c0 -34 24 -58 56 -58z"/>
    <glyph glyph-name="tildecomb" unicode="̃" horiz-adv-x="0" d="M-181 609c-34 0 -59 17 -82 33c-19 13 -36 24 -54 24c-26 0 -40 -22 -41 -47h-66c6 66 42 112 104 112c34 0 59 -17 82 -33c18 -12 36 -24 54 -24c23 0 39 17 41 47h66c-6 -66 -43 -112 -104 -112z"/>
    <glyph glyph-name="uni0304" unicode="̄" horiz-adv-x="0" d="M-383 702h265v-68h-265v68z"/>
    <glyph glyph-name="uni0327" unicode="̧" horiz-adv-x="0" d="M-271 -180c-34 0 -53 9 -74 18v54c18 -7 39 -13 57 -13c45 0 67 23 67 63c0 27 -12 52 -32 70l62 6c22 -21 36 -54 36 -87c0 -67 -46 -111 -116 -111z"/>
    <glyph glyph-name="acute" unicode="´" horiz-adv-x="500" d="M131 598l143 143h95l-154 -143h-84z"/>
    <glyph glyph-name="caron" unicode="ˇ" horiz-adv-x="553" d="M214 598l-118 148h75l79 -96l80 96h73l-119 -148h-70z"/>
    <glyph glyph-name="cedilla" unicode="¸" horiz-adv-x="553" d="M229 -180c-34 0 -53 9 -74 18v54c18 -7 39 -13 57 -13c45 0 67 23 67 63c0 27 -12 52 -32 70l62 6c22 -21 36 -54 36 -87c0 -67 -46 -111 -116 -111z"/>
    <glyph glyph-name="circumflex" unicode="ˆ" horiz-adv-x="553" d="M96 598l119 148h70l118 -148h-75l-79 96l-80 -96h-73z"/>
    <glyph glyph-name="dieresis" unicode="¨" horiz-adv-x="553" d="M162 613c-30 0 -51 21 -51 53s21 52 51 52c29 0 51 -20 51 -52s-22 -53 -51 -53zM338 613c-30 0 -51 21 -51 53s21 52 51 52c29 0 51 -20 51 -52s-22 -53 -51 -53z"/>
    <glyph glyph-name="dotaccent" unicode="˙" horiz-adv-x="553" d="M250 605c-32 0 -55 23 -55 57c0 35 23 56 55 56s55 -21 55 -56c0 -34 -23 -57 -55 -57z"/>
    <glyph glyph-name="grave" unicode="`" horiz-adv-x="553" d="M285 598l-154 143h95l143 -143h-84z"/>
    <glyph glyph-name="macron" unicode="¯" horiz-adv-x="553" d="M117 702h265v-68h-265v68z"/>
    <glyph glyph-name="ring" unicode="˚" horiz-adv-x="553" d="M250 590c-60 0 -110 46 -110 109c0 62 52 108 110 108c60 0 109 -46 109 -108c0 -63 -50 -109 -109 -109zM250 641c32 0 55 24 55 58c0 33 -24 57 -55 57c-33 0 -56 -24 -56 -57c0 -34 24 -58 56 -58z"/>
    <glyph glyph-name="tilde" unicode="˜" horiz-adv-x="553" d="M319 609c-34 0 -59 17 -82 33c-19 13 -36 24 -54 24c-26 0 -40 -22 -41 -47h-66c6 66 42 112 104 112c34 0 59 -17 82 -33c18 -12 36 -24 54 -24c23 0 39 17 41 47h66c-6 -66 -43 -112 -104 -112z"/>
    <glyph glyph-name="uni0308.case" horiz-adv-x="0" d="M-398 752c-32 0 -54 21 -54 55s22 54 54 54c30 0 53 -20 53 -54s-23 -55 -53 -55zM-202 752c-32 0 -54 21 -54 55s22 54 54 54c30 0 53 -20 53 -54s-23 -55 -53 -55z"/>
    <glyph glyph-name="uni0307.case" horiz-adv-x="0" d="M-301 751c-32 0 -55 23 -55 57s23 56 55 56s55 -22 55 -56s-23 -57 -55 -57z"/>
    <glyph glyph-name="gravecomb.case" horiz-adv-x="0" d="M-258 749l-179 137h105l168 -137h-94z"/>
    <glyph glyph-name="acutecomb.case" horiz-adv-x="0" d="M-437 749l167 137h106l-180 -137h-93z"/>
    <glyph glyph-name="uni0302.case" horiz-adv-x="0" d="M-479 749l143 143h73l141 -143h-84l-95 91l-94 -91h-84z"/>
    <glyph glyph-name="uni030C.case" horiz-adv-x="0" d="M-338 749l-141 143h84l95 -92l94 92h84l-142 -143h-74z"/>
    <glyph glyph-name="uni030A.case" horiz-adv-x="0" d="M-250 727c-60 0 -110 46 -110 109c0 62 52 108 110 108c60 0 109 -46 109 -108c0 -63 -50 -109 -109 -109zM-250 780c31 0 53 23 53 56c0 32 -23 55 -53 55c-32 0 -54 -23 -54 -55c0 -33 23 -56 54 -56z"/>
    <glyph glyph-name="tildecomb.case" horiz-adv-x="0" d="M-213 752c-27 0 -54 15 -80 31c-27 16 -52 32 -76 32c-32 0 -50 -27 -51 -53h-67c8 70 48 119 114 119c38 0 70 -18 96 -35c22 -14 42 -28 64 -28c28 0 49 19 52 53h66c-7 -68 -41 -119 -118 -119z"/>
    <glyph glyph-name="uni0304.case" horiz-adv-x="0" d="M-457 845h312v-68h-312v68z"/>
    <glyph glyph-name="uni0327.case" horiz-adv-x="0" d="M-299 -181c-35 0 -57 8 -80 17v55c20 -7 43 -13 63 -13c49 0 75 23 75 61c0 27 -13 51 -35 69l65 6c23 -21 39 -54 39 -86c0 -66 -52 -109 -127 -109z"/>
    </font>
</defs>
</svg>
