<svg xmlns="http://www.w3.org/2000/svg" xmlns:xlink="http://www.w3.org/1999/xlink" version="1.1">
<metadata>
Created by FontForge 20181003 at Fri Dec 21 12:40:49 2018
 By Henrique Beier
Copyright \(c\) 2018 GOL Linhas Aereas SA. All rights reserved.
</metadata>
<defs>
<font id="GOLSansDisplay-RegularItalic" horiz-adv-x="566">
  <font-face font-family="GOL Sans Display" font-weight="400" font-style="italic" font-stretch="normal" units-per-em="1000" panose-1="2 1 5 3 3 4 7 2 2 3" ascent="803" descent="-197" x-height="501" cap-height="676" bbox="-492 -225 1215 935" underline-thickness="50" underline-position="-100" slope="-11" stemh="72" stemv="76" unicode-range="U+0020-FB02"/>
<missing-glyph horiz-adv-x="468" d="M384 711v-936h-297v936h297zM312 648h-155v-31h61v-34h-62v-31h156v31h-62v34h62v31zM250 528h-94v-98h156v32h-62v66zM218 496v-34h-31v34h31zM312 405h-156v-31h62v-35h-62v-30h94v65h62v31zM312 349h-31v-62h-125v-32h156v94zM312 235h-94v-53h32v22h31v-44h-94v75 h-31v-106h156v106zM312 73h-156v-106h156v106zM281 42v-44h-94v44h94zM312 -55h-156v-31h66l-66 -44v-30h156v30h-96l66 44h30v31z"/>
    <glyph glyph-name="fi" unicode="fi" horiz-adv-x="595" d="M18 0l100 513c26 134 111 198 213 198c38 0 74 -10 104 -24l-16 -63c-24 8 -46 15 -87 15c-69 0 -122 -33 -139 -127l-2 -11h198l-14 -71h-197l-84 -430h-76zM557 595c-29 0 -48 20 -48 49c0 40 26 64 59 64c29 0 48 -20 48 -49c0 -40 -26 -64 -59 -64zM401 0l97 501h77 l-98 -501h-76z"/>
    <glyph glyph-name="fl" unicode="fl" horiz-adv-x="591" d="M18 0l100 513c26 134 111 198 213 198c38 0 74 -10 104 -24l-16 -63c-24 8 -46 15 -87 15c-69 0 -122 -33 -139 -127l-2 -11h198l-14 -71h-197l-84 -430h-76zM398 0l136 701h76l-136 -701h-76z"/>
    <glyph glyph-name=".notdef" horiz-adv-x="468" d="M384 711v-936h-297v936h297zM312 648h-155v-31h61v-34h-62v-31h156v31h-62v34h62v31zM250 528h-94v-98h156v32h-62v66zM218 496v-34h-31v34h31zM312 405h-156v-31h62v-35h-62v-30h94v65h62v31zM312 349h-31v-62h-125v-32h156v94zM312 235h-94v-53h32v22h31v-44h-94v75 h-31v-106h156v106zM312 73h-156v-106h156v106zM281 42v-44h-94v44h94zM312 -55h-156v-31h66l-66 -44v-30h156v30h-96l66 44h30v31z"/>
    <glyph glyph-name="space" unicode=" " horiz-adv-x="223"/>
    <glyph glyph-name="A" unicode="A" horiz-adv-x="633" d="M473 0l-30 186h-277l-101 -186h-86l381 676h77l117 -676h-81zM205 258h226l-51 322z"/>
    <glyph glyph-name="Aacute" unicode="Á" horiz-adv-x="633" d="M618 876l-189 -129h-95l176 129h108zM360 676h77l117 -676h-81l-30 186h-277l-101 -186h-86zM205 258h226l-51 322z"/>
    <glyph glyph-name="Acircumflex" unicode="Â" horiz-adv-x="633" d="M427 833l-110 -84h-82l162 134h72l115 -134h-78zM360 676h77l117 -676h-81l-30 186h-277l-101 -186h-86zM205 258h226l-51 322z"/>
    <glyph glyph-name="Adieresis" unicode="Ä" horiz-adv-x="633" d="M321 749c-28 0 -46 18 -46 45c0 38 24 60 56 60c26 0 45 -17 45 -44c0 -38 -26 -61 -55 -61zM505 749c-27 0 -46 18 -46 45c0 38 26 60 56 60c27 0 45 -17 45 -44c0 -38 -24 -61 -55 -61zM360 676h77l117 -676h-81l-30 186h-277l-101 -186h-86zM205 258h226l-51 322z"/>
    <glyph glyph-name="Agrave" unicode="À" horiz-adv-x="633" d="M483 747h-89l-141 129h99zM473 0l-30 186h-277l-101 -186h-86l381 676h77l117 -676h-81zM205 258h226l-51 322z"/>
    <glyph glyph-name="Amacron" unicode="Ā" horiz-adv-x="633" d="M274 841h305l-13 -68h-306zM360 676h77l117 -676h-81l-30 186h-277l-101 -186h-86zM205 258h226l-51 322z"/>
    <glyph glyph-name="Aring" unicode="Å" horiz-adv-x="633" d="M473 0l-30 186h-277l-101 -186h-86l372 661c-32 17 -54 50 -54 91c0 59 50 104 105 104c58 0 105 -45 105 -104c0 -46 -28 -82 -66 -97l113 -655h-81zM402 804c-29 0 -50 -22 -50 -52s21 -52 50 -52s50 22 50 52s-22 52 -50 52zM205 258h226l-51 322z"/>
    <glyph glyph-name="Atilde" unicode="Ã" horiz-adv-x="633" d="M551 864h69c-14 -69 -64 -117 -127 -117c-40 0 -67 24 -87 37c-21 13 -39 25 -60 25c-31 0 -52 -21 -60 -51h-68c15 77 63 115 127 115c31 0 60 -17 84 -32c21 -13 43 -29 63 -29c29 0 50 21 59 52zM360 676h77l117 -676h-81l-30 186h-277l-101 -186h-86zM205 258h226 l-51 322z"/>
    <glyph glyph-name="AE" unicode="Æ" horiz-adv-x="917" d="M929 600h-304l-42 -218h273l-15 -76h-273l-44 -230h314l-15 -76h-391l37 189h-255l-159 -189h-96l579 676h406zM275 262h208l63 323z"/>
    <glyph glyph-name="B" unicode="B" horiz-adv-x="565" d="M424 353c59 -26 92 -81 92 -146c0 -124 -103 -207 -231 -207h-256l131 676h208c107 0 178 -64 178 -156c0 -81 -49 -139 -122 -167zM357 605h-134l-43 -221h139c89 0 149 54 149 134c0 52 -44 87 -111 87zM284 71c90 0 154 51 154 133c0 58 -41 107 -117 107h-155 l-46 -240h164z"/>
    <glyph glyph-name="C" unicode="C" horiz-adv-x="564" d="M310 -12c-159 0 -252 109 -252 255c0 18 4 53 9 78l8 42c36 188 183 323 358 323c57 0 116 -15 155 -32l-15 -69c-42 15 -84 24 -141 24c-142 0 -250 -102 -281 -256l-6 -30c-5 -25 -8 -50 -8 -72c0 -117 68 -186 183 -186c63 0 120 14 166 29l-13 -75 c-50 -20 -105 -31 -163 -31z"/>
    <glyph glyph-name="Cacute" unicode="Ć" horiz-adv-x="564" d="M360 753l176 129h108l-189 -129h-95zM310 -12c-159 0 -252 109 -252 255c0 18 4 53 9 78l8 42c36 188 183 323 358 323c57 0 116 -15 155 -32l-15 -69c-42 15 -84 24 -141 24c-142 0 -250 -102 -281 -256l-6 -30c-5 -25 -8 -50 -8 -72c0 -117 68 -186 183 -186 c63 0 120 14 166 29l-13 -75c-50 -20 -105 -31 -163 -31z"/>
    <glyph glyph-name="Ccaron" unicode="Č" horiz-adv-x="564" d="M401 755l-115 134h78l79 -84l110 84h82l-162 -134h-72zM310 -12c-159 0 -252 109 -252 255c0 18 4 53 9 78l8 42c36 188 183 323 358 323c57 0 116 -15 155 -32l-15 -69c-42 15 -84 24 -141 24c-142 0 -250 -102 -281 -256l-6 -30c-5 -25 -8 -50 -8 -72 c0 -117 68 -186 183 -186c63 0 120 14 166 29l-13 -75c-50 -20 -105 -31 -163 -31z"/>
    <glyph glyph-name="Ccedilla" unicode="Ç" horiz-adv-x="564" d="M151 353l-6 -30c-5 -25 -8 -50 -8 -72c0 -117 68 -186 183 -186c63 0 120 14 166 29l-13 -75c-43 -17 -89 -28 -138 -30c8 -15 13 -32 13 -51c0 -68 -67 -116 -150 -116c-39 0 -69 10 -92 19l12 52c19 -7 44 -12 61 -12c62 0 100 31 100 77c0 12 -3 22 -9 32 c-134 17 -212 120 -212 253c0 18 4 53 9 78l8 42c36 188 183 323 358 323c57 0 116 -15 155 -32l-15 -69c-42 15 -84 24 -141 24c-142 0 -250 -102 -281 -256z"/>
    <glyph glyph-name="Cdotaccent" unicode="Ċ" horiz-adv-x="564" d="M442 754c-28 0 -48 19 -48 47c0 39 27 64 59 64c28 0 47 -19 47 -47c0 -38 -27 -64 -58 -64zM310 -12c-159 0 -252 109 -252 255c0 18 4 53 9 78l8 42c36 188 183 323 358 323c57 0 116 -15 155 -32l-15 -69c-42 15 -84 24 -141 24c-142 0 -250 -102 -281 -256l-6 -30 c-5 -25 -8 -50 -8 -72c0 -117 68 -186 183 -186c63 0 120 14 166 29l-13 -75c-50 -20 -105 -31 -163 -31z"/>
    <glyph glyph-name="D" unicode="D" horiz-adv-x="649" d="M371 676c154 0 253 -102 253 -256c0 -20 -2 -44 -7 -72l-7 -39c-34 -188 -193 -309 -361 -309h-220l131 676h211zM539 344c6 28 8 52 8 71c0 114 -68 186 -179 186h-145l-101 -526h137c129 0 241 88 274 241z"/>
    <glyph glyph-name="Eth" unicode="Ð" horiz-adv-x="680" d="M402 676c154 0 253 -102 253 -256c0 -20 -2 -44 -7 -72l-7 -39c-34 -188 -193 -309 -361 -309h-220l59 303h-91l14 74h91l58 299h211zM570 344c6 28 8 52 8 71c0 114 -68 186 -179 186h-145l-43 -224h205l-15 -74h-204l-44 -228h137c129 0 241 88 274 241z"/>
    <glyph glyph-name="E" unicode="E" horiz-adv-x="519" d="M531 600h-309l-42 -218h278l-15 -76h-278l-44 -230h319l-15 -76h-396l131 676h386z"/>
    <glyph glyph-name="Eacute" unicode="É" horiz-adv-x="519" d="M575 876l-189 -129h-95l176 129h108zM546 676l-15 -76h-309l-42 -218h278l-15 -76h-278l-44 -230h319l-15 -76h-396l131 676h386z"/>
    <glyph glyph-name="Ecaron" unicode="Ě" horiz-adv-x="519" d="M404 749h-72l-115 134h78l79 -84l110 84h82zM546 676l-15 -76h-309l-42 -218h278l-15 -76h-278l-44 -230h319l-15 -76h-396l131 676h386z"/>
    <glyph glyph-name="Ecircumflex" unicode="Ê" horiz-adv-x="519" d="M384 833l-110 -84h-82l162 134h72l115 -134h-78zM531 600h-309l-42 -218h278l-15 -76h-278l-44 -230h319l-15 -76h-396l131 676h386z"/>
    <glyph glyph-name="Edieresis" unicode="Ë" horiz-adv-x="519" d="M278 749c-28 0 -46 18 -46 45c0 38 24 60 56 60c26 0 45 -17 45 -44c0 -38 -26 -61 -55 -61zM462 749c-27 0 -46 18 -46 45c0 38 26 60 56 60c27 0 45 -17 45 -44c0 -38 -24 -61 -55 -61zM531 600h-309l-42 -218h278l-15 -76h-278l-44 -230h319l-15 -76h-396l131 676h386 z"/>
    <glyph glyph-name="Edotaccent" unicode="Ė" horiz-adv-x="519" d="M373 748c-28 0 -48 19 -48 47c0 39 27 64 59 64c28 0 47 -19 47 -47c0 -38 -27 -64 -58 -64zM531 600h-309l-42 -218h278l-15 -76h-278l-44 -230h319l-15 -76h-396l131 676h386z"/>
    <glyph glyph-name="Egrave" unicode="È" horiz-adv-x="519" d="M440 747h-89l-141 129h99zM531 600h-309l-42 -218h278l-15 -76h-278l-44 -230h319l-15 -76h-396l131 676h386z"/>
    <glyph glyph-name="Emacron" unicode="Ē" horiz-adv-x="519" d="M536 841l-13 -68h-306l14 68h305zM531 600h-309l-42 -218h278l-15 -76h-278l-44 -230h319l-15 -76h-396l131 676h386z"/>
    <glyph glyph-name="F" unicode="F" horiz-adv-x="503" d="M539 600h-317l-42 -218h276l-15 -76h-276l-59 -306h-77l131 676h394z"/>
    <glyph glyph-name="G" unicode="G" horiz-adv-x="620" d="M313 -10c-163 0 -256 106 -256 253c0 25 5 55 9 76l8 42c38 198 192 325 363 325c67 0 116 -16 162 -35l-14 -71c-49 19 -90 28 -152 28c-138 0 -250 -84 -283 -254l-6 -31c-5 -26 -8 -50 -8 -73c0 -112 65 -186 182 -186c51 0 93 9 132 23l39 193h-151l15 74h228 l-62 -316c-60 -25 -129 -48 -206 -48z"/>
    <glyph glyph-name="Gdotaccent" unicode="Ġ" horiz-adv-x="620" d="M439 754c-28 0 -48 19 -48 47c0 39 27 64 59 64c28 0 47 -19 47 -47c0 -38 -27 -64 -58 -64zM313 -10c-163 0 -256 106 -256 253c0 25 5 55 9 76l8 42c38 198 192 325 363 325c67 0 116 -16 162 -35l-14 -71c-49 19 -90 28 -152 28c-138 0 -250 -84 -283 -254l-6 -31 c-5 -26 -8 -50 -8 -73c0 -112 65 -186 182 -186c51 0 93 9 132 23l39 193h-151l15 74h228l-62 -316c-60 -25 -129 -48 -206 -48z"/>
    <glyph glyph-name="H" unicode="H" horiz-adv-x="647" d="M574 676h78l-131 -676h-78l59 307h-336l-59 -307h-78l131 676h78l-57 -293h336z"/>
    <glyph glyph-name="I" unicode="I" horiz-adv-x="233" d="M29 0l131 676h78l-131 -676h-78z"/>
    <glyph glyph-name="IJ" unicode="Ĳ" horiz-adv-x="638" d="M29 0l131 676h78l-131 -676h-78zM330 -12c-50 0 -84 12 -112 26l12 65c25 -9 54 -15 99 -15c74 0 130 45 148 138l92 474h78l-94 -481c-25 -130 -110 -207 -223 -207z"/>
    <glyph glyph-name="Iacute" unicode="Í" horiz-adv-x="233" d="M134 747l176 129h108l-189 -129h-95zM29 0l131 676h78l-131 -676h-78z"/>
    <glyph glyph-name="Icircumflex" unicode="Î" horiz-adv-x="233" d="M35 749l162 134h72l115 -134h-78l-79 84l-110 -84h-82zM29 0l131 676h78l-131 -676h-78z"/>
    <glyph glyph-name="Idieresis" unicode="Ï" horiz-adv-x="233" d="M121 749c-28 0 -46 18 -46 45c0 38 24 60 56 60c26 0 45 -17 45 -44c0 -38 -26 -61 -55 -61zM305 749c-27 0 -46 18 -46 45c0 38 26 60 56 60c27 0 45 -17 45 -44c0 -38 -24 -61 -55 -61zM29 0l131 676h78l-131 -676h-78z"/>
    <glyph glyph-name="Idotaccent" unicode="İ" horiz-adv-x="233" d="M216 748c-28 0 -48 19 -48 47c0 39 27 64 59 64c28 0 47 -19 47 -47c0 -38 -27 -64 -58 -64zM29 0l131 676h78l-131 -676h-78z"/>
    <glyph glyph-name="Igrave" unicode="Ì" horiz-adv-x="233" d="M194 747l-141 129h99l131 -129h-89zM29 0l131 676h78l-131 -676h-78z"/>
    <glyph glyph-name="Imacron" unicode="Ī" horiz-adv-x="233" d="M74 841h305l-13 -68h-306zM29 0l131 676h78l-131 -676h-78z"/>
    <glyph glyph-name="J" unicode="J" horiz-adv-x="405" d="M97 -12c-50 0 -84 12 -112 26l12 65c25 -9 54 -15 99 -15c74 0 130 45 148 138l92 474h78l-94 -481c-25 -130 -110 -207 -223 -207z"/>
    <glyph glyph-name="K" unicode="K" horiz-adv-x="589" d="M627 676l-375 -327l274 -349h-98l-257 331l-64 -331h-78l131 676h78l-59 -303l352 303h96z"/>
    <glyph glyph-name="L" unicode="L" horiz-adv-x="522" d="M122 76h325l-15 -76h-403l131 676h78z"/>
    <glyph glyph-name="M" unicode="M" horiz-adv-x="747" d="M29 0l131 676h66l151 -375l301 375h73l-130 -676h-76l104 531l-260 -323h-51l-131 315l-102 -523h-76z"/>
    <glyph glyph-name="N" unicode="N" horiz-adv-x="645" d="M29 0l131 676h65l246 -542l106 542h73l-131 -676h-65l-247 538l-105 -538h-73z"/>
    <glyph glyph-name="Nacute" unicode="Ń" horiz-adv-x="645" d="M330 747l176 129h108l-189 -129h-95zM29 0l131 676h65l246 -542l106 542h73l-131 -676h-65l-247 538l-105 -538h-73z"/>
    <glyph glyph-name="Ncaron" unicode="Ň" horiz-adv-x="645" d="M371 749l-115 134h78l79 -84l110 84h82l-162 -134h-72zM29 0l131 676h65l246 -542l106 542h73l-131 -676h-65l-247 538l-105 -538h-73z"/>
    <glyph glyph-name="Ntilde" unicode="Ñ" horiz-adv-x="645" d="M489 747c-40 0 -67 24 -87 37c-21 13 -39 25 -60 25c-31 0 -52 -21 -60 -51h-68c15 77 63 115 127 115c31 0 60 -17 84 -32c21 -13 43 -29 63 -29c29 0 50 21 59 52h69c-14 -69 -64 -117 -127 -117zM29 0l131 676h65l246 -542l106 542h73l-131 -676h-65l-247 538 l-105 -538h-73z"/>
    <glyph glyph-name="O" unicode="O" horiz-adv-x="686" d="M296 -12c-149 0 -238 106 -238 250c0 28 4 55 8 77l8 44c35 191 184 327 352 327c149 0 238 -106 238 -250c0 -28 -4 -55 -8 -77l-8 -44c-35 -193 -182 -327 -352 -327zM301 65c137 0 239 100 272 263l5 25c5 26 8 47 8 74c0 111 -63 182 -165 182 c-134 0 -239 -100 -272 -263l-5 -25c-5 -27 -9 -46 -9 -75c0 -111 63 -181 166 -181z"/>
    <glyph glyph-name="Oacute" unicode="Ó" horiz-adv-x="686" d="M358 753l176 129h108l-189 -129h-95zM296 -12c-149 0 -238 106 -238 250c0 28 4 55 8 77l8 44c35 191 184 327 352 327c149 0 238 -106 238 -250c0 -28 -4 -55 -8 -77l-8 -44c-35 -193 -182 -327 -352 -327zM301 65c137 0 239 100 272 263l5 25c5 26 8 47 8 74 c0 111 -63 182 -165 182c-134 0 -239 -100 -272 -263l-5 -25c-5 -27 -9 -46 -9 -75c0 -111 63 -181 166 -181z"/>
    <glyph glyph-name="Ocircumflex" unicode="Ô" horiz-adv-x="686" d="M259 755l162 134h72l115 -134h-78l-79 84l-110 -84h-82zM296 -12c-149 0 -238 106 -238 250c0 28 4 55 8 77l8 44c35 191 184 327 352 327c149 0 238 -106 238 -250c0 -28 -4 -55 -8 -77l-8 -44c-35 -193 -182 -327 -352 -327zM301 65c137 0 239 100 272 263l5 25 c5 26 8 47 8 74c0 111 -63 182 -165 182c-134 0 -239 -100 -272 -263l-5 -25c-5 -27 -9 -46 -9 -75c0 -111 63 -181 166 -181z"/>
    <glyph glyph-name="Odieresis" unicode="Ö" horiz-adv-x="686" d="M345 755c-28 0 -46 18 -46 45c0 38 24 60 56 60c26 0 45 -17 45 -44c0 -38 -26 -61 -55 -61zM529 755c-27 0 -46 18 -46 45c0 38 26 60 56 60c27 0 45 -17 45 -44c0 -38 -24 -61 -55 -61zM296 -12c-149 0 -238 106 -238 250c0 28 4 55 8 77l8 44c35 191 184 327 352 327 c149 0 238 -106 238 -250c0 -28 -4 -55 -8 -77l-8 -44c-35 -193 -182 -327 -352 -327zM301 65c137 0 239 100 272 263l5 25c5 26 8 47 8 74c0 111 -63 182 -165 182c-134 0 -239 -100 -272 -263l-5 -25c-5 -27 -9 -46 -9 -75c0 -111 63 -181 166 -181z"/>
    <glyph glyph-name="Ograve" unicode="Ò" horiz-adv-x="686" d="M418 753l-141 129h99l131 -129h-89zM296 -12c-149 0 -238 106 -238 250c0 28 4 55 8 77l8 44c35 191 184 327 352 327c149 0 238 -106 238 -250c0 -28 -4 -55 -8 -77l-8 -44c-35 -193 -182 -327 -352 -327zM301 65c137 0 239 100 272 263l5 25c5 26 8 47 8 74 c0 111 -63 182 -165 182c-134 0 -239 -100 -272 -263l-5 -25c-5 -27 -9 -46 -9 -75c0 -111 63 -181 166 -181z"/>
    <glyph glyph-name="Omacron" unicode="Ō" horiz-adv-x="686" d="M298 847h305l-13 -68h-306zM296 -12c-149 0 -238 106 -238 250c0 28 4 55 8 77l8 44c35 191 184 327 352 327c149 0 238 -106 238 -250c0 -28 -4 -55 -8 -77l-8 -44c-35 -193 -182 -327 -352 -327zM301 65c137 0 239 100 272 263l5 25c5 26 8 47 8 74 c0 111 -63 182 -165 182c-134 0 -239 -100 -272 -263l-5 -25c-5 -27 -9 -46 -9 -75c0 -111 63 -181 166 -181z"/>
    <glyph glyph-name="Oslash" unicode="Ø" horiz-adv-x="686" d="M754 729l-132 -149c24 -40 37 -89 37 -144c0 -28 -4 -55 -8 -77l-8 -44c-35 -193 -182 -327 -352 -327c-61 0 -112 18 -151 49l-82 -93h-86l124 140c-28 42 -43 95 -43 154c0 28 4 55 8 77l8 44c35 191 184 327 352 327c65 0 119 -20 159 -55l87 98h87zM130 246 c0 -38 8 -72 22 -99l374 423c-27 25 -65 39 -110 39c-134 0 -239 -100 -272 -263l-5 -25c-5 -27 -9 -46 -9 -75zM581 427c0 33 -6 63 -16 88l-372 -418c27 -21 62 -32 103 -32c137 0 239 100 272 263l5 25c5 26 8 47 8 74z"/>
    <glyph glyph-name="Otilde" unicode="Õ" horiz-adv-x="686" d="M517 753c-40 0 -67 24 -87 37c-21 13 -39 25 -60 25c-31 0 -52 -21 -60 -51h-68c15 77 63 115 127 115c31 0 60 -17 84 -32c21 -13 43 -29 63 -29c29 0 50 21 59 52h69c-14 -69 -64 -117 -127 -117zM296 -12c-149 0 -238 106 -238 250c0 28 4 55 8 77l8 44 c35 191 184 327 352 327c149 0 238 -106 238 -250c0 -28 -4 -55 -8 -77l-8 -44c-35 -193 -182 -327 -352 -327zM301 65c137 0 239 100 272 263l5 25c5 26 8 47 8 74c0 111 -63 182 -165 182c-134 0 -239 -100 -272 -263l-5 -25c-5 -27 -9 -46 -9 -75 c0 -111 63 -181 166 -181z"/>
    <glyph glyph-name="OE" unicode="Œ" horiz-adv-x="988" d="M1000 599h-304l-42 -216h272l-15 -77h-272l-45 -229h315l-15 -77h-391l19 100c-57 -69 -136 -112 -228 -112c-150 0 -236 104 -236 249c0 27 3 51 8 78l8 42c35 186 177 329 345 329c99 0 163 -44 195 -114l20 104h381zM299 65c129 0 229 95 263 240l7 36l2 11 c5 28 7 57 7 76c0 113 -54 181 -163 181c-132 0 -232 -106 -266 -263l-5 -23c-6 -28 -9 -55 -9 -79c0 -108 57 -179 164 -179z"/>
    <glyph glyph-name="P" unicode="P" horiz-adv-x="557" d="M375 676c119 0 185 -79 185 -180c0 -147 -117 -224 -268 -236l-138 -11l-49 -249h-76l131 676h215zM293 334c115 10 190 60 190 160c0 66 -39 108 -121 108h-139l-55 -279z"/>
    <glyph glyph-name="Thorn" unicode="Þ" horiz-adv-x="557" d="M358 584c119 0 185 -79 185 -180c0 -147 -117 -224 -268 -236l-139 -11l-30 -157h-77l132 676h76l-18 -92h139zM276 242c115 10 190 60 190 160c0 66 -39 108 -121 108h-140l-54 -279z"/>
    <glyph glyph-name="Q" unicode="Q" horiz-adv-x="686" d="M426 686c149 0 238 -106 238 -250c0 -28 -4 -55 -8 -77l-8 -44c-17 -96 -63 -178 -125 -236l84 -143h-82l-59 101c-51 -32 -109 -49 -170 -49c-149 0 -238 106 -238 250c0 28 4 55 8 77l8 44c35 191 184 327 352 327zM578 353c5 26 8 47 8 74c0 111 -63 182 -165 182 c-134 0 -239 -100 -272 -263l-5 -25c-5 -27 -9 -46 -9 -75c0 -111 63 -181 166 -181c48 0 91 12 129 35l-72 123h81l46 -79c42 45 73 108 88 184z"/>
    <glyph glyph-name="R" unicode="R" horiz-adv-x="567" d="M550 507c0 -107 -70 -179 -168 -213l118 -294h-85l-109 277l-24 -3l-125 -10l-51 -264h-77l131 676h202c122 0 188 -79 188 -169zM171 336l114 10c112 10 186 57 186 155c0 59 -43 102 -126 102h-122z"/>
    <glyph glyph-name="Racute" unicode="Ŕ" horiz-adv-x="567" d="M553 876l-189 -129h-95l176 129h108zM550 507c0 -107 -70 -179 -168 -213l118 -294h-85l-109 277l-24 -3l-125 -10l-51 -264h-77l131 676h202c122 0 188 -79 188 -169zM285 346c112 10 186 57 186 155c0 59 -43 102 -126 102h-122l-52 -267z"/>
    <glyph glyph-name="Rcaron" unicode="Ř" horiz-adv-x="567" d="M382 749h-72l-115 134h78l79 -84l110 84h82zM550 507c0 -107 -70 -179 -168 -213l118 -294h-85l-109 277l-24 -3l-125 -10l-51 -264h-77l131 676h202c122 0 188 -79 188 -169zM171 336l114 10c112 10 186 57 186 155c0 59 -43 102 -126 102h-122z"/>
    <glyph glyph-name="S" unicode="S" horiz-adv-x="522" d="M208 -12c-69 0 -154 22 -206 51l15 67c58 -27 128 -41 196 -41c98 0 173 37 173 121c0 49 -38 88 -126 126c-114 49 -167 96 -167 181c0 121 105 193 241 193c57 0 132 -17 186 -42l-14 -67c-54 23 -122 32 -175 32c-96 0 -161 -35 -161 -107c0 -48 36 -82 129 -122 c103 -44 165 -101 165 -187c0 -140 -106 -205 -256 -205z"/>
    <glyph glyph-name="Sacute" unicode="Ś" horiz-adv-x="522" d="M260 747l176 129h108l-189 -129h-95zM208 -12c-69 0 -154 22 -206 51l15 67c58 -27 128 -41 196 -41c98 0 173 37 173 121c0 49 -38 88 -126 126c-114 49 -167 96 -167 181c0 121 105 193 241 193c57 0 132 -17 186 -42l-14 -67c-54 23 -122 32 -175 32 c-96 0 -161 -35 -161 -107c0 -48 36 -82 129 -122c103 -44 165 -101 165 -187c0 -140 -106 -205 -256 -205z"/>
    <glyph glyph-name="Scaron" unicode="Š" horiz-adv-x="522" d="M301 749l-115 134h78l79 -84l110 84h82l-162 -134h-72zM208 -12c-69 0 -154 22 -206 51l15 67c58 -27 128 -41 196 -41c98 0 173 37 173 121c0 49 -38 88 -126 126c-114 49 -167 96 -167 181c0 121 105 193 241 193c57 0 132 -17 186 -42l-14 -67c-54 23 -122 32 -175 32 c-96 0 -161 -35 -161 -107c0 -48 36 -82 129 -122c103 -44 165 -101 165 -187c0 -140 -106 -205 -256 -205z"/>
    <glyph glyph-name="uni1E9E" unicode="ẞ" horiz-adv-x="639" d="M350 -11c-62 0 -116 16 -164 46l13 66c47 -27 91 -39 148 -39c97 0 163 47 163 133c0 67 -60 115 -150 115h-40l13 66l197 203c-34 21 -67 32 -125 32c-119 0 -204 -73 -234 -231l-73 -380h-76l74 382c40 206 161 304 307 304c101 0 164 -41 208 -71l-12 -44l-190 -198 l8 -1c102 -13 170 -88 170 -175c0 -129 -103 -208 -237 -208z"/>
    <glyph glyph-name="T" unicode="T" horiz-adv-x="520" d="M587 676l-15 -76h-205l-117 -600h-77l116 600h-206l15 76h489z"/>
    <glyph glyph-name="U" unicode="U" horiz-adv-x="654" d="M285 -12c-140 0 -210 97 -210 227c0 28 3 54 8 80l74 381h78l-74 -378c-5 -26 -8 -50 -8 -75c0 -93 43 -158 137 -158c121 0 194 85 223 237l72 374h78l-74 -381c-37 -191 -140 -307 -304 -307z"/>
    <glyph glyph-name="Uacute" unicode="Ú" horiz-adv-x="654" d="M335 747l176 129h108l-189 -129h-95zM285 -12c-140 0 -210 97 -210 227c0 28 3 54 8 80l74 381h78l-74 -378c-5 -26 -8 -50 -8 -75c0 -93 43 -158 137 -158c121 0 194 85 223 237l72 374h78l-74 -381c-37 -191 -140 -307 -304 -307z"/>
    <glyph glyph-name="Ucircumflex" unicode="Û" horiz-adv-x="654" d="M236 749l162 134h72l115 -134h-78l-79 84l-110 -84h-82zM285 -12c-140 0 -210 97 -210 227c0 28 3 54 8 80l74 381h78l-74 -378c-5 -26 -8 -50 -8 -75c0 -93 43 -158 137 -158c121 0 194 85 223 237l72 374h78l-74 -381c-37 -191 -140 -307 -304 -307z"/>
    <glyph glyph-name="Udieresis" unicode="Ü" horiz-adv-x="654" d="M322 749c-28 0 -46 18 -46 45c0 38 24 60 56 60c26 0 45 -17 45 -44c0 -38 -26 -61 -55 -61zM506 749c-27 0 -46 18 -46 45c0 38 26 60 56 60c27 0 45 -17 45 -44c0 -38 -24 -61 -55 -61zM285 -12c-140 0 -210 97 -210 227c0 28 3 54 8 80l74 381h78l-74 -378 c-5 -26 -8 -50 -8 -75c0 -93 43 -158 137 -158c121 0 194 85 223 237l72 374h78l-74 -381c-37 -191 -140 -307 -304 -307z"/>
    <glyph glyph-name="Ugrave" unicode="Ù" horiz-adv-x="654" d="M395 747l-141 129h99l131 -129h-89zM285 -12c-140 0 -210 97 -210 227c0 28 3 54 8 80l74 381h78l-74 -378c-5 -26 -8 -50 -8 -75c0 -93 43 -158 137 -158c121 0 194 85 223 237l72 374h78l-74 -381c-37 -191 -140 -307 -304 -307z"/>
    <glyph glyph-name="Umacron" unicode="Ū" horiz-adv-x="654" d="M275 841h305l-13 -68h-306zM285 -12c-140 0 -210 97 -210 227c0 28 3 54 8 80l74 381h78l-74 -378c-5 -26 -8 -50 -8 -75c0 -93 43 -158 137 -158c121 0 194 85 223 237l72 374h78l-74 -381c-37 -191 -140 -307 -304 -307z"/>
    <glyph glyph-name="Uring" unicode="Ů" horiz-adv-x="654" d="M427 725c-57 0 -105 44 -105 104c0 59 50 104 105 104c58 0 105 -45 105 -104c0 -60 -49 -104 -105 -104zM427 777c29 0 50 22 50 52s-22 52 -50 52c-29 0 -50 -22 -50 -52s21 -52 50 -52zM285 -12c-140 0 -210 97 -210 227c0 28 3 54 8 80l74 381h78l-74 -378 c-5 -26 -8 -50 -8 -75c0 -93 43 -158 137 -158c121 0 194 85 223 237l72 374h78l-74 -381c-37 -191 -140 -307 -304 -307z"/>
    <glyph glyph-name="V" unicode="V" horiz-adv-x="612" d="M589 676h88l-381 -676h-76l-118 676h83l91 -573z"/>
    <glyph glyph-name="W" unicode="W" horiz-adv-x="884" d="M166 0l-48 676h84l25 -562l252 544h82l42 -545l245 563h85l-313 -676h-80l-43 543l-251 -543h-80z"/>
    <glyph glyph-name="Wacute" unicode="Ẃ" horiz-adv-x="884" d="M451 747l176 129h108l-189 -129h-95zM166 0l-48 676h84l25 -562l252 544h82l42 -545l245 563h85l-313 -676h-80l-43 543l-251 -543h-80z"/>
    <glyph glyph-name="Wcircumflex" unicode="Ŵ" horiz-adv-x="884" d="M352 749l162 134h72l115 -134h-78l-79 84l-110 -84h-82zM166 0l-48 676h84l25 -562l252 544h82l42 -545l245 563h85l-313 -676h-80l-43 543l-251 -543h-80z"/>
    <glyph glyph-name="Wdieresis" unicode="Ẅ" horiz-adv-x="884" d="M438 749c-28 0 -46 18 -46 45c0 38 24 60 56 60c26 0 45 -17 45 -44c0 -38 -26 -61 -55 -61zM622 749c-27 0 -46 18 -46 45c0 38 26 60 56 60c27 0 45 -17 45 -44c0 -38 -24 -61 -55 -61zM166 0l-48 676h84l25 -562l252 544h82l42 -545l245 563h85l-313 -676h-80l-43 543 l-251 -543h-80z"/>
    <glyph glyph-name="Wgrave" unicode="Ẁ" horiz-adv-x="884" d="M511 747l-141 129h99l131 -129h-89zM166 0l-48 676h84l25 -562l252 544h82l42 -545l245 563h85l-313 -676h-80l-43 543l-251 -543h-80z"/>
    <glyph glyph-name="X" unicode="X" horiz-adv-x="638" d="M667 676l-284 -322l180 -354h-88l-149 300l-259 -300h-93l320 366l-156 310h87l125 -257l226 257h91z"/>
    <glyph glyph-name="Y" unicode="Y" horiz-adv-x="561" d="M628 676l-311 -426l-48 -250h-78l50 259l-141 417h82l110 -343l248 343h88z"/>
    <glyph glyph-name="Yacute" unicode="Ý" horiz-adv-x="561" d="M567 876l-189 -129h-95l176 129h108zM628 676l-311 -426l-48 -250h-78l50 259l-141 417h82l110 -343l248 343h88z"/>
    <glyph glyph-name="Ycircumflex" unicode="Ŷ" horiz-adv-x="561" d="M376 833l-110 -84h-82l162 134h72l115 -134h-78zM628 676l-311 -426l-48 -250h-78l50 259l-141 417h82l110 -343l248 343h88z"/>
    <glyph glyph-name="Ydieresis" unicode="Ÿ" horiz-adv-x="561" d="M270 749c-28 0 -46 18 -46 45c0 38 24 60 56 60c26 0 45 -17 45 -44c0 -38 -26 -61 -55 -61zM454 749c-27 0 -46 18 -46 45c0 38 26 60 56 60c27 0 45 -17 45 -44c0 -38 -24 -61 -55 -61zM628 676l-311 -426l-48 -250h-78l50 259l-141 417h82l110 -343l248 343h88z"/>
    <glyph glyph-name="Ygrave" unicode="Ỳ" horiz-adv-x="561" d="M432 747h-89l-141 129h99zM628 676l-311 -426l-48 -250h-78l50 259l-141 417h82l110 -343l248 343h88z"/>
    <glyph glyph-name="Z" unicode="Z" horiz-adv-x="560" d="M-6 0l13 71l474 529h-359l14 76h452l-13 -71l-472 -529h381l-15 -76h-475z"/>
    <glyph glyph-name="Zacute" unicode="Ź" horiz-adv-x="560" d="M276 747l176 129h108l-189 -129h-95zM-6 0l13 71l474 529h-359l14 76h452l-13 -71l-472 -529h381l-15 -76h-475z"/>
    <glyph glyph-name="Zcaron" unicode="Ž" horiz-adv-x="560" d="M317 749l-115 134h78l79 -84l110 84h82l-162 -134h-72zM-6 0l13 71l474 529h-359l14 76h452l-13 -71l-472 -529h381l-15 -76h-475z"/>
    <glyph glyph-name="Zdotaccent" unicode="Ż" horiz-adv-x="560" d="M358 748c-28 0 -48 19 -48 47c0 39 27 64 59 64c28 0 47 -19 47 -47c0 -38 -27 -64 -58 -64zM-6 0l13 71l474 529h-359l14 76h452l-13 -71l-472 -529h381l-15 -76h-475z"/>
    <glyph glyph-name="a" unicode="a" horiz-adv-x="533" d="M514 501l-98 -501h-59l1 53c-48 -35 -103 -63 -159 -63c-105 0 -162 81 -162 187c0 17 1 31 4 47l6 31c34 174 169 246 307 246h160zM366 131l58 299h-79c-118 0 -201 -62 -227 -192l-3 -15c-3 -16 -4 -26 -4 -45c0 -68 29 -116 99 -116c54 0 98 23 156 69z"/>
    <glyph glyph-name="aacute" unicode="á" horiz-adv-x="533" d="M541 727l-175 -135h-84l164 135h95zM514 501l-98 -501h-59l1 53c-48 -35 -103 -63 -159 -63c-105 0 -162 81 -162 187c0 17 1 31 4 47l6 31c34 174 169 246 307 246h160zM366 131l58 299h-79c-118 0 -201 -62 -227 -192l-3 -15c-3 -16 -4 -26 -4 -45 c0 -68 29 -116 99 -116c54 0 98 23 156 69z"/>
    <glyph glyph-name="acircumflex" unicode="â" horiz-adv-x="533" d="M370 683l-96 -90h-70l139 140h67l82 -140h-68zM514 501l-98 -501h-59l1 53c-48 -35 -103 -63 -159 -63c-105 0 -162 81 -162 187c0 17 1 31 4 47l6 31c34 174 169 246 307 246h160zM366 131l58 299h-79c-118 0 -201 -62 -227 -192l-3 -15c-3 -16 -4 -26 -4 -45 c0 -68 29 -116 99 -116c54 0 98 23 156 69z"/>
    <glyph glyph-name="adieresis" unicode="ä" horiz-adv-x="533" d="M270 605c-28 0 -44 18 -44 44c0 36 22 59 53 59c26 0 44 -17 44 -44c0 -35 -25 -59 -53 -59zM439 605c-27 0 -44 18 -44 44c0 36 23 59 53 59c27 0 44 -17 44 -44c0 -35 -24 -59 -53 -59zM514 501l-98 -501h-59l1 53c-48 -35 -103 -63 -159 -63c-105 0 -162 81 -162 187 c0 17 1 31 4 47l6 31c34 174 169 246 307 246h160zM366 131l58 299h-79c-118 0 -201 -62 -227 -192l-3 -15c-3 -16 -4 -26 -4 -45c0 -68 29 -116 99 -116c54 0 98 23 156 69z"/>
    <glyph glyph-name="agrave" unicode="à" horiz-adv-x="533" d="M414 592h-76l-121 135h87zM514 501l-98 -501h-59l1 53c-48 -35 -103 -63 -159 -63c-105 0 -162 81 -162 187c0 17 1 31 4 47l6 31c34 174 169 246 307 246h160zM366 131l58 299h-79c-118 0 -201 -62 -227 -192l-3 -15c-3 -16 -4 -26 -4 -45c0 -68 29 -116 99 -116 c54 0 98 23 156 69z"/>
    <glyph glyph-name="amacron" unicode="ā" horiz-adv-x="533" d="M493 691l-13 -66h-250l13 66h250zM514 501l-98 -501h-59l1 53c-48 -35 -103 -63 -159 -63c-105 0 -162 81 -162 187c0 17 1 31 4 47l6 31c34 174 169 246 307 246h160zM366 131l58 299h-79c-118 0 -201 -62 -227 -192l-3 -15c-3 -16 -4 -26 -4 -45c0 -68 29 -116 99 -116 c54 0 98 23 156 69z"/>
    <glyph glyph-name="aring" unicode="å" horiz-adv-x="533" d="M368 584c-56 0 -104 44 -104 103c0 58 50 102 104 102c56 0 103 -44 103 -102c0 -59 -48 -103 -103 -103zM368 740c-31 0 -52 -21 -52 -53c0 -33 22 -54 52 -54s51 21 51 54c0 32 -22 53 -51 53zM514 501l-98 -501h-59l1 53c-48 -35 -103 -63 -159 -63 c-105 0 -162 81 -162 187c0 17 1 31 4 47l6 31c34 174 169 246 307 246h160zM366 131l58 299h-79c-118 0 -201 -62 -227 -192l-3 -15c-3 -16 -4 -26 -4 -45c0 -68 29 -116 99 -116c54 0 98 23 156 69z"/>
    <glyph glyph-name="atilde" unicode="ã" horiz-adv-x="533" d="M299 657c-25 0 -44 -20 -50 -45h-61c13 74 57 108 113 108c28 0 49 -17 70 -31c17 -11 34 -24 53 -24c21 0 41 16 49 45h61c-11 -64 -58 -108 -113 -108c-33 0 -53 17 -73 31c-16 11 -31 24 -49 24zM514 501l-98 -501h-59l1 53c-48 -35 -103 -63 -159 -63 c-105 0 -162 81 -162 187c0 17 1 31 4 47l6 31c34 174 169 246 307 246h160zM366 131l58 299h-79c-118 0 -201 -62 -227 -192l-3 -15c-3 -16 -4 -26 -4 -45c0 -68 29 -116 99 -116c54 0 98 23 156 69z"/>
    <glyph glyph-name="ae" unicode="æ" horiz-adv-x="833" d="M607 216l-153 -11c-1 -6 -1 -13 -1 -21c0 -78 51 -125 121 -125c51 0 95 9 141 25l-14 -70c-42 -16 -85 -26 -132 -26c-64 0 -115 28 -144 78l-13 -66h-59l1 53c-47 -35 -101 -63 -157 -63c-105 0 -160 81 -160 187c0 17 1 31 4 47l6 31c34 174 169 246 305 246h153 l-12 -59c45 44 102 69 164 69c104 0 151 -63 151 -133c0 -102 -77 -153 -201 -162zM655 442c-87 0 -161 -59 -190 -173l142 11c76 6 127 34 127 94c0 39 -27 68 -79 68zM111 178c0 -68 27 -116 97 -116c54 0 96 23 154 69l58 299h-77c-116 0 -199 -62 -225 -192l-3 -15 c-3 -16 -4 -26 -4 -45z"/>
    <glyph glyph-name="b" unicode="b" horiz-adv-x="534" d="M332 511c106 0 163 -87 163 -188c0 -13 -1 -28 -4 -46l-5 -30c-28 -167 -171 -247 -309 -247h-159l136 701h76l-47 -245c45 32 96 55 149 55zM416 280c2 15 3 27 3 40c0 67 -27 119 -97 119c-56 0 -97 -21 -155 -64l-59 -304h79c116 0 211 73 227 194z"/>
    <glyph glyph-name="c" unicode="c" horiz-adv-x="438" d="M237 -12c-124 0 -197 89 -197 202c0 13 1 30 4 48l4 24c24 145 147 249 279 249c40 0 75 -11 111 -28l-15 -63c-28 11 -51 20 -94 20c-99 0 -182 -68 -205 -184l-3 -15c-3 -16 -4 -26 -4 -45c0 -84 49 -137 128 -137c46 0 85 9 130 28l-14 -70c-42 -19 -84 -29 -124 -29z "/>
    <glyph glyph-name="cacute" unicode="ć" horiz-adv-x="438" d="M250 592l164 135h95l-175 -135h-84zM237 -12c-124 0 -197 89 -197 202c0 13 1 30 4 48l4 24c24 145 147 249 279 249c40 0 75 -11 111 -28l-15 -63c-28 11 -51 20 -94 20c-99 0 -182 -68 -205 -184l-3 -15c-3 -16 -4 -26 -4 -45c0 -84 49 -137 128 -137c46 0 85 9 130 28 l-14 -70c-42 -19 -84 -29 -124 -29z"/>
    <glyph glyph-name="ccaron" unicode="č" horiz-adv-x="438" d="M284 593l-82 140h68l54 -90l96 90h70l-139 -140h-67zM237 -12c-124 0 -197 89 -197 202c0 13 1 30 4 48l4 24c24 145 147 249 279 249c40 0 75 -11 111 -28l-15 -63c-28 11 -51 20 -94 20c-99 0 -182 -68 -205 -184l-3 -15c-3 -16 -4 -26 -4 -45c0 -84 49 -137 128 -137 c46 0 85 9 130 28l-14 -70c-42 -19 -84 -29 -124 -29z"/>
    <glyph glyph-name="ccedilla" unicode="ç" horiz-adv-x="438" d="M124 256l-3 -15c-3 -16 -4 -26 -4 -45c0 -84 49 -137 128 -137c46 0 85 9 130 28l-14 -70c-35 -16 -70 -25 -104 -28c4 -12 7 -26 7 -40c0 -66 -56 -119 -130 -119c-24 0 -50 6 -73 19l9 49c17 -7 34 -10 49 -10c54 0 83 31 83 76c0 9 -1 18 -4 27 c-100 17 -158 99 -158 199c0 13 1 30 4 48l4 24c24 145 147 249 279 249c40 0 75 -11 111 -28l-15 -63c-28 11 -51 20 -94 20c-99 0 -182 -68 -205 -184z"/>
    <glyph glyph-name="cdotaccent" unicode="ċ" horiz-adv-x="438" d="M324 596c-28 0 -47 20 -47 48c0 40 27 63 58 63c29 0 48 -18 48 -47c0 -38 -27 -64 -59 -64zM237 -12c-124 0 -197 89 -197 202c0 13 1 30 4 48l4 24c24 145 147 249 279 249c40 0 75 -11 111 -28l-15 -63c-28 11 -51 20 -94 20c-99 0 -182 -68 -205 -184l-3 -15 c-3 -16 -4 -26 -4 -45c0 -84 49 -137 128 -137c46 0 85 9 130 28l-14 -70c-42 -19 -84 -29 -124 -29z"/>
    <glyph glyph-name="d" unicode="d" horiz-adv-x="531" d="M477 701h76l-137 -701h-59l1 53c-48 -35 -103 -63 -159 -63c-105 0 -162 81 -162 187c0 17 1 31 4 47l6 31c34 174 169 246 307 246h84zM366 131l58 299h-79c-118 0 -201 -62 -227 -192l-3 -15c-3 -16 -4 -26 -4 -45c0 -68 29 -116 99 -116c54 0 98 23 156 69z"/>
    <glyph glyph-name="eth" unicode="ð" horiz-adv-x="540" d="M600 681l-12 -64l-108 -27c19 -56 31 -119 31 -183c0 -29 -3 -70 -10 -104l-7 -35c-35 -177 -145 -280 -272 -280c-120 0 -183 78 -183 187c0 13 1 30 4 49l5 32c21 136 131 232 272 232c45 0 83 -12 112 -29c-3 40 -10 78 -21 113l-148 -37l12 64l117 29 c-12 28 -25 52 -39 73h71c12 -16 23 -35 33 -56zM419 272l5 27c5 29 8 56 9 85c-30 20 -76 33 -120 33c-108 0 -173 -65 -192 -169l-4 -22c-3 -17 -5 -32 -5 -48c0 -74 39 -117 112 -117c94 0 168 67 195 211z"/>
    <glyph glyph-name="e" unicode="e" horiz-adv-x="493" d="M267 216l-153 -11c-1 -6 -1 -13 -1 -21c0 -78 39 -125 121 -125c51 0 95 9 141 25l-14 -70c-42 -16 -85 -26 -132 -26c-124 0 -189 73 -189 193c0 21 1 38 4 55l5 28c27 152 146 247 268 247c104 0 151 -63 151 -133c0 -101 -77 -153 -201 -162zM315 442 c-86 0 -161 -59 -190 -173l142 11c76 6 127 35 127 94c0 39 -27 68 -79 68z"/>
    <glyph glyph-name="eacute" unicode="é" horiz-adv-x="493" d="M523 727l-175 -135h-84l164 135h95zM317 511c104 0 151 -63 151 -133c0 -101 -77 -153 -201 -162l-153 -11c-1 -6 -1 -13 -1 -21c0 -78 39 -125 121 -125c51 0 95 9 141 25l-14 -70c-42 -16 -85 -26 -132 -26c-124 0 -189 73 -189 193c0 21 1 38 4 55l5 28 c27 152 146 247 268 247zM267 280c76 6 127 35 127 94c0 39 -27 68 -79 68c-86 0 -161 -59 -190 -173z"/>
    <glyph glyph-name="ecaron" unicode="ě" horiz-adv-x="493" d="M365 593h-67l-82 140h68l54 -90l96 90h70zM317 511c104 0 151 -63 151 -133c0 -101 -77 -153 -201 -162l-153 -11c-1 -6 -1 -13 -1 -21c0 -78 39 -125 121 -125c51 0 95 9 141 25l-14 -70c-42 -16 -85 -26 -132 -26c-124 0 -189 73 -189 193c0 21 1 38 4 55l5 28 c27 152 146 247 268 247zM267 280c76 6 127 35 127 94c0 39 -27 68 -79 68c-86 0 -161 -59 -190 -173z"/>
    <glyph glyph-name="ecircumflex" unicode="ê" horiz-adv-x="493" d="M352 683l-96 -90h-70l139 140h67l82 -140h-68zM317 511c104 0 151 -63 151 -133c0 -101 -77 -153 -201 -162l-153 -11c-1 -6 -1 -13 -1 -21c0 -78 39 -125 121 -125c51 0 95 9 141 25l-14 -70c-42 -16 -85 -26 -132 -26c-124 0 -189 73 -189 193c0 21 1 38 4 55l5 28 c27 152 146 247 268 247zM267 280c76 6 127 35 127 94c0 39 -27 68 -79 68c-86 0 -161 -59 -190 -173z"/>
    <glyph glyph-name="edieresis" unicode="ë" horiz-adv-x="493" d="M252 605c-28 0 -44 18 -44 44c0 36 22 59 53 59c26 0 44 -17 44 -44c0 -35 -25 -59 -53 -59zM421 605c-27 0 -44 18 -44 44c0 36 23 59 53 59c27 0 44 -17 44 -44c0 -35 -24 -59 -53 -59zM317 511c104 0 151 -63 151 -133c0 -101 -77 -153 -201 -162l-153 -11 c-1 -6 -1 -13 -1 -21c0 -78 39 -125 121 -125c51 0 95 9 141 25l-14 -70c-42 -16 -85 -26 -132 -26c-124 0 -189 73 -189 193c0 21 1 38 4 55l5 28c27 152 146 247 268 247zM267 280c76 6 127 35 127 94c0 39 -27 68 -79 68c-86 0 -161 -59 -190 -173z"/>
    <glyph glyph-name="edotaccent" unicode="ė" horiz-adv-x="493" d="M338 596c-28 0 -47 20 -47 48c0 40 27 63 58 63c29 0 48 -18 48 -47c0 -38 -27 -64 -59 -64zM267 216l-153 -11c-1 -6 -1 -13 -1 -21c0 -78 39 -125 121 -125c51 0 95 9 141 25l-14 -70c-42 -16 -85 -26 -132 -26c-124 0 -189 73 -189 193c0 21 1 38 4 55l5 28 c27 152 146 247 268 247c104 0 151 -63 151 -133c0 -101 -77 -153 -201 -162zM315 442c-86 0 -161 -59 -190 -173l142 11c76 6 127 35 127 94c0 39 -27 68 -79 68z"/>
    <glyph glyph-name="egrave" unicode="è" horiz-adv-x="493" d="M396 592h-76l-121 135h87zM267 216l-153 -11c-1 -6 -1 -13 -1 -21c0 -78 39 -125 121 -125c51 0 95 9 141 25l-14 -70c-42 -16 -85 -26 -132 -26c-124 0 -189 73 -189 193c0 21 1 38 4 55l5 28c27 152 146 247 268 247c104 0 151 -63 151 -133c0 -101 -77 -153 -201 -162 zM315 442c-86 0 -161 -59 -190 -173l142 11c76 6 127 35 127 94c0 39 -27 68 -79 68z"/>
    <glyph glyph-name="emacron" unicode="ē" horiz-adv-x="493" d="M475 691l-13 -66h-250l13 66h250zM317 511c104 0 151 -63 151 -133c0 -101 -77 -153 -201 -162l-153 -11c-1 -6 -1 -13 -1 -21c0 -78 39 -125 121 -125c51 0 95 9 141 25l-14 -70c-42 -16 -85 -26 -132 -26c-124 0 -189 73 -189 193c0 21 1 38 4 55l5 28 c27 152 146 247 268 247zM267 280c76 6 127 35 127 94c0 39 -27 68 -79 68c-86 0 -161 -59 -190 -173z"/>
    <glyph glyph-name="f" unicode="f" horiz-adv-x="380" d="M18 0l100 513c26 134 111 198 213 198c38 0 74 -10 104 -24l-16 -63c-24 8 -46 15 -87 15c-69 0 -122 -33 -139 -127l-2 -11h198l-14 -71h-197l-84 -430h-76z"/>
    <glyph glyph-name="g" unicode="g" horiz-adv-x="527" d="M507 501l-94 -489c-27 -139 -119 -218 -266 -218c-52 0 -101 11 -147 32l13 64c38 -15 87 -24 135 -24c105 0 170 48 192 161l6 33c-45 -31 -95 -53 -146 -53c-103 0 -165 76 -165 179c0 15 1 33 5 54l6 31c34 175 171 230 309 230h152zM362 141l56 289h-73 c-115 0 -203 -45 -227 -175l-3 -16c-3 -16 -5 -33 -5 -48c0 -66 31 -113 100 -113c55 0 96 21 152 63z"/>
    <glyph glyph-name="gdotaccent" unicode="ġ" horiz-adv-x="527" d="M357 596c-28 0 -47 20 -47 48c0 40 27 63 58 63c29 0 48 -18 48 -47c0 -38 -27 -64 -59 -64zM507 501l-94 -489c-27 -139 -119 -218 -266 -218c-52 0 -101 11 -147 32l13 64c38 -15 87 -24 135 -24c105 0 170 48 192 161l6 33c-45 -31 -95 -53 -146 -53 c-103 0 -165 76 -165 179c0 15 1 33 5 54l6 31c34 175 171 230 309 230h152zM362 141l56 289h-73c-115 0 -203 -45 -227 -175l-3 -16c-3 -16 -5 -33 -5 -48c0 -66 31 -113 100 -113c55 0 96 21 152 63z"/>
    <glyph glyph-name="h" unicode="h" horiz-adv-x="536" d="M299 511c118 0 184 -72 184 -182c0 -21 -2 -38 -6 -59l-53 -270h-76l50 256c4 21 7 39 7 60c0 72 -35 123 -115 123c-40 0 -82 -5 -113 -12l-83 -427h-76l136 701h76l-39 -202c34 7 71 12 108 12z"/>
    <glyph glyph-name="i" unicode="i" horiz-adv-x="215" d="M177 595c-29 0 -48 20 -48 49c0 40 26 64 59 64c29 0 48 -20 48 -49c0 -40 -26 -64 -59 -64zM21 0l97 501h77l-98 -501h-76z"/>
    <glyph glyph-name="dotlessi" unicode="ı" horiz-adv-x="215" d="M21 0l97 501h77l-98 -501h-76z"/>
    <glyph glyph-name="iacute" unicode="í" horiz-adv-x="215" d="M100 592l164 135h95l-175 -135h-84zM21 0l97 501h77l-98 -501h-76z"/>
    <glyph glyph-name="icircumflex" unicode="î" horiz-adv-x="215" d="M22 593l139 140h67l82 -140h-68l-54 90l-96 -90h-70zM21 0l97 501h77l-98 -501h-76z"/>
    <glyph glyph-name="idieresis" unicode="ï" horiz-adv-x="215" d="M88 605c-28 0 -44 18 -44 44c0 36 22 59 53 59c26 0 44 -17 44 -44c0 -35 -25 -59 -53 -59zM257 605c-27 0 -44 18 -44 44c0 36 23 59 53 59c27 0 44 -17 44 -44c0 -35 -24 -59 -53 -59zM21 0l97 501h77l-98 -501h-76z"/>
    <glyph glyph-name="i.loclTRK" horiz-adv-x="215" d="M174 596c-28 0 -47 20 -47 48c0 40 27 63 58 63c29 0 48 -18 48 -47c0 -38 -27 -64 -59 -64zM21 0l97 501h77l-98 -501h-76z"/>
    <glyph glyph-name="igrave" unicode="ì" horiz-adv-x="215" d="M156 592l-121 135h87l110 -135h-76zM21 0l97 501h77l-98 -501h-76z"/>
    <glyph glyph-name="ij" unicode="ĳ" horiz-adv-x="430" d="M177 595c-29 0 -48 20 -48 49c0 40 26 64 59 64c29 0 48 -20 48 -49c0 -40 -26 -64 -59 -64zM392 595c-29 0 -48 20 -48 49c0 40 26 64 59 64c29 0 48 -20 48 -49c0 -40 -26 -64 -59 -64zM21 0l97 501h77l-98 -501h-76zM128 -206c-34 0 -68 11 -88 22l12 61 c17 -7 41 -11 67 -11c60 0 99 40 112 107l102 528h77l-102 -525c-22 -114 -92 -182 -180 -182z"/>
    <glyph glyph-name="imacron" unicode="ī" horiz-adv-x="215" d="M61 691h250l-13 -66h-250zM21 0l97 501h77l-98 -501h-76z"/>
    <glyph glyph-name="j" unicode="j" horiz-adv-x="215" d="M177 595c-29 0 -48 20 -48 49c0 40 26 64 59 64c29 0 48 -20 48 -49c0 -40 -26 -64 -59 -64zM-87 -206c-34 0 -68 11 -88 22l12 61c17 -7 41 -11 67 -11c60 0 99 40 112 107l102 528h77l-102 -525c-22 -114 -92 -182 -180 -182z"/>
    <glyph glyph-name="k" unicode="k" horiz-adv-x="475" d="M495 501l-281 -235l200 -266h-92l-181 246l-48 -246h-75l136 701h75l-80 -411l250 211h96z"/>
    <glyph glyph-name="l" unicode="l" horiz-adv-x="211" d="M18 0l136 701h76l-136 -701h-76z"/>
    <glyph glyph-name="m" unicode="m" horiz-adv-x="802" d="M585 511c108 0 166 -63 166 -169c0 -21 -2 -41 -7 -67l-54 -275h-76l51 261c5 25 9 54 9 75c0 65 -28 103 -98 103c-52 0 -99 -16 -131 -28c8 -23 12 -48 12 -77c0 -17 -2 -43 -6 -63l-53 -271h-76l51 261c5 26 8 51 8 73c0 64 -26 105 -93 105c-36 0 -79 -5 -111 -12 l-83 -427h-76l95 487c62 15 127 24 183 24c47 0 86 -16 114 -44c58 24 121 44 175 44z"/>
    <glyph glyph-name="n" unicode="n" horiz-adv-x="536" d="M18 0l95 488c59 14 120 23 186 23c118 0 184 -72 184 -182c0 -21 -2 -38 -6 -59l-53 -270h-76l50 256c4 21 7 39 7 60c0 72 -35 123 -115 123c-40 0 -82 -5 -113 -12l-83 -427h-76z"/>
    <glyph glyph-name="nacute" unicode="ń" horiz-adv-x="536" d="M248 592l164 135h95l-175 -135h-84zM18 0l95 488c59 14 120 23 186 23c118 0 184 -72 184 -182c0 -21 -2 -38 -6 -59l-53 -270h-76l50 256c4 21 7 39 7 60c0 72 -35 123 -115 123c-40 0 -82 -5 -113 -12l-83 -427h-76z"/>
    <glyph glyph-name="ncaron" unicode="ň" horiz-adv-x="536" d="M282 593l-82 140h68l54 -90l96 90h70l-139 -140h-67zM18 0l95 488c59 14 120 23 186 23c118 0 184 -72 184 -182c0 -21 -2 -38 -6 -59l-53 -270h-76l50 256c4 21 7 39 7 60c0 72 -35 123 -115 123c-40 0 -82 -5 -113 -12l-83 -427h-76z"/>
    <glyph glyph-name="ntilde" unicode="ñ" horiz-adv-x="536" d="M387 602c-33 0 -53 17 -73 31c-16 11 -31 24 -49 24c-25 0 -44 -20 -50 -45h-61c13 74 57 108 113 108c28 0 49 -17 70 -31c17 -11 34 -24 53 -24c21 0 41 16 49 45h61c-11 -64 -58 -108 -113 -108zM18 0l95 488c59 14 120 23 186 23c118 0 184 -72 184 -182 c0 -21 -2 -38 -6 -59l-53 -270h-76l50 256c4 21 7 39 7 60c0 72 -35 123 -115 123c-40 0 -82 -5 -113 -12l-83 -427h-76z"/>
    <glyph glyph-name="o" unicode="o" horiz-adv-x="538" d="M230 -12c-118 0 -190 86 -190 204c0 18 1 33 4 48l7 35c27 135 126 236 256 236c118 0 190 -86 190 -204c0 -18 -1 -33 -4 -48l-7 -35c-27 -135 -126 -236 -256 -236zM233 59c91 0 161 71 182 183l3 16c3 16 4 32 4 44c0 78 -39 138 -118 138c-91 0 -161 -71 -182 -183 l-3 -16c-3 -16 -4 -32 -4 -44c0 -78 39 -138 118 -138z"/>
    <glyph glyph-name="oacute" unicode="ó" horiz-adv-x="538" d="M258 592l164 135h95l-175 -135h-84zM230 -12c-118 0 -190 86 -190 204c0 18 1 33 4 48l7 35c27 135 126 236 256 236c118 0 190 -86 190 -204c0 -18 -1 -33 -4 -48l-7 -35c-27 -135 -126 -236 -256 -236zM233 59c91 0 161 71 182 183l3 16c3 16 4 32 4 44 c0 78 -39 138 -118 138c-91 0 -161 -71 -182 -183l-3 -16c-3 -16 -4 -32 -4 -44c0 -78 39 -138 118 -138z"/>
    <glyph glyph-name="ocircumflex" unicode="ô" horiz-adv-x="538" d="M180 593l139 140h67l82 -140h-68l-54 90l-96 -90h-70zM230 -12c-118 0 -190 86 -190 204c0 18 1 33 4 48l7 35c27 135 126 236 256 236c118 0 190 -86 190 -204c0 -18 -1 -33 -4 -48l-7 -35c-27 -135 -126 -236 -256 -236zM233 59c91 0 161 71 182 183l3 16 c3 16 4 32 4 44c0 78 -39 138 -118 138c-91 0 -161 -71 -182 -183l-3 -16c-3 -16 -4 -32 -4 -44c0 -78 39 -138 118 -138z"/>
    <glyph glyph-name="odieresis" unicode="ö" horiz-adv-x="538" d="M246 605c-28 0 -44 18 -44 44c0 36 22 59 53 59c26 0 44 -17 44 -44c0 -35 -25 -59 -53 -59zM415 605c-27 0 -44 18 -44 44c0 36 23 59 53 59c27 0 44 -17 44 -44c0 -35 -24 -59 -53 -59zM230 -12c-118 0 -190 86 -190 204c0 18 1 33 4 48l7 35c27 135 126 236 256 236 c118 0 190 -86 190 -204c0 -18 -1 -33 -4 -48l-7 -35c-27 -135 -126 -236 -256 -236zM233 59c91 0 161 71 182 183l3 16c3 16 4 32 4 44c0 78 -39 138 -118 138c-91 0 -161 -71 -182 -183l-3 -16c-3 -16 -4 -32 -4 -44c0 -78 39 -138 118 -138z"/>
    <glyph glyph-name="ograve" unicode="ò" horiz-adv-x="538" d="M314 592l-121 135h87l110 -135h-76zM230 -12c-118 0 -190 86 -190 204c0 18 1 33 4 48l7 35c27 135 126 236 256 236c118 0 190 -86 190 -204c0 -18 -1 -33 -4 -48l-7 -35c-27 -135 -126 -236 -256 -236zM233 59c91 0 161 71 182 183l3 16c3 16 4 32 4 44 c0 78 -39 138 -118 138c-91 0 -161 -71 -182 -183l-3 -16c-3 -16 -4 -32 -4 -44c0 -78 39 -138 118 -138z"/>
    <glyph glyph-name="omacron" unicode="ō" horiz-adv-x="538" d="M219 691h250l-13 -66h-250zM230 -12c-118 0 -190 86 -190 204c0 18 1 33 4 48l7 35c27 135 126 236 256 236c118 0 190 -86 190 -204c0 -18 -1 -33 -4 -48l-7 -35c-27 -135 -126 -236 -256 -236zM233 59c91 0 161 71 182 183l3 16c3 16 4 32 4 44c0 78 -39 138 -118 138 c-91 0 -161 -71 -182 -183l-3 -16c-3 -16 -4 -32 -4 -44c0 -78 39 -138 118 -138z"/>
    <glyph glyph-name="oslash" unicode="ø" horiz-adv-x="538" d="M576 544l-109 -120c20 -32 30 -72 30 -117c0 -18 -1 -33 -4 -48l-7 -35c-27 -135 -126 -236 -256 -236c-49 0 -90 15 -121 41l-69 -76h-79l109 120c-19 33 -30 74 -30 119c0 18 1 33 4 48l7 35c27 135 126 236 256 236c50 0 91 -15 122 -42l68 75h79zM115 197 c0 -23 3 -44 10 -63l254 280c-19 17 -44 26 -75 26c-91 0 -161 -71 -182 -183l-3 -16c-3 -16 -4 -32 -4 -44zM422 302c0 22 -3 43 -10 62l-253 -280c18 -16 43 -25 74 -25c91 0 161 71 182 183l3 16c3 16 4 32 4 44z"/>
    <glyph glyph-name="otilde" unicode="õ" horiz-adv-x="538" d="M397 602c-33 0 -53 17 -73 31c-16 11 -31 24 -49 24c-25 0 -44 -20 -50 -45h-61c13 74 57 108 113 108c28 0 49 -17 70 -31c17 -11 34 -24 53 -24c21 0 41 16 49 45h61c-11 -64 -58 -108 -113 -108zM230 -12c-118 0 -190 86 -190 204c0 18 1 33 4 48l7 35 c27 135 126 236 256 236c118 0 190 -86 190 -204c0 -18 -1 -33 -4 -48l-7 -35c-27 -135 -126 -236 -256 -236zM233 59c91 0 161 71 182 183l3 16c3 16 4 32 4 44c0 78 -39 138 -118 138c-91 0 -161 -71 -182 -183l-3 -16c-3 -16 -4 -32 -4 -44c0 -78 39 -138 118 -138z"/>
    <glyph glyph-name="oe" unicode="œ" horiz-adv-x="863" d="M637 216l-153 -11c-1 -6 -1 -13 -1 -21c0 -78 39 -125 121 -125c51 0 95 9 141 25l-14 -70c-42 -16 -85 -26 -132 -26c-91 0 -150 39 -175 107c-44 -66 -110 -107 -194 -107c-118 0 -190 86 -190 204c0 18 1 33 4 48l7 35c27 135 126 236 256 236c86 0 141 -46 165 -117 c52 74 133 117 215 117c104 0 151 -63 151 -133c0 -102 -77 -153 -201 -162zM685 442c-87 0 -161 -59 -190 -173l142 11c76 6 127 34 127 94c0 39 -27 68 -79 68zM233 59c91 0 161 71 182 183l2 8l2 14v1c2 14 3 27 3 37c0 78 -39 138 -118 138c-91 0 -161 -71 -182 -183 l-3 -16c-3 -16 -4 -32 -4 -44c0 -78 39 -138 118 -138z"/>
    <glyph glyph-name="p" unicode="p" horiz-adv-x="536" d="M334 511c106 0 163 -87 163 -188c0 -13 -1 -28 -4 -46l-5 -30c-28 -167 -171 -247 -309 -247h-85l-38 -196h-76l135 697h67l-4 -49c47 33 100 59 156 59zM418 280c2 15 3 27 3 40c0 67 -27 119 -97 119c-56 0 -98 -22 -157 -65l-59 -303h81c116 0 211 73 227 194z"/>
    <glyph glyph-name="thorn" unicode="þ" horiz-adv-x="536" d="M334 511c106 0 163 -87 163 -188c0 -13 -1 -28 -4 -46l-5 -30c-28 -167 -171 -247 -309 -247h-85l-38 -196h-76l174 897h76l-48 -246c47 32 98 56 152 56zM418 280c2 15 3 27 3 40c0 67 -27 119 -97 119c-56 0 -98 -22 -158 -66l-58 -302h81c116 0 211 73 227 194z"/>
    <glyph glyph-name="q" unicode="q" horiz-adv-x="533" d="M514 501l-136 -697h-76l47 243c-45 -32 -97 -57 -150 -57c-105 0 -162 81 -162 187c0 17 1 31 4 47l6 31c34 174 169 246 307 246h160zM210 62c54 0 98 23 156 69l58 299h-79c-118 0 -201 -62 -227 -192l-3 -15c-3 -16 -4 -26 -4 -45c0 -68 29 -116 99 -116z"/>
    <glyph glyph-name="r" unicode="r" horiz-adv-x="357" d="M18 0l94 482c63 16 132 27 188 27c22 0 53 -2 69 -5l-13 -74c-21 3 -47 5 -70 5c-34 0 -77 -7 -110 -14l-82 -421h-76z"/>
    <glyph glyph-name="racute" unicode="ŕ" horiz-adv-x="357" d="M190 592l164 135h95l-175 -135h-84zM18 0l94 482c63 16 132 27 188 27c22 0 53 -2 69 -5l-13 -74c-21 3 -47 5 -70 5c-34 0 -77 -7 -110 -14l-82 -421h-76z"/>
    <glyph glyph-name="rcaron" unicode="ř" horiz-adv-x="357" d="M224 593l-82 140h68l54 -90l96 90h70l-139 -140h-67zM18 0l94 482c63 16 132 27 188 27c22 0 53 -2 69 -5l-13 -74c-21 3 -47 5 -70 5c-34 0 -77 -7 -110 -14l-82 -421h-76z"/>
    <glyph glyph-name="s" unicode="s" horiz-adv-x="452" d="M178 -12c-63 0 -124 20 -164 42l13 64c45 -20 98 -35 152 -35c68 0 124 20 124 78c0 38 -31 63 -89 85c-78 29 -133 66 -133 136c0 97 78 153 182 153c63 0 107 -15 151 -35l-13 -64c-44 18 -89 28 -134 28c-69 0 -112 -26 -112 -73c0 -33 20 -51 91 -81 c78 -33 134 -69 134 -143c0 -104 -83 -155 -202 -155z"/>
    <glyph glyph-name="sacute" unicode="ś" horiz-adv-x="452" d="M215 592l164 135h95l-175 -135h-84zM178 -12c-63 0 -124 20 -164 42l13 64c45 -20 98 -35 152 -35c68 0 124 20 124 78c0 38 -31 63 -89 85c-78 29 -133 66 -133 136c0 97 78 153 182 153c63 0 107 -15 151 -35l-13 -64c-44 18 -89 28 -134 28c-69 0 -112 -26 -112 -73 c0 -33 20 -51 91 -81c78 -33 134 -69 134 -143c0 -104 -83 -155 -202 -155z"/>
    <glyph glyph-name="scaron" unicode="š" horiz-adv-x="452" d="M249 593l-82 140h68l54 -90l96 90h70l-139 -140h-67zM178 -12c-63 0 -124 20 -164 42l13 64c45 -20 98 -35 152 -35c68 0 124 20 124 78c0 38 -31 63 -89 85c-78 29 -133 66 -133 136c0 97 78 153 182 153c63 0 107 -15 151 -35l-13 -64c-44 18 -89 28 -134 28 c-69 0 -112 -26 -112 -73c0 -33 20 -51 91 -81c78 -33 134 -69 134 -143c0 -104 -83 -155 -202 -155z"/>
    <glyph glyph-name="germandbls" unicode="ß" horiz-adv-x="600" d="M336 -12c-67 0 -112 15 -152 37l12 59c39 -19 90 -27 132 -27c82 0 128 32 128 102c0 43 -36 66 -74 87c-46 26 -96 43 -96 109c0 115 153 143 153 228c0 36 -34 60 -85 60c-83 0 -150 -63 -170 -166l-93 -477h-75l94 481c30 155 134 231 250 231c92 0 154 -47 154 -118 c0 -129 -157 -145 -157 -229c0 -36 44 -52 85 -76c42 -24 89 -58 89 -127c0 -105 -88 -174 -195 -174z"/>
    <glyph glyph-name="t" unicode="t" horiz-adv-x="370" d="M179 430l-46 -236c-3 -15 -5 -32 -5 -45c0 -60 29 -90 81 -90c31 0 56 2 93 13l-13 -67c-36 -13 -66 -17 -96 -17c-88 0 -141 60 -141 156c0 19 2 38 6 59l85 436h77l-27 -138h186l-14 -71h-186z"/>
    <glyph glyph-name="u" unicode="u" horiz-adv-x="531" d="M232 -10c-117 0 -180 72 -180 181c0 19 3 39 7 60l52 270h76l-50 -256c-4 -21 -7 -39 -7 -60c0 -72 32 -123 111 -123c40 0 81 5 112 12l83 427h76l-95 -488c-59 -14 -119 -23 -185 -23z"/>
    <glyph glyph-name="uacute" unicode="ú" horiz-adv-x="531" d="M258 592l164 135h95l-175 -135h-84zM232 -10c-117 0 -180 72 -180 181c0 19 3 39 7 60l52 270h76l-50 -256c-4 -21 -7 -39 -7 -60c0 -72 32 -123 111 -123c40 0 81 5 112 12l83 427h76l-95 -488c-59 -14 -119 -23 -185 -23z"/>
    <glyph glyph-name="ucircumflex" unicode="û" horiz-adv-x="531" d="M180 593l139 140h67l82 -140h-68l-54 90l-96 -90h-70zM232 -10c-117 0 -180 72 -180 181c0 19 3 39 7 60l52 270h76l-50 -256c-4 -21 -7 -39 -7 -60c0 -72 32 -123 111 -123c40 0 81 5 112 12l83 427h76l-95 -488c-59 -14 -119 -23 -185 -23z"/>
    <glyph glyph-name="udieresis" unicode="ü" horiz-adv-x="531" d="M246 605c-28 0 -44 18 -44 44c0 36 22 59 53 59c26 0 44 -17 44 -44c0 -35 -25 -59 -53 -59zM415 605c-27 0 -44 18 -44 44c0 36 23 59 53 59c27 0 44 -17 44 -44c0 -35 -24 -59 -53 -59zM232 -10c-117 0 -180 72 -180 181c0 19 3 39 7 60l52 270h76l-50 -256 c-4 -21 -7 -39 -7 -60c0 -72 32 -123 111 -123c40 0 81 5 112 12l83 427h76l-95 -488c-59 -14 -119 -23 -185 -23z"/>
    <glyph glyph-name="ugrave" unicode="ù" horiz-adv-x="531" d="M314 592l-121 135h87l110 -135h-76zM232 -10c-117 0 -180 72 -180 181c0 19 3 39 7 60l52 270h76l-50 -256c-4 -21 -7 -39 -7 -60c0 -72 32 -123 111 -123c40 0 81 5 112 12l83 427h76l-95 -488c-59 -14 -119 -23 -185 -23z"/>
    <glyph glyph-name="umacron" unicode="ū" horiz-adv-x="531" d="M219 691h250l-13 -66h-250zM232 -10c-117 0 -180 72 -180 181c0 19 3 39 7 60l52 270h76l-50 -256c-4 -21 -7 -39 -7 -60c0 -72 32 -123 111 -123c40 0 81 5 112 12l83 427h76l-95 -488c-59 -14 -119 -23 -185 -23z"/>
    <glyph glyph-name="uring" unicode="ů" horiz-adv-x="531" d="M344 584c-56 0 -104 44 -104 103c0 58 50 102 104 102c56 0 103 -44 103 -102c0 -59 -48 -103 -103 -103zM344 633c30 0 51 21 51 54c0 32 -22 53 -51 53c-31 0 -52 -21 -52 -53c0 -33 22 -54 52 -54zM232 -10c-117 0 -180 72 -180 181c0 19 3 39 7 60l52 270h76 l-50 -256c-4 -21 -7 -39 -7 -60c0 -72 32 -123 111 -123c40 0 81 5 112 12l83 427h76l-95 -488c-59 -14 -119 -23 -185 -23z"/>
    <glyph glyph-name="v" unicode="v" horiz-adv-x="492" d="M438 501h88l-292 -501h-75l-96 501h84l65 -406z"/>
    <glyph glyph-name="w" unicode="w" horiz-adv-x="721" d="M131 0l-53 501h82l27 -395l179 382h78l31 -382l180 395h84l-246 -501h-76l-34 382l-176 -382h-76z"/>
    <glyph glyph-name="wacute" unicode="ẃ" horiz-adv-x="721" d="M347 592l164 135h95l-175 -135h-84zM131 0l-53 501h82l27 -395l179 382h78l31 -382l180 395h84l-246 -501h-76l-34 382l-176 -382h-76z"/>
    <glyph glyph-name="wcircumflex" unicode="ŵ" horiz-adv-x="721" d="M269 593l139 140h67l82 -140h-68l-54 90l-96 -90h-70zM131 0l-53 501h82l27 -395l179 382h78l31 -382l180 395h84l-246 -501h-76l-34 382l-176 -382h-76z"/>
    <glyph glyph-name="wdieresis" unicode="ẅ" horiz-adv-x="721" d="M335 605c-28 0 -44 18 -44 44c0 36 22 59 53 59c26 0 44 -17 44 -44c0 -35 -25 -59 -53 -59zM504 605c-27 0 -44 18 -44 44c0 36 23 59 53 59c27 0 44 -17 44 -44c0 -35 -24 -59 -53 -59zM131 0l-53 501h82l27 -395l179 382h78l31 -382l180 395h84l-246 -501h-76l-34 382 l-176 -382h-76z"/>
    <glyph glyph-name="wgrave" unicode="ẁ" horiz-adv-x="721" d="M403 592l-121 135h87l110 -135h-76zM131 0l-53 501h82l27 -395l179 382h78l31 -382l180 395h84l-246 -501h-76l-34 382l-176 -382h-76z"/>
    <glyph glyph-name="x" unicode="x" horiz-adv-x="504" d="M512 501l-216 -240l141 -261h-88l-108 210l-189 -210h-88l243 273l-124 228h87l91 -179l164 179h87z"/>
    <glyph glyph-name="y" unicode="y" horiz-adv-x="498" d="M30 -206c-28 0 -54 9 -71 19l13 62c20 -8 33 -9 55 -9c50 0 83 43 119 101l25 41l-105 493h84l76 -404l214 404h89l-309 -548c-62 -109 -114 -159 -190 -159z"/>
    <glyph glyph-name="yacute" unicode="ý" horiz-adv-x="498" d="M234 592l164 135h95l-175 -135h-84zM30 -206c-28 0 -54 9 -71 19l13 62c20 -8 33 -9 55 -9c50 0 83 43 119 101l25 41l-105 493h84l76 -404l214 404h89l-309 -548c-62 -109 -114 -159 -190 -159z"/>
    <glyph glyph-name="ycircumflex" unicode="ŷ" horiz-adv-x="498" d="M156 593l139 140h67l82 -140h-68l-54 90l-96 -90h-70zM30 -206c-28 0 -54 9 -71 19l13 62c20 -8 33 -9 55 -9c50 0 83 43 119 101l25 41l-105 493h84l76 -404l214 404h89l-309 -548c-62 -109 -114 -159 -190 -159z"/>
    <glyph glyph-name="ydieresis" unicode="ÿ" horiz-adv-x="498" d="M222 605c-28 0 -44 18 -44 44c0 36 22 59 53 59c26 0 44 -17 44 -44c0 -35 -25 -59 -53 -59zM391 605c-27 0 -44 18 -44 44c0 36 23 59 53 59c27 0 44 -17 44 -44c0 -35 -24 -59 -53 -59zM30 -206c-28 0 -54 9 -71 19l13 62c20 -8 33 -9 55 -9c50 0 83 43 119 101l25 41 l-105 493h84l76 -404l214 404h89l-309 -548c-62 -109 -114 -159 -190 -159z"/>
    <glyph glyph-name="ygrave" unicode="ỳ" horiz-adv-x="498" d="M290 592l-121 135h87l110 -135h-76zM30 -206c-28 0 -54 9 -71 19l13 62c20 -8 33 -9 55 -9c50 0 83 43 119 101l25 41l-105 493h84l76 -404l214 404h89l-309 -548c-62 -109 -114 -159 -190 -159z"/>
    <glyph glyph-name="z" unicode="z" horiz-adv-x="442" d="M-8 0l12 67l342 363h-262l14 71h350l-12 -67l-339 -363h276l-13 -71h-368z"/>
    <glyph glyph-name="zacute" unicode="ź" horiz-adv-x="442" d="M217 592l164 135h95l-175 -135h-84zM-8 0l12 67l342 363h-262l14 71h350l-12 -67l-339 -363h276l-13 -71h-368z"/>
    <glyph glyph-name="zcaron" unicode="ž" horiz-adv-x="442" d="M251 593l-82 140h68l54 -90l96 90h70l-139 -140h-67zM-8 0l12 67l342 363h-262l14 71h350l-12 -67l-339 -363h276l-13 -71h-368z"/>
    <glyph glyph-name="zdotaccent" unicode="ż" horiz-adv-x="442" d="M291 596c-28 0 -47 20 -47 48c0 40 27 63 58 63c29 0 48 -18 48 -47c0 -38 -27 -64 -59 -64zM-8 0l12 67l342 363h-262l14 71h350l-12 -67l-339 -363h276l-13 -71h-368z"/>
    <glyph glyph-name="ordfeminine" unicode="ª" horiz-adv-x="427" d="M459 712l-71 -361h-59v39c-37 -28 -77 -47 -116 -47c-79 0 -125 60 -125 139c0 18 1 24 3 34l4 19c25 120 125 177 231 177h133zM160 488c0 -48 26 -76 68 -76c37 0 69 15 108 45l37 189h-51c-79 0 -142 -40 -157 -123l-2 -11c-2 -11 -3 -17 -3 -24z"/>
    <glyph glyph-name="ordmasculine" unicode="º" horiz-adv-x="437" d="M248 344c-92 0 -152 64 -152 147c0 17 1 24 3 35l4 21c19 98 94 174 195 174c93 0 153 -65 153 -148c0 -11 -1 -22 -3 -33l-4 -22c-18 -99 -95 -174 -196 -174zM252 410c65 0 112 50 124 120l2 12c1 7 1 14 1 24c0 52 -30 89 -84 89c-64 0 -113 -49 -124 -119l-2 -13 c-1 -6 -1 -15 -1 -24c0 -52 30 -89 84 -89z"/>
    <glyph glyph-name="zero" unicode="0" d="M239 -12c-118 0 -179 94 -179 219c0 20 3 67 11 106l8 39c39 190 151 324 289 324c118 0 180 -92 180 -217c0 -20 -3 -67 -12 -106l-9 -39c-44 -189 -149 -326 -288 -326zM247 64c97 0 173 104 203 258l6 31c7 37 14 71 14 105c0 90 -37 142 -110 142 c-95 0 -169 -104 -203 -256l-7 -31c-9 -40 -12 -74 -12 -105c0 -89 36 -144 109 -144z"/>
    <glyph glyph-name="one" unicode="1" horiz-adv-x="498" d="M290 72h142l-14 -72h-388l14 72h168l101 513l-191 -43l12 66l219 58h53z"/>
    <glyph glyph-name="two" unicode="2" horiz-adv-x="530" d="M310 230l-176 -158h296l-14 -72h-396l15 72l228 208c84 77 166 136 166 226c0 57 -44 94 -124 94c-70 0 -125 -17 -184 -37l13 72c54 24 119 41 186 41c121 0 186 -71 186 -162c0 -116 -90 -189 -196 -284z"/>
    <glyph glyph-name="three" unicode="3" horiz-adv-x="547" d="M368 348c63 -25 96 -77 96 -138c0 -136 -110 -222 -260 -222c-65 0 -136 19 -194 48l14 67c57 -25 115 -39 175 -39c114 0 188 51 188 144c0 56 -43 102 -124 102h-88l14 74h64c105 0 181 45 181 129c0 51 -39 87 -125 87c-70 0 -135 -16 -188 -35l13 72 c50 20 124 39 186 39c128 0 191 -69 191 -151c0 -87 -59 -149 -143 -177z"/>
    <glyph glyph-name="four" unicode="4" horiz-adv-x="562" d="M523 241l-14 -68h-99l-34 -173h-75l34 173h-303l14 67l-1 1l387 425h73l-82 -425h100zM126 241h222l61 311z"/>
    <glyph glyph-name="five" unicode="5" horiz-adv-x="539" d="M214 -11c-83 0 -151 29 -194 51l13 65c51 -22 107 -42 177 -42c119 0 189 55 189 148c0 69 -48 110 -134 110h-153l103 345h306l-14 -72h-244l-59 -203h77c125 0 195 -74 195 -174c0 -137 -105 -228 -262 -228z"/>
    <glyph glyph-name="six" unicode="6" horiz-adv-x="555" d="M396 604c-121 0 -206 -82 -241 -234c52 21 105 33 161 33c106 0 177 -73 177 -175c0 -132 -88 -239 -226 -239c-127 0 -205 94 -205 224c0 46 3 70 11 112l5 25c40 201 163 326 310 326c52 0 105 -15 143 -38l-13 -63c-35 18 -76 29 -122 29zM421 219 c0 70 -43 116 -119 116c-60 0 -108 -13 -160 -35c-6 -32 -8 -54 -8 -85c0 -96 53 -154 139 -154c94 0 148 70 148 158z"/>
    <glyph glyph-name="seven" unicode="7" horiz-adv-x="542" d="M102 0l357 593h-344l15 73h431l-11 -57l-361 -609h-87z"/>
    <glyph glyph-name="eight" unicode="8" horiz-adv-x="576" d="M433 351c54 -31 84 -84 84 -143c0 -137 -112 -219 -259 -219c-123 0 -207 75 -207 170c0 97 64 167 151 199c-44 28 -71 71 -71 121c0 120 110 197 237 197c128 0 194 -68 194 -148c0 -84 -53 -146 -129 -177zM362 607c-83 0 -159 -41 -159 -123c0 -53 38 -99 118 -99 c89 0 166 45 166 127c0 54 -37 95 -125 95zM267 60c98 0 176 49 176 141c0 63 -42 117 -132 117c-100 0 -183 -49 -183 -147c0 -62 40 -111 139 -111z"/>
    <glyph glyph-name="nine" unicode="9" horiz-adv-x="555" d="M322 677c127 0 199 -95 199 -225c0 -36 -3 -66 -11 -112l-4 -23c-35 -202 -164 -328 -311 -328c-52 0 -105 15 -143 38l13 63c35 -18 76 -29 122 -29c122 0 206 82 241 235c-52 -21 -105 -33 -161 -33c-106 0 -177 75 -177 177c0 132 96 237 232 237zM162 449 c0 -70 43 -117 119 -117c58 0 109 12 160 33c6 32 8 46 8 85c0 96 -47 153 -133 153c-92 0 -154 -66 -154 -154z"/>
    <glyph glyph-name="zero.tf" d="M233 -12c-118 0 -179 94 -179 219c0 20 3 67 11 106l8 39c39 190 151 324 289 324c118 0 180 -92 180 -217c0 -20 -3 -67 -12 -106l-9 -39c-44 -189 -149 -326 -288 -326zM241 64c97 0 173 104 203 258l6 31c7 37 14 71 14 105c0 90 -37 142 -110 142 c-95 0 -169 -104 -203 -256l-7 -31c-9 -40 -12 -74 -12 -105c0 -89 36 -144 109 -144z"/>
    <glyph glyph-name="one.tf" d="M319 72h142l-14 -72h-388l14 72h168l101 513l-191 -43l12 66l219 58h53z"/>
    <glyph glyph-name="two.tf" d="M326 230l-176 -158h296l-14 -72h-396l15 72l228 208c84 77 166 136 166 226c0 57 -44 94 -124 94c-70 0 -125 -17 -184 -37l13 72c54 24 119 41 186 41c121 0 186 -71 186 -162c0 -116 -90 -189 -196 -284z"/>
    <glyph glyph-name="three.tf" d="M376 348c63 -25 96 -77 96 -138c0 -136 -110 -222 -260 -222c-65 0 -136 19 -194 48l14 67c57 -25 115 -39 175 -39c114 0 188 51 188 144c0 56 -43 102 -124 102h-88l14 74h64c105 0 181 45 181 129c0 51 -39 87 -125 87c-70 0 -135 -16 -188 -35l13 72 c50 20 124 39 186 39c128 0 191 -69 191 -151c0 -87 -59 -149 -143 -177z"/>
    <glyph glyph-name="four.tf" d="M519 241l-14 -68h-99l-34 -173h-75l34 173h-303l14 67l-1 1l387 425h73l-82 -425h100zM122 241h222l61 311z"/>
    <glyph glyph-name="five.tf" d="M222 -11c-83 0 -151 29 -194 51l13 65c51 -22 107 -42 177 -42c119 0 189 55 189 148c0 69 -48 110 -134 110h-153l103 345h306l-14 -72h-244l-59 -203h77c125 0 195 -74 195 -174c0 -137 -105 -228 -262 -228z"/>
    <glyph glyph-name="six.tf" d="M396 604c-121 0 -206 -82 -241 -234c52 21 105 33 161 33c106 0 177 -73 177 -175c0 -132 -88 -239 -226 -239c-127 0 -205 94 -205 224c0 46 3 70 11 112l5 25c40 201 163 326 310 326c52 0 105 -15 143 -38l-13 -63c-35 18 -76 29 -122 29zM421 219 c0 70 -43 116 -119 116c-60 0 -108 -13 -160 -35c-6 -32 -8 -54 -8 -85c0 -96 53 -154 139 -154c94 0 148 70 148 158z"/>
    <glyph glyph-name="seven.tf" d="M105 0l357 593h-344l15 73h431l-11 -57l-361 -609h-87z"/>
    <glyph glyph-name="eight.tf" d="M422 351c54 -31 84 -84 84 -143c0 -137 -112 -219 -259 -219c-123 0 -207 75 -207 170c0 97 64 167 151 199c-44 28 -71 71 -71 121c0 120 110 197 237 197c128 0 194 -68 194 -148c0 -84 -53 -146 -129 -177zM351 607c-83 0 -159 -41 -159 -123c0 -53 38 -99 118 -99 c89 0 166 45 166 127c0 54 -37 95 -125 95zM256 60c98 0 176 49 176 141c0 63 -42 117 -132 117c-100 0 -183 -49 -183 -147c0 -62 40 -111 139 -111z"/>
    <glyph glyph-name="nine.tf" d="M324 677c127 0 199 -95 199 -225c0 -36 -3 -66 -11 -112l-4 -23c-35 -202 -164 -328 -311 -328c-52 0 -105 15 -143 38l13 63c35 -18 76 -29 122 -29c122 0 206 82 241 235c-52 -21 -105 -33 -161 -33c-106 0 -177 75 -177 177c0 132 96 237 232 237zM164 449 c0 -70 43 -117 119 -117c58 0 109 12 160 33c6 32 8 46 8 85c0 96 -47 153 -133 153c-92 0 -154 -66 -154 -154z"/>
    <glyph glyph-name="uni2070" unicode="⁰" horiz-adv-x="416" d="M224 288c-87 0 -137 61 -137 140c0 14 2 29 5 44l4 20c18 92 96 182 186 182c86 0 135 -61 135 -140c0 -13 -1 -27 -4 -43l-4 -21c-18 -93 -94 -182 -185 -182zM225 356c50 0 98 48 113 120l3 14c3 14 4 28 4 38c0 45 -21 78 -64 78c-52 0 -97 -48 -113 -122l-3 -14 c-3 -14 -4 -26 -4 -36c0 -45 20 -78 64 -78z"/>
    <glyph glyph-name="uni00B9" unicode="¹" horiz-adv-x="385" d="M276 359h88l-12 -64h-270l13 64h109l45 235l-121 -22l12 61l148 35h48z"/>
    <glyph glyph-name="uni00B2" unicode="²" horiz-adv-x="388" d="M264 419l-84 -61h170l-12 -63h-272l13 63l139 106c55 42 95 64 95 100c0 31 -21 42 -68 42c-42 0 -85 -8 -127 -22l13 66c37 14 81 24 126 24c86 0 131 -45 131 -100c0 -68 -65 -112 -124 -155z"/>
    <glyph glyph-name="uni00B3" unicode="³" horiz-adv-x="446" d="M347 493c34 -17 52 -47 52 -82c0 -74 -69 -123 -172 -123c-55 0 -102 14 -134 28l13 58c39 -14 74 -19 115 -19c66 0 105 22 105 58c0 23 -25 43 -77 43h-62l12 63h49c59 0 101 23 101 54c0 25 -26 35 -72 35c-42 0 -89 -7 -130 -20l13 63c40 14 85 23 128 23 c87 0 136 -39 136 -90c0 -44 -29 -75 -77 -91z"/>
    <glyph glyph-name="uni2074" unicode="⁴" horiz-adv-x="387" d="M395 442l-12 -62h-61l-16 -85h-69l17 85h-192l12 62l235 226h69l-44 -226h61zM149 442h117l28 139z"/>
    <glyph glyph-name="fraction" unicode="⁄" horiz-adv-x="608" d="M-27 0l604 666h90l-605 -666h-89z"/>
    <glyph glyph-name="onehalf" unicode="½" horiz-adv-x="987" d="M381 359l-12 -64h-270l13 64h109l45 235l-121 -22l12 61l148 35h48l-60 -309h88zM778 666h90l-605 -666h-89zM808 124l-84 -61h170l-12 -63h-272l13 63l139 106c55 42 95 64 95 100c0 31 -21 42 -68 42c-42 0 -85 -8 -127 -22l13 66c37 14 81 24 126 24 c86 0 131 -45 131 -100c0 -68 -65 -112 -124 -155z"/>
    <glyph glyph-name="onequarter" unicode="¼" horiz-adv-x="928" d="M381 359l-12 -64h-270l13 64h109l45 235l-121 -22l12 61l148 35h48l-60 -309h88zM784 666h90l-605 -666h-89zM834 375l-44 -226h61l-12 -62h-61l-16 -85h-69l17 85h-192l12 62l235 226h69zM605 149h117l28 139z"/>
    <glyph glyph-name="threequarters" unicode="¾" horiz-adv-x="895" d="M388 411c0 -74 -69 -123 -172 -123c-55 0 -102 14 -134 28l13 58c39 -14 74 -19 115 -19c66 0 105 22 105 58c0 23 -25 43 -77 43h-62l12 63h49c59 0 101 23 101 54c0 25 -26 35 -72 35c-42 0 -89 -7 -130 -20l13 63c40 14 85 23 128 23c87 0 136 -39 136 -90 c0 -44 -29 -75 -77 -91c34 -17 52 -47 52 -82zM750 666h90l-605 -666h-89zM801 375l-44 -226h61l-12 -62h-61l-16 -85h-69l17 85h-192l12 62l235 226h69zM572 149h117l28 139z"/>
    <glyph glyph-name="period" unicode="." horiz-adv-x="228" d="M71 -10c-30 0 -49 20 -49 50c0 37 28 65 61 65c30 0 49 -20 49 -49c0 -37 -28 -66 -61 -66z"/>
    <glyph glyph-name="comma" unicode="," horiz-adv-x="228" d="M-31 -96l100 193h79l-107 -193h-72z"/>
    <glyph glyph-name="colon" unicode=":" horiz-adv-x="228" d="M152 394c-30 0 -49 20 -49 50c0 37 28 65 61 65c30 0 49 -20 49 -49c0 -37 -28 -66 -61 -66zM74 -10c-30 0 -49 20 -49 50c0 37 28 65 61 65c30 0 49 -20 49 -49c0 -37 -28 -66 -61 -66z"/>
    <glyph glyph-name="semicolon" unicode=";" horiz-adv-x="228" d="M160 394c-30 0 -49 20 -49 50c0 37 28 65 61 65c30 0 49 -20 49 -49c0 -37 -28 -66 -61 -66zM-31 -96l100 193h79l-107 -193h-72z"/>
    <glyph glyph-name="ellipsis" unicode="…" horiz-adv-x="677" d="M71 -10c-30 0 -49 20 -49 50c0 37 28 65 61 65c30 0 49 -20 49 -49c0 -37 -28 -66 -61 -66zM295 -10c-30 0 -49 20 -49 50c0 37 28 65 61 65c30 0 49 -20 49 -49c0 -37 -28 -66 -61 -66zM520 -10c-30 0 -49 20 -49 50c0 37 28 65 61 65c30 0 49 -20 49 -49 c0 -37 -28 -66 -61 -66z"/>
    <glyph glyph-name="exclam" unicode="!" horiz-adv-x="269" d="M85 183l88 493h88l-106 -493h-70zM95 -10c-30 0 -49 20 -49 50c0 37 28 65 61 65c30 0 49 -20 49 -49c0 -37 -28 -66 -61 -66z"/>
    <glyph glyph-name="exclamdown" unicode="¡" horiz-adv-x="269" d="M182 511c30 0 49 -20 49 -50c0 -37 -28 -65 -61 -65c-30 0 -49 20 -49 49c0 37 28 66 61 66zM192 318l-88 -493h-88l106 493h70z"/>
    <glyph glyph-name="question" unicode="?" horiz-adv-x="502" d="M187 183l31 158c135 35 205 85 205 172c0 60 -44 98 -128 98c-68 0 -128 -21 -188 -43l13 72c56 24 121 46 196 46c119 0 188 -74 188 -170c0 -115 -95 -181 -221 -221l-33 -112h-63zM192 -10c-30 0 -49 20 -49 50c0 37 28 65 61 65c30 0 49 -20 49 -49 c0 -37 -28 -66 -61 -66z"/>
    <glyph glyph-name="questiondown" unicode="¿" horiz-adv-x="497" d="M334 511c30 0 49 -20 49 -50c0 -37 -28 -65 -61 -65c-30 0 -49 20 -49 49c0 37 28 66 61 66zM339 318l-31 -158c-135 -35 -205 -85 -205 -172c0 -60 44 -98 128 -98c68 0 128 21 188 43l-13 -72c-56 -24 -121 -46 -196 -46c-119 0 -188 74 -188 170c0 115 95 181 221 221 l33 112h63z"/>
    <glyph glyph-name="periodcentered" unicode="·" horiz-adv-x="213" d="M121 271c-30 0 -49 20 -49 50c0 37 28 65 61 65c30 0 49 -20 49 -49c0 -37 -28 -66 -61 -66z"/>
    <glyph glyph-name="bullet" unicode="•" horiz-adv-x="326" d="M165 229c-57 0 -94 39 -94 93c0 70 59 128 126 128c55 0 93 -40 93 -93c0 -71 -60 -128 -125 -128z"/>
    <glyph glyph-name="asterisk" unicode="*" horiz-adv-x="452" d="M151 385l-39 44l118 102l-107 53l38 56l100 -55l23 132h63l-29 -132l120 55l16 -55l-126 -54l78 -103l-52 -43l-79 111z"/>
    <glyph glyph-name="numbersign" unicode="#" horiz-adv-x="678" d="M667 441h-121l-74 -211h123l-24 -69h-123l-56 -161h-73l57 161h-162l-57 -161h-72l56 161h-123l25 69h122l74 211h-125l24 69h125l55 156h73l-55 -156h162l55 156h72l-55 -156h121zM400 230l74 211h-162l-74 -211h162z"/>
    <glyph glyph-name="slash" unicode="/" horiz-adv-x="444" d="M-69 -130l524 901h85l-523 -901h-86z"/>
    <glyph glyph-name="backslash" unicode="\" horiz-adv-x="406" d="M271 -130l-174 901h78l174 -901h-78z"/>
    <glyph glyph-name="exclamdown.case" horiz-adv-x="269" d="M207 686c30 0 49 -20 49 -50c0 -37 -28 -65 -61 -65c-30 0 -49 20 -49 49c0 37 28 66 61 66zM217 493l-88 -493h-88l106 493h70z"/>
    <glyph glyph-name="questiondown.case" horiz-adv-x="511" d="M357 684c30 0 49 -20 49 -50c0 -37 -28 -65 -61 -65c-30 0 -49 20 -49 49c0 37 28 66 61 66zM362 491l-31 -158c-135 -35 -205 -85 -205 -172c0 -60 44 -98 128 -98c68 0 128 21 188 43l-13 -72c-56 -24 -121 -46 -196 -46c-119 0 -188 74 -188 170c0 115 95 181 221 221 l33 112h63z"/>
    <glyph glyph-name="slash.case" horiz-adv-x="445" d="M-66 -112l524 901h85l-523 -901h-86z"/>
    <glyph glyph-name="backslash.case" horiz-adv-x="404" d="M262 -112l-174 901h78l174 -901h-78z"/>
    <glyph glyph-name="parenleft" unicode="(" horiz-adv-x="346" d="M81 313l3 17c28 161 126 323 258 441h85c-132 -121 -233 -288 -264 -444l-4 -20c-8 -39 -11 -83 -11 -116c0 -117 34 -231 100 -322h-78c-65 89 -101 205 -101 326c0 39 5 79 12 118z"/>
    <glyph glyph-name="parenright" unicode=")" horiz-adv-x="337" d="M282 327l-3 -17c-28 -161 -126 -323 -258 -441h-85c132 121 233 288 264 444l4 20c8 39 11 83 11 116c0 117 -34 231 -100 322h78c65 -89 101 -205 101 -326c0 -39 -5 -79 -12 -118z"/>
    <glyph glyph-name="braceleft" unicode="{" horiz-adv-x="421" d="M256 -131c-96 0 -152 57 -152 150c0 21 2 37 5 53l15 78c2 11 4 20 4 36c0 53 -27 89 -77 103l13 65c66 17 114 70 128 142l15 77c24 124 107 198 219 198h75l-14 -69h-57c-78 0 -131 -48 -149 -140l-15 -76c-11 -53 -30 -117 -131 -169c50 -33 70 -76 70 -125 c0 -18 -3 -34 -5 -45l-14 -75c-3 -16 -5 -34 -5 -47c0 -63 34 -87 95 -87h63l-13 -69h-70z"/>
    <glyph glyph-name="braceright" unicode="}" horiz-adv-x="415" d="M197 771c96 0 152 -57 152 -150c0 -21 -2 -37 -5 -53l-15 -78c-2 -11 -4 -20 -4 -36c0 -53 27 -89 77 -103l-13 -65c-66 -17 -114 -70 -128 -142l-15 -77c-24 -124 -107 -198 -219 -198h-75l14 69h57c78 0 131 48 149 140l15 76c11 53 30 117 131 169 c-50 33 -70 76 -70 125c0 18 3 34 5 45l14 75c3 16 5 34 5 47c0 63 -34 87 -95 87h-63l13 69h70z"/>
    <glyph glyph-name="bracketleft" unicode="[" horiz-adv-x="395" d="M451 700h-197l-147 -760h196l-14 -71h-273l175 902h273z"/>
    <glyph glyph-name="bracketright" unicode="]" horiz-adv-x="384" d="M415 771l-175 -902h-273l13 71h197l147 760h-196l14 71h273z"/>
    <glyph glyph-name="parenleft.case" horiz-adv-x="355" d="M84 331l3 17c28 161 126 323 258 441h85c-132 -121 -233 -288 -264 -444l-4 -20c-8 -39 -11 -83 -11 -116c0 -117 34 -231 100 -322h-78c-65 89 -101 205 -101 326c0 39 5 79 12 118z"/>
    <glyph glyph-name="parenright.case" horiz-adv-x="347" d="M285 345l-3 -17c-28 -161 -126 -323 -258 -441h-85c132 121 233 288 264 444l4 20c8 39 11 83 11 116c0 117 -34 231 -100 322h78c65 -89 101 -205 101 -326c0 -39 -5 -79 -12 -118z"/>
    <glyph glyph-name="braceleft.case" horiz-adv-x="428" d="M260 -113c-96 0 -152 57 -152 150c0 21 2 37 5 53l15 78c2 11 4 20 4 36c0 53 -27 89 -77 103l13 65c66 17 114 70 128 142l15 77c24 124 107 198 219 198h75l-14 -69h-57c-78 0 -131 -48 -149 -140l-15 -76c-11 -53 -30 -117 -131 -169c50 -33 70 -76 70 -125 c0 -18 -3 -34 -5 -45l-14 -75c-3 -16 -5 -34 -5 -47c0 -63 34 -87 95 -87h63l-13 -69h-70z"/>
    <glyph glyph-name="braceright.case" horiz-adv-x="425" d="M200 789c96 0 152 -57 152 -150c0 -21 -2 -37 -5 -53l-15 -78c-2 -11 -4 -20 -4 -36c0 -53 27 -89 77 -103l-13 -65c-66 -17 -114 -70 -128 -142l-15 -77c-24 -124 -107 -198 -219 -198h-75l14 69h57c78 0 131 48 149 140l15 76c11 53 30 117 131 169 c-50 33 -70 76 -70 125c0 18 3 34 5 45l14 75c3 16 5 34 5 47c0 63 -34 87 -95 87h-63l13 69h70z"/>
    <glyph glyph-name="bracketleft.case" horiz-adv-x="408" d="M455 718h-197l-147 -760h196l-14 -71h-273l175 902h273z"/>
    <glyph glyph-name="bracketright.case" horiz-adv-x="401" d="M418 789l-175 -902h-273l13 71h197l147 760h-196l14 71h273z"/>
    <glyph glyph-name="hyphen" unicode="-" horiz-adv-x="401" d="M52 236l14 74h291l-14 -74h-291z"/>
    <glyph glyph-name="uni00AD" unicode="&shy;" horiz-adv-x="401" d="M52 236l14 74h291l-14 -74h-291z"/>
    <glyph glyph-name="endash" unicode="–" horiz-adv-x="490" d="M-3 236l15 74h490l-15 -74h-490z"/>
    <glyph glyph-name="emdash" unicode="—" horiz-adv-x="980" d="M-3 236l15 74h980l-15 -74h-980z"/>
    <glyph glyph-name="underscore" unicode="_" horiz-adv-x="500" d="M-82 -170l15 74h500l-15 -74h-500z"/>
    <glyph glyph-name="hyphen.case" horiz-adv-x="408" d="M66 308l14 74h291l-14 -74h-291z"/>
    <glyph glyph-name="uni00AD.case" horiz-adv-x="408" d="M66 308l14 74h291l-14 -74h-291z"/>
    <glyph glyph-name="endash.case" horiz-adv-x="490" d="M11 308l15 74h490l-15 -74h-490z"/>
    <glyph glyph-name="emdash.case" horiz-adv-x="980" d="M11 308l15 74h980l-15 -74h-980z"/>
    <glyph glyph-name="quotesinglbase" unicode="‚" horiz-adv-x="221" d="M-27 -96l100 193h79l-107 -193h-72z"/>
    <glyph glyph-name="quotedblbase" unicode="„" horiz-adv-x="388" d="M-26 -90l99 193h79l-106 -193h-72zM142 -90l99 193h79l-106 -193h-72z"/>
    <glyph glyph-name="quotedblleft" unicode="“" horiz-adv-x="389" d="M289 711l-99 -193h-79l106 193h72zM457 711l-99 -193h-79l106 193h72z"/>
    <glyph glyph-name="quotedblright" unicode="”" horiz-adv-x="389" d="M85 518l99 193h79l-106 -193h-72zM253 518l99 193h79l-106 -193h-72z"/>
    <glyph glyph-name="quoteleft" unicode="‘" horiz-adv-x="221" d="M289 711l-99 -193h-79l106 193h72z"/>
    <glyph glyph-name="quoteright" unicode="’" horiz-adv-x="221" d="M85 518l99 193h79l-106 -193h-72z"/>
    <glyph glyph-name="guillemotleft" unicode="«" horiz-adv-x="476" d="M282 429l-158 -176l86 -168h-80l-91 172l156 172h87zM477 429l-158 -176l86 -168h-80l-91 172l156 172h87z"/>
    <glyph glyph-name="guillemotright" unicode="»" horiz-adv-x="476" d="M2 85l158 176l-86 168h80l91 -172l-156 -172h-87zM197 85l158 176l-86 168h80l91 -172l-156 -172h-87z"/>
    <glyph glyph-name="guilsinglleft" unicode="‹" horiz-adv-x="281" d="M282 429l-158 -176l86 -168h-80l-91 172l156 172h87z"/>
    <glyph glyph-name="guilsinglright" unicode="›" horiz-adv-x="281" d="M2 85l158 176l-86 168h80l91 -172l-156 -172h-87z"/>
    <glyph glyph-name="quotedbl" unicode="&quot;" horiz-adv-x="386" d="M107 456l50 255h76l-49 -255h-77zM282 456l50 255h76l-49 -255h-77z"/>
    <glyph glyph-name="quotesingle" unicode="'" horiz-adv-x="211" d="M107 456l50 255h76l-49 -255h-77z"/>
    <glyph glyph-name="guillemotleft.case" horiz-adv-x="476" d="M294 517l-158 -176l86 -168h-80l-91 172l156 172h87zM489 517l-158 -176l86 -168h-80l-91 172l156 172h87z"/>
    <glyph glyph-name="guillemotright.case" horiz-adv-x="481" d="M19 173l158 176l-86 168h80l91 -172l-156 -172h-87zM214 173l158 176l-86 168h80l91 -172l-156 -172h-87z"/>
    <glyph glyph-name="guilsinglleft.case" horiz-adv-x="281" d="M294 517l-158 -176l86 -168h-80l-91 172l156 172h87z"/>
    <glyph glyph-name="guilsinglright.case" horiz-adv-x="286" d="M19 173l158 176l-86 168h80l91 -172l-156 -172h-87z"/>
    <glyph glyph-name="uni2001" unicode=" " horiz-adv-x="980"/>
    <glyph glyph-name="uni2003" unicode="&emsp;" horiz-adv-x="980"/>
    <glyph glyph-name="uni2002" unicode="&ensp;" horiz-adv-x="490"/>
    <glyph glyph-name="uni2007" unicode=" " horiz-adv-x="555"/>
    <glyph glyph-name="uni2005" unicode=" " horiz-adv-x="588"/>
    <glyph glyph-name="uni200A" unicode="&hairsp;" horiz-adv-x="98"/>
    <glyph glyph-name="uni2008" unicode=" " horiz-adv-x="223"/>
    <glyph glyph-name="uni2006" unicode=" " horiz-adv-x="163"/>
    <glyph glyph-name="uni00A0" unicode="&nbsp;" horiz-adv-x="223"/>
    <glyph glyph-name="uni2009" unicode="&thinsp;" horiz-adv-x="196"/>
    <glyph glyph-name="uni2004" unicode=" " horiz-adv-x="326"/>
    <glyph glyph-name="cent" unicode="¢" d="M194 341l-3 -15c-3 -15 -4 -30 -4 -43c0 -82 53 -129 131 -129c44 0 88 8 131 26l-13 -72c-39 -18 -82 -27 -119 -28l-25 -127h-67l26 135c-86 23 -138 98 -138 189c0 11 1 29 4 46l4 23c22 124 118 217 228 238l24 122h67l-22 -118c32 -3 63 -13 92 -26l-14 -66 c-27 11 -55 19 -96 19c-99 0 -183 -61 -206 -174z"/>
    <glyph glyph-name="dollar" unicode="$" horiz-adv-x="555" d="M342 583c-89 0 -148 -32 -148 -99c0 -43 33 -76 119 -112c96 -40 153 -92 153 -171c0 -117 -82 -177 -201 -187l-25 -133h-68l26 132c-57 6 -119 25 -160 48l12 63c54 -25 120 -42 183 -42c90 0 157 35 157 112c0 45 -32 78 -114 113c-106 45 -156 91 -156 169 c0 106 88 170 204 176l23 120h68l-24 -123c45 -7 90 -22 122 -36l-11 -63c-50 19 -111 33 -160 33z"/>
    <glyph glyph-name="Euro" unicode="€" d="M467 605c-97 0 -183 -54 -232 -152h248l-31 -66h-241c-3 -11 -6 -22 -8 -33l-7 -37c-3 -13 -5 -27 -6 -40h216l-32 -66h-184c10 -92 65 -151 158 -151c57 0 100 10 142 24l-13 -66c-44 -19 -91 -29 -141 -29c-133 0 -213 94 -223 222h-84l13 66h72c1 14 3 28 6 41l9 46 l5 23h-71l13 66h80c57 137 176 223 309 223c50 0 99 -13 133 -30l-12 -61c-38 14 -68 20 -119 20z"/>
    <glyph glyph-name="sterling" unicode="£" d="M407 600c-105 0 -180 -64 -201 -172l-11 -56h268l-14 -72h-268l-44 -228h335l-14 -72h-413l83 425c30 154 139 251 275 251c66 0 126 -17 169 -42l-14 -65c-45 20 -85 31 -151 31z"/>
    <glyph glyph-name="yen" unicode="¥" d="M599 666l-232 -318h130l-12 -65h-159l-18 -92h159l-13 -65h-159l-24 -126h-77l25 126h-158l13 65h157l19 92h-158l12 65h131l-107 318h80l93 -304l219 304h79z"/>
    <glyph glyph-name="plus" unicode="+" d="M503 368l-14 -72h-162l-31 -161h-71l31 161h-163l14 72h163l31 162h72l-32 -162h162z"/>
    <glyph glyph-name="minus" unicode="−" d="M101 296l14 74h381l-15 -74h-380z"/>
    <glyph glyph-name="multiply" unicode="×" d="M480 451l-143 -123l93 -122l-58 -44l-90 119l-141 -121l-45 53l144 123l-93 122l58 44l90 -119l141 121z"/>
    <glyph glyph-name="divide" unicode="÷" d="M328 459c-30 0 -48 19 -48 48c0 38 25 65 59 65c30 0 49 -20 49 -49c0 -37 -26 -64 -60 -64zM99 296l14 73h384l-14 -73h-384zM257 93c-30 0 -48 19 -48 48c0 38 25 65 59 65c30 0 49 -20 49 -49c0 -37 -26 -64 -60 -64z"/>
    <glyph glyph-name="equal" unicode="=" d="M131 405l14 72h363l-14 -72h-363zM89 188l14 72h362l-14 -72h-362z"/>
    <glyph glyph-name="notequal" unicode="≠" d="M517 584l-77 -107h73l-14 -72h-111l-104 -145h186l-14 -72h-224l-77 -107h-75l77 107h-63l14 72h100l105 145h-177l14 72h214l77 107h76z"/>
    <glyph glyph-name="greater" unicode="&gt;" d="M89 130l13 73l304 132l-253 126l13 73l318 -170l-11 -64z"/>
    <glyph glyph-name="less" unicode="&lt;" d="M505 534l-13 -73l-304 -132l253 -126l-13 -73l-318 170l11 64z"/>
    <glyph glyph-name="greaterequal" unicode="≥" d="M93 153l14 73l303 129l-252 129l13 73l318 -170l-12 -64zM63 0l14 71h350l-14 -71h-350z"/>
    <glyph glyph-name="lessequal" unicode="≤" d="M429 153l-317 170l11 64l384 170l-13 -73l-304 -131l253 -127zM399 0h-350l14 71h350z"/>
    <glyph glyph-name="plusminus" unicode="±" d="M345 393h163l-13 -69h-163l-32 -163h-69l32 163h-164l13 69h164l32 164h69zM44 0l13 71h381l-14 -71h-380z"/>
    <glyph glyph-name="asciitilde" unicode="~" d="M391 256c-48 0 -82 28 -112 49c-25 17 -49 31 -68 31c-43 0 -74 -20 -90 -75h-67c23 89 75 147 152 147c44 0 74 -28 104 -47c26 -17 53 -33 76 -33c45 0 76 26 91 78h66c-22 -89 -75 -150 -152 -150z"/>
    <glyph glyph-name="logicalnot" unicode="¬" d="M372 184l33 165h-283l14 71h353l-46 -236h-71z"/>
    <glyph glyph-name="asciicircum" unicode="^" d="M109 388l223 288h66l109 -288h-74l-78 218l-169 -218h-77z"/>
    <glyph glyph-name="percent" unicode="%" horiz-adv-x="889" d="M224 288c-87 0 -137 61 -137 140c0 14 2 29 5 44l4 20c18 92 96 182 186 182c86 0 135 -61 135 -140c0 -13 -1 -27 -4 -43l-4 -21c-18 -93 -94 -182 -185 -182zM112 0l604 666h90l-605 -666h-89zM225 356c50 0 98 48 113 120l3 14c3 14 4 28 4 38c0 45 -21 78 -64 78 c-52 0 -97 -48 -113 -122l-3 -14c-3 -14 -4 -26 -4 -36c0 -45 20 -78 64 -78zM639 -12c-87 0 -137 61 -137 140c0 14 2 29 5 44l4 20c18 92 96 182 186 182c86 0 135 -61 135 -140c0 -13 -1 -27 -4 -43l-4 -21c-18 -93 -94 -182 -185 -182zM640 56c50 0 98 48 113 120l3 14 c3 14 4 28 4 38c0 45 -21 78 -64 78c-52 0 -97 -48 -113 -122l-3 -14c-3 -14 -4 -26 -4 -36c0 -45 20 -78 64 -78z"/>
    <glyph glyph-name="perthousand" unicode="‰" horiz-adv-x="1272" d="M224 288c-87 0 -137 61 -137 140c0 14 2 29 5 44l4 20c18 92 96 182 186 182c86 0 135 -61 135 -140c0 -13 -1 -27 -4 -43l-4 -21c-18 -93 -94 -182 -185 -182zM112 0l604 666h90l-605 -666h-89zM225 356c50 0 98 48 113 120l3 14c3 14 4 28 4 38c0 45 -21 78 -64 78 c-52 0 -97 -48 -113 -122l-3 -14c-3 -14 -4 -26 -4 -36c0 -45 20 -78 64 -78zM639 -12c-87 0 -137 61 -137 140c0 14 2 29 5 44l4 20c18 92 96 182 186 182c86 0 135 -61 135 -140c0 -13 -1 -27 -4 -43l-4 -21c-18 -93 -94 -182 -185 -182zM1022 -12c-87 0 -137 61 -137 140 c0 14 2 29 5 44l4 20c18 92 96 182 186 182c86 0 135 -61 135 -140c0 -13 -1 -27 -4 -43l-4 -21c-18 -93 -94 -182 -185 -182zM640 56c50 0 98 48 113 120l3 14c3 14 4 28 4 38c0 45 -21 78 -64 78c-52 0 -97 -48 -113 -122l-3 -14c-3 -14 -4 -26 -4 -36 c0 -45 20 -78 64 -78zM1023 56c50 0 98 48 113 120l3 14c3 14 4 28 4 38c0 45 -21 78 -64 78c-52 0 -97 -48 -113 -122l-3 -14c-3 -14 -4 -26 -4 -36c0 -45 20 -78 64 -78z"/>
    <glyph glyph-name="at" unicode="@" horiz-adv-x="964" d="M593 62h-39l2 43c-52 -40 -102 -61 -144 -61c-81 0 -128 58 -128 146c0 14 1 29 3 42l3 20c19 129 127 210 254 210h149l-64 -331c132 11 234 137 234 278c0 131 -94 220 -275 220c-257 0 -462 -205 -462 -456c0 -165 107 -289 284 -289c76 0 151 12 217 36l-13 -68 c-64 -25 -133 -38 -210 -38c-214 0 -350 149 -350 356c0 297 248 528 537 528c219 0 342 -118 342 -287c0 -193 -160 -349 -340 -349zM361 203c0 -53 26 -89 73 -89c42 0 86 17 125 49l44 230h-63c-93 0 -163 -59 -175 -149l-2 -15c-1 -8 -2 -16 -2 -26z"/>
    <glyph glyph-name="ampersand" unicode="&amp;" horiz-adv-x="693" d="M677 360l-12 -64h-96l-2 -8c-15 -74 -46 -139 -90 -188l59 -100h-84l-30 50c-53 -39 -118 -61 -190 -61c-118 0 -190 83 -190 178c0 108 79 183 186 218c-21 44 -33 79 -33 113c0 115 87 188 208 188c57 0 113 -19 149 -39l-17 -62c-43 20 -87 30 -129 30 c-84 0 -138 -42 -138 -115c0 -49 26 -92 79 -181l95 -161c29 36 50 81 60 131l14 71h161zM242 59c53 0 104 17 147 48l-94 159l-38 64c-82 -26 -142 -82 -142 -159c0 -63 49 -112 127 -112z"/>
    <glyph glyph-name="paragraph" unicode="¶" horiz-adv-x="670" d="M475 676l-159 -816h-76l77 399h-57c-109 0 -181 64 -181 160c0 154 102 257 256 257h140zM577 676h76l-159 -816h-76z"/>
    <glyph glyph-name="copyright" unicode="©" horiz-adv-x="765" d="M399 -12c-193 0 -342 147 -342 349c0 201 149 348 342 348s342 -147 342 -348c0 -202 -149 -349 -342 -349zM399 55c155 0 274 120 274 282c0 161 -119 281 -274 281s-274 -120 -274 -281c0 -162 119 -282 274 -282zM409 159c-105 0 -170 73 -170 166v18 c0 99 75 170 176 170c35 0 59 -7 84 -17v-65c-26 9 -49 13 -77 13c-64 0 -107 -41 -107 -103v-11c0 -61 42 -102 105 -102c34 0 58 6 85 14v-65c-30 -12 -62 -18 -96 -18z"/>
    <glyph glyph-name="registered" unicode="®" horiz-adv-x="615" d="M347 720c142 0 253 -108 253 -255c0 -146 -110 -253 -253 -253c-144 0 -255 107 -255 253c0 147 111 255 255 255zM347 260c115 0 203 85 203 205c0 121 -87 207 -203 207c-117 0 -205 -86 -205 -207s88 -205 205 -205zM448 509c0 -28 -13 -54 -43 -68l63 -87h-62l-51 78 h-55v-78h-52v234h104c65 0 96 -37 96 -79zM300 539v-60h48c29 0 43 9 43 31c0 19 -16 29 -47 29h-44z"/>
    <glyph glyph-name="trademark" unicode="™" horiz-adv-x="837" d="M412 676l-13 -68h-121l-60 -311h-71l61 311h-121l13 68h312zM803 676h65l-74 -379h-66l53 266l-131 -154h-51l-68 153l-53 -265h-63l73 379h61l85 -201z"/>
    <glyph glyph-name="degree" unicode="°" horiz-adv-x="408" d="M267 423c-84 0 -148 65 -148 148c0 82 64 146 148 146c82 0 146 -64 146 -146c0 -83 -64 -148 -146 -148zM267 487c45 0 81 37 81 84c0 46 -35 82 -81 82s-83 -36 -83 -82c0 -47 36 -84 83 -84z"/>
    <glyph glyph-name="bar" unicode="|" horiz-adv-x="279" d="M26 -130l175 901h79l-175 -901h-79z"/>
    <glyph glyph-name="brokenbar" unicode="¦" horiz-adv-x="280" d="M139 453l62 318h80l-62 -318h-80zM26 -130l67 343h79l-67 -343h-79z"/>
    <glyph glyph-name="dagger" unicode="†" horiz-adv-x="372" d="M383 604l-12 -61h-95l-40 -209h-66l41 209h-96l12 61h96l22 114h65l-22 -114h95z"/>
    <glyph glyph-name="daggerdbl" unicode="‡" horiz-adv-x="371" d="M377 579h-95l-19 -101h95l-11 -57h-95l-17 -87h-65l17 87h-96l11 57h96l20 101h-96l11 57h96l16 82h64l-16 -82h96z"/>
    <glyph glyph-name="at.case" horiz-adv-x="964" d="M609 145h-39l2 43c-52 -40 -102 -61 -144 -61c-81 0 -128 58 -128 146c0 14 1 29 3 42l3 20c19 129 127 210 254 210h149l-64 -331c132 11 234 137 234 278c0 131 -94 220 -275 220c-257 0 -462 -205 -462 -456c0 -165 107 -289 284 -289c76 0 151 12 217 36l-13 -68 c-64 -25 -133 -38 -210 -38c-214 0 -350 149 -350 356c0 297 248 528 537 528c219 0 342 -118 342 -287c0 -193 -160 -349 -340 -349zM377 286c0 -53 26 -89 73 -89c42 0 86 17 125 49l44 230h-63c-93 0 -163 -59 -175 -149l-2 -15c-1 -8 -2 -16 -2 -26z"/>
    <glyph glyph-name="uni0308" unicode="̈" horiz-adv-x="0" d="M-259 605c-28 0 -44 18 -44 44c0 36 22 59 53 59c26 0 44 -17 44 -44c0 -35 -25 -59 -53 -59zM-90 605c-27 0 -44 18 -44 44c0 36 23 59 53 59c27 0 44 -17 44 -44c0 -35 -24 -59 -53 -59z"/>
    <glyph glyph-name="uni0307" unicode="̇" horiz-adv-x="0" d="M-173 596c-28 0 -47 20 -47 48c0 40 27 63 58 63c29 0 48 -18 48 -47c0 -38 -27 -64 -59 -64z"/>
    <glyph glyph-name="gravecomb" unicode="̀" horiz-adv-x="0" d="M-141 592l-121 135h87l110 -135h-76z"/>
    <glyph glyph-name="acutecomb" unicode="́" horiz-adv-x="0" d="M-297 592l164 135h95l-175 -135h-84z"/>
    <glyph glyph-name="uni0302" unicode="̂" horiz-adv-x="0" d="M-326 593l139 140h67l82 -140h-68l-54 90l-96 -90h-70z"/>
    <glyph glyph-name="uni030C" unicode="̌" horiz-adv-x="0" d="M-214 593l-82 140h68l54 -90l96 90h70l-139 -140h-67z"/>
    <glyph glyph-name="uni030A" unicode="̊" horiz-adv-x="0" d="M-160 584c-56 0 -104 44 -104 103c0 58 50 102 104 102c56 0 103 -44 103 -102c0 -59 -48 -103 -103 -103zM-160 633c30 0 51 21 51 54c0 32 -22 53 -51 53c-31 0 -52 -21 -52 -53c0 -33 22 -54 52 -54z"/>
    <glyph glyph-name="tildecomb" unicode="̃" horiz-adv-x="0" d="M-109 602c-33 0 -53 17 -73 31c-16 11 -31 24 -49 24c-25 0 -44 -20 -50 -45h-61c13 74 57 108 113 108c28 0 49 -17 70 -31c17 -11 34 -24 53 -24c21 0 41 16 49 45h61c-11 -64 -58 -108 -113 -108z"/>
    <glyph glyph-name="uni0304" unicode="̄" horiz-adv-x="0" d="M-286 691h250l-13 -66h-250z"/>
    <glyph glyph-name="uni0327" unicode="̧" horiz-adv-x="0" d="M-342 -170c-24 0 -50 6 -73 19l9 49c17 -7 34 -10 49 -10c54 0 83 31 83 76c0 18 -5 36 -18 50l57 2c14 -16 23 -40 23 -67c0 -66 -56 -119 -130 -119z"/>
    <glyph glyph-name="acute" unicode="´" horiz-adv-x="490" d="M193 592l164 135h95l-175 -135h-84z"/>
    <glyph glyph-name="caron" unicode="ˇ" horiz-adv-x="542" d="M276 593l-82 140h68l54 -90l96 90h70l-139 -140h-67z"/>
    <glyph glyph-name="cedilla" unicode="¸" horiz-adv-x="542" d="M148 -170c-24 0 -50 6 -73 19l9 49c17 -7 34 -10 49 -10c54 0 83 31 83 76c0 18 -5 36 -18 50l57 2c14 -16 23 -40 23 -67c0 -66 -56 -119 -130 -119z"/>
    <glyph glyph-name="circumflex" unicode="ˆ" horiz-adv-x="542" d="M164 593l139 140h67l82 -140h-68l-54 90l-96 -90h-70z"/>
    <glyph glyph-name="dieresis" unicode="¨" horiz-adv-x="542" d="M231 605c-28 0 -44 18 -44 44c0 36 22 59 53 59c26 0 44 -17 44 -44c0 -35 -25 -59 -53 -59zM400 605c-27 0 -44 18 -44 44c0 36 23 59 53 59c27 0 44 -17 44 -44c0 -35 -24 -59 -53 -59z"/>
    <glyph glyph-name="dotaccent" unicode="˙" horiz-adv-x="542" d="M317 596c-28 0 -47 20 -47 48c0 40 27 63 58 63c29 0 48 -18 48 -47c0 -38 -27 -64 -59 -64z"/>
    <glyph glyph-name="grave" unicode="`" horiz-adv-x="542" d="M349 592l-121 135h87l110 -135h-76z"/>
    <glyph glyph-name="macron" unicode="¯" horiz-adv-x="542" d="M204 691h250l-13 -66h-250z"/>
    <glyph glyph-name="ring" unicode="˚" horiz-adv-x="542" d="M330 584c-56 0 -104 44 -104 103c0 58 50 102 104 102c56 0 103 -44 103 -102c0 -59 -48 -103 -103 -103zM330 633c30 0 51 21 51 54c0 32 -22 53 -51 53c-31 0 -52 -21 -52 -53c0 -33 22 -54 52 -54z"/>
    <glyph glyph-name="tilde" unicode="˜" horiz-adv-x="542" d="M381 602c-33 0 -53 17 -73 31c-16 11 -31 24 -49 24c-25 0 -44 -20 -50 -45h-61c13 74 57 108 113 108c28 0 49 -17 70 -31c17 -11 34 -24 53 -24c21 0 41 16 49 45h61c-11 -64 -58 -108 -113 -108z"/>
    <glyph glyph-name="uni0308.case" horiz-adv-x="0" d="M-286 749c-28 0 -46 18 -46 45c0 38 24 60 56 60c26 0 45 -17 45 -44c0 -38 -26 -61 -55 -61zM-102 749c-27 0 -46 18 -46 45c0 38 26 60 56 60c27 0 45 -17 45 -44c0 -38 -24 -61 -55 -61z"/>
    <glyph glyph-name="uni0307.case" horiz-adv-x="0" d="M-311 748c-28 0 -48 19 -48 47c0 39 27 64 59 64c28 0 47 -19 47 -47c0 -38 -27 -64 -58 -64z"/>
    <glyph glyph-name="gravecomb.case" horiz-adv-x="0" d="M-273 747l-141 129h99l131 -129h-89z"/>
    <glyph glyph-name="acutecomb.case" horiz-adv-x="0" d="M-334 747l176 129h108l-189 -129h-95z"/>
    <glyph glyph-name="uni0302.case" horiz-adv-x="0" d="M-492 749l162 134h72l115 -134h-78l-79 84l-110 -84h-82z"/>
    <glyph glyph-name="uni030C.case" horiz-adv-x="0" d="M-352 749l-115 134h78l79 -84l110 84h82l-162 -134h-72z"/>
    <glyph glyph-name="uni030A.case" horiz-adv-x="0" d="M-141 727c-57 0 -105 44 -105 104c0 59 50 104 105 104c58 0 105 -45 105 -104c0 -60 -49 -104 -105 -104zM-141 779c29 0 50 22 50 52s-22 52 -50 52c-29 0 -50 -22 -50 -52s21 -52 50 -52z"/>
    <glyph glyph-name="tildecomb.case" horiz-adv-x="0" d="M-104 747c-40 0 -67 24 -87 37c-21 13 -39 25 -60 25c-31 0 -52 -21 -60 -51h-68c15 77 63 115 127 115c31 0 60 -17 84 -32c21 -13 43 -29 63 -29c29 0 50 21 59 52h69c-14 -69 -64 -117 -127 -117z"/>
    <glyph glyph-name="uni0304.case" horiz-adv-x="0" d="M-452 841h305l-13 -68h-306z"/>
    <glyph glyph-name="uni0327.case" horiz-adv-x="0" d="M-396 -178c-39 0 -69 10 -92 19l12 52c19 -7 44 -12 61 -12c62 0 100 31 100 77c0 20 -9 38 -25 53h65c16 -16 29 -43 29 -73c0 -68 -67 -116 -150 -116z"/>
    </font>
</defs>
</svg>
