<svg xmlns="http://www.w3.org/2000/svg" xmlns:xlink="http://www.w3.org/1999/xlink" version="1.1">
<metadata>
Created by FontForge 20181003 at Fri Dec 21 12:44:52 2018
 By Henrique Beier
Copyright \(c\) 2018 GOL Linhas Aereas SA. All rights reserved.
</metadata>
<defs>
<font id="GOLSansText-RegularItalic" horiz-adv-x="566">
  <font-face font-family="GOL Sans Text" font-weight="400" font-style="italic" font-stretch="normal" units-per-em="1000" panose-1="2 1 5 3 3 4 7 2 2 3" ascent="803" descent="-197" x-height="501" cap-height="676" bbox="-453 -225 1214 944" underline-thickness="50" underline-position="-100" slope="-11" stemh="71" stemv="75" unicode-range="U+0020-FB02"/>
<missing-glyph horiz-adv-x="468" d="M384 711v-936h-297v936h297zM312 648h-155v-31h61v-34h-62v-31h156v31h-62v34h62v31zM250 528h-94v-98h156v32h-62v66zM218 496v-34h-31v34h31zM312 405h-156v-31h62v-35h-62v-30h94v65h62v31zM312 349h-31v-62h-125v-32h156v94zM312 235h-94v-53h32v22h31v-44h-94v75 h-31v-106h156v106zM312 73h-156v-106h156v106zM281 42v-44h-94v44h94zM312 -55h-156v-31h66l-66 -44v-30h156v30h-96l66 44h30v31z"/>
    <glyph glyph-name="fi" unicode="fi" horiz-adv-x="637" d="M30 0l100 513c27 140 109 208 225 208c38 0 76 -10 106 -24l-15 -61c-24 8 -49 15 -90 15c-78 0 -133 -36 -152 -139l-2 -11h211l-14 -70h-210l-84 -431h-75zM596 605c-29 0 -48 20 -48 49c0 40 26 63 59 63c28 0 47 -19 47 -48c0 -40 -26 -64 -58 -64zM435 0l97 501h76 l-98 -501h-75z"/>
    <glyph glyph-name="fl" unicode="fl" horiz-adv-x="637" d="M30 0l100 513c27 140 109 208 225 208c38 0 76 -10 106 -24l-15 -61c-24 8 -49 15 -90 15c-78 0 -133 -36 -152 -139l-2 -11h211l-14 -70h-210l-84 -431h-75zM435 0l138 711h75l-138 -711h-75z"/>
    <glyph glyph-name=".notdef" horiz-adv-x="468" d="M384 711v-936h-297v936h297zM312 648h-155v-31h61v-34h-62v-31h156v31h-62v34h62v31zM250 528h-94v-98h156v32h-62v66zM218 496v-34h-31v34h31zM312 405h-156v-31h62v-35h-62v-30h94v65h62v31zM312 349h-31v-62h-125v-32h156v94zM312 235h-94v-53h32v22h31v-44h-94v75 h-31v-106h156v106zM312 73h-156v-106h156v106zM281 42v-44h-94v44h94zM312 -55h-156v-31h66l-66 -44v-30h156v30h-96l66 44h30v31z"/>
    <glyph glyph-name="space" unicode=" " horiz-adv-x="223"/>
    <glyph glyph-name="A" unicode="A" horiz-adv-x="640" d="M477 0l-30 186h-278l-101 -186h-85l381 676h76l117 -676h-80zM208 258h228l-52 323z"/>
    <glyph glyph-name="Aacute" unicode="Á" horiz-adv-x="640" d="M635 886l-202 -137h-94l189 137h107zM364 676h76l117 -676h-80l-30 186h-278l-101 -186h-85zM208 258h228l-52 323z"/>
    <glyph glyph-name="Acircumflex" unicode="Â" horiz-adv-x="640" d="M436 840l-113 -91h-84l167 143h72l110 -143h-80zM364 676h76l117 -676h-80l-30 186h-278l-101 -186h-85zM208 258h228l-52 323z"/>
    <glyph glyph-name="Adieresis" unicode="Ä" horiz-adv-x="640" d="M324 752c-29 0 -47 18 -47 47c0 40 25 61 57 61c28 0 47 -16 47 -45c0 -40 -26 -63 -57 -63zM516 752c-29 0 -48 18 -48 47c0 40 26 61 58 61c28 0 46 -16 46 -45c0 -40 -25 -63 -56 -63zM364 676h76l117 -676h-80l-30 186h-278l-101 -186h-85zM208 258h228l-52 323z"/>
    <glyph glyph-name="Agrave" unicode="À" horiz-adv-x="640" d="M487 749h-89l-148 137h100zM477 0l-30 186h-278l-101 -186h-85l381 676h76l117 -676h-80zM208 258h228l-52 323z"/>
    <glyph glyph-name="Amacron" unicode="Ā" horiz-adv-x="640" d="M279 845h305l-13 -68h-306zM364 676h76l117 -676h-80l-30 186h-278l-101 -186h-85zM208 258h228l-52 323z"/>
    <glyph glyph-name="Aring" unicode="Å" horiz-adv-x="640" d="M477 0l-30 186h-278l-101 -186h-85l372 660c-37 17 -62 53 -62 98c0 62 52 108 110 108c60 0 108 -46 108 -108c0 -48 -28 -86 -68 -101l114 -657h-80zM403 813c-32 0 -55 -23 -55 -55c0 -33 24 -56 55 -56s53 23 53 56c0 32 -23 55 -53 55zM208 258h228l-52 323z"/>
    <glyph glyph-name="Atilde" unicode="Ã" horiz-adv-x="640" d="M557 871h73c-14 -71 -65 -120 -129 -120c-38 0 -64 21 -87 37c-21 14 -39 26 -60 26c-30 0 -51 -23 -58 -52h-72c15 81 63 120 129 120c31 0 60 -18 85 -34c20 -13 41 -29 62 -29c26 0 48 19 57 52zM364 676h76l117 -676h-80l-30 186h-278l-101 -186h-85zM208 258h228 l-52 323z"/>
    <glyph glyph-name="AE" unicode="Æ" horiz-adv-x="924" d="M929 601h-304l-42 -219h273l-15 -76h-273l-44 -231h314l-15 -75h-390l37 189h-256l-159 -189h-95l579 676h405zM275 262h209l63 324z"/>
    <glyph glyph-name="B" unicode="B" horiz-adv-x="582" d="M436 353c59 -26 92 -81 92 -146c0 -124 -103 -207 -231 -207h-256l131 676h208c107 0 178 -64 178 -156c0 -81 -49 -139 -122 -167zM369 606h-135l-43 -222h140c89 0 149 54 149 134c0 53 -44 88 -111 88zM296 70c90 0 154 52 154 134c0 58 -41 107 -117 107h-156 l-46 -241h165z"/>
    <glyph glyph-name="C" unicode="C" horiz-adv-x="579" d="M318 -12c-159 0 -252 109 -252 255c0 24 4 53 9 78l8 42c36 188 183 323 358 323c57 0 116 -15 155 -32l-15 -68c-42 15 -84 24 -141 24c-143 0 -251 -103 -282 -257l-6 -30c-5 -25 -8 -50 -8 -72c0 -117 68 -187 184 -187c63 0 119 14 165 29l-12 -74 c-50 -20 -105 -31 -163 -31z"/>
    <glyph glyph-name="Cacute" unicode="Ć" horiz-adv-x="579" d="M369 755l189 137h107l-202 -137h-94zM318 -12c-159 0 -252 109 -252 255c0 24 4 53 9 78l8 42c36 188 183 323 358 323c57 0 116 -15 155 -32l-15 -68c-42 15 -84 24 -141 24c-143 0 -251 -103 -282 -257l-6 -30c-5 -25 -8 -50 -8 -72c0 -117 68 -187 184 -187 c63 0 119 14 165 29l-12 -74c-50 -20 -105 -31 -163 -31z"/>
    <glyph glyph-name="Ccaron" unicode="Č" horiz-adv-x="579" d="M409 755l-111 143h81l72 -92l113 92h84l-167 -143h-72zM318 -12c-159 0 -252 109 -252 255c0 24 4 53 9 78l8 42c36 188 183 323 358 323c57 0 116 -15 155 -32l-15 -68c-42 15 -84 24 -141 24c-143 0 -251 -103 -282 -257l-6 -30c-5 -25 -8 -50 -8 -72 c0 -117 68 -187 184 -187c63 0 119 14 165 29l-12 -74c-50 -20 -105 -31 -163 -31z"/>
    <glyph glyph-name="Ccedilla" unicode="Ç" horiz-adv-x="579" d="M158 353l-6 -30c-5 -25 -8 -50 -8 -72c0 -117 68 -187 184 -187c63 0 119 14 165 29l-12 -74c-43 -17 -90 -28 -139 -30c6 -15 10 -32 10 -49c0 -70 -63 -121 -140 -121c-37 0 -64 11 -85 20l13 50c18 -7 39 -12 55 -12c56 0 91 33 91 82c0 10 -2 21 -7 31 c-135 17 -213 119 -213 253c0 24 4 53 9 78l8 42c36 188 183 323 358 323c57 0 116 -15 155 -32l-15 -68c-42 15 -84 24 -141 24c-143 0 -251 -103 -282 -257z"/>
    <glyph glyph-name="Cdotaccent" unicode="Ċ" horiz-adv-x="579" d="M450 757c-29 0 -49 19 -49 48c0 40 27 64 60 64c29 0 48 -18 48 -47c0 -39 -27 -65 -59 -65zM318 -12c-159 0 -252 109 -252 255c0 24 4 53 9 78l8 42c36 188 183 323 358 323c57 0 116 -15 155 -32l-15 -68c-42 15 -84 24 -141 24c-143 0 -251 -103 -282 -257l-6 -30 c-5 -25 -8 -50 -8 -72c0 -117 68 -187 184 -187c63 0 119 14 165 29l-12 -74c-50 -20 -105 -31 -163 -31z"/>
    <glyph glyph-name="D" unicode="D" horiz-adv-x="669" d="M383 676c154 0 253 -102 253 -256c0 -23 -3 -47 -7 -72l-7 -39c-34 -188 -193 -309 -361 -309h-220l131 676h211zM551 344c5 25 8 49 8 71c0 114 -68 187 -179 187h-145l-103 -528h139c129 0 241 88 274 242z"/>
    <glyph glyph-name="Eth" unicode="Ð" horiz-adv-x="703" d="M417 676c154 0 253 -102 253 -256c0 -23 -3 -47 -7 -72l-7 -39c-34 -188 -193 -309 -361 -309h-220l59 303h-103l14 74h103l58 299h211zM585 344c5 25 8 49 8 71c0 114 -68 187 -179 187h-145l-44 -225h194l-15 -74h-193l-45 -229h139c129 0 241 88 274 242z"/>
    <glyph glyph-name="E" unicode="E" horiz-adv-x="538" d="M543 601h-310l-42 -219h279l-15 -76h-279l-44 -231h320l-15 -75h-396l131 676h386z"/>
    <glyph glyph-name="Eacute" unicode="É" horiz-adv-x="538" d="M600 886l-202 -137h-94l189 137h107zM558 676l-15 -75h-310l-42 -219h279l-15 -76h-279l-44 -231h320l-15 -75h-396l131 676h386z"/>
    <glyph glyph-name="Ecaron" unicode="Ě" horiz-adv-x="538" d="M416 749h-72l-111 143h81l72 -92l113 92h84zM558 676l-15 -75h-310l-42 -219h279l-15 -76h-279l-44 -231h320l-15 -75h-396l131 676h386z"/>
    <glyph glyph-name="Ecircumflex" unicode="Ê" horiz-adv-x="538" d="M401 840l-113 -91h-84l167 143h72l110 -143h-80zM543 601h-310l-42 -219h279l-15 -76h-279l-44 -231h320l-15 -75h-396l131 676h386z"/>
    <glyph glyph-name="Edieresis" unicode="Ë" horiz-adv-x="538" d="M289 752c-29 0 -47 18 -47 47c0 40 25 61 57 61c28 0 47 -16 47 -45c0 -40 -26 -63 -57 -63zM481 752c-29 0 -48 18 -48 47c0 40 26 61 58 61c28 0 46 -16 46 -45c0 -40 -25 -63 -56 -63zM543 601h-310l-42 -219h279l-15 -76h-279l-44 -231h320l-15 -75h-396l131 676h386 z"/>
    <glyph glyph-name="Edotaccent" unicode="Ė" horiz-adv-x="538" d="M385 751c-29 0 -49 19 -49 48c0 40 27 64 60 64c29 0 48 -18 48 -47c0 -39 -27 -65 -59 -65zM543 601h-310l-42 -219h279l-15 -76h-279l-44 -231h320l-15 -75h-396l131 676h386z"/>
    <glyph glyph-name="Egrave" unicode="È" horiz-adv-x="538" d="M452 749h-89l-148 137h100zM543 601h-310l-42 -219h279l-15 -76h-279l-44 -231h320l-15 -75h-396l131 676h386z"/>
    <glyph glyph-name="Emacron" unicode="Ē" horiz-adv-x="538" d="M549 845l-13 -68h-306l14 68h305zM543 601h-310l-42 -219h279l-15 -76h-279l-44 -231h320l-15 -75h-396l131 676h386z"/>
    <glyph glyph-name="F" unicode="F" horiz-adv-x="520" d="M551 601h-318l-42 -219h277l-15 -76h-277l-59 -306h-76l131 676h394z"/>
    <glyph glyph-name="G" unicode="G" horiz-adv-x="634" d="M321 -10c-163 0 -256 106 -256 253c0 23 4 50 9 76l8 42c38 198 192 325 363 325c67 0 116 -16 162 -35l-14 -70c-49 19 -90 28 -152 28c-138 0 -251 -85 -284 -255l-6 -31c-5 -26 -8 -50 -8 -73c0 -112 65 -187 183 -187c51 0 93 9 132 23l40 194h-152l15 73h228 l-62 -315c-60 -25 -129 -48 -206 -48z"/>
    <glyph glyph-name="Gdotaccent" unicode="Ġ" horiz-adv-x="634" d="M447 757c-29 0 -49 19 -49 48c0 40 27 64 60 64c29 0 48 -18 48 -47c0 -39 -27 -65 -59 -65zM321 -10c-163 0 -256 106 -256 253c0 23 4 50 9 76l8 42c38 198 192 325 363 325c67 0 116 -16 162 -35l-14 -70c-49 19 -90 28 -152 28c-138 0 -251 -85 -284 -255l-6 -31 c-5 -26 -8 -50 -8 -73c0 -112 65 -187 183 -187c51 0 93 9 132 23l40 194h-152l15 73h228l-62 -315c-60 -25 -129 -48 -206 -48z"/>
    <glyph glyph-name="H" unicode="H" horiz-adv-x="670" d="M586 676h77l-131 -676h-77l59 307h-337l-59 -307h-77l131 676h77l-57 -293h337z"/>
    <glyph glyph-name="I" unicode="I" horiz-adv-x="256" d="M41 0l131 676h77l-131 -676h-77z"/>
    <glyph glyph-name="IJ" unicode="Ĳ" horiz-adv-x="675" d="M41 0l131 676h77l-131 -676h-77zM357 -12c-50 0 -84 12 -112 26l12 64c25 -9 54 -15 99 -15c78 0 131 48 148 139l92 474h77l-94 -481c-25 -130 -108 -207 -222 -207z"/>
    <glyph glyph-name="Iacute" unicode="Í" horiz-adv-x="256" d="M147 749l189 137h107l-202 -137h-94zM41 0l131 676h77l-131 -676h-77z"/>
    <glyph glyph-name="Icircumflex" unicode="Î" horiz-adv-x="256" d="M47 749l167 143h72l110 -143h-80l-72 91l-113 -91h-84zM41 0l131 676h77l-131 -676h-77z"/>
    <glyph glyph-name="Idieresis" unicode="Ï" horiz-adv-x="256" d="M132 752c-29 0 -47 18 -47 47c0 40 25 61 57 61c28 0 47 -16 47 -45c0 -40 -26 -63 -57 -63zM324 752c-29 0 -48 18 -48 47c0 40 26 61 58 61c28 0 46 -16 46 -45c0 -40 -25 -63 -56 -63zM41 0l131 676h77l-131 -676h-77z"/>
    <glyph glyph-name="Idotaccent" unicode="İ" horiz-adv-x="256" d="M228 751c-29 0 -49 19 -49 48c0 40 27 64 60 64c29 0 48 -18 48 -47c0 -39 -27 -65 -59 -65zM41 0l131 676h77l-131 -676h-77z"/>
    <glyph glyph-name="Igrave" unicode="Ì" horiz-adv-x="256" d="M206 749l-148 137h100l137 -137h-89zM41 0l131 676h77l-131 -676h-77z"/>
    <glyph glyph-name="Imacron" unicode="Ī" horiz-adv-x="256" d="M87 845h305l-13 -68h-306zM41 0l131 676h77l-131 -676h-77z"/>
    <glyph glyph-name="J" unicode="J" horiz-adv-x="420" d="M101 -12c-50 0 -84 12 -112 26l12 64c25 -9 54 -15 99 -15c78 0 131 48 148 139l92 474h77l-94 -481c-25 -130 -108 -207 -222 -207z"/>
    <glyph glyph-name="K" unicode="K" horiz-adv-x="602" d="M638 676l-375 -327l274 -349h-97l-258 332l-64 -332h-77l131 676h77l-59 -304l353 304h95z"/>
    <glyph glyph-name="L" unicode="L" horiz-adv-x="539" d="M133 75h325l-14 -75h-403l131 676h77z"/>
    <glyph glyph-name="M" unicode="M" horiz-adv-x="770" d="M41 0l131 676h66l151 -376l301 376h73l-130 -676h-76l105 533l-261 -325h-51l-131 317l-103 -525h-75z"/>
    <glyph glyph-name="N" unicode="N" horiz-adv-x="668" d="M41 0l131 676h65l246 -543l106 543h72l-131 -676h-64l-247 539l-105 -539h-73z"/>
    <glyph glyph-name="Nacute" unicode="Ń" horiz-adv-x="668" d="M343 749l189 137h107l-202 -137h-94zM41 0l131 676h65l246 -543l106 543h72l-131 -676h-64l-247 539l-105 -539h-73z"/>
    <glyph glyph-name="Ncaron" unicode="Ň" horiz-adv-x="668" d="M383 749l-111 143h81l72 -92l113 92h84l-167 -143h-72zM41 0l131 676h65l246 -543l106 543h72l-131 -676h-64l-247 539l-105 -539h-73z"/>
    <glyph glyph-name="Ntilde" unicode="Ñ" horiz-adv-x="668" d="M505 751c-38 0 -64 21 -87 37c-21 14 -39 26 -60 26c-30 0 -51 -23 -58 -52h-72c15 81 63 120 129 120c31 0 60 -18 85 -34c20 -13 41 -29 62 -29c26 0 48 19 57 52h73c-14 -71 -65 -120 -129 -120zM41 0l131 676h65l246 -543l106 543h72l-131 -676h-64l-247 539 l-105 -539h-73z"/>
    <glyph glyph-name="O" unicode="O" horiz-adv-x="702" d="M304 -12c-149 0 -238 106 -238 250c0 25 3 50 8 77l8 44c35 191 184 327 352 327c149 0 238 -106 238 -250c0 -25 -3 -50 -8 -77l-8 -44c-35 -193 -182 -327 -352 -327zM309 64c137 0 239 101 272 264l5 25c5 26 8 51 8 74c0 111 -63 183 -165 183 c-134 0 -240 -101 -273 -264l-5 -25c-5 -27 -9 -52 -9 -75c0 -111 63 -182 167 -182z"/>
    <glyph glyph-name="Oacute" unicode="Ó" horiz-adv-x="702" d="M367 755l189 137h107l-202 -137h-94zM304 -12c-149 0 -238 106 -238 250c0 25 3 50 8 77l8 44c35 191 184 327 352 327c149 0 238 -106 238 -250c0 -25 -3 -50 -8 -77l-8 -44c-35 -193 -182 -327 -352 -327zM309 64c137 0 239 101 272 264l5 25c5 26 8 51 8 74 c0 111 -63 183 -165 183c-134 0 -240 -101 -273 -264l-5 -25c-5 -27 -9 -52 -9 -75c0 -111 63 -182 167 -182z"/>
    <glyph glyph-name="Ocircumflex" unicode="Ô" horiz-adv-x="702" d="M267 755l167 143h72l110 -143h-80l-72 91l-113 -91h-84zM304 -12c-149 0 -238 106 -238 250c0 25 3 50 8 77l8 44c35 191 184 327 352 327c149 0 238 -106 238 -250c0 -25 -3 -50 -8 -77l-8 -44c-35 -193 -182 -327 -352 -327zM309 64c137 0 239 101 272 264l5 25 c5 26 8 51 8 74c0 111 -63 183 -165 183c-134 0 -240 -101 -273 -264l-5 -25c-5 -27 -9 -52 -9 -75c0 -111 63 -182 167 -182z"/>
    <glyph glyph-name="Odieresis" unicode="Ö" horiz-adv-x="702" d="M352 758c-29 0 -47 18 -47 47c0 40 25 61 57 61c28 0 47 -16 47 -45c0 -40 -26 -63 -57 -63zM544 758c-29 0 -48 18 -48 47c0 40 26 61 58 61c28 0 46 -16 46 -45c0 -40 -25 -63 -56 -63zM304 -12c-149 0 -238 106 -238 250c0 25 3 50 8 77l8 44c35 191 184 327 352 327 c149 0 238 -106 238 -250c0 -25 -3 -50 -8 -77l-8 -44c-35 -193 -182 -327 -352 -327zM309 64c137 0 239 101 272 264l5 25c5 26 8 51 8 74c0 111 -63 183 -165 183c-134 0 -240 -101 -273 -264l-5 -25c-5 -27 -9 -52 -9 -75c0 -111 63 -182 167 -182z"/>
    <glyph glyph-name="Ograve" unicode="Ò" horiz-adv-x="702" d="M426 755l-148 137h100l137 -137h-89zM304 -12c-149 0 -238 106 -238 250c0 25 3 50 8 77l8 44c35 191 184 327 352 327c149 0 238 -106 238 -250c0 -25 -3 -50 -8 -77l-8 -44c-35 -193 -182 -327 -352 -327zM309 64c137 0 239 101 272 264l5 25c5 26 8 51 8 74 c0 111 -63 183 -165 183c-134 0 -240 -101 -273 -264l-5 -25c-5 -27 -9 -52 -9 -75c0 -111 63 -182 167 -182z"/>
    <glyph glyph-name="Omacron" unicode="Ō" horiz-adv-x="702" d="M307 851h305l-13 -68h-306zM304 -12c-149 0 -238 106 -238 250c0 25 3 50 8 77l8 44c35 191 184 327 352 327c149 0 238 -106 238 -250c0 -25 -3 -50 -8 -77l-8 -44c-35 -193 -182 -327 -352 -327zM309 64c137 0 239 101 272 264l5 25c5 26 8 51 8 74 c0 111 -63 183 -165 183c-134 0 -240 -101 -273 -264l-5 -25c-5 -27 -9 -52 -9 -75c0 -111 63 -182 167 -182z"/>
    <glyph glyph-name="Oslash" unicode="Ø" horiz-adv-x="702" d="M759 729l-127 -143c26 -41 40 -93 40 -150c0 -25 -3 -50 -8 -77l-8 -44c-35 -193 -182 -327 -352 -327c-64 0 -116 19 -156 53l-86 -97h-85l129 145c-26 41 -40 92 -40 149c0 25 3 50 8 77l8 44c35 191 184 327 352 327c63 0 115 -19 154 -51l84 94h87zM142 246 c0 -36 7 -68 19 -94l374 422c-27 23 -63 36 -106 36c-134 0 -240 -101 -273 -264l-5 -25c-5 -27 -9 -52 -9 -75zM594 427c0 36 -7 68 -19 95l-375 -422c28 -23 65 -36 109 -36c137 0 239 101 272 264l5 25c5 26 8 51 8 74z"/>
    <glyph glyph-name="Otilde" unicode="Õ" horiz-adv-x="702" d="M529 757c-38 0 -64 21 -87 37c-21 14 -39 26 -60 26c-30 0 -51 -23 -58 -52h-72c15 81 63 120 129 120c31 0 60 -18 85 -34c20 -13 41 -29 62 -29c26 0 48 19 57 52h73c-14 -71 -65 -120 -129 -120zM304 -12c-149 0 -238 106 -238 250c0 25 3 50 8 77l8 44 c35 191 184 327 352 327c149 0 238 -106 238 -250c0 -25 -3 -50 -8 -77l-8 -44c-35 -193 -182 -327 -352 -327zM309 64c137 0 239 101 272 264l5 25c5 26 8 51 8 74c0 111 -63 183 -165 183c-134 0 -240 -101 -273 -264l-5 -25c-5 -27 -9 -52 -9 -75 c0 -111 63 -182 167 -182z"/>
    <glyph glyph-name="OE" unicode="Œ" horiz-adv-x="1003" d="M1008 600h-305l-42 -217h273l-15 -77h-273l-44 -230h315l-15 -76h-391l19 99c-57 -68 -135 -111 -228 -111c-150 0 -236 104 -236 249c0 25 3 51 8 78l8 42c35 186 176 329 345 329c99 0 163 -44 195 -114l20 104h381zM307 64c128 0 229 95 263 238l7 39l2 11 c5 27 7 52 7 76c0 114 -54 182 -163 182c-134 0 -233 -107 -267 -264l-5 -23c-6 -28 -9 -55 -9 -79c0 -108 57 -180 165 -180z"/>
    <glyph glyph-name="P" unicode="P" horiz-adv-x="571" d="M387 676c118 0 185 -79 185 -180c0 -147 -117 -242 -268 -242h-138l-50 -254h-75l131 676h215zM305 328c115 0 190 64 190 166c0 67 -39 109 -121 109h-139l-54 -275h124z"/>
    <glyph glyph-name="Thorn" unicode="Þ" horiz-adv-x="571" d="M370 584c118 0 185 -79 185 -180c0 -147 -117 -242 -268 -242h-139l-31 -162h-76l132 676h75l-18 -92h140zM288 235c115 0 190 65 190 167c0 66 -39 108 -121 108h-141l-53 -275h125z"/>
    <glyph glyph-name="Q" unicode="Q" horiz-adv-x="702" d="M434 686c149 0 238 -106 238 -250c0 -25 -3 -50 -8 -77l-8 -44c-18 -101 -67 -186 -134 -244l84 -155h-80l-62 114c-49 -27 -103 -42 -160 -42c-149 0 -238 106 -238 250c0 25 3 50 8 77l8 44c35 191 184 327 352 327zM586 353c5 26 8 51 8 74c0 111 -63 183 -165 183 c-134 0 -240 -101 -273 -264l-5 -25c-5 -27 -9 -52 -9 -75c0 -111 63 -182 167 -182c44 0 84 10 120 30l-71 129h81l47 -86c46 45 79 111 95 191z"/>
    <glyph glyph-name="R" unicode="R" horiz-adv-x="579" d="M562 507c0 -106 -69 -187 -166 -221l115 -286h-84l-106 270c-9 -1 -18 -1 -27 -1h-124l-53 -269h-76l131 676h202c122 0 188 -79 188 -169zM184 343h112c111 0 187 59 187 158c0 60 -43 103 -126 103h-122z"/>
    <glyph glyph-name="Racute" unicode="Ŕ" horiz-adv-x="579" d="M578 886l-202 -137h-94l189 137h107zM562 507c0 -106 -69 -187 -166 -221l115 -286h-84l-106 270c-9 -1 -18 -1 -27 -1h-124l-53 -269h-76l131 676h202c122 0 188 -79 188 -169zM296 343c111 0 187 59 187 158c0 60 -43 103 -126 103h-122l-51 -261h112z"/>
    <glyph glyph-name="Rcaron" unicode="Ř" horiz-adv-x="579" d="M394 749h-72l-111 143h81l72 -92l113 92h84zM562 507c0 -106 -69 -187 -166 -221l115 -286h-84l-106 270c-9 -1 -18 -1 -27 -1h-124l-53 -269h-76l131 676h202c122 0 188 -79 188 -169zM184 343h112c111 0 187 59 187 158c0 60 -43 103 -126 103h-122z"/>
    <glyph glyph-name="S" unicode="S" horiz-adv-x="530" d="M217 -12c-69 0 -154 22 -206 51l15 66c58 -27 128 -41 196 -41c98 0 173 38 173 122c0 49 -38 88 -126 126c-114 50 -167 97 -167 181c0 121 105 193 241 193c57 0 132 -17 185 -42l-13 -66c-54 23 -122 32 -175 32c-96 0 -164 -36 -164 -108c0 -48 39 -82 132 -122 c103 -44 165 -101 165 -187c0 -140 -106 -205 -256 -205z"/>
    <glyph glyph-name="Sacute" unicode="Ś" horiz-adv-x="530" d="M270 749l189 137h107l-202 -137h-94zM217 -12c-69 0 -154 22 -206 51l15 66c58 -27 128 -41 196 -41c98 0 173 38 173 122c0 49 -38 88 -126 126c-114 50 -167 97 -167 181c0 121 105 193 241 193c57 0 132 -17 185 -42l-13 -66c-54 23 -122 32 -175 32 c-96 0 -164 -36 -164 -108c0 -48 39 -82 132 -122c103 -44 165 -101 165 -187c0 -140 -106 -205 -256 -205z"/>
    <glyph glyph-name="Scaron" unicode="Š" horiz-adv-x="530" d="M310 749l-111 143h81l72 -92l113 92h84l-167 -143h-72zM217 -12c-69 0 -154 22 -206 51l15 66c58 -27 128 -41 196 -41c98 0 173 38 173 122c0 49 -38 88 -126 126c-114 50 -167 97 -167 181c0 121 105 193 241 193c57 0 132 -17 185 -42l-13 -66c-54 23 -122 32 -175 32 c-96 0 -164 -36 -164 -108c0 -48 39 -82 132 -122c103 -44 165 -101 165 -187c0 -140 -106 -205 -256 -205z"/>
    <glyph glyph-name="uni1E9E" unicode="ẞ" horiz-adv-x="654" d="M360 -11c-62 0 -116 16 -164 46l12 65c47 -27 92 -39 149 -39c97 0 163 48 163 134c0 67 -60 115 -150 115h-40l13 66l197 203c-34 22 -67 33 -125 33c-121 0 -205 -74 -235 -232l-73 -380h-75l74 382c40 206 162 304 307 304c101 0 164 -41 207 -71l-11 -44l-191 -198 l8 -1c102 -13 170 -88 170 -175c0 -129 -102 -208 -236 -208z"/>
    <glyph glyph-name="T" unicode="T" horiz-adv-x="525" d="M589 676l-15 -75h-205l-117 -601h-76l116 601h-207l15 75h489z"/>
    <glyph glyph-name="U" unicode="U" horiz-adv-x="676" d="M296 -12c-140 0 -210 97 -210 227c0 26 3 52 8 80l74 381h77l-74 -378c-5 -26 -8 -52 -8 -75c0 -94 44 -159 138 -159c123 0 194 86 223 238l72 374h78l-74 -381c-37 -191 -138 -307 -304 -307z"/>
    <glyph glyph-name="Uacute" unicode="Ú" horiz-adv-x="676" d="M347 749l189 137h107l-202 -137h-94zM296 -12c-140 0 -210 97 -210 227c0 26 3 52 8 80l74 381h77l-74 -378c-5 -26 -8 -52 -8 -75c0 -94 44 -159 138 -159c123 0 194 86 223 238l72 374h78l-74 -381c-37 -191 -138 -307 -304 -307z"/>
    <glyph glyph-name="Ucircumflex" unicode="Û" horiz-adv-x="676" d="M247 749l167 143h72l110 -143h-80l-72 91l-113 -91h-84zM296 -12c-140 0 -210 97 -210 227c0 26 3 52 8 80l74 381h77l-74 -378c-5 -26 -8 -52 -8 -75c0 -94 44 -159 138 -159c123 0 194 86 223 238l72 374h78l-74 -381c-37 -191 -138 -307 -304 -307z"/>
    <glyph glyph-name="Udieresis" unicode="Ü" horiz-adv-x="676" d="M332 752c-29 0 -47 18 -47 47c0 40 25 61 57 61c28 0 47 -16 47 -45c0 -40 -26 -63 -57 -63zM524 752c-29 0 -48 18 -48 47c0 40 26 61 58 61c28 0 46 -16 46 -45c0 -40 -25 -63 -56 -63zM296 -12c-140 0 -210 97 -210 227c0 26 3 52 8 80l74 381h77l-74 -378 c-5 -26 -8 -52 -8 -75c0 -94 44 -159 138 -159c123 0 194 86 223 238l72 374h78l-74 -381c-37 -191 -138 -307 -304 -307z"/>
    <glyph glyph-name="Ugrave" unicode="Ù" horiz-adv-x="676" d="M406 749l-148 137h100l137 -137h-89zM296 -12c-140 0 -210 97 -210 227c0 26 3 52 8 80l74 381h77l-74 -378c-5 -26 -8 -52 -8 -75c0 -94 44 -159 138 -159c123 0 194 86 223 238l72 374h78l-74 -381c-37 -191 -138 -307 -304 -307z"/>
    <glyph glyph-name="Umacron" unicode="Ū" horiz-adv-x="676" d="M287 845h305l-13 -68h-306zM296 -12c-140 0 -210 97 -210 227c0 26 3 52 8 80l74 381h77l-74 -378c-5 -26 -8 -52 -8 -75c0 -94 44 -159 138 -159c123 0 194 86 223 238l72 374h78l-74 -381c-37 -191 -138 -307 -304 -307z"/>
    <glyph glyph-name="Uring" unicode="Ů" horiz-adv-x="676" d="M427 727c-60 0 -110 46 -110 109c0 62 52 108 110 108c60 0 109 -46 109 -108c0 -63 -50 -109 -109 -109zM427 780c31 0 53 23 53 56c0 32 -23 55 -53 55c-32 0 -54 -23 -54 -55c0 -33 23 -56 54 -56zM296 -12c-140 0 -210 97 -210 227c0 26 3 52 8 80l74 381h77 l-74 -378c-5 -26 -8 -52 -8 -75c0 -94 44 -159 138 -159c123 0 194 86 223 238l72 374h78l-74 -381c-37 -191 -138 -307 -304 -307z"/>
    <glyph glyph-name="V" unicode="V" horiz-adv-x="618" d="M592 676h88l-382 -676h-75l-118 676h82l92 -574z"/>
    <glyph glyph-name="W" unicode="W" horiz-adv-x="893" d="M171 0l-48 676h83l25 -563l253 545h81l43 -546l245 564h85l-314 -676h-79l-43 544l-252 -544h-79z"/>
    <glyph glyph-name="Wacute" unicode="Ẃ" horiz-adv-x="893" d="M457 749l189 137h107l-202 -137h-94zM171 0l-48 676h83l25 -563l253 545h81l43 -546l245 564h85l-314 -676h-79l-43 544l-252 -544h-79z"/>
    <glyph glyph-name="Wcircumflex" unicode="Ŵ" horiz-adv-x="893" d="M357 749l167 143h72l110 -143h-80l-72 91l-113 -91h-84zM171 0l-48 676h83l25 -563l253 545h81l43 -546l245 564h85l-314 -676h-79l-43 544l-252 -544h-79z"/>
    <glyph glyph-name="Wdieresis" unicode="Ẅ" horiz-adv-x="893" d="M442 752c-29 0 -47 18 -47 47c0 40 25 61 57 61c28 0 47 -16 47 -45c0 -40 -26 -63 -57 -63zM634 752c-29 0 -48 18 -48 47c0 40 26 61 58 61c28 0 46 -16 46 -45c0 -40 -25 -63 -56 -63zM171 0l-48 676h83l25 -563l253 545h81l43 -546l245 564h85l-314 -676h-79l-43 544 l-252 -544h-79z"/>
    <glyph glyph-name="Wgrave" unicode="Ẁ" horiz-adv-x="893" d="M516 749l-148 137h100l137 -137h-89zM171 0l-48 676h83l25 -563l253 545h81l43 -546l245 564h85l-314 -676h-79l-43 544l-252 -544h-79z"/>
    <glyph glyph-name="X" unicode="X" horiz-adv-x="645" d="M670 676l-284 -322l180 -354h-87l-149 301l-260 -301h-92l320 366l-156 310h86l125 -258l227 258h90z"/>
    <glyph glyph-name="Y" unicode="Y" horiz-adv-x="565" d="M630 676l-311 -426l-48 -250h-77l50 259l-141 417h81l111 -343l248 343h87z"/>
    <glyph glyph-name="Yacute" unicode="Ý" horiz-adv-x="565" d="M583 886l-202 -137h-94l189 137h107zM630 676l-311 -426l-48 -250h-77l50 259l-141 417h81l111 -343l248 343h87z"/>
    <glyph glyph-name="Ycircumflex" unicode="Ŷ" horiz-adv-x="565" d="M384 840l-113 -91h-84l167 143h72l110 -143h-80zM630 676l-311 -426l-48 -250h-77l50 259l-141 417h81l111 -343l248 343h87z"/>
    <glyph glyph-name="Ydieresis" unicode="Ÿ" horiz-adv-x="565" d="M272 752c-29 0 -47 18 -47 47c0 40 25 61 57 61c28 0 47 -16 47 -45c0 -40 -26 -63 -57 -63zM464 752c-29 0 -48 18 -48 47c0 40 26 61 58 61c28 0 46 -16 46 -45c0 -40 -25 -63 -56 -63zM630 676l-311 -426l-48 -250h-77l50 259l-141 417h81l111 -343l248 343h87z"/>
    <glyph glyph-name="Ygrave" unicode="Ỳ" horiz-adv-x="565" d="M435 749h-89l-148 137h100zM630 676l-311 -426l-48 -250h-77l50 259l-141 417h81l111 -343l248 343h87z"/>
    <glyph glyph-name="Z" unicode="Z" horiz-adv-x="572" d="M0 0l13 70l475 531h-360l14 75h452l-13 -70l-473 -531h382l-15 -75h-475z"/>
    <glyph glyph-name="Zacute" unicode="Ź" horiz-adv-x="572" d="M283 749l189 137h107l-202 -137h-94zM0 0l13 70l475 531h-360l14 75h452l-13 -70l-473 -531h382l-15 -75h-475z"/>
    <glyph glyph-name="Zcaron" unicode="Ž" horiz-adv-x="572" d="M323 749l-111 143h81l72 -92l113 92h84l-167 -143h-72zM0 0l13 70l475 531h-360l14 75h452l-13 -70l-473 -531h382l-15 -75h-475z"/>
    <glyph glyph-name="Zdotaccent" unicode="Ż" horiz-adv-x="572" d="M364 751c-29 0 -49 19 -49 48c0 40 27 64 60 64c29 0 48 -18 48 -47c0 -39 -27 -65 -59 -65zM0 0l13 70l475 531h-360l14 75h452l-13 -70l-473 -531h382l-15 -75h-475z"/>
    <glyph glyph-name="a" unicode="a" horiz-adv-x="552" d="M521 501l-98 -501h-58l1 54c-48 -36 -102 -64 -159 -64c-105 0 -162 81 -162 187c0 15 1 31 4 47l6 31c34 173 169 246 307 246h159zM373 129l59 302h-79c-118 0 -202 -63 -228 -193l-3 -15c-3 -16 -4 -31 -4 -45c0 -69 30 -117 100 -117c54 0 98 23 155 68z"/>
    <glyph glyph-name="aacute" unicode="á" horiz-adv-x="552" d="M555 741l-178 -143h-85l167 143h96zM521 501l-98 -501h-58l1 54c-48 -36 -102 -64 -159 -64c-105 0 -162 81 -162 187c0 15 1 31 4 47l6 31c34 173 169 246 307 246h159zM373 129l59 302h-79c-118 0 -202 -63 -228 -193l-3 -15c-3 -16 -4 -31 -4 -45 c0 -69 30 -117 100 -117c54 0 98 23 155 68z"/>
    <glyph glyph-name="acircumflex" unicode="â" horiz-adv-x="552" d="M382 694l-100 -96h-73l145 148h69l86 -148h-71zM521 501l-98 -501h-58l1 54c-48 -36 -102 -64 -159 -64c-105 0 -162 81 -162 187c0 15 1 31 4 47l6 31c34 173 169 246 307 246h159zM373 129l59 302h-79c-118 0 -202 -63 -228 -193l-3 -15c-3 -16 -4 -31 -4 -45 c0 -69 30 -117 100 -117c54 0 98 23 155 68z"/>
    <glyph glyph-name="adieresis" unicode="ä" horiz-adv-x="552" d="M278 613c-28 0 -44 18 -44 45c0 37 22 59 53 59c27 0 45 -16 45 -44c0 -36 -25 -60 -54 -60zM451 613c-28 0 -45 18 -45 45c0 37 23 59 54 59c27 0 45 -16 45 -44c0 -36 -25 -60 -54 -60zM521 501l-98 -501h-58l1 54c-48 -36 -102 -64 -159 -64c-105 0 -162 81 -162 187 c0 15 1 31 4 47l6 31c34 173 169 246 307 246h159zM373 129l59 302h-79c-118 0 -202 -63 -228 -193l-3 -15c-3 -16 -4 -31 -4 -45c0 -69 30 -117 100 -117c54 0 98 23 155 68z"/>
    <glyph glyph-name="agrave" unicode="à" horiz-adv-x="552" d="M423 598h-77l-122 143h88zM521 501l-98 -501h-58l1 54c-48 -36 -102 -64 -159 -64c-105 0 -162 81 -162 187c0 15 1 31 4 47l6 31c34 173 169 246 307 246h159zM373 129l59 302h-79c-118 0 -202 -63 -228 -193l-3 -15c-3 -16 -4 -31 -4 -45c0 -69 30 -117 100 -117 c54 0 98 23 155 68z"/>
    <glyph glyph-name="amacron" unicode="ā" horiz-adv-x="552" d="M509 701l-13 -67h-260l13 67h260zM521 501l-98 -501h-58l1 54c-48 -36 -102 -64 -159 -64c-105 0 -162 81 -162 187c0 15 1 31 4 47l6 31c34 173 169 246 307 246h159zM373 129l59 302h-79c-118 0 -202 -63 -228 -193l-3 -15c-3 -16 -4 -31 -4 -45 c0 -69 30 -117 100 -117c54 0 98 23 155 68z"/>
    <glyph glyph-name="aring" unicode="å" horiz-adv-x="552" d="M368 590c-60 0 -110 46 -110 109c0 62 52 108 110 108c60 0 109 -46 109 -108c0 -63 -50 -109 -109 -109zM368 756c-33 0 -56 -24 -56 -57c0 -34 24 -58 56 -58s55 24 55 58c0 33 -24 57 -55 57zM521 501l-98 -501h-58l1 54c-48 -36 -102 -64 -159 -64 c-105 0 -162 81 -162 187c0 15 1 31 4 47l6 31c34 173 169 246 307 246h159zM373 129l59 302h-79c-118 0 -202 -63 -228 -193l-3 -15c-3 -16 -4 -31 -4 -45c0 -69 30 -117 100 -117c54 0 98 23 155 68z"/>
    <glyph glyph-name="atilde" unicode="ã" horiz-adv-x="552" d="M310 666c-27 0 -46 -20 -52 -47h-64c14 76 60 112 118 112c28 0 51 -16 72 -31c19 -13 36 -26 55 -26c23 0 43 16 51 47h64c-12 -66 -61 -112 -118 -112c-33 0 -55 16 -75 31c-18 13 -33 26 -51 26zM521 501l-98 -501h-58l1 54c-48 -36 -102 -64 -159 -64 c-105 0 -162 81 -162 187c0 15 1 31 4 47l6 31c34 173 169 246 307 246h159zM373 129l59 302h-79c-118 0 -202 -63 -228 -193l-3 -15c-3 -16 -4 -31 -4 -45c0 -69 30 -117 100 -117c54 0 98 23 155 68z"/>
    <glyph glyph-name="ae" unicode="æ" horiz-adv-x="840" d="M615 216h-153c-1 -11 -2 -21 -2 -32c0 -78 51 -126 122 -126c51 0 95 9 141 25l-14 -69c-42 -16 -85 -26 -132 -26c-65 0 -116 28 -145 79l-13 -67h-58l1 53c-48 -35 -101 -63 -157 -63c-105 0 -160 81 -160 187c0 15 1 31 4 47l6 31c34 173 169 246 305 246h152l-11 -58 c44 44 101 68 164 68c104 0 151 -63 151 -133c0 -106 -85 -162 -201 -162zM663 443c-86 0 -157 -56 -188 -163h140c76 0 127 29 127 94c0 39 -27 69 -79 69zM118 178c0 -69 28 -117 98 -117c54 0 96 23 153 68l59 302h-77c-116 0 -200 -63 -226 -193l-3 -15 c-3 -16 -4 -31 -4 -45z"/>
    <glyph glyph-name="b" unicode="b" horiz-adv-x="554" d="M344 511c106 0 162 -87 162 -188c0 -15 -1 -30 -4 -46l-5 -30c-27 -167 -170 -247 -308 -247h-159l138 711h75l-50 -255c47 31 98 55 151 55zM428 280c2 14 3 26 3 40c0 67 -27 120 -97 120c-56 0 -97 -22 -156 -65l-59 -305h79c119 0 212 74 228 195z"/>
    <glyph glyph-name="c" unicode="c" horiz-adv-x="452" d="M245 -12c-124 0 -197 89 -197 202c0 15 1 32 4 48l4 24c24 145 145 249 279 249c40 0 75 -11 111 -28l-15 -62c-28 11 -51 20 -94 20c-102 0 -183 -69 -206 -185l-3 -15c-3 -16 -4 -31 -4 -45c0 -84 49 -138 128 -138c46 0 85 9 130 28l-14 -69c-41 -19 -83 -29 -123 -29 z"/>
    <glyph glyph-name="cacute" unicode="ć" horiz-adv-x="452" d="M260 598l167 143h96l-178 -143h-85zM245 -12c-124 0 -197 89 -197 202c0 15 1 32 4 48l4 24c24 145 145 249 279 249c40 0 75 -11 111 -28l-15 -62c-28 11 -51 20 -94 20c-102 0 -183 -69 -206 -185l-3 -15c-3 -16 -4 -31 -4 -45c0 -84 49 -138 128 -138 c46 0 85 9 130 28l-14 -69c-41 -19 -83 -29 -123 -29z"/>
    <glyph glyph-name="ccaron" unicode="č" horiz-adv-x="452" d="M294 598l-87 148h72l56 -96l100 96h73l-145 -148h-69zM245 -12c-124 0 -197 89 -197 202c0 15 1 32 4 48l4 24c24 145 145 249 279 249c40 0 75 -11 111 -28l-15 -62c-28 11 -51 20 -94 20c-102 0 -183 -69 -206 -185l-3 -15c-3 -16 -4 -31 -4 -45 c0 -84 49 -138 128 -138c46 0 85 9 130 28l-14 -69c-41 -19 -83 -29 -123 -29z"/>
    <glyph glyph-name="ccedilla" unicode="ç" horiz-adv-x="452" d="M131 256l-3 -15c-3 -16 -4 -31 -4 -45c0 -84 49 -138 128 -138c46 0 85 9 130 28l-14 -69c-35 -16 -70 -26 -104 -28c4 -12 7 -26 7 -40c0 -74 -58 -129 -132 -129c-24 0 -51 6 -74 19l9 50c17 -7 34 -10 49 -10c54 0 86 37 86 85c0 9 -1 19 -4 27 c-100 18 -157 99 -157 199c0 15 1 32 4 48l4 24c24 145 145 249 279 249c40 0 75 -11 111 -28l-15 -62c-28 11 -51 20 -94 20c-102 0 -183 -69 -206 -185z"/>
    <glyph glyph-name="cdotaccent" unicode="ċ" horiz-adv-x="452" d="M334 605c-29 0 -48 20 -48 49c0 41 27 63 59 63c30 0 49 -17 49 -47c0 -39 -27 -65 -60 -65zM245 -12c-124 0 -197 89 -197 202c0 15 1 32 4 48l4 24c24 145 145 249 279 249c40 0 75 -11 111 -28l-15 -62c-28 11 -51 20 -94 20c-102 0 -183 -69 -206 -185l-3 -15 c-3 -16 -4 -31 -4 -45c0 -84 49 -138 128 -138c46 0 85 9 130 28l-14 -69c-41 -19 -83 -29 -123 -29z"/>
    <glyph glyph-name="d" unicode="d" horiz-adv-x="550" d="M487 711h75l-139 -711h-58l1 54c-48 -36 -102 -64 -159 -64c-105 0 -162 81 -162 187c0 15 1 31 4 47l6 31c34 173 169 246 307 246h84zM373 129l59 302h-79c-118 0 -202 -63 -228 -193l-3 -15c-3 -16 -4 -31 -4 -45c0 -69 30 -117 100 -117c54 0 98 23 155 68z"/>
    <glyph glyph-name="eth" unicode="ð" horiz-adv-x="553" d="M608 686l-11 -64l-108 -27c19 -57 30 -122 30 -188c0 -35 -3 -70 -10 -104l-7 -35c-34 -177 -142 -280 -271 -280c-120 0 -183 78 -183 187c0 16 1 32 4 49l5 32c21 136 129 232 272 232c45 0 83 -12 112 -29c-3 42 -10 82 -20 119l-149 -38l12 64l118 30 c-11 29 -25 55 -40 77h70c13 -17 25 -38 35 -61zM428 272l5 27c5 29 8 58 9 86c-30 20 -76 33 -120 33c-105 0 -173 -63 -193 -170l-4 -22c-3 -17 -5 -33 -5 -48c0 -74 39 -118 113 -118c94 0 168 68 195 212z"/>
    <glyph glyph-name="e" unicode="e" horiz-adv-x="500" d="M275 216h-153c-1 -10 -2 -19 -2 -32c0 -78 39 -126 122 -126c51 0 95 9 140 25l-13 -69c-42 -16 -85 -26 -132 -26c-124 0 -189 73 -189 193c0 20 1 38 4 55l5 28c27 152 144 247 268 247c104 0 151 -63 151 -133c0 -106 -85 -162 -201 -162zM323 443 c-85 0 -157 -56 -188 -163h140c76 0 127 29 127 94c0 39 -27 69 -79 69z"/>
    <glyph glyph-name="eacute" unicode="é" horiz-adv-x="500" d="M528 741l-178 -143h-85l167 143h96zM325 511c104 0 151 -63 151 -133c0 -106 -85 -162 -201 -162h-153c-1 -10 -2 -19 -2 -32c0 -78 39 -126 122 -126c51 0 95 9 140 25l-13 -69c-42 -16 -85 -26 -132 -26c-124 0 -189 73 -189 193c0 20 1 38 4 55l5 28 c27 152 144 247 268 247zM275 280c76 0 127 29 127 94c0 39 -27 69 -79 69c-85 0 -157 -56 -188 -163h140z"/>
    <glyph glyph-name="ecaron" unicode="ě" horiz-adv-x="500" d="M368 598h-69l-87 148h72l56 -96l100 96h73zM325 511c104 0 151 -63 151 -133c0 -106 -85 -162 -201 -162h-153c-1 -10 -2 -19 -2 -32c0 -78 39 -126 122 -126c51 0 95 9 140 25l-13 -69c-42 -16 -85 -26 -132 -26c-124 0 -189 73 -189 193c0 20 1 38 4 55l5 28 c27 152 144 247 268 247zM275 280c76 0 127 29 127 94c0 39 -27 69 -79 69c-85 0 -157 -56 -188 -163h140z"/>
    <glyph glyph-name="ecircumflex" unicode="ê" horiz-adv-x="500" d="M355 694l-100 -96h-73l145 148h69l86 -148h-71zM325 511c104 0 151 -63 151 -133c0 -106 -85 -162 -201 -162h-153c-1 -10 -2 -19 -2 -32c0 -78 39 -126 122 -126c51 0 95 9 140 25l-13 -69c-42 -16 -85 -26 -132 -26c-124 0 -189 73 -189 193c0 20 1 38 4 55l5 28 c27 152 144 247 268 247zM275 280c76 0 127 29 127 94c0 39 -27 69 -79 69c-85 0 -157 -56 -188 -163h140z"/>
    <glyph glyph-name="edieresis" unicode="ë" horiz-adv-x="500" d="M251 613c-28 0 -44 18 -44 45c0 37 22 59 53 59c27 0 45 -16 45 -44c0 -36 -25 -60 -54 -60zM424 613c-28 0 -45 18 -45 45c0 37 23 59 54 59c27 0 45 -16 45 -44c0 -36 -25 -60 -54 -60zM325 511c104 0 151 -63 151 -133c0 -106 -85 -162 -201 -162h-153 c-1 -10 -2 -19 -2 -32c0 -78 39 -126 122 -126c51 0 95 9 140 25l-13 -69c-42 -16 -85 -26 -132 -26c-124 0 -189 73 -189 193c0 20 1 38 4 55l5 28c27 152 144 247 268 247zM275 280c76 0 127 29 127 94c0 39 -27 69 -79 69c-85 0 -157 -56 -188 -163h140z"/>
    <glyph glyph-name="edotaccent" unicode="ė" horiz-adv-x="500" d="M339 605c-29 0 -48 20 -48 49c0 41 27 63 59 63c30 0 49 -17 49 -47c0 -39 -27 -65 -60 -65zM275 216h-153c-1 -10 -2 -19 -2 -32c0 -78 39 -126 122 -126c51 0 95 9 140 25l-13 -69c-42 -16 -85 -26 -132 -26c-124 0 -189 73 -189 193c0 20 1 38 4 55l5 28 c27 152 144 247 268 247c104 0 151 -63 151 -133c0 -106 -85 -162 -201 -162zM323 443c-85 0 -157 -56 -188 -163h140c76 0 127 29 127 94c0 39 -27 69 -79 69z"/>
    <glyph glyph-name="egrave" unicode="è" horiz-adv-x="500" d="M396 598h-77l-122 143h88zM275 216h-153c-1 -10 -2 -19 -2 -32c0 -78 39 -126 122 -126c51 0 95 9 140 25l-13 -69c-42 -16 -85 -26 -132 -26c-124 0 -189 73 -189 193c0 20 1 38 4 55l5 28c27 152 144 247 268 247c104 0 151 -63 151 -133c0 -106 -85 -162 -201 -162z M323 443c-85 0 -157 -56 -188 -163h140c76 0 127 29 127 94c0 39 -27 69 -79 69z"/>
    <glyph glyph-name="emacron" unicode="ē" horiz-adv-x="500" d="M482 701l-13 -67h-260l13 67h260zM325 511c104 0 151 -63 151 -133c0 -106 -85 -162 -201 -162h-153c-1 -10 -2 -19 -2 -32c0 -78 39 -126 122 -126c51 0 95 9 140 25l-13 -69c-42 -16 -85 -26 -132 -26c-124 0 -189 73 -189 193c0 20 1 38 4 55l5 28 c27 152 144 247 268 247zM275 280c76 0 127 29 127 94c0 39 -27 69 -79 69c-85 0 -157 -56 -188 -163h140z"/>
    <glyph glyph-name="f" unicode="f" horiz-adv-x="405" d="M30 0l100 513c27 140 109 208 225 208c38 0 76 -10 106 -24l-15 -61c-24 8 -49 15 -90 15c-78 0 -133 -36 -152 -139l-2 -11h211l-14 -70h-210l-84 -431h-75z"/>
    <glyph glyph-name="g" unicode="g" horiz-adv-x="546" d="M513 501l-95 -494c-28 -139 -120 -223 -266 -223c-52 0 -101 11 -147 32l13 63c38 -15 87 -24 135 -24c105 0 171 54 193 167l7 38c-45 -30 -95 -53 -146 -53c-103 0 -165 76 -165 179c0 18 1 36 5 54l6 31c34 174 171 230 309 230h151zM369 140l56 291h-73 c-118 0 -204 -46 -228 -176l-3 -16c-3 -17 -5 -33 -5 -48c0 -67 32 -113 101 -113c55 0 95 21 152 62z"/>
    <glyph glyph-name="gdotaccent" unicode="ġ" horiz-adv-x="546" d="M366 605c-29 0 -48 20 -48 49c0 41 27 63 59 63c30 0 49 -17 49 -47c0 -39 -27 -65 -60 -65zM513 501l-95 -494c-28 -139 -120 -223 -266 -223c-52 0 -101 11 -147 32l13 63c38 -15 87 -24 135 -24c105 0 171 54 193 167l7 38c-45 -30 -95 -53 -146 -53 c-103 0 -165 76 -165 179c0 18 1 36 5 54l6 31c34 174 171 230 309 230h151zM369 140l56 291h-73c-118 0 -204 -46 -228 -176l-3 -16c-3 -17 -5 -33 -5 -48c0 -67 32 -113 101 -113c55 0 95 21 152 62z"/>
    <glyph glyph-name="h" unicode="h" horiz-adv-x="559" d="M311 511c118 0 184 -72 184 -182c0 -19 -2 -38 -6 -59l-54 -270h-75l50 256c4 21 7 41 7 60c0 73 -35 124 -115 124c-40 0 -82 -5 -114 -12l-83 -428h-75l138 711h75l-41 -213c34 8 72 13 109 13z"/>
    <glyph glyph-name="i" unicode="i" horiz-adv-x="233" d="M191 605c-29 0 -48 20 -48 49c0 40 26 63 59 63c28 0 47 -19 47 -48c0 -40 -26 -64 -58 -64zM30 0l97 501h76l-98 -501h-75z"/>
    <glyph glyph-name="dotlessi" unicode="ı" horiz-adv-x="233" d="M30 0l97 501h76l-98 -501h-75z"/>
    <glyph glyph-name="iacute" unicode="í" horiz-adv-x="233" d="M111 598l167 143h96l-178 -143h-85zM30 0l97 501h76l-98 -501h-75z"/>
    <glyph glyph-name="icircumflex" unicode="î" horiz-adv-x="233" d="M28 598l145 148h69l86 -148h-71l-56 96l-100 -96h-73zM30 0l97 501h76l-98 -501h-75z"/>
    <glyph glyph-name="idieresis" unicode="ï" horiz-adv-x="233" d="M97 613c-28 0 -44 18 -44 45c0 37 22 59 53 59c27 0 45 -16 45 -44c0 -36 -25 -60 -54 -60zM270 613c-28 0 -45 18 -45 45c0 37 23 59 54 59c27 0 45 -16 45 -44c0 -36 -25 -60 -54 -60zM30 0l97 501h76l-98 -501h-75z"/>
    <glyph glyph-name="i.loclTRK" horiz-adv-x="233" d="M185 605c-29 0 -48 20 -48 49c0 41 27 63 59 63c30 0 49 -17 49 -47c0 -39 -27 -65 -60 -65zM30 0l97 501h76l-98 -501h-75z"/>
    <glyph glyph-name="igrave" unicode="ì" horiz-adv-x="233" d="M165 598l-122 143h88l111 -143h-77zM30 0l97 501h76l-98 -501h-75z"/>
    <glyph glyph-name="ij" unicode="ĳ" horiz-adv-x="465" d="M191 605c-29 0 -48 20 -48 49c0 40 26 63 59 63c28 0 47 -19 47 -48c0 -40 -26 -64 -58 -64zM424 605c-29 0 -48 20 -48 49c0 40 26 63 59 63c28 0 47 -19 47 -48c0 -40 -26 -64 -58 -64zM30 0l97 501h76l-98 -501h-75zM153 -216c-34 0 -68 11 -88 22l12 60 c17 -8 41 -11 67 -11c60 0 98 40 112 108l104 538h76l-104 -536c-23 -113 -89 -181 -179 -181z"/>
    <glyph glyph-name="imacron" unicode="ī" horiz-adv-x="233" d="M68 701h260l-13 -67h-260zM30 0l97 501h76l-98 -501h-75z"/>
    <glyph glyph-name="j" unicode="j" horiz-adv-x="233" d="M191 605c-29 0 -48 20 -48 49c0 40 26 63 59 63c28 0 47 -19 47 -48c0 -40 -26 -64 -58 -64zM-80 -216c-34 0 -68 11 -88 22l12 60c17 -8 41 -11 67 -11c60 0 98 40 112 108l104 538h76l-104 -536c-23 -113 -89 -181 -179 -181z"/>
    <glyph glyph-name="k" unicode="k" horiz-adv-x="487" d="M506 501l-281 -235l200 -266h-91l-182 247l-48 -247h-74l138 711h74l-82 -422l251 212h95z"/>
    <glyph glyph-name="l" unicode="l" horiz-adv-x="232" d="M30 0l138 711h75l-138 -711h-75z"/>
    <glyph glyph-name="m" unicode="m" horiz-adv-x="825" d="M597 511c108 0 166 -63 166 -169c0 -21 -2 -43 -7 -67l-55 -275h-75l51 261c5 28 9 53 9 75c0 66 -28 104 -98 104c-53 0 -99 -16 -131 -29c8 -22 12 -48 12 -77c0 -19 -2 -41 -7 -63l-53 -271h-75l51 261c5 26 8 51 8 73c0 65 -26 106 -93 106c-36 0 -79 -5 -112 -12 l-83 -428h-75l95 487c62 15 127 24 183 24c47 0 86 -16 114 -44c58 24 121 44 175 44z"/>
    <glyph glyph-name="n" unicode="n" horiz-adv-x="559" d="M30 0l95 488c59 14 120 23 186 23c118 0 184 -72 184 -182c0 -19 -2 -38 -6 -59l-54 -270h-75l50 256c4 21 7 41 7 60c0 73 -35 124 -115 124c-40 0 -82 -5 -114 -12l-83 -428h-75z"/>
    <glyph glyph-name="nacute" unicode="ń" horiz-adv-x="559" d="M262 598l167 143h96l-178 -143h-85zM30 0l95 488c59 14 120 23 186 23c118 0 184 -72 184 -182c0 -19 -2 -38 -6 -59l-54 -270h-75l50 256c4 21 7 41 7 60c0 73 -35 124 -115 124c-40 0 -82 -5 -114 -12l-83 -428h-75z"/>
    <glyph glyph-name="ncaron" unicode="ň" horiz-adv-x="559" d="M296 598l-87 148h72l56 -96l100 96h73l-145 -148h-69zM30 0l95 488c59 14 120 23 186 23c118 0 184 -72 184 -182c0 -19 -2 -38 -6 -59l-54 -270h-75l50 256c4 21 7 41 7 60c0 73 -35 124 -115 124c-40 0 -82 -5 -114 -12l-83 -428h-75z"/>
    <glyph glyph-name="ntilde" unicode="ñ" horiz-adv-x="559" d="M406 609c-33 0 -55 16 -75 31c-18 13 -33 26 -51 26c-27 0 -46 -20 -52 -47h-64c14 76 60 112 118 112c28 0 51 -16 72 -31c19 -13 36 -26 55 -26c23 0 43 16 51 47h64c-12 -66 -61 -112 -118 -112zM30 0l95 488c59 14 120 23 186 23c118 0 184 -72 184 -182 c0 -19 -2 -38 -6 -59l-54 -270h-75l50 256c4 21 7 41 7 60c0 73 -35 124 -115 124c-40 0 -82 -5 -114 -12l-83 -428h-75z"/>
    <glyph glyph-name="o" unicode="o" horiz-adv-x="554" d="M238 -12c-118 0 -190 86 -190 204c0 15 1 31 4 48l7 35c27 135 126 236 256 236c118 0 189 -86 189 -204c0 -15 -1 -31 -4 -48l-7 -35c-26 -135 -125 -236 -255 -236zM241 58c91 0 161 72 182 184l3 16c3 15 4 30 4 44c0 79 -39 139 -118 139c-91 0 -162 -72 -183 -184 l-3 -16c-3 -15 -4 -30 -4 -44c0 -79 40 -139 119 -139z"/>
    <glyph glyph-name="oacute" unicode="ó" horiz-adv-x="554" d="M268 598l167 143h96l-178 -143h-85zM238 -12c-118 0 -190 86 -190 204c0 15 1 31 4 48l7 35c27 135 126 236 256 236c118 0 189 -86 189 -204c0 -15 -1 -31 -4 -48l-7 -35c-26 -135 -125 -236 -255 -236zM241 58c91 0 161 72 182 184l3 16c3 15 4 30 4 44 c0 79 -39 139 -118 139c-91 0 -162 -72 -183 -184l-3 -16c-3 -15 -4 -30 -4 -44c0 -79 40 -139 119 -139z"/>
    <glyph glyph-name="ocircumflex" unicode="ô" horiz-adv-x="554" d="M185 598l145 148h69l86 -148h-71l-56 96l-100 -96h-73zM238 -12c-118 0 -190 86 -190 204c0 15 1 31 4 48l7 35c27 135 126 236 256 236c118 0 189 -86 189 -204c0 -15 -1 -31 -4 -48l-7 -35c-26 -135 -125 -236 -255 -236zM241 58c91 0 161 72 182 184l3 16 c3 15 4 30 4 44c0 79 -39 139 -118 139c-91 0 -162 -72 -183 -184l-3 -16c-3 -15 -4 -30 -4 -44c0 -79 40 -139 119 -139z"/>
    <glyph glyph-name="odieresis" unicode="ö" horiz-adv-x="554" d="M254 613c-28 0 -44 18 -44 45c0 37 22 59 53 59c27 0 45 -16 45 -44c0 -36 -25 -60 -54 -60zM427 613c-28 0 -45 18 -45 45c0 37 23 59 54 59c27 0 45 -16 45 -44c0 -36 -25 -60 -54 -60zM238 -12c-118 0 -190 86 -190 204c0 15 1 31 4 48l7 35c27 135 126 236 256 236 c118 0 189 -86 189 -204c0 -15 -1 -31 -4 -48l-7 -35c-26 -135 -125 -236 -255 -236zM241 58c91 0 161 72 182 184l3 16c3 15 4 30 4 44c0 79 -39 139 -118 139c-91 0 -162 -72 -183 -184l-3 -16c-3 -15 -4 -30 -4 -44c0 -79 40 -139 119 -139z"/>
    <glyph glyph-name="ograve" unicode="ò" horiz-adv-x="554" d="M322 598l-122 143h88l111 -143h-77zM238 -12c-118 0 -190 86 -190 204c0 15 1 31 4 48l7 35c27 135 126 236 256 236c118 0 189 -86 189 -204c0 -15 -1 -31 -4 -48l-7 -35c-26 -135 -125 -236 -255 -236zM241 58c91 0 161 72 182 184l3 16c3 15 4 30 4 44 c0 79 -39 139 -118 139c-91 0 -162 -72 -183 -184l-3 -16c-3 -15 -4 -30 -4 -44c0 -79 40 -139 119 -139z"/>
    <glyph glyph-name="omacron" unicode="ō" horiz-adv-x="554" d="M225 701h260l-13 -67h-260zM238 -12c-118 0 -190 86 -190 204c0 15 1 31 4 48l7 35c27 135 126 236 256 236c118 0 189 -86 189 -204c0 -15 -1 -31 -4 -48l-7 -35c-26 -135 -125 -236 -255 -236zM241 58c91 0 161 72 182 184l3 16c3 15 4 30 4 44c0 79 -39 139 -118 139 c-91 0 -162 -72 -183 -184l-3 -16c-3 -15 -4 -30 -4 -44c0 -79 40 -139 119 -139z"/>
    <glyph glyph-name="oslash" unicode="ø" horiz-adv-x="554" d="M582 544l-108 -119c20 -33 30 -73 30 -118c0 -15 -1 -31 -4 -48l-7 -35c-26 -135 -125 -236 -255 -236c-50 0 -91 15 -123 42l-69 -77h-78l110 121c-20 33 -30 73 -30 118c0 15 1 31 4 48l7 35c27 135 126 236 256 236c49 0 91 -15 122 -41l67 74h78zM122 197 c0 -23 3 -44 10 -63l255 281c-19 17 -44 26 -75 26c-91 0 -162 -72 -183 -184l-3 -16c-3 -15 -4 -30 -4 -44zM430 302c0 23 -3 45 -10 63l-255 -281c19 -16 44 -26 76 -26c91 0 161 72 182 184l3 16c3 15 4 30 4 44z"/>
    <glyph glyph-name="otilde" unicode="õ" horiz-adv-x="554" d="M412 609c-33 0 -55 16 -75 31c-18 13 -33 26 -51 26c-27 0 -46 -20 -52 -47h-64c14 76 60 112 118 112c28 0 51 -16 72 -31c19 -13 36 -26 55 -26c23 0 43 16 51 47h64c-12 -66 -61 -112 -118 -112zM238 -12c-118 0 -190 86 -190 204c0 15 1 31 4 48l7 35 c27 135 126 236 256 236c118 0 189 -86 189 -204c0 -15 -1 -31 -4 -48l-7 -35c-26 -135 -125 -236 -255 -236zM241 58c91 0 161 72 182 184l3 16c3 15 4 30 4 44c0 79 -39 139 -118 139c-91 0 -162 -72 -183 -184l-3 -16c-3 -15 -4 -30 -4 -44c0 -79 40 -139 119 -139z"/>
    <glyph glyph-name="oe" unicode="œ" horiz-adv-x="870" d="M645 216h-153c-1 -11 -2 -21 -2 -32c0 -78 40 -126 122 -126c51 0 95 9 141 25l-14 -69c-42 -16 -85 -26 -132 -26c-91 0 -150 39 -175 107c-44 -66 -110 -107 -194 -107c-118 0 -190 86 -190 204c0 15 1 31 4 48l7 35c27 135 126 236 256 236c85 0 141 -46 165 -116 c52 73 131 116 215 116c104 0 151 -63 151 -133c0 -106 -85 -162 -201 -162zM693 443c-86 0 -157 -56 -188 -163h140c76 0 127 29 127 94c0 39 -27 69 -79 69zM241 58c91 0 161 72 182 184l2 8l2 14c0 1 0 2 1 4c1 11 2 23 2 34c0 79 -39 139 -118 139 c-91 0 -162 -72 -183 -184l-3 -16c-3 -15 -4 -30 -4 -44c0 -79 40 -139 119 -139z"/>
    <glyph glyph-name="p" unicode="p" horiz-adv-x="555" d="M346 511c105 0 162 -87 162 -188c0 -15 -1 -30 -4 -46l-5 -30c-27 -167 -170 -247 -308 -247h-86l-40 -206h-75l137 707h66l-4 -50c47 34 101 60 157 60zM430 280c2 14 3 26 3 40c0 67 -27 120 -97 120c-57 0 -98 -22 -158 -66l-59 -304h81c119 0 212 74 228 195z"/>
    <glyph glyph-name="thorn" unicode="þ" horiz-adv-x="555" d="M346 511c105 0 162 -87 162 -188c0 -15 -1 -30 -4 -46l-5 -30c-27 -167 -170 -247 -308 -247h-86l-40 -206h-75l178 917h75l-50 -257c47 32 99 57 153 57zM430 280c2 14 3 26 3 40c0 67 -27 120 -97 120c-57 0 -99 -22 -158 -66l-59 -304h81c119 0 212 74 228 195z"/>
    <glyph glyph-name="q" unicode="q" horiz-adv-x="550" d="M521 501l-138 -707h-75l50 254c-46 -33 -98 -58 -151 -58c-105 0 -162 81 -162 187c0 15 1 31 4 47l6 31c34 173 169 246 307 246h159zM218 61c54 0 98 23 155 68l59 302h-79c-118 0 -202 -63 -228 -193l-3 -15c-3 -16 -4 -31 -4 -45c0 -69 30 -117 100 -117z"/>
    <glyph glyph-name="r" unicode="r" horiz-adv-x="375" d="M30 0l94 482c63 16 132 27 188 27c22 0 53 -2 69 -5l-13 -73c-21 3 -47 5 -70 5c-34 0 -77 -7 -111 -14l-82 -422h-75z"/>
    <glyph glyph-name="racute" unicode="ŕ" horiz-adv-x="375" d="M204 598l167 143h96l-178 -143h-85zM30 0l94 482c63 16 132 27 188 27c22 0 53 -2 69 -5l-13 -73c-21 3 -47 5 -70 5c-34 0 -77 -7 -111 -14l-82 -422h-75z"/>
    <glyph glyph-name="rcaron" unicode="ř" horiz-adv-x="375" d="M238 598l-87 148h72l56 -96l100 96h73l-145 -148h-69zM30 0l94 482c63 16 132 27 188 27c22 0 53 -2 69 -5l-13 -73c-21 3 -47 5 -70 5c-34 0 -77 -7 -111 -14l-82 -422h-75z"/>
    <glyph glyph-name="s" unicode="s" horiz-adv-x="471" d="M189 -12c-63 0 -124 20 -164 42l13 63c45 -20 98 -35 152 -35c68 0 124 21 124 79c0 38 -31 63 -89 85c-78 29 -133 67 -133 136c0 97 78 153 182 153c63 0 107 -15 150 -35l-13 -63c-43 18 -88 28 -133 28c-70 0 -113 -27 -113 -74c0 -33 20 -51 91 -81 c79 -33 134 -69 134 -143c0 -104 -83 -155 -201 -155z"/>
    <glyph glyph-name="sacute" unicode="ś" horiz-adv-x="471" d="M227 598l167 143h96l-178 -143h-85zM189 -12c-63 0 -124 20 -164 42l13 63c45 -20 98 -35 152 -35c68 0 124 21 124 79c0 38 -31 63 -89 85c-78 29 -133 67 -133 136c0 97 78 153 182 153c63 0 107 -15 150 -35l-13 -63c-43 18 -88 28 -133 28c-70 0 -113 -27 -113 -74 c0 -33 20 -51 91 -81c79 -33 134 -69 134 -143c0 -104 -83 -155 -201 -155z"/>
    <glyph glyph-name="scaron" unicode="š" horiz-adv-x="471" d="M261 598l-87 148h72l56 -96l100 96h73l-145 -148h-69zM189 -12c-63 0 -124 20 -164 42l13 63c45 -20 98 -35 152 -35c68 0 124 21 124 79c0 38 -31 63 -89 85c-78 29 -133 67 -133 136c0 97 78 153 182 153c63 0 107 -15 150 -35l-13 -63c-43 18 -88 28 -133 28 c-70 0 -113 -27 -113 -74c0 -33 20 -51 91 -81c79 -33 134 -69 134 -143c0 -104 -83 -155 -201 -155z"/>
    <glyph glyph-name="germandbls" unicode="ß" horiz-adv-x="619" d="M347 -12c-66 0 -111 15 -151 37l11 59c39 -20 91 -28 133 -28c82 0 130 35 130 105c0 43 -36 68 -74 89c-46 26 -96 45 -96 111c0 119 153 147 153 232c0 37 -34 61 -85 61c-87 0 -151 -64 -171 -167l-95 -487h-74l96 491c30 155 134 231 250 231c92 0 153 -47 153 -118 c0 -129 -157 -145 -157 -233c0 -36 44 -54 85 -78c42 -24 89 -60 89 -129c0 -105 -90 -176 -197 -176z"/>
    <glyph glyph-name="t" unicode="t" horiz-adv-x="398" d="M190 431l-46 -237c-3 -17 -5 -32 -5 -45c0 -62 32 -91 87 -91c31 0 61 4 98 16l-13 -67c-36 -14 -71 -19 -101 -19c-90 0 -146 59 -146 156c0 19 2 38 6 59l85 436h76l-27 -138h197l-14 -70h-197z"/>
    <glyph glyph-name="u" unicode="u" horiz-adv-x="553" d="M243 -10c-117 0 -180 72 -180 181c0 19 3 39 7 60l52 270h75l-50 -257c-4 -21 -7 -41 -7 -59c0 -73 33 -124 112 -124c40 0 81 5 112 12l83 428h75l-94 -488c-59 -14 -119 -23 -185 -23z"/>
    <glyph glyph-name="uacute" unicode="ú" horiz-adv-x="553" d="M271 598l167 143h96l-178 -143h-85zM243 -10c-117 0 -180 72 -180 181c0 19 3 39 7 60l52 270h75l-50 -257c-4 -21 -7 -41 -7 -59c0 -73 33 -124 112 -124c40 0 81 5 112 12l83 428h75l-94 -488c-59 -14 -119 -23 -185 -23z"/>
    <glyph glyph-name="ucircumflex" unicode="û" horiz-adv-x="553" d="M188 598l145 148h69l86 -148h-71l-56 96l-100 -96h-73zM243 -10c-117 0 -180 72 -180 181c0 19 3 39 7 60l52 270h75l-50 -257c-4 -21 -7 -41 -7 -59c0 -73 33 -124 112 -124c40 0 81 5 112 12l83 428h75l-94 -488c-59 -14 -119 -23 -185 -23z"/>
    <glyph glyph-name="udieresis" unicode="ü" horiz-adv-x="553" d="M257 613c-28 0 -44 18 -44 45c0 37 22 59 53 59c27 0 45 -16 45 -44c0 -36 -25 -60 -54 -60zM430 613c-28 0 -45 18 -45 45c0 37 23 59 54 59c27 0 45 -16 45 -44c0 -36 -25 -60 -54 -60zM243 -10c-117 0 -180 72 -180 181c0 19 3 39 7 60l52 270h75l-50 -257 c-4 -21 -7 -41 -7 -59c0 -73 33 -124 112 -124c40 0 81 5 112 12l83 428h75l-94 -488c-59 -14 -119 -23 -185 -23z"/>
    <glyph glyph-name="ugrave" unicode="ù" horiz-adv-x="553" d="M325 598l-122 143h88l111 -143h-77zM243 -10c-117 0 -180 72 -180 181c0 19 3 39 7 60l52 270h75l-50 -257c-4 -21 -7 -41 -7 -59c0 -73 33 -124 112 -124c40 0 81 5 112 12l83 428h75l-94 -488c-59 -14 -119 -23 -185 -23z"/>
    <glyph glyph-name="umacron" unicode="ū" horiz-adv-x="553" d="M228 701h260l-13 -67h-260zM243 -10c-117 0 -180 72 -180 181c0 19 3 39 7 60l52 270h75l-50 -257c-4 -21 -7 -41 -7 -59c0 -73 33 -124 112 -124c40 0 81 5 112 12l83 428h75l-94 -488c-59 -14 -119 -23 -185 -23z"/>
    <glyph glyph-name="uring" unicode="ů" horiz-adv-x="553" d="M344 590c-60 0 -110 46 -110 109c0 62 52 108 110 108c60 0 109 -46 109 -108c0 -63 -50 -109 -109 -109zM344 641c32 0 55 24 55 58c0 33 -24 57 -55 57c-33 0 -56 -24 -56 -57c0 -34 24 -58 56 -58zM243 -10c-117 0 -180 72 -180 181c0 19 3 39 7 60l52 270h75 l-50 -257c-4 -21 -7 -41 -7 -59c0 -73 33 -124 112 -124c40 0 81 5 112 12l83 428h75l-94 -488c-59 -14 -119 -23 -185 -23z"/>
    <glyph glyph-name="v" unicode="v" horiz-adv-x="495" d="M441 501h87l-292 -501h-74l-96 501h83l66 -407z"/>
    <glyph glyph-name="w" unicode="w" horiz-adv-x="733" d="M136 0l-53 501h81l27 -396l180 383h77l31 -383l181 396h83l-246 -501h-75l-34 383l-177 -383h-75z"/>
    <glyph glyph-name="wacute" unicode="ẃ" horiz-adv-x="733" d="M354 598l167 143h96l-178 -143h-85zM136 0l-53 501h81l27 -396l180 383h77l31 -383l181 396h83l-246 -501h-75l-34 383l-177 -383h-75z"/>
    <glyph glyph-name="wcircumflex" unicode="ŵ" horiz-adv-x="733" d="M271 598l145 148h69l86 -148h-71l-56 96l-100 -96h-73zM136 0l-53 501h81l27 -396l180 383h77l31 -383l181 396h83l-246 -501h-75l-34 383l-177 -383h-75z"/>
    <glyph glyph-name="wdieresis" unicode="ẅ" horiz-adv-x="733" d="M340 613c-28 0 -44 18 -44 45c0 37 22 59 53 59c27 0 45 -16 45 -44c0 -36 -25 -60 -54 -60zM513 613c-28 0 -45 18 -45 45c0 37 23 59 54 59c27 0 45 -16 45 -44c0 -36 -25 -60 -54 -60zM136 0l-53 501h81l27 -396l180 383h77l31 -383l181 396h83l-246 -501h-75l-34 383 l-177 -383h-75z"/>
    <glyph glyph-name="wgrave" unicode="ẁ" horiz-adv-x="733" d="M408 598l-122 143h88l111 -143h-77zM136 0l-53 501h81l27 -396l180 383h77l31 -383l181 396h83l-246 -501h-75l-34 383l-177 -383h-75z"/>
    <glyph glyph-name="x" unicode="x" horiz-adv-x="507" d="M514 501l-216 -240l141 -261h-87l-108 210l-190 -210h-87l243 273l-124 228h86l92 -179l164 179h86z"/>
    <glyph glyph-name="y" unicode="y" horiz-adv-x="502" d="M31 -216c-28 0 -54 9 -71 19l13 61c20 -8 33 -9 55 -9c43 0 76 33 117 102l30 49l-106 495h83l77 -405l214 405h88l-313 -558c-58 -104 -111 -159 -187 -159z"/>
    <glyph glyph-name="yacute" unicode="ý" horiz-adv-x="502" d="M239 598l167 143h96l-178 -143h-85zM31 -216c-28 0 -54 9 -71 19l13 61c20 -8 33 -9 55 -9c43 0 76 33 117 102l30 49l-106 495h83l77 -405l214 405h88l-313 -558c-58 -104 -111 -159 -187 -159z"/>
    <glyph glyph-name="ycircumflex" unicode="ŷ" horiz-adv-x="502" d="M156 598l145 148h69l86 -148h-71l-56 96l-100 -96h-73zM31 -216c-28 0 -54 9 -71 19l13 61c20 -8 33 -9 55 -9c43 0 76 33 117 102l30 49l-106 495h83l77 -405l214 405h88l-313 -558c-58 -104 -111 -159 -187 -159z"/>
    <glyph glyph-name="ydieresis" unicode="ÿ" horiz-adv-x="502" d="M225 613c-28 0 -44 18 -44 45c0 37 22 59 53 59c27 0 45 -16 45 -44c0 -36 -25 -60 -54 -60zM398 613c-28 0 -45 18 -45 45c0 37 23 59 54 59c27 0 45 -16 45 -44c0 -36 -25 -60 -54 -60zM31 -216c-28 0 -54 9 -71 19l13 61c20 -8 33 -9 55 -9c43 0 76 33 117 102l30 49 l-106 495h83l77 -405l214 405h88l-313 -558c-58 -104 -111 -159 -187 -159z"/>
    <glyph glyph-name="ygrave" unicode="ỳ" horiz-adv-x="502" d="M293 598l-122 143h88l111 -143h-77zM31 -216c-28 0 -54 9 -71 19l13 61c20 -8 33 -9 55 -9c43 0 76 33 117 102l30 49l-106 495h83l77 -405l214 405h88l-313 -558c-58 -104 -111 -159 -187 -159z"/>
    <glyph glyph-name="z" unicode="z" horiz-adv-x="456" d="M-1 0l12 66l343 365h-263l14 70h350l-12 -66l-340 -365h277l-13 -70h-368z"/>
    <glyph glyph-name="zacute" unicode="ź" horiz-adv-x="456" d="M226 598l167 143h96l-178 -143h-85zM-1 0l12 66l343 365h-263l14 70h350l-12 -66l-340 -365h277l-13 -70h-368z"/>
    <glyph glyph-name="zcaron" unicode="ž" horiz-adv-x="456" d="M260 598l-87 148h72l56 -96l100 96h73l-145 -148h-69zM-1 0l12 66l343 365h-263l14 70h350l-12 -66l-340 -365h277l-13 -70h-368z"/>
    <glyph glyph-name="zdotaccent" unicode="ż" horiz-adv-x="456" d="M300 605c-29 0 -48 20 -48 49c0 41 27 63 59 63c30 0 49 -17 49 -47c0 -39 -27 -65 -60 -65zM-1 0l12 66l343 365h-263l14 70h350l-12 -66l-340 -365h277l-13 -70h-368z"/>
    <glyph glyph-name="ordfeminine" unicode="ª" horiz-adv-x="450" d="M480 721l-75 -383h-58v42c-39 -30 -82 -50 -124 -50c-85 0 -133 63 -133 147c0 13 1 25 3 35l4 21c25 130 132 188 246 188h137zM162 482c0 -52 27 -83 75 -83c41 0 74 16 116 48l41 207h-56c-90 0 -155 -45 -171 -134l-2 -11c-2 -11 -3 -19 -3 -27z"/>
    <glyph glyph-name="ordmasculine" unicode="º" horiz-adv-x="462" d="M259 328c-99 0 -162 67 -162 154c0 12 1 23 3 35l4 22c19 102 98 181 205 181c99 0 163 -67 163 -154c0 -11 -1 -22 -3 -34l-4 -22c-19 -102 -99 -182 -206 -182zM262 395c71 0 121 53 133 127l2 12c2 10 2 17 2 25c0 57 -33 95 -92 95c-71 0 -121 -53 -133 -127l-2 -12 c-2 -10 -3 -17 -3 -25c0 -56 34 -95 93 -95z"/>
    <glyph glyph-name="zero" unicode="0" d="M233 -12c-118 0 -179 94 -179 219c0 25 3 68 11 106l8 39c39 190 151 324 289 324c118 0 180 -92 180 -217c0 -25 -3 -68 -12 -106l-9 -39c-44 -189 -149 -326 -288 -326zM241 63c97 0 174 105 204 259l6 31c8 39 14 74 14 105c0 90 -37 143 -111 143 c-97 0 -170 -105 -204 -257l-7 -31c-9 -40 -12 -74 -12 -105c0 -89 37 -145 110 -145z"/>
    <glyph glyph-name="one" unicode="1" d="M319 71h142l-14 -71h-388l14 71h168l102 515l-192 -43l12 65l219 58h53z"/>
    <glyph glyph-name="two" unicode="2" d="M326 230l-177 -159h297l-14 -71h-396l15 71l228 209c85 77 167 138 167 226c0 58 -44 95 -125 95c-70 0 -125 -17 -184 -37l13 71c54 24 119 41 186 41c121 0 186 -71 186 -162c0 -116 -90 -189 -196 -284z"/>
    <glyph glyph-name="three" unicode="3" d="M376 348c63 -25 96 -77 96 -138c0 -136 -110 -222 -260 -222c-65 0 -136 19 -194 48l14 66c57 -25 115 -39 175 -39c114 0 189 52 189 145c0 56 -43 102 -125 102h-88l14 74h64c105 0 182 45 182 129c0 52 -39 88 -126 88c-70 0 -135 -16 -188 -35l13 71 c50 20 124 39 186 39c128 0 191 -69 191 -151c0 -87 -59 -149 -143 -177z"/>
    <glyph glyph-name="four" unicode="4" d="M519 241l-14 -68h-99l-34 -173h-75l34 173h-303l14 67l-1 1l387 425h73l-82 -425h100zM121 241h224l62 315z"/>
    <glyph glyph-name="five" unicode="5" d="M222 -11c-83 0 -151 29 -194 51l13 64c51 -22 107 -42 177 -42c119 0 190 56 190 149c0 69 -49 110 -135 110h-153l103 345h306l-14 -71h-244l-60 -204h78c125 0 195 -74 195 -174c0 -137 -105 -228 -262 -228z"/>
    <glyph glyph-name="six" unicode="6" d="M396 604c-121 0 -206 -82 -241 -234c52 21 105 33 161 33c106 0 177 -73 177 -175c0 -132 -88 -239 -226 -239c-127 0 -205 94 -205 224c0 36 3 70 11 112l5 25c40 201 161 326 310 326c52 0 105 -15 143 -38l-13 -62c-35 18 -76 28 -122 28zM422 219 c0 70 -44 115 -120 115c-60 0 -108 -13 -160 -35c-6 -34 -8 -56 -8 -84c0 -97 53 -155 139 -155c94 0 149 71 149 159z"/>
    <glyph glyph-name="seven" unicode="7" d="M106 0l357 594h-345l15 72h431l-11 -56l-361 -610h-86z"/>
    <glyph glyph-name="eight" unicode="8" d="M357 676c128 0 194 -68 194 -148c0 -9 0 -18 -2 -28l-2 -11c-12 -62 -60 -111 -125 -138c54 -31 84 -83 84 -143c0 -9 -1 -18 -2 -27l-2 -13c-17 -111 -120 -179 -255 -179c-123 0 -207 75 -207 170c0 8 1 17 2 25l2 13c12 76 70 133 147 161c-44 28 -71 71 -71 121 c0 8 1 17 2 25l2 11c18 100 120 161 233 161zM475 490c1 8 2 15 2 22c0 54 -37 96 -126 96c-77 0 -146 -37 -156 -99l-1 -6c-1 -6 -2 -13 -2 -19c0 -53 38 -99 118 -99c88 0 155 45 164 99zM432 181c1 7 1 14 1 20c0 63 -42 117 -133 117c-98 0 -172 -52 -181 -115l-1 -7 c-1 -8 -2 -17 -2 -25c0 -63 41 -112 140 -112c86 0 165 43 175 115z"/>
    <glyph glyph-name="nine" unicode="9" d="M324 677c127 0 199 -95 199 -225c0 -36 -3 -66 -11 -112l-4 -23c-35 -202 -162 -328 -311 -328c-52 0 -105 15 -143 38l13 62c35 -18 76 -30 122 -30c122 0 207 84 242 237c-53 -21 -106 -33 -162 -33c-106 0 -177 75 -177 177c0 132 96 237 232 237zM164 449 c0 -70 43 -116 119 -116c59 0 109 13 161 34c6 33 8 56 8 83c0 97 -48 154 -134 154c-92 0 -154 -67 -154 -155z"/>
    <glyph glyph-name="zero.lf" d="M239 -12c-118 0 -179 94 -179 219c0 25 3 68 11 106l8 39c39 190 151 324 289 324c118 0 180 -92 180 -217c0 -25 -3 -68 -12 -106l-9 -39c-44 -189 -149 -326 -288 -326zM247 63c97 0 174 105 204 259l6 31c8 39 14 74 14 105c0 90 -38 143 -111 143 c-97 0 -170 -105 -204 -257l-7 -31c-9 -40 -12 -74 -12 -105c0 -89 37 -145 110 -145z"/>
    <glyph glyph-name="one.lf" horiz-adv-x="498" d="M289 71h143l-14 -71h-388l14 71h168l102 515l-192 -43l12 65l219 58h53z"/>
    <glyph glyph-name="two.lf" horiz-adv-x="530" d="M310 230l-177 -159h297l-14 -71h-396l15 71l229 209c84 77 166 138 166 226c0 58 -44 95 -125 95c-70 0 -125 -17 -184 -37l13 71c54 24 119 41 186 41c121 0 186 -71 186 -162c0 -116 -90 -189 -196 -284z"/>
    <glyph glyph-name="three.lf" horiz-adv-x="547" d="M368 348c63 -25 96 -77 96 -138c0 -136 -110 -222 -260 -222c-65 0 -136 19 -194 48l14 66c57 -25 115 -39 175 -39c114 0 189 52 189 145c0 56 -43 102 -125 102h-88l14 74h64c105 0 182 45 182 129c0 52 -39 88 -126 88c-70 0 -135 -16 -188 -35l13 71 c50 20 124 39 186 39c128 0 191 -69 191 -151c0 -87 -59 -149 -143 -177z"/>
    <glyph glyph-name="four.lf" horiz-adv-x="562" d="M523 241l-14 -68h-99l-34 -173h-75l34 173h-303l14 67l-1 1l387 425h73l-82 -425h100zM125 241h224l62 315z"/>
    <glyph glyph-name="five.lf" horiz-adv-x="539" d="M214 -11c-83 0 -151 29 -194 51l13 64c51 -22 107 -42 177 -42c119 0 189 56 189 149c0 69 -48 110 -134 110h-153l103 345h306l-14 -71h-244l-60 -204h78c125 0 195 -74 195 -174c0 -137 -105 -228 -262 -228z"/>
    <glyph glyph-name="six.lf" horiz-adv-x="555" d="M396 604c-121 0 -206 -82 -241 -234c52 21 105 33 161 33c106 0 177 -73 177 -175c0 -132 -88 -239 -226 -239c-127 0 -205 94 -205 224c0 36 3 70 11 112l5 25c40 201 161 326 310 326c52 0 105 -15 143 -38l-13 -62c-35 18 -76 28 -122 28zM422 219 c0 70 -44 115 -120 115c-60 0 -108 -13 -160 -35c-6 -34 -8 -56 -8 -84c0 -97 53 -155 139 -155c94 0 149 71 149 159z"/>
    <glyph glyph-name="seven.lf" horiz-adv-x="541" d="M102 0l358 594h-345l15 72h431l-11 -56l-361 -610h-87z"/>
    <glyph glyph-name="eight.lf" horiz-adv-x="572" d="M366 676c128 0 194 -68 194 -148c0 -9 0 -18 -2 -28l-2 -11c-12 -62 -60 -111 -125 -138c54 -31 84 -83 84 -143c0 -9 -1 -18 -2 -27l-2 -13c-17 -111 -120 -179 -255 -179c-123 0 -207 75 -207 170c0 8 1 17 2 25l2 13c12 76 70 133 147 161c-44 28 -71 71 -71 121 c0 8 1 17 2 25l2 11c18 100 120 161 233 161zM484 490c1 8 2 15 2 22c0 54 -37 96 -126 96c-77 0 -146 -37 -156 -99l-1 -6c-1 -6 -2 -13 -2 -19c0 -53 38 -99 118 -99c88 0 155 45 164 99zM441 181c1 7 1 14 1 20c0 63 -42 117 -133 117c-98 0 -172 -52 -181 -115l-1 -7 c-1 -8 -2 -17 -2 -25c0 -63 41 -112 140 -112c86 0 165 43 175 115z"/>
    <glyph glyph-name="nine.lf" horiz-adv-x="555" d="M322 677c127 0 199 -95 199 -225c0 -36 -3 -66 -11 -112l-4 -23c-35 -202 -162 -328 -311 -328c-52 0 -105 15 -143 38l13 62c35 -18 76 -30 122 -30c122 0 207 84 242 237c-53 -21 -106 -33 -162 -33c-106 0 -177 75 -177 177c0 132 96 237 232 237zM162 449 c0 -70 43 -116 119 -116c59 0 109 13 161 34c6 33 8 56 8 83c0 97 -48 154 -134 154c-92 0 -154 -67 -154 -155z"/>
    <glyph glyph-name="uni2070" unicode="⁰" horiz-adv-x="416" d="M224 288c-87 0 -137 61 -137 140c0 14 2 29 5 44l4 20c18 92 94 182 186 182c86 0 135 -61 135 -140c0 -14 -1 -28 -4 -43l-4 -21c-18 -93 -94 -182 -185 -182zM225 356c52 0 98 49 113 121l3 14c3 13 4 26 4 38c0 46 -21 79 -64 79c-52 0 -98 -49 -114 -123l-3 -14 c-3 -13 -4 -25 -4 -36c0 -46 21 -79 65 -79z"/>
    <glyph glyph-name="uni00B9" unicode="¹" horiz-adv-x="385" d="M275 358h88l-11 -63h-270l13 63h109l45 237l-121 -22l12 60l148 35h47z"/>
    <glyph glyph-name="uni00B2" unicode="²" horiz-adv-x="387" d="M264 419l-85 -62h170l-11 -62h-272l13 62l139 107c53 41 95 64 95 100c0 31 -21 43 -68 43c-42 0 -85 -8 -127 -22l13 65c37 14 81 24 126 24c86 0 131 -45 131 -100c0 -67 -63 -110 -124 -155z"/>
    <glyph glyph-name="uni00B3" unicode="³" horiz-adv-x="445" d="M423 584c0 -44 -29 -75 -77 -91c34 -17 52 -47 52 -82c0 -74 -69 -123 -172 -123c-55 0 -102 14 -134 28l13 57c39 -14 74 -19 115 -19c67 0 106 23 106 59c0 23 -25 43 -78 43h-61l6 34l5 29h49c60 0 102 23 102 54c0 25 -26 36 -73 36c-42 0 -89 -7 -129 -20l12 62 c40 14 85 23 128 23c87 0 136 -39 136 -90z"/>
    <glyph glyph-name="uni2074" unicode="⁴" horiz-adv-x="386" d="M394 442l-11 -62h-62l-16 -85h-68l17 85h-192l12 62l235 226h68l-44 -226h61zM149 442h117l28 140z"/>
    <glyph glyph-name="fraction" unicode="⁄" horiz-adv-x="607" d="M-27 0l604 666h89l-605 -666h-88z"/>
    <glyph glyph-name="onehalf" unicode="½" horiz-adv-x="989" d="M383 358l-12 -63h-269l13 63h108l46 237l-121 -22l12 60l148 35h47l-61 -310h89zM781 666h89l-605 -666h-88zM810 124l-85 -62h171l-12 -62h-272l13 62l139 107c53 41 96 64 96 100c0 31 -21 43 -69 43c-42 0 -85 -8 -127 -22l13 65c37 14 81 24 126 24 c86 0 131 -45 131 -100c0 -67 -63 -110 -124 -155z"/>
    <glyph glyph-name="onequarter" unicode="¼" horiz-adv-x="927" d="M380 358l-11 -63h-270l13 63h109l45 237l-121 -22l12 60l148 35h47l-60 -310h88zM784 666h89l-605 -666h-88zM833 375l-44 -226h61l-12 -62h-61l-16 -85h-69l17 85h-192l12 62l235 226h69zM604 149h118l28 140z"/>
    <glyph glyph-name="threequarters" unicode="¾" horiz-adv-x="888" d="M388 411c0 -74 -69 -123 -172 -123c-55 0 -102 14 -134 28l13 57c39 -14 74 -19 115 -19c66 0 105 23 105 59c0 23 -25 43 -77 43h-62l7 34l5 29h49c59 0 101 23 101 54c0 25 -26 36 -72 36c-42 0 -89 -7 -130 -20l13 62c40 14 85 23 128 23c87 0 136 -39 136 -90 c0 -44 -29 -75 -78 -91c35 -17 53 -47 53 -82zM750 666h89l-605 -666h-88zM800 375l-44 -226h61l-12 -62h-61l-16 -85h-69l17 85h-192l12 62l235 226h69zM571 149h118l28 140z"/>
    <glyph glyph-name="period" unicode="." horiz-adv-x="228" d="M71 -10c-32 0 -52 21 -52 53c0 38 29 67 64 67c32 0 51 -21 51 -52c0 -38 -28 -68 -63 -68z"/>
    <glyph glyph-name="comma" unicode="," horiz-adv-x="228" d="M-45 -119l112 221h85l-120 -221h-77z"/>
    <glyph glyph-name="colon" unicode=":" horiz-adv-x="228" d="M151 388c-32 0 -51 21 -51 52c0 39 28 68 63 68c32 0 52 -21 52 -52c0 -38 -29 -68 -64 -68zM74 -10c-32 0 -52 21 -52 53c0 38 29 67 64 67c32 0 51 -21 51 -52c0 -38 -28 -68 -63 -68z"/>
    <glyph glyph-name="semicolon" unicode=";" horiz-adv-x="228" d="M159 388c-32 0 -51 21 -51 52c0 39 28 68 63 68c32 0 52 -21 52 -52c0 -38 -29 -68 -64 -68zM-45 -119l112 221h85l-120 -221h-77z"/>
    <glyph glyph-name="ellipsis" unicode="…" horiz-adv-x="676" d="M71 -10c-32 0 -52 21 -52 53c0 38 29 67 64 67c32 0 51 -21 51 -52c0 -38 -28 -68 -63 -68zM295 -10c-32 0 -52 21 -52 53c0 38 29 67 64 67c31 0 51 -21 51 -52c0 -38 -29 -68 -63 -68zM519 -10c-31 0 -51 21 -51 53c0 38 29 67 63 67c32 0 52 -21 52 -52 c0 -38 -29 -68 -64 -68z"/>
    <glyph glyph-name="exclam" unicode="!" horiz-adv-x="268" d="M85 183l88 493h87l-106 -493h-69zM95 -10c-32 0 -52 21 -52 53c0 38 29 67 64 67c31 0 51 -21 51 -52c0 -38 -29 -68 -63 -68z"/>
    <glyph glyph-name="exclamdown" unicode="¡" horiz-adv-x="268" d="M182 511c31 0 51 -21 51 -53c0 -38 -29 -67 -63 -67c-32 0 -52 21 -52 51c0 39 29 69 64 69zM191 318l-88 -493h-87l106 493h69z"/>
    <glyph glyph-name="question" unicode="?" horiz-adv-x="516" d="M194 183l31 158c135 35 205 85 205 172c0 61 -44 99 -128 99c-68 0 -128 -21 -188 -43l13 71c56 24 121 46 196 46c119 0 188 -74 188 -170c0 -115 -96 -181 -222 -221l-33 -112h-62zM199 -10c-32 0 -52 21 -52 53c0 38 29 67 64 67c31 0 51 -21 51 -52 c0 -38 -29 -68 -63 -68z"/>
    <glyph glyph-name="questiondown" unicode="¿" horiz-adv-x="516" d="M344 511c32 0 52 -21 52 -53c0 -38 -29 -67 -64 -67c-32 0 -51 21 -51 51c0 39 28 69 63 69zM349 318l-31 -158c-135 -35 -206 -85 -206 -172c0 -61 44 -99 129 -99c68 0 128 21 188 43l-13 -71c-56 -24 -121 -46 -196 -46c-119 0 -188 74 -188 170c0 115 95 181 221 221 l33 112h63z"/>
    <glyph glyph-name="periodcentered" unicode="·" horiz-adv-x="228" d="M129 272c-32 0 -51 20 -51 52c0 39 28 67 63 67c32 0 51 -20 51 -51c0 -39 -28 -68 -63 -68z"/>
    <glyph glyph-name="bullet" unicode="•" horiz-adv-x="341" d="M173 230c-57 0 -94 38 -94 92c0 70 59 127 125 127c55 0 93 -39 93 -92c0 -71 -60 -127 -124 -127z"/>
    <glyph glyph-name="asterisk" unicode="*" horiz-adv-x="470" d="M154 371l-40 43l127 111l-113 56l35 54l107 -58l25 140h63l-30 -140l127 58l16 -56l-134 -57l84 -109l-52 -42l-86 115z"/>
    <glyph glyph-name="numbersign" unicode="#" horiz-adv-x="688" d="M672 441h-121l-74 -211h123l-24 -69h-123l-56 -161h-73l57 161h-162l-57 -161h-72l56 161h-123l25 69h122l74 211h-125l24 69h125l55 156h73l-55 -156h162l55 156h72l-55 -156h121zM405 230l74 211h-162l-74 -211h162z"/>
    <glyph glyph-name="slash" unicode="/" horiz-adv-x="446" d="M-68 -130l524 901h84l-523 -901h-85z"/>
    <glyph glyph-name="backslash" unicode="\" horiz-adv-x="402" d="M270 -130l-174 901h77l175 -901h-78z"/>
    <glyph glyph-name="exclamdown.case" horiz-adv-x="268" d="M206 686c32 0 51 -21 51 -53c0 -38 -28 -67 -63 -67c-32 0 -52 21 -52 52c0 38 29 68 64 68zM216 493l-89 -493h-87l106 493h70z"/>
    <glyph glyph-name="questiondown.case" horiz-adv-x="516" d="M366 684c32 0 51 -21 51 -53c0 -38 -28 -67 -63 -67c-32 0 -52 21 -52 52c0 38 29 68 64 68zM371 491l-31 -157c-135 -36 -206 -86 -206 -173c0 -61 44 -99 129 -99c68 0 128 21 188 43l-13 -71c-56 -24 -121 -46 -196 -46c-119 0 -188 74 -188 170c0 115 95 181 221 221 l33 112h63z"/>
    <glyph glyph-name="slash.case" horiz-adv-x="446" d="M-65 -112l524 901h84l-523 -901h-85z"/>
    <glyph glyph-name="backslash.case" horiz-adv-x="402" d="M260 -112l-174 901h77l175 -901h-78z"/>
    <glyph glyph-name="parenleft" unicode="(" horiz-adv-x="359" d="M91 313l3 17c28 161 126 323 258 441h84c-134 -121 -233 -288 -264 -444l-4 -20c-8 -39 -11 -77 -11 -116c0 -117 34 -231 101 -322h-78c-65 89 -101 205 -101 326c0 39 5 79 12 118z"/>
    <glyph glyph-name="parenright" unicode=")" horiz-adv-x="359" d="M284 327l-3 -17c-28 -161 -126 -323 -258 -441h-85c134 121 234 288 265 444l4 20c8 39 11 77 11 116c0 117 -35 231 -101 322h78c65 -89 101 -205 101 -326c0 -39 -5 -79 -12 -118z"/>
    <glyph glyph-name="braceleft" unicode="{" horiz-adv-x="430" d="M263 -131c-96 0 -152 57 -152 150c0 17 1 34 5 53l15 78c3 14 4 25 4 36c0 53 -27 89 -77 103l13 65c68 17 114 70 128 142l15 77c24 124 105 198 219 198h74l-13 -68h-57c-80 0 -132 -48 -150 -141l-15 -76c-13 -68 -44 -124 -131 -169c50 -33 70 -76 70 -125 c0 -15 -2 -30 -5 -45l-14 -75c-3 -17 -5 -33 -5 -47c0 -63 34 -88 95 -88h63l-13 -68h-69z"/>
    <glyph glyph-name="braceright" unicode="}" horiz-adv-x="430" d="M201 771c96 0 151 -57 151 -150c0 -17 -1 -34 -5 -53l-15 -78c-3 -14 -4 -25 -4 -36c0 -53 27 -89 77 -103l-12 -65c-69 -17 -115 -70 -129 -142l-15 -77c-24 -124 -105 -198 -218 -198h-75l14 68h57c80 0 131 48 149 141l15 76c13 68 44 124 131 169 c-50 33 -70 76 -70 125c0 15 2 30 5 45l14 75c3 17 5 33 5 47c0 63 -34 88 -95 88h-63l13 68h70z"/>
    <glyph glyph-name="bracketleft" unicode="[" horiz-adv-x="414" d="M465 701h-198l-147 -762h197l-14 -70h-273l175 902h273z"/>
    <glyph glyph-name="bracketright" unicode="]" horiz-adv-x="414" d="M421 771l-175 -902h-273l13 70h197l147 762h-196l14 70h273z"/>
    <glyph glyph-name="parenleft.case" horiz-adv-x="359" d="M94 331l3 17c28 161 126 323 258 441h84c-134 -121 -233 -288 -264 -444l-4 -20c-8 -39 -11 -77 -11 -116c0 -117 34 -231 101 -322h-78c-65 89 -101 205 -101 326c0 39 5 79 12 118z"/>
    <glyph glyph-name="parenright.case" horiz-adv-x="359" d="M287 345l-3 -17c-28 -161 -126 -323 -258 -441h-85c134 121 234 288 265 444l4 20c8 39 11 77 11 116c0 117 -35 231 -101 322h78c65 -89 101 -205 101 -326c0 -39 -5 -79 -12 -118z"/>
    <glyph glyph-name="braceleft.case" horiz-adv-x="430" d="M266 -113c-96 0 -152 57 -152 150c0 17 1 34 5 53l15 78c3 14 4 25 4 36c0 53 -27 89 -77 103l13 65c68 17 114 70 128 142l15 77c24 124 105 198 219 198h74l-13 -68h-57c-80 0 -132 -48 -150 -141l-15 -76c-13 -68 -44 -124 -131 -169c50 -33 70 -76 70 -125 c0 -15 -2 -30 -5 -45l-14 -75c-3 -17 -5 -33 -5 -47c0 -63 34 -88 95 -88h63l-13 -68h-69z"/>
    <glyph glyph-name="braceright.case" horiz-adv-x="430" d="M204 789c95 0 151 -57 151 -150c0 -17 -1 -34 -5 -53l-15 -78c-3 -14 -4 -25 -4 -36c0 -53 27 -89 77 -103l-13 -65c-68 -17 -114 -70 -128 -142l-15 -77c-24 -124 -105 -198 -219 -198h-74l14 68h57c80 0 131 48 149 141l15 76c13 68 44 124 131 169 c-50 33 -70 76 -70 125c0 15 2 30 5 45l14 75c3 17 5 33 5 47c0 63 -34 88 -95 88h-63l13 68h70z"/>
    <glyph glyph-name="bracketleft.case" horiz-adv-x="414" d="M468 719h-198l-147 -762h197l-14 -70h-273l175 902h273z"/>
    <glyph glyph-name="bracketright.case" horiz-adv-x="414" d="M423 789l-175 -902h-272l13 70h197l147 762h-196l14 70h272z"/>
    <glyph glyph-name="hyphen" unicode="-" horiz-adv-x="417" d="M60 236l14 74h291l-14 -74h-291z"/>
    <glyph glyph-name="uni00AD" unicode="&shy;" horiz-adv-x="417" d="M60 236l14 74h291l-14 -74h-291z"/>
    <glyph glyph-name="endash" unicode="–" horiz-adv-x="490" d="M-3 236l15 74h490l-15 -74h-490z"/>
    <glyph glyph-name="emdash" unicode="—" horiz-adv-x="980" d="M-3 236l15 74h980l-15 -74h-980z"/>
    <glyph glyph-name="underscore" unicode="_" horiz-adv-x="500" d="M-82 -169l15 73h500l-15 -73h-500z"/>
    <glyph glyph-name="hyphen.case" horiz-adv-x="417" d="M74 308l14 74h291l-14 -74h-291z"/>
    <glyph glyph-name="uni00AD.case" horiz-adv-x="417" d="M74 308l14 74h291l-14 -74h-291z"/>
    <glyph glyph-name="endash.case" horiz-adv-x="490" d="M11 308l15 74h490l-15 -74h-490z"/>
    <glyph glyph-name="emdash.case" horiz-adv-x="980" d="M11 308l15 74h980l-15 -74h-980z"/>
    <glyph glyph-name="quotesinglbase" unicode="‚" horiz-adv-x="233" d="M-36 -119l113 221h85l-120 -221h-78z"/>
    <glyph glyph-name="quotedblbase" unicode="„" horiz-adv-x="400" d="M-36 -119l113 221h85l-120 -221h-78zM132 -119l113 221h85l-121 -221h-77z"/>
    <glyph glyph-name="quotedblleft" unicode="“" horiz-adv-x="400" d="M289 711l-113 -221h-85l120 221h78zM456 711l-113 -221h-85l121 221h77z"/>
    <glyph glyph-name="quotedblright" unicode="”" horiz-adv-x="400" d="M80 490l112 221h85l-120 -221h-77zM247 490l113 221h85l-121 -221h-77z"/>
    <glyph glyph-name="quoteleft" unicode="‘" horiz-adv-x="233" d="M289 711l-113 -221h-85l120 221h78z"/>
    <glyph glyph-name="quoteright" unicode="’" horiz-adv-x="233" d="M80 490l112 221h85l-120 -221h-77z"/>
    <glyph glyph-name="guillemotleft" unicode="«" horiz-adv-x="485" d="M281 429l-158 -176l86 -168h-79l-91 172l156 172h86zM475 429l-158 -176l86 -168h-79l-91 172l156 172h86z"/>
    <glyph glyph-name="guillemotright" unicode="»" horiz-adv-x="485" d="M7 85l158 176l-86 168h79l91 -172l-156 -172h-86zM201 85l158 176l-86 168h79l91 -172l-156 -172h-86z"/>
    <glyph glyph-name="guilsinglleft" unicode="‹" horiz-adv-x="291" d="M281 429l-158 -176l86 -168h-79l-91 172l156 172h86z"/>
    <glyph glyph-name="guilsinglright" unicode="›" horiz-adv-x="291" d="M7 85l158 176l-86 168h79l91 -172l-156 -172h-86z"/>
    <glyph glyph-name="quotedbl" unicode="&quot;" horiz-adv-x="402" d="M117 457l50 254h75l-48 -254h-77zM289 457l50 254h75l-49 -254h-76z"/>
    <glyph glyph-name="quotesingle" unicode="'" horiz-adv-x="231" d="M117 457l50 254h75l-48 -254h-77z"/>
    <glyph glyph-name="guillemotleft.case" horiz-adv-x="485" d="M298 517l-158 -176l86 -168h-79l-91 172l156 172h86zM492 517l-158 -176l86 -168h-79l-91 172l156 172h86z"/>
    <glyph glyph-name="guillemotright.case" horiz-adv-x="485" d="M24 173l158 176l-86 168h79l91 -172l-156 -172h-86zM218 173l158 176l-86 168h79l91 -172l-156 -172h-86z"/>
    <glyph glyph-name="guilsinglleft.case" horiz-adv-x="291" d="M298 517l-158 -176l86 -168h-79l-91 172l156 172h86z"/>
    <glyph glyph-name="guilsinglright.case" horiz-adv-x="291" d="M24 173l158 176l-86 168h79l91 -172l-156 -172h-86z"/>
    <glyph glyph-name="uni2001" unicode=" " horiz-adv-x="980"/>
    <glyph glyph-name="uni2003" unicode="&emsp;" horiz-adv-x="980"/>
    <glyph glyph-name="uni2002" unicode="&ensp;" horiz-adv-x="490"/>
    <glyph glyph-name="uni2007" unicode=" " horiz-adv-x="555"/>
    <glyph glyph-name="uni2005" unicode=" " horiz-adv-x="588"/>
    <glyph glyph-name="uni200A" unicode="&hairsp;" horiz-adv-x="98"/>
    <glyph glyph-name="uni2008" unicode=" " horiz-adv-x="223"/>
    <glyph glyph-name="uni2006" unicode=" " horiz-adv-x="163"/>
    <glyph glyph-name="uni00A0" unicode="&nbsp;" horiz-adv-x="223"/>
    <glyph glyph-name="uni2009" unicode="&thinsp;" horiz-adv-x="196"/>
    <glyph glyph-name="uni2004" unicode=" " horiz-adv-x="326"/>
    <glyph glyph-name="cent" unicode="¢" d="M193 341l-3 -15c-3 -15 -4 -30 -4 -43c0 -82 53 -130 132 -130c44 0 88 8 130 26l-12 -71c-39 -18 -82 -27 -119 -28l-25 -127h-67l26 135c-86 23 -138 98 -138 189c0 14 1 31 4 46l4 23c22 124 118 217 228 238l24 122h67l-22 -118c32 -3 63 -13 92 -26l-14 -65 c-27 11 -55 19 -96 19c-99 0 -184 -62 -207 -175z"/>
    <glyph glyph-name="dollar" unicode="$" d="M347 584c-89 0 -148 -33 -148 -100c0 -43 33 -76 119 -112c96 -40 153 -92 153 -171c0 -117 -82 -177 -201 -187l-25 -133h-68l26 132c-57 6 -119 25 -160 48l12 62c54 -25 120 -42 183 -42c90 0 158 36 158 113c0 45 -33 78 -115 113c-106 46 -156 92 -156 169 c0 106 88 170 204 176l23 120h68l-24 -123c45 -7 90 -22 122 -36l-11 -62c-50 19 -111 33 -160 33z"/>
    <glyph glyph-name="Euro" unicode="€" d="M467 606c-100 0 -185 -56 -232 -153h248l-31 -66h-242c-3 -11 -6 -22 -8 -33l-7 -37c-3 -14 -5 -27 -6 -40h217l-32 -66h-185c10 -93 65 -152 159 -152c57 0 100 10 142 24l-13 -65c-44 -19 -91 -29 -141 -29c-133 0 -213 94 -223 222h-84l13 66h72c1 13 3 27 6 41l9 46 l5 23h-71l13 66h80c57 137 176 223 309 223c50 0 99 -13 133 -30l-12 -60c-38 14 -68 20 -119 20z"/>
    <glyph glyph-name="sterling" unicode="£" d="M407 601c-105 0 -180 -64 -201 -173l-11 -56h268l-14 -72h-268l-44 -229h335l-14 -71h-413l83 426c30 153 137 250 275 250c66 0 126 -17 169 -42l-14 -64c-45 20 -85 31 -151 31z"/>
    <glyph glyph-name="yen" unicode="¥" d="M599 666l-233 -319h131l-12 -64h-159l-18 -92h159l-13 -65h-159l-24 -126h-77l25 126h-158l13 65h157l19 92h-158l12 64h131l-107 319h79l94 -304l219 304h79z"/>
    <glyph glyph-name="plus" unicode="+" d="M503 368l-14 -72h-162l-31 -161h-71l31 161h-163l14 72h163l31 162h72l-32 -162h162z"/>
    <glyph glyph-name="minus" unicode="−" d="M101 296l14 74h381l-15 -74h-380z"/>
    <glyph glyph-name="multiply" unicode="×" d="M480 451l-143 -123l93 -122l-58 -44l-90 119l-141 -121l-45 53l144 123l-93 122l58 44l90 -119l141 121z"/>
    <glyph glyph-name="divide" unicode="÷" d="M328 459c-30 0 -48 19 -48 48c0 37 25 64 59 64c30 0 48 -20 48 -48c0 -37 -25 -64 -59 -64zM99 296l14 73h384l-14 -73h-384zM257 94c-30 0 -47 19 -47 48c0 37 24 64 58 64c30 0 49 -20 49 -49c0 -36 -26 -63 -60 -63z"/>
    <glyph glyph-name="equal" unicode="=" d="M131 405l14 72h363l-14 -72h-363zM89 188l14 72h362l-14 -72h-362z"/>
    <glyph glyph-name="notequal" unicode="≠" d="M517 584l-77 -107h73l-14 -72h-111l-104 -145h186l-14 -72h-224l-77 -107h-75l77 107h-63l14 72h100l105 145h-177l14 72h214l77 107h76z"/>
    <glyph glyph-name="greater" unicode="&gt;" d="M90 130l12 73l304 132l-253 126l13 73l318 -170l-11 -64z"/>
    <glyph glyph-name="less" unicode="&lt;" d="M504 534l-13 -73l-304 -132l253 -126l-13 -73l-317 170l11 64z"/>
    <glyph glyph-name="greaterequal" unicode="≥" d="M93 153l14 72l303 130l-252 129l13 72l318 -170l-12 -63zM63 0l14 70h350l-14 -70h-350z"/>
    <glyph glyph-name="lessequal" unicode="≤" d="M429 153l-317 170l11 63l383 170l-12 -72l-305 -131l253 -128zM399 0h-350l14 70h350z"/>
    <glyph glyph-name="plusminus" unicode="±" d="M345 392h163l-13 -68h-163l-32 -163h-69l32 163h-164l13 68h164l32 164h69zM44 0l13 70h381l-14 -70h-380z"/>
    <glyph glyph-name="asciitilde" unicode="~" d="M391 256c-48 0 -82 28 -112 49c-25 17 -49 31 -68 31c-43 0 -74 -20 -90 -75h-67c23 89 75 147 152 147c44 0 74 -28 104 -47c26 -17 53 -33 76 -33c45 0 76 26 91 78h66c-22 -89 -75 -150 -152 -150z"/>
    <glyph glyph-name="logicalnot" unicode="¬" d="M373 184l33 165h-284l14 71h353l-46 -236h-70z"/>
    <glyph glyph-name="asciicircum" unicode="^" d="M110 388l223 288h66l109 -288h-73l-79 219l-169 -219h-77z"/>
    <glyph glyph-name="percent" unicode="%" horiz-adv-x="888" d="M224 288c-87 0 -137 61 -137 140c0 14 2 29 5 44l4 20c18 92 94 182 186 182c86 0 135 -61 135 -140c0 -14 -1 -28 -4 -43l-4 -21c-18 -93 -94 -182 -185 -182zM112 0l604 666h89l-605 -666h-88zM225 356c52 0 98 49 113 121l3 14c3 13 4 26 4 38c0 46 -21 79 -64 79 c-52 0 -98 -49 -114 -123l-3 -14c-3 -13 -4 -25 -4 -36c0 -46 21 -79 65 -79zM638 -12c-87 0 -136 61 -136 140c0 14 2 29 5 44l4 20c18 92 94 182 186 182c85 0 134 -61 134 -140c0 -14 -1 -28 -4 -43l-4 -21c-18 -93 -94 -182 -185 -182zM639 56c53 0 99 49 114 121l3 14 c3 13 4 26 4 38c0 46 -21 79 -65 79c-52 0 -97 -49 -113 -123l-3 -14c-3 -13 -4 -25 -4 -36c0 -46 20 -79 64 -79z"/>
    <glyph glyph-name="perthousand" unicode="‰" horiz-adv-x="1271" d="M224 288c-87 0 -137 61 -137 140c0 14 2 29 5 44l4 20c18 92 94 182 186 182c86 0 135 -61 135 -140c0 -14 -1 -28 -4 -43l-4 -21c-18 -93 -94 -182 -185 -182zM112 0l604 666h89l-605 -666h-88zM225 356c52 0 98 49 113 121l3 14c3 13 4 26 4 38c0 46 -21 79 -64 79 c-52 0 -98 -49 -114 -123l-3 -14c-3 -13 -4 -25 -4 -36c0 -46 21 -79 65 -79zM638 -12c-87 0 -136 61 -136 140c0 14 2 29 5 44l4 20c18 92 94 182 186 182c85 0 134 -61 134 -140c0 -14 -1 -28 -4 -43l-4 -21c-18 -93 -94 -182 -185 -182zM1021 -12c-87 0 -137 61 -137 140 c0 14 2 29 5 44l4 20c18 92 94 182 186 182c86 0 135 -61 135 -140c0 -14 -1 -28 -4 -43l-4 -21c-18 -93 -94 -182 -185 -182zM639 56c53 0 99 49 114 121l3 14c3 13 4 26 4 38c0 46 -21 79 -65 79c-52 0 -97 -49 -113 -123l-3 -14c-3 -13 -4 -25 -4 -36 c0 -46 20 -79 64 -79zM1022 56c52 0 98 49 114 121l3 14c3 13 4 26 4 38c0 46 -22 79 -65 79c-52 0 -97 -49 -113 -123l-3 -14c-3 -13 -4 -25 -4 -36c0 -46 20 -79 64 -79z"/>
    <glyph glyph-name="at" unicode="@" horiz-adv-x="963" d="M593 62h-39l2 43c-52 -40 -102 -61 -144 -61c-81 0 -128 58 -128 146c0 14 1 27 3 42l3 20c19 129 125 210 254 210h148l-64 -332c133 11 235 138 235 279c0 131 -94 220 -275 220c-257 0 -463 -205 -463 -456c0 -165 107 -289 285 -289c76 0 151 12 216 36l-12 -68 c-64 -25 -133 -38 -210 -38c-214 0 -350 149 -350 356c0 297 248 528 537 528c218 0 341 -118 341 -287c0 -193 -159 -349 -339 -349zM360 203c0 -54 26 -90 74 -90c41 0 86 17 125 49l44 232h-63c-94 0 -164 -60 -176 -150l-2 -15c-1 -8 -2 -17 -2 -26z"/>
    <glyph glyph-name="ampersand" unicode="&amp;" horiz-adv-x="693" d="M677 360l-12 -64h-97l-2 -8c-15 -74 -46 -139 -90 -189l59 -99h-83l-30 50c-53 -39 -118 -61 -190 -61c-118 0 -190 83 -190 178c0 108 79 183 186 218c-21 43 -33 78 -33 113c0 115 87 188 208 188c57 0 112 -19 148 -39l-16 -61c-43 20 -87 30 -129 30 c-85 0 -139 -43 -139 -116c0 -51 26 -92 79 -181l96 -162c29 36 50 81 60 132l14 71h161zM242 58c54 0 105 17 147 48l-94 160c-14 23 -26 45 -38 64c-83 -26 -143 -82 -143 -159c0 -63 49 -113 128 -113z"/>
    <glyph glyph-name="paragraph" unicode="¶" horiz-adv-x="669" d="M474 676l-159 -816h-75l77 399h-57c-109 0 -181 64 -181 160c0 154 102 257 256 257h139zM576 676h76l-159 -816h-76z"/>
    <glyph glyph-name="copyright" unicode="©" horiz-adv-x="765" d="M399 -12c-193 0 -342 147 -342 349c0 201 149 348 342 348s342 -147 342 -348c0 -202 -149 -349 -342 -349zM399 54c155 0 274 121 274 283c0 161 -119 282 -274 282c-156 0 -275 -121 -275 -282c0 -162 119 -283 275 -283zM409 159c-105 0 -170 73 -170 166v18 c0 99 75 170 176 170c35 0 59 -7 84 -17v-64c-26 9 -49 13 -77 13c-65 0 -108 -42 -108 -104v-11c0 -61 42 -103 106 -103c34 0 58 6 85 14v-64c-30 -12 -62 -18 -96 -18z"/>
    <glyph glyph-name="registered" unicode="®" horiz-adv-x="606" d="M339 720c141 0 252 -108 252 -255c0 -145 -110 -252 -252 -252c-144 0 -255 107 -255 252c0 147 111 255 255 255zM339 260c115 0 203 85 203 205c0 121 -87 207 -203 207c-117 0 -205 -86 -205 -207s88 -205 205 -205zM440 509c0 -28 -14 -54 -44 -67l64 -88h-62l-52 79 h-54v-79h-52v234h104c65 0 96 -37 96 -79zM292 540v-61h48c29 0 43 9 43 31c0 20 -16 30 -47 30h-44z"/>
    <glyph glyph-name="trademark" unicode="™" horiz-adv-x="836" d="M412 676l-13 -67h-121l-60 -312h-71l61 312h-121l13 67h312zM805 676h62l-74 -379h-65l53 267l-132 -155h-50l-69 154l-53 -266h-62l73 379h62l83 -201z"/>
    <glyph glyph-name="degree" unicode="°" horiz-adv-x="407" d="M267 423c-84 0 -148 65 -148 148c0 82 64 146 148 146c81 0 145 -64 145 -146c0 -83 -64 -148 -145 -148zM267 487c45 0 81 37 81 84c0 46 -35 83 -81 83c-47 0 -84 -37 -84 -83c0 -47 36 -84 84 -84z"/>
    <glyph glyph-name="bar" unicode="|" horiz-adv-x="279" d="M26 -130l175 901h78l-175 -901h-78z"/>
    <glyph glyph-name="brokenbar" unicode="¦" horiz-adv-x="279" d="M139 453l62 318h79l-62 -318h-79zM26 -130l67 343h78l-67 -343h-78z"/>
    <glyph glyph-name="dagger" unicode="†" horiz-adv-x="371" d="M382 604l-12 -60h-95l-40 -210h-65l41 210h-96l12 60h96l22 114h64l-22 -114h95z"/>
    <glyph glyph-name="daggerdbl" unicode="‡" horiz-adv-x="370" d="M376 579h-95l-19 -101h95l-11 -57h-95l-17 -87h-64l17 87h-96l11 57h96l20 101h-96l11 57h96l16 82h63l-16 -82h96z"/>
    <glyph glyph-name="at.case" horiz-adv-x="963" d="M609 145h-39l2 43c-52 -40 -102 -61 -144 -61c-81 0 -128 58 -128 146c0 14 1 27 3 42l3 20c19 129 125 210 254 210h148l-64 -332c133 11 235 138 235 279c0 131 -94 220 -275 220c-257 0 -463 -205 -463 -456c0 -165 107 -289 285 -289c76 0 151 12 217 36l-13 -68 c-64 -25 -133 -38 -210 -38c-214 0 -350 149 -350 356c0 297 248 528 537 528c218 0 341 -118 341 -287c0 -193 -159 -349 -339 -349zM376 286c0 -54 26 -90 74 -90c41 0 86 17 125 49l44 232h-63c-93 0 -164 -60 -176 -150l-2 -15c-1 -8 -2 -17 -2 -26z"/>
    <glyph glyph-name="uni0308" unicode="̈" horiz-adv-x="0" d="M-259 613c-28 0 -44 18 -44 45c0 37 22 59 53 59c27 0 45 -16 45 -44c0 -36 -25 -60 -54 -60zM-86 613c-28 0 -45 18 -45 45c0 37 23 59 54 59c27 0 45 -16 45 -44c0 -36 -25 -60 -54 -60z"/>
    <glyph glyph-name="uni0307" unicode="̇" horiz-adv-x="0" d="M-171 605c-29 0 -48 20 -48 49c0 41 27 63 59 63c30 0 49 -17 49 -47c0 -39 -27 -65 -60 -65z"/>
    <glyph glyph-name="gravecomb" unicode="̀" horiz-adv-x="0" d="M-141 598l-122 143h88l111 -143h-77z"/>
    <glyph glyph-name="acutecomb" unicode="́" horiz-adv-x="0" d="M-295 598l167 143h96l-178 -143h-85z"/>
    <glyph glyph-name="uni0302" unicode="̂" horiz-adv-x="0" d="M-329 598l145 148h69l86 -148h-71l-56 96l-100 -96h-73z"/>
    <glyph glyph-name="uni030C" unicode="̌" horiz-adv-x="0" d="M-212 598l-87 148h72l56 -96l100 96h73l-145 -148h-69z"/>
    <glyph glyph-name="uni030A" unicode="̊" horiz-adv-x="0" d="M-160 590c-60 0 -110 46 -110 109c0 62 52 108 110 108c60 0 109 -46 109 -108c0 -63 -50 -109 -109 -109zM-160 641c32 0 55 24 55 58c0 33 -24 57 -55 57c-33 0 -56 -24 -56 -57c0 -34 24 -58 56 -58z"/>
    <glyph glyph-name="tildecomb" unicode="̃" horiz-adv-x="0" d="M-102 609c-33 0 -55 16 -75 31c-18 13 -33 26 -51 26c-27 0 -46 -20 -52 -47h-64c14 76 60 112 118 112c28 0 51 -16 72 -31c19 -13 36 -26 55 -26c23 0 43 16 51 47h64c-12 -66 -61 -112 -118 -112z"/>
    <glyph glyph-name="uni0304" unicode="̄" horiz-adv-x="0" d="M-288 701h260l-13 -67h-260z"/>
    <glyph glyph-name="uni0327" unicode="̧" horiz-adv-x="0" d="M-344 -180c-24 0 -51 6 -74 19l9 50c17 -7 34 -10 49 -10c54 0 86 37 86 85c0 18 -5 36 -18 50l57 2c14 -16 23 -40 23 -67c0 -74 -58 -129 -132 -129z"/>
    <glyph glyph-name="acute" unicode="´" horiz-adv-x="491" d="M195 598l167 143h96l-178 -143h-85z"/>
    <glyph glyph-name="caron" unicode="ˇ" horiz-adv-x="542" d="M278 598l-87 148h72l56 -96l100 96h73l-145 -148h-69z"/>
    <glyph glyph-name="cedilla" unicode="¸" horiz-adv-x="542" d="M146 -180c-24 0 -51 6 -74 19l9 50c17 -7 34 -10 49 -10c54 0 86 37 86 85c0 18 -5 36 -18 50l57 2c14 -16 23 -40 23 -67c0 -74 -58 -129 -132 -129z"/>
    <glyph glyph-name="circumflex" unicode="ˆ" horiz-adv-x="541" d="M161 598l145 148h69l86 -148h-71l-56 96l-100 -96h-73z"/>
    <glyph glyph-name="dieresis" unicode="¨" horiz-adv-x="542" d="M231 613c-28 0 -44 18 -44 45c0 37 22 59 53 59c27 0 45 -16 45 -44c0 -36 -25 -60 -54 -60zM404 613c-28 0 -45 18 -45 45c0 37 23 59 54 59c27 0 45 -16 45 -44c0 -36 -25 -60 -54 -60z"/>
    <glyph glyph-name="dotaccent" unicode="˙" horiz-adv-x="541" d="M319 605c-29 0 -48 20 -48 49c0 41 27 63 59 63c30 0 49 -17 49 -47c0 -39 -27 -65 -60 -65z"/>
    <glyph glyph-name="grave" unicode="`" horiz-adv-x="542" d="M349 598l-122 143h88l111 -143h-77z"/>
    <glyph glyph-name="macron" unicode="¯" horiz-adv-x="541" d="M202 701h260l-13 -67h-260z"/>
    <glyph glyph-name="ring" unicode="˚" horiz-adv-x="542" d="M330 590c-60 0 -110 46 -110 109c0 62 52 108 110 108c60 0 109 -46 109 -108c0 -63 -50 -109 -109 -109zM330 641c32 0 55 24 55 58c0 33 -24 57 -55 57c-33 0 -56 -24 -56 -57c0 -34 24 -58 56 -58z"/>
    <glyph glyph-name="tilde" unicode="˜" horiz-adv-x="541" d="M388 609c-33 0 -55 16 -75 31c-18 13 -33 26 -51 26c-27 0 -46 -20 -52 -47h-64c14 76 60 112 118 112c28 0 51 -16 72 -31c19 -13 36 -26 55 -26c23 0 43 16 51 47h64c-12 -66 -61 -112 -118 -112z"/>
    <glyph glyph-name="uni0308.case" horiz-adv-x="0" d="M-287 752c-29 0 -47 18 -47 47c0 40 25 61 57 61c28 0 47 -16 47 -45c0 -40 -26 -63 -57 -63zM-95 752c-29 0 -48 18 -48 47c0 40 26 61 58 61c28 0 46 -16 46 -45c0 -40 -25 -63 -56 -63z"/>
    <glyph glyph-name="uni0307.case" horiz-adv-x="0" d="M-192 751c-29 0 -49 19 -49 48c0 40 27 64 60 64c29 0 48 -18 48 -47c0 -39 -27 -65 -59 -65z"/>
    <glyph glyph-name="gravecomb.case" horiz-adv-x="0" d="M-155 749l-148 137h100l137 -137h-89z"/>
    <glyph glyph-name="acutecomb.case" horiz-adv-x="0" d="M-333 749l189 137h107l-202 -137h-94z"/>
    <glyph glyph-name="uni0302.case" horiz-adv-x="0" d="M-373 749l167 143h72l110 -143h-80l-72 91l-113 -91h-84z"/>
    <glyph glyph-name="uni030C.case" horiz-adv-x="0" d="M-233 749l-111 143h81l72 -92l113 92h84l-167 -143h-72z"/>
    <glyph glyph-name="uni030A.case" horiz-adv-x="0" d="M-140 727c-60 0 -110 46 -110 109c0 62 52 108 110 108c60 0 109 -46 109 -108c0 -63 -50 -109 -109 -109zM-140 780c31 0 53 23 53 56c0 32 -23 55 -53 55c-32 0 -54 -23 -54 -55c0 -33 23 -56 54 -56z"/>
    <glyph glyph-name="tildecomb.case" horiz-adv-x="0" d="M-101 751c-38 0 -64 21 -87 37c-21 14 -39 26 -60 26c-30 0 -51 -23 -58 -52h-72c15 81 63 120 129 120c31 0 60 -18 85 -34c20 -13 41 -29 62 -29c26 0 48 19 57 52h73c-14 -71 -65 -120 -129 -120z"/>
    <glyph glyph-name="uni0304.case" horiz-adv-x="0" d="M-332 845h305l-13 -68h-306z"/>
    <glyph glyph-name="uni0327.case" horiz-adv-x="0" d="M-368 -181c-37 0 -64 11 -85 20l13 50c18 -7 39 -12 55 -12c56 0 91 33 91 82c0 18 -7 37 -21 52h62c15 -16 25 -43 25 -71c0 -70 -63 -121 -140 -121z"/>
    </font>
</defs>
</svg>
