<svg xmlns="http://www.w3.org/2000/svg" xmlns:xlink="http://www.w3.org/1999/xlink" version="1.1">
<metadata>
Created by FontForge 20181003 at Fri Dec 21 12:44:35 2018
 By Henrique Beier
Copyright \(c\) 2018 GOL Linhas Aereas SA. All rights reserved.
</metadata>
<defs>
<font id="GOLSansText-Bold" horiz-adv-x="566">
  <font-face font-family="GOL Sans Text" font-weight="600" font-stretch="normal" units-per-em="1000" panose-1="2 1 8 3 3 4 7 2 2 3" ascent="803" descent="-197" x-height="509" cap-height="676" bbox="-566 -225 1316 971" underline-thickness="50" underline-position="-100" stemh="118" stemv="131" unicode-range="U+0020-FB02"/>
<missing-glyph horiz-adv-x="468" d="M384 711v-936h-297v936h297zM312 648h-155v-31h61v-34h-62v-31h156v31h-62v34h62v31zM250 528h-94v-98h156v32h-62v66zM218 496v-34h-31v34h31zM312 405h-156v-31h62v-35h-62v-30h94v65h62v31zM312 349h-31v-62h-125v-32h156v94zM312 235h-94v-53h32v22h31v-44h-94v75 h-31v-106h156v106zM312 73h-156v-106h156v106zM281 42v-44h-94v44h94zM312 -55h-156v-31h66l-66 -44v-30h156v30h-96l66 44h30v31z"/>
    <glyph glyph-name="fi" unicode="fi" horiz-adv-x="721" d="M580 591c-47 0 -79 32 -79 75c0 44 33 75 79 75s79 -31 79 -75c0 -43 -33 -75 -79 -75zM75 0v502c0 145 93 226 217 226c49 0 89 -10 123 -23v-105c-30 10 -64 15 -98 15c-66 0 -110 -27 -110 -101v-5h198v-117h-198v-392h-132zM515 0v509h131v-509h-131z"/>
    <glyph glyph-name="fl" unicode="fl" horiz-adv-x="722" d="M75 0v502c0 145 93 226 217 226c49 0 89 -10 123 -23v-105c-30 10 -64 15 -98 15c-66 0 -110 -27 -110 -101v-5h198v-117h-198v-392h-132zM515 0v711h132v-711h-132z"/>
    <glyph glyph-name=".notdef" horiz-adv-x="468" d="M384 711v-936h-297v936h297zM312 648h-155v-31h61v-34h-62v-31h156v31h-62v34h62v31zM250 528h-94v-98h156v32h-62v66zM218 496v-34h-31v34h31zM312 405h-156v-31h62v-35h-62v-30h94v65h62v31zM312 349h-31v-62h-125v-32h156v94zM312 235h-94v-53h32v22h31v-44h-94v75 h-31v-106h156v106zM312 73h-156v-106h156v106zM281 42v-44h-94v44h94zM312 -55h-156v-31h66l-66 -44v-30h156v30h-96l66 44h30v31z"/>
    <glyph glyph-name="space" unicode=" " horiz-adv-x="228"/>
    <glyph glyph-name="A" unicode="A" horiz-adv-x="697" d="M522 0l-51 155h-253l-52 -155h-140l251 676h144l250 -676h-149zM258 275h174l-87 263z"/>
    <glyph glyph-name="Aacute" unicode="Á" horiz-adv-x="697" d="M572 891l-181 -143h-138l163 143h156zM522 0l-51 155h-253l-52 -155h-140l251 676h144l250 -676h-149zM258 275h174l-87 263z"/>
    <glyph glyph-name="Acircumflex" unicode="Â" horiz-adv-x="697" d="M349 835l-96 -87h-118l153 156h123l153 -156h-121zM522 0l-51 155h-253l-52 -155h-140l251 676h144l250 -676h-149zM258 275h174l-87 263z"/>
    <glyph glyph-name="Adieresis" unicode="Ä" horiz-adv-x="697" d="M236 747c-45 0 -75 30 -75 75c0 44 31 74 75 74s75 -30 75 -74c0 -45 -31 -75 -75 -75zM462 747c-45 0 -75 30 -75 75c0 44 31 74 75 74s75 -30 75 -74c0 -45 -31 -75 -75 -75zM522 0l-51 155h-253l-52 -155h-140l251 676h144l250 -676h-149zM258 275h174l-87 263z"/>
    <glyph glyph-name="Agrave" unicode="À" horiz-adv-x="697" d="M445 748h-138l-181 143h155zM522 0l-51 155h-253l-52 -155h-140l251 676h144l250 -676h-149zM258 275h174l-87 263z"/>
    <glyph glyph-name="Amacron" unicode="Ā" horiz-adv-x="697" d="M526 867v-102h-355v102h355zM522 0l-51 155h-253l-52 -155h-140l251 676h144l250 -676h-149zM258 275h174l-87 263z"/>
    <glyph glyph-name="Aring" unicode="Å" horiz-adv-x="697" d="M522 0l-51 155h-253l-52 -155h-140l247 664c-30 23 -49 57 -49 99c0 71 59 123 126 123c68 0 125 -52 125 -123c0 -42 -20 -77 -49 -99l245 -664h-149zM350 814c-30 0 -51 -21 -51 -51c0 -31 22 -52 51 -52s49 21 49 52c0 30 -21 51 -49 51zM258 275h174l-87 263z"/>
    <glyph glyph-name="Atilde" unicode="Ã" horiz-adv-x="697" d="M272 810c-33 0 -47 -23 -48 -54h-91c8 83 49 144 131 144c39 0 71 -18 99 -34c22 -13 42 -25 62 -25c30 0 48 17 49 53h90c-7 -86 -48 -145 -133 -145c-34 0 -64 17 -92 33c-24 14 -46 28 -67 28zM522 0l-51 155h-253l-52 -155h-140l251 676h144l250 -676h-149zM258 275 h174l-87 263z"/>
    <glyph glyph-name="AE" unicode="Æ" horiz-adv-x="976" d="M631 125h294v-125h-424v156h-247l-101 -156h-143l441 676h466v-125h-286v-147h259v-119h-259v-160zM331 276h170v263z"/>
    <glyph glyph-name="B" unicode="B" horiz-adv-x="626" d="M467 361c77 -29 118 -94 118 -174c0 -109 -85 -187 -211 -187h-290v676h249c136 0 219 -72 219 -179c0 -58 -31 -107 -85 -136zM333 561h-124v-157h125c59 0 90 30 90 79c0 46 -32 78 -91 78zM356 117c65 0 98 32 98 82s-34 87 -100 87h-145v-169h147z"/>
    <glyph glyph-name="C" unicode="C" horiz-adv-x="599" d="M371 -12c-195 0 -316 141 -316 326v36c0 195 138 337 327 337c60 0 110 -12 157 -31v-122c-49 16 -85 25 -143 25c-126 0 -204 -80 -204 -208v-24c0 -128 77 -210 200 -210c61 0 107 11 157 28v-121c-54 -23 -111 -36 -178 -36z"/>
    <glyph glyph-name="Cacute" unicode="Ć" horiz-adv-x="599" d="M267 757l163 143h156l-181 -143h-138zM371 -12c-195 0 -316 141 -316 326v36c0 195 138 337 327 337c60 0 110 -12 157 -31v-122c-49 16 -85 25 -143 25c-126 0 -204 -80 -204 -208v-24c0 -128 77 -210 200 -210c61 0 107 11 157 28v-121c-54 -23 -111 -36 -178 -36z"/>
    <glyph glyph-name="Ccaron" unicode="Č" horiz-adv-x="599" d="M301 757l-152 156h120l95 -88l95 88h119l-154 -156h-123zM371 -12c-195 0 -316 141 -316 326v36c0 195 138 337 327 337c60 0 110 -12 157 -31v-122c-49 16 -85 25 -143 25c-126 0 -204 -80 -204 -208v-24c0 -128 77 -210 200 -210c61 0 107 11 157 28v-121 c-54 -23 -111 -36 -178 -36z"/>
    <glyph glyph-name="Ccedilla" unicode="Ç" horiz-adv-x="599" d="M549 145v-121c-37 -16 -74 -27 -116 -32c15 -21 23 -46 23 -69c0 -76 -65 -121 -151 -121c-40 0 -67 6 -98 19v85c24 -8 47 -13 69 -13c47 0 75 17 75 53c0 17 -6 31 -16 44c-174 16 -280 151 -280 324v36c0 195 138 337 327 337c60 0 110 -12 157 -31v-122 c-49 16 -85 25 -143 25c-126 0 -204 -80 -204 -208v-24c0 -128 77 -210 200 -210c61 0 107 11 157 28z"/>
    <glyph glyph-name="Cdotaccent" unicode="Ċ" horiz-adv-x="599" d="M363 756c-49 0 -81 32 -81 78c0 47 33 78 81 78c47 0 81 -31 81 -78c0 -46 -34 -78 -81 -78zM371 -12c-195 0 -316 141 -316 326v36c0 195 138 337 327 337c60 0 110 -12 157 -31v-122c-49 16 -85 25 -143 25c-126 0 -204 -80 -204 -208v-24c0 -128 77 -210 200 -210 c61 0 107 11 157 28v-121c-54 -23 -111 -36 -178 -36z"/>
    <glyph glyph-name="D" unicode="D" horiz-adv-x="706" d="M330 676c193 0 322 -128 322 -316v-38c0 -186 -132 -322 -323 -322h-245v676h246zM514 325v24c0 130 -73 199 -184 199h-112v-420h111c110 0 185 71 185 197z"/>
    <glyph glyph-name="Eth" unicode="Ð" horiz-adv-x="748" d="M371 676c193 0 322 -128 322 -316v-38c0 -186 -131 -322 -322 -322h-245v277h-99v125h99v274h245zM556 325v24c0 130 -74 199 -185 199h-111v-146h158v-125h-158v-149h111c109 0 185 71 185 197z"/>
    <glyph glyph-name="E" unicode="E" d="M216 125h299v-125h-431v676h423v-125h-291v-147h264v-119h-264v-160z"/>
    <glyph glyph-name="Eacute" unicode="É" d="M524 891l-181 -143h-138l163 143h156zM216 285v-160h299v-125h-431v676h423v-125h-291v-147h264v-119h-264z"/>
    <glyph glyph-name="Ecaron" unicode="Ě" d="M362 748h-123l-152 156h120l95 -88l95 88h119zM216 285v-160h299v-125h-431v676h423v-125h-291v-147h264v-119h-264z"/>
    <glyph glyph-name="Ecircumflex" unicode="Ê" d="M301 835l-96 -87h-118l153 156h123l153 -156h-121zM216 285v-160h299v-125h-431v676h423v-125h-291v-147h264v-119h-264z"/>
    <glyph glyph-name="Edieresis" unicode="Ë" d="M188 747c-45 0 -75 30 -75 75c0 44 31 74 75 74s75 -30 75 -74c0 -45 -31 -75 -75 -75zM414 747c-45 0 -75 30 -75 75c0 44 31 74 75 74s75 -30 75 -74c0 -45 -31 -75 -75 -75zM216 125h299v-125h-431v676h423v-125h-291v-147h264v-119h-264v-160z"/>
    <glyph glyph-name="Edotaccent" unicode="Ė" d="M301 747c-49 0 -81 32 -81 78c0 47 33 78 81 78c47 0 81 -31 81 -78c0 -46 -34 -78 -81 -78zM216 125h299v-125h-431v676h423v-125h-291v-147h264v-119h-264v-160z"/>
    <glyph glyph-name="Egrave" unicode="È" d="M397 748h-138l-181 143h155zM216 125h299v-125h-431v676h423v-125h-291v-147h264v-119h-264v-160z"/>
    <glyph glyph-name="Emacron" unicode="Ē" d="M478 867v-102h-355v102h355zM216 125h299v-125h-431v676h423v-125h-291v-147h264v-119h-264v-160z"/>
    <glyph glyph-name="F" unicode="F" horiz-adv-x="552" d="M515 548h-299v-156h262v-127h-262v-265h-132v676h431v-128z"/>
    <glyph glyph-name="G" unicode="G" horiz-adv-x="663" d="M352 377h247v-342c-64 -29 -139 -46 -225 -46c-206 0 -319 142 -319 322v41c0 191 137 335 330 335c70 0 117 -13 174 -34v-120c-58 20 -104 28 -162 28c-122 0 -208 -72 -208 -213v-24c0 -129 71 -212 201 -212c30 0 59 3 86 8v141h-124v116z"/>
    <glyph glyph-name="Gdotaccent" unicode="Ġ" horiz-adv-x="663" d="M369 756c-49 0 -81 32 -81 78c0 47 33 78 81 78c47 0 81 -31 81 -78c0 -46 -34 -78 -81 -78zM352 377h247v-342c-64 -29 -139 -46 -225 -46c-206 0 -319 142 -319 322v41c0 191 137 335 330 335c70 0 117 -13 174 -34v-120c-58 20 -104 28 -162 28 c-122 0 -208 -72 -208 -213v-24c0 -129 71 -212 201 -212c30 0 59 3 86 8v141h-124v116z"/>
    <glyph glyph-name="H" unicode="H" horiz-adv-x="718" d="M498 676h136v-676h-136v281h-278v-281h-136v676h136v-264h278v264z"/>
    <glyph glyph-name="I" unicode="I" horiz-adv-x="304" d="M84 0v676h136v-676h-136z"/>
    <glyph glyph-name="IJ" unicode="Ĳ" horiz-adv-x="782" d="M84 0v676h136v-676h-136zM483 -12c-57 0 -103 11 -137 27v119c32 -11 63 -17 112 -17c70 0 108 45 108 117v442h135v-445c0 -145 -88 -243 -218 -243z"/>
    <glyph glyph-name="Iacute" unicode="Í" horiz-adv-x="304" d="M56 748l163 143h156l-181 -143h-138zM84 0v676h136v-676h-136z"/>
    <glyph glyph-name="Icircumflex" unicode="Î" horiz-adv-x="304" d="M-62 748l153 156h123l153 -156h-121l-94 87l-96 -87h-118zM84 0v676h136v-676h-136z"/>
    <glyph glyph-name="Idieresis" unicode="Ï" horiz-adv-x="304" d="M39 747c-45 0 -75 30 -75 75c0 44 31 74 75 74s75 -30 75 -74c0 -45 -31 -75 -75 -75zM265 747c-45 0 -75 30 -75 75c0 44 31 74 75 74s75 -30 75 -74c0 -45 -31 -75 -75 -75zM84 0v676h136v-676h-136z"/>
    <glyph glyph-name="Idotaccent" unicode="İ" horiz-adv-x="304" d="M152 747c-49 0 -81 32 -81 78c0 47 33 78 81 78c47 0 81 -31 81 -78c0 -46 -34 -78 -81 -78zM84 0v676h136v-676h-136z"/>
    <glyph glyph-name="Igrave" unicode="Ì" horiz-adv-x="304" d="M110 748l-181 143h155l164 -143h-138zM84 0v676h136v-676h-136z"/>
    <glyph glyph-name="Imacron" unicode="Ī" horiz-adv-x="304" d="M-26 867h355v-102h-355v102zM84 0v676h136v-676h-136z"/>
    <glyph glyph-name="J" unicode="J" horiz-adv-x="478" d="M179 -12c-57 0 -103 11 -137 27v119c32 -11 63 -17 112 -17c70 0 108 45 108 117v442h135v-445c0 -145 -88 -243 -218 -243z"/>
    <glyph glyph-name="K" unicode="K" horiz-adv-x="680" d="M665 0h-168l-279 316v-316h-134v676h134v-287l262 287h157l-288 -314z"/>
    <glyph glyph-name="L" unicode="L" horiz-adv-x="554" d="M220 131h295v-131h-431v676h136v-545z"/>
    <glyph glyph-name="M" unicode="M" horiz-adv-x="832" d="M84 0v676h131l199 -348l215 348h119v-676h-132v456l-156 -258h-98l-152 256v-454h-126z"/>
    <glyph glyph-name="N" unicode="N" horiz-adv-x="717" d="M84 0v676h118l306 -458v458h125v-676h-118l-306 450v-450h-125z"/>
    <glyph glyph-name="Nacute" unicode="Ń" horiz-adv-x="717" d="M262 748l163 143h156l-181 -143h-138zM84 0v676h118l306 -458v458h125v-676h-118l-306 450v-450h-125z"/>
    <glyph glyph-name="Ncaron" unicode="Ň" horiz-adv-x="717" d="M296 748l-152 156h120l95 -88l95 88h119l-154 -156h-123zM84 0v676h118l306 -458v458h125v-676h-118l-306 450v-450h-125z"/>
    <glyph glyph-name="Ntilde" unicode="Ñ" horiz-adv-x="717" d="M440 749c-34 0 -64 17 -92 33c-24 14 -46 28 -67 28c-33 0 -47 -23 -48 -54h-91c8 83 49 144 131 144c39 0 71 -18 99 -34c22 -13 42 -25 62 -25c30 0 48 17 49 53h90c-7 -86 -48 -145 -133 -145zM84 0v676h118l306 -458v458h125v-676h-118l-306 450v-450h-125z"/>
    <glyph glyph-name="O" unicode="O" horiz-adv-x="739" d="M370 -12c-191 0 -315 140 -315 326v38c0 185 125 335 315 335c192 0 315 -141 315 -326v-39c0 -184 -124 -334 -315 -334zM370 117c111 0 177 82 177 209v22c0 130 -65 211 -177 211c-111 0 -178 -83 -178 -211v-22c0 -128 66 -209 178 -209z"/>
    <glyph glyph-name="Oacute" unicode="Ó" horiz-adv-x="739" d="M274 757l163 143h156l-181 -143h-138zM370 -12c-191 0 -315 140 -315 326v38c0 185 125 335 315 335c192 0 315 -141 315 -326v-39c0 -184 -124 -334 -315 -334zM370 117c111 0 177 82 177 209v22c0 130 -65 211 -177 211c-111 0 -178 -83 -178 -211v-22 c0 -128 66 -209 178 -209z"/>
    <glyph glyph-name="Ocircumflex" unicode="Ô" horiz-adv-x="739" d="M156 757l153 156h123l153 -156h-121l-94 87l-96 -87h-118zM370 -12c-191 0 -315 140 -315 326v38c0 185 125 335 315 335c192 0 315 -141 315 -326v-39c0 -184 -124 -334 -315 -334zM370 117c111 0 177 82 177 209v22c0 130 -65 211 -177 211c-111 0 -178 -83 -178 -211 v-22c0 -128 66 -209 178 -209z"/>
    <glyph glyph-name="Odieresis" unicode="Ö" horiz-adv-x="739" d="M257 756c-45 0 -75 30 -75 75c0 44 31 74 75 74s75 -30 75 -74c0 -45 -31 -75 -75 -75zM483 756c-45 0 -75 30 -75 75c0 44 31 74 75 74s75 -30 75 -74c0 -45 -31 -75 -75 -75zM370 -12c-191 0 -315 140 -315 326v38c0 185 125 335 315 335c192 0 315 -141 315 -326v-39 c0 -184 -124 -334 -315 -334zM370 117c111 0 177 82 177 209v22c0 130 -65 211 -177 211c-111 0 -178 -83 -178 -211v-22c0 -128 66 -209 178 -209z"/>
    <glyph glyph-name="Ograve" unicode="Ò" horiz-adv-x="739" d="M328 757l-181 143h155l164 -143h-138zM370 -12c-191 0 -315 140 -315 326v38c0 185 125 335 315 335c192 0 315 -141 315 -326v-39c0 -184 -124 -334 -315 -334zM370 117c111 0 177 82 177 209v22c0 130 -65 211 -177 211c-111 0 -178 -83 -178 -211v-22 c0 -128 66 -209 178 -209z"/>
    <glyph glyph-name="Omacron" unicode="Ō" horiz-adv-x="739" d="M192 876h355v-102h-355v102zM370 -12c-191 0 -315 140 -315 326v38c0 185 125 335 315 335c192 0 315 -141 315 -326v-39c0 -184 -124 -334 -315 -334zM370 117c111 0 177 82 177 209v22c0 130 -65 211 -177 211c-111 0 -178 -83 -178 -211v-22c0 -128 66 -209 178 -209z "/>
    <glyph glyph-name="Oslash" unicode="Ø" horiz-adv-x="739" d="M707 735l-101 -149c51 -58 79 -136 79 -225v-39c0 -184 -124 -334 -315 -334c-55 0 -104 12 -147 32l-54 -80h-137l101 150c-50 57 -78 135 -78 224v38c0 185 125 335 315 335c55 0 104 -11 146 -32l54 80h137zM192 326c0 -45 8 -84 23 -115l227 335c-21 8 -45 13 -72 13 c-111 0 -178 -83 -178 -211v-22zM547 348c0 45 -8 85 -23 117l-226 -335c21 -8 45 -13 72 -13c111 0 177 82 177 209v22z"/>
    <glyph glyph-name="Otilde" unicode="Õ" horiz-adv-x="739" d="M452 758c-34 0 -64 17 -92 33c-24 14 -46 28 -67 28c-33 0 -47 -23 -48 -54h-91c8 83 49 144 131 144c39 0 71 -18 99 -34c22 -13 42 -25 62 -25c30 0 48 17 49 53h90c-7 -86 -48 -145 -133 -145zM370 -12c-191 0 -315 140 -315 326v38c0 185 125 335 315 335 c192 0 315 -141 315 -326v-39c0 -184 -124 -334 -315 -334zM370 117c111 0 177 82 177 209v22c0 130 -65 211 -177 211c-111 0 -178 -83 -178 -211v-22c0 -128 66 -209 178 -209z"/>
    <glyph glyph-name="OE" unicode="Œ" horiz-adv-x="1015" d="M669 125h295v-125h-425v76c-45 -54 -109 -88 -188 -88c-174 0 -296 140 -296 326v38c0 185 121 335 299 335c78 0 141 -31 185 -82v71h416v-125h-286v-147h260v-119h-260v-160zM365 117c110 0 174 82 174 209v22c0 130 -62 211 -174 211c-109 0 -173 -83 -173 -211v-22 c0 -128 63 -209 173 -209z"/>
    <glyph glyph-name="P" unicode="P" horiz-adv-x="618" d="M343 676c159 0 233 -104 233 -223s-72 -229 -234 -229h-125v-224h-133v676h259zM326 349c79 0 112 40 112 104c0 62 -36 98 -112 98h-109v-202h109z"/>
    <glyph glyph-name="Thorn" unicode="Þ" horiz-adv-x="618" d="M343 587c159 0 233 -103 233 -223c0 -118 -72 -229 -234 -229h-125v-135h-133v676h133v-89h126zM326 261c79 0 112 40 112 103c0 62 -36 98 -112 98h-109v-201h109z"/>
    <glyph glyph-name="Q" unicode="Q" horiz-adv-x="739" d="M685 322c0 -106 -41 -201 -113 -262l83 -137h-145l-47 78c-29 -8 -60 -13 -93 -13c-191 0 -315 140 -315 326v38c0 185 125 335 315 335c192 0 315 -141 315 -326v-39zM459 247l43 -71c29 36 45 88 45 150v22c0 130 -65 211 -177 211c-111 0 -178 -83 -178 -211v-22 c0 -128 66 -209 178 -209c8 0 15 0 23 1l-78 129h144z"/>
    <glyph glyph-name="R" unicode="R" horiz-adv-x="637" d="M624 0h-154l-132 237h-7h-116v-237h-131v676h257c160 0 233 -103 233 -220c0 -78 -34 -149 -107 -188zM215 554v-196h108c80 0 115 39 115 101c0 59 -37 95 -113 95h-110z"/>
    <glyph glyph-name="Racute" unicode="Ŕ" horiz-adv-x="637" d="M507 891l-181 -143h-138l163 143h156zM624 0h-154l-132 237h-7h-116v-237h-131v676h257c160 0 233 -103 233 -220c0 -78 -34 -149 -107 -188zM215 554v-196h108c80 0 115 39 115 101c0 59 -37 95 -113 95h-110z"/>
    <glyph glyph-name="Rcaron" unicode="Ř" horiz-adv-x="637" d="M345 748h-123l-152 156h120l95 -88l95 88h119zM624 0h-154l-132 237h-7h-116v-237h-131v676h257c160 0 233 -103 233 -220c0 -78 -34 -149 -107 -188zM215 554v-196h108c80 0 115 39 115 101c0 59 -37 95 -113 95h-110z"/>
    <glyph glyph-name="S" unicode="S" horiz-adv-x="574" d="M274 -12c-82 0 -156 20 -220 50v120c67 -27 135 -45 222 -45c75 0 114 24 114 74c0 52 -41 71 -123 97c-138 44 -217 80 -217 211c0 107 93 192 232 192c83 0 146 -16 209 -42v-118c-73 27 -129 37 -203 37c-67 0 -104 -24 -104 -67c0 -50 43 -65 133 -94 c122 -37 210 -85 210 -209c0 -117 -73 -206 -253 -206z"/>
    <glyph glyph-name="Sacute" unicode="Ś" horiz-adv-x="574" d="M192 748l163 143h156l-181 -143h-138zM274 -12c-82 0 -156 20 -220 50v120c67 -27 135 -45 222 -45c75 0 114 24 114 74c0 52 -41 71 -123 97c-138 44 -217 80 -217 211c0 107 93 192 232 192c83 0 146 -16 209 -42v-118c-73 27 -129 37 -203 37c-67 0 -104 -24 -104 -67 c0 -50 43 -65 133 -94c122 -37 210 -85 210 -209c0 -117 -73 -206 -253 -206z"/>
    <glyph glyph-name="Scaron" unicode="Š" horiz-adv-x="574" d="M226 748l-152 156h120l95 -88l95 88h119l-154 -156h-123zM274 -12c-82 0 -156 20 -220 50v120c67 -27 135 -45 222 -45c75 0 114 24 114 74c0 52 -41 71 -123 97c-138 44 -217 80 -217 211c0 107 93 192 232 192c83 0 146 -16 209 -42v-118c-73 27 -129 37 -203 37 c-67 0 -104 -24 -104 -67c0 -50 43 -65 133 -94c122 -37 210 -85 210 -209c0 -117 -73 -206 -253 -206z"/>
    <glyph glyph-name="uni1E9E" unicode="ẞ" horiz-adv-x="712" d="M446 -12c-56 0 -109 10 -166 39v108c53 -24 98 -35 155 -35c68 0 101 35 101 89c0 53 -40 98 -150 98h-42v94l130 167c-30 14 -54 20 -103 20c-100 0 -161 -62 -161 -203v-365h-133v368c0 215 118 319 291 319c103 0 171 -28 234 -58v-91l-131 -160l16 -4 c105 -20 180 -94 180 -182c0 -120 -70 -204 -221 -204z"/>
    <glyph glyph-name="T" unicode="T" horiz-adv-x="589" d="M562 676v-129h-200v-547h-135v547h-200v129h535z"/>
    <glyph glyph-name="U" unicode="U" horiz-adv-x="725" d="M362 -12c-189 0 -281 125 -281 313v375h136v-365c0 -124 41 -194 146 -194c103 0 146 71 146 194v365h135v-367c0 -182 -93 -321 -282 -321z"/>
    <glyph glyph-name="Uacute" unicode="Ú" horiz-adv-x="725" d="M267 748l163 143h156l-181 -143h-138zM362 -12c-189 0 -281 125 -281 313v375h136v-365c0 -124 41 -194 146 -194c103 0 146 71 146 194v365h135v-367c0 -182 -93 -321 -282 -321z"/>
    <glyph glyph-name="Ucircumflex" unicode="Û" horiz-adv-x="725" d="M149 748l153 156h123l153 -156h-121l-94 87l-96 -87h-118zM362 -12c-189 0 -281 125 -281 313v375h136v-365c0 -124 41 -194 146 -194c103 0 146 71 146 194v365h135v-367c0 -182 -93 -321 -282 -321z"/>
    <glyph glyph-name="Udieresis" unicode="Ü" horiz-adv-x="725" d="M250 747c-45 0 -75 30 -75 75c0 44 31 74 75 74s75 -30 75 -74c0 -45 -31 -75 -75 -75zM476 747c-45 0 -75 30 -75 75c0 44 31 74 75 74s75 -30 75 -74c0 -45 -31 -75 -75 -75zM362 -12c-189 0 -281 125 -281 313v375h136v-365c0 -124 41 -194 146 -194 c103 0 146 71 146 194v365h135v-367c0 -182 -93 -321 -282 -321z"/>
    <glyph glyph-name="Ugrave" unicode="Ù" horiz-adv-x="725" d="M321 748l-181 143h155l164 -143h-138zM362 -12c-189 0 -281 125 -281 313v375h136v-365c0 -124 41 -194 146 -194c103 0 146 71 146 194v365h135v-367c0 -182 -93 -321 -282 -321z"/>
    <glyph glyph-name="Umacron" unicode="Ū" horiz-adv-x="725" d="M185 867h355v-102h-355v102zM362 -12c-189 0 -281 125 -281 313v375h136v-365c0 -124 41 -194 146 -194c103 0 146 71 146 194v365h135v-367c0 -182 -93 -321 -282 -321z"/>
    <glyph glyph-name="Uring" unicode="Ů" horiz-adv-x="725" d="M363 724c-68 0 -126 52 -126 125c0 70 59 122 126 122c69 0 125 -52 125 -122c0 -73 -58 -125 -125 -125zM363 796c29 0 50 22 50 52s-22 52 -50 52c-30 0 -51 -22 -51 -52s22 -52 51 -52zM362 -12c-189 0 -281 125 -281 313v375h136v-365c0 -124 41 -194 146 -194 c103 0 146 71 146 194v365h135v-367c0 -182 -93 -321 -282 -321z"/>
    <glyph glyph-name="V" unicode="V" horiz-adv-x="694" d="M529 676h148l-258 -676h-144l-257 676h155l177 -516z"/>
    <glyph glyph-name="W" unicode="W" horiz-adv-x="978" d="M220 0l-184 676h146l113 -489l129 470h131l135 -470l112 489h140l-183 -676h-133l-140 482l-132 -482h-134z"/>
    <glyph glyph-name="Wacute" unicode="Ẃ" horiz-adv-x="978" d="M394 748l163 143h156l-181 -143h-138zM220 0l-184 676h146l113 -489l129 470h131l135 -470l112 489h140l-183 -676h-133l-140 482l-132 -482h-134z"/>
    <glyph glyph-name="Wcircumflex" unicode="Ŵ" horiz-adv-x="978" d="M276 748l153 156h123l153 -156h-121l-94 87l-96 -87h-118zM220 0l-184 676h146l113 -489l129 470h131l135 -470l112 489h140l-183 -676h-133l-140 482l-132 -482h-134z"/>
    <glyph glyph-name="Wdieresis" unicode="Ẅ" horiz-adv-x="978" d="M377 747c-45 0 -75 30 -75 75c0 44 31 74 75 74s75 -30 75 -74c0 -45 -31 -75 -75 -75zM603 747c-45 0 -75 30 -75 75c0 44 31 74 75 74s75 -30 75 -74c0 -45 -31 -75 -75 -75zM220 0l-184 676h146l113 -489l129 470h131l135 -470l112 489h140l-183 -676h-133l-140 482 l-132 -482h-134z"/>
    <glyph glyph-name="Wgrave" unicode="Ẁ" horiz-adv-x="978" d="M448 748l-181 143h155l164 -143h-138zM220 0l-184 676h146l113 -489l129 470h131l135 -470l112 489h140l-183 -676h-133l-140 482l-132 -482h-134z"/>
    <glyph glyph-name="X" unicode="X" horiz-adv-x="692" d="M676 0h-165l-171 253l-170 -253h-153l249 354l-228 322h164l148 -217l147 217h151l-225 -316z"/>
    <glyph glyph-name="Y" unicode="Y" horiz-adv-x="625" d="M610 676l-230 -430v-246h-135v244l-230 432h153l147 -294l150 294h145z"/>
    <glyph glyph-name="Yacute" unicode="Ý" horiz-adv-x="625" d="M536 891l-181 -143h-138l163 143h156zM610 676l-230 -430v-246h-135v244l-230 432h153l147 -294l150 294h145z"/>
    <glyph glyph-name="Ycircumflex" unicode="Ŷ" horiz-adv-x="625" d="M313 835l-96 -87h-118l153 156h123l153 -156h-121zM610 676l-230 -430v-246h-135v244l-230 432h153l147 -294l150 294h145z"/>
    <glyph glyph-name="Ydieresis" unicode="Ÿ" horiz-adv-x="625" d="M200 747c-45 0 -75 30 -75 75c0 44 31 74 75 74s75 -30 75 -74c0 -45 -31 -75 -75 -75zM426 747c-45 0 -75 30 -75 75c0 44 31 74 75 74s75 -30 75 -74c0 -45 -31 -75 -75 -75zM610 676l-230 -430v-246h-135v244l-230 432h153l147 -294l150 294h145z"/>
    <glyph glyph-name="Ygrave" unicode="Ỳ" horiz-adv-x="625" d="M409 748h-138l-181 143h155zM610 676l-230 -430v-246h-135v244l-230 432h153l147 -294l150 294h145z"/>
    <glyph glyph-name="Z" unicode="Z" horiz-adv-x="597" d="M53 0v114l326 436h-316v126h473v-115l-319 -435h330v-126h-494z"/>
    <glyph glyph-name="Zacute" unicode="Ź" horiz-adv-x="597" d="M201 748l163 143h156l-181 -143h-138zM53 0v114l326 436h-316v126h473v-115l-319 -435h330v-126h-494z"/>
    <glyph glyph-name="Zcaron" unicode="Ž" horiz-adv-x="597" d="M235 748l-152 156h120l95 -88l95 88h119l-154 -156h-123zM53 0v114l326 436h-316v126h473v-115l-319 -435h330v-126h-494z"/>
    <glyph glyph-name="Zdotaccent" unicode="Ż" horiz-adv-x="597" d="M297 747c-49 0 -81 32 -81 78c0 47 33 78 81 78c47 0 81 -31 81 -78c0 -46 -34 -78 -81 -78zM53 0v114l326 436h-316v126h473v-115l-319 -435h330v-126h-494z"/>
    <glyph glyph-name="a" unicode="a" horiz-adv-x="535" d="M248 519c132 0 221 -62 221 -217v-302h-109l-7 55c-40 -37 -88 -65 -157 -65c-99 0 -153 60 -153 155c0 87 63 143 165 153l138 14c-5 67 -40 97 -112 97c-54 0 -98 -7 -150 -22v106c51 15 107 26 164 26zM156 151c0 -37 20 -58 64 -58c37 0 83 16 127 49v82l-127 -15 c-40 -5 -64 -25 -64 -58z"/>
    <glyph glyph-name="aacute" unicode="á" horiz-adv-x="535" d="M450 741l-153 -146h-124l137 146h140zM248 519c132 0 221 -62 221 -217v-302h-109l-7 55c-40 -37 -88 -65 -157 -65c-99 0 -153 60 -153 155c0 87 63 143 165 153l138 14c-5 67 -40 97 -112 97c-54 0 -98 -7 -150 -22v106c51 15 107 26 164 26zM156 151 c0 -37 20 -58 64 -58c37 0 83 16 127 49v82l-127 -15c-40 -5 -64 -25 -64 -58z"/>
    <glyph glyph-name="acircumflex" unicode="â" horiz-adv-x="535" d="M258 685l-77 -90h-103l122 158h116l122 -158h-105zM248 519c132 0 221 -62 221 -217v-302h-109l-7 55c-40 -37 -88 -65 -157 -65c-99 0 -153 60 -153 155c0 87 63 143 165 153l138 14c-5 67 -40 97 -112 97c-54 0 -98 -7 -150 -22v106c51 15 107 26 164 26zM156 151 c0 -37 20 -58 64 -58c37 0 83 16 127 49v82l-127 -15c-40 -5 -64 -25 -64 -58z"/>
    <glyph glyph-name="adieresis" unicode="ä" horiz-adv-x="535" d="M154 598c-43 0 -72 29 -72 72s29 71 72 71c42 0 72 -28 72 -71s-30 -72 -72 -72zM363 598c-44 0 -73 29 -73 72s30 71 73 71c41 0 71 -28 71 -71s-30 -72 -71 -72zM248 519c132 0 221 -62 221 -217v-302h-109l-7 55c-40 -37 -88 -65 -157 -65c-99 0 -153 60 -153 155 c0 87 63 143 165 153l138 14c-5 67 -40 97 -112 97c-54 0 -98 -7 -150 -22v106c51 15 107 26 164 26zM156 151c0 -37 20 -58 64 -58c37 0 83 16 127 49v82l-127 -15c-40 -5 -64 -25 -64 -58z"/>
    <glyph glyph-name="agrave" unicode="à" horiz-adv-x="535" d="M342 595h-124l-153 146h140zM248 519c132 0 221 -62 221 -217v-302h-109l-7 55c-40 -37 -88 -65 -157 -65c-99 0 -153 60 -153 155c0 87 63 143 165 153l138 14c-5 67 -40 97 -112 97c-54 0 -98 -7 -150 -22v106c51 15 107 26 164 26zM156 151c0 -37 20 -58 64 -58 c37 0 83 16 127 49v82l-127 -15c-40 -5 -64 -25 -64 -58z"/>
    <glyph glyph-name="amacron" unicode="ā" horiz-adv-x="535" d="M405 716v-101h-295v101h295zM248 519c132 0 221 -62 221 -217v-302h-109l-7 55c-40 -37 -88 -65 -157 -65c-99 0 -153 60 -153 155c0 87 63 143 165 153l138 14c-5 67 -40 97 -112 97c-54 0 -98 -7 -150 -22v106c51 15 107 26 164 26zM156 151c0 -37 20 -58 64 -58 c37 0 83 16 127 49v82l-127 -15c-40 -5 -64 -25 -64 -58z"/>
    <glyph glyph-name="aring" unicode="å" horiz-adv-x="535" d="M258 586c-65 0 -121 50 -121 120c0 68 57 118 121 118c66 0 120 -50 120 -118c0 -70 -56 -120 -120 -120zM258 755c-29 0 -49 -21 -49 -50s21 -51 49 -51s48 22 48 51s-21 50 -48 50zM248 519c132 0 221 -62 221 -217v-302h-109l-7 55c-40 -37 -88 -65 -157 -65 c-99 0 -153 60 -153 155c0 87 63 143 165 153l138 14c-5 67 -40 97 -112 97c-54 0 -98 -7 -150 -22v106c51 15 107 26 164 26zM156 151c0 -37 20 -58 64 -58c37 0 83 16 127 49v82l-127 -15c-40 -5 -64 -25 -64 -58z"/>
    <glyph glyph-name="atilde" unicode="ã" horiz-adv-x="535" d="M193 655c-27 0 -39 -20 -39 -50h-85c6 80 41 140 116 140c34 0 61 -18 84 -34c19 -12 36 -22 52 -22c25 0 39 16 39 50h85c-5 -84 -44 -140 -116 -140c-34 0 -61 17 -85 33c-18 12 -35 23 -51 23zM248 519c132 0 221 -62 221 -217v-302h-109l-7 55 c-40 -37 -88 -65 -157 -65c-99 0 -153 60 -153 155c0 87 63 143 165 153l138 14c-5 67 -40 97 -112 97c-54 0 -98 -7 -150 -22v106c51 15 107 26 164 26zM156 151c0 -37 20 -58 64 -58c37 0 83 16 127 49v82l-127 -15c-40 -5 -64 -25 -64 -58z"/>
    <glyph glyph-name="ae" unicode="æ" horiz-adv-x="833" d="M791 362c0 -93 -59 -150 -165 -150h-156c10 -70 52 -113 139 -113c52 0 87 6 138 24v-107c-44 -18 -90 -28 -153 -28c-94 0 -161 35 -200 93c-51 -52 -113 -91 -198 -91c-99 0 -154 60 -154 153c0 87 64 144 166 154l137 14c-4 67 -40 98 -111 98c-55 0 -98 -8 -150 -23 v108c51 15 108 25 164 25c80 0 136 -30 168 -84c48 53 115 84 184 84c119 0 191 -66 191 -157zM472 305h134c44 0 69 19 69 55c0 35 -28 58 -74 58c-68 0 -116 -42 -129 -113zM220 93c40 0 93 20 142 62c-6 21 -9 44 -10 67l-132 -16c-40 -4 -64 -24 -64 -56 c0 -36 20 -57 64 -57z"/>
    <glyph glyph-name="b" unicode="b" horiz-adv-x="600" d="M349 519c115 0 201 -89 201 -233v-22c0 -162 -120 -264 -278 -264h-197v711h130v-250c44 36 93 58 144 58zM421 270v13c0 71 -38 116 -96 116c-43 0 -78 -15 -120 -47v-236h56c101 0 160 56 160 154z"/>
    <glyph glyph-name="c" unicode="c" horiz-adv-x="475" d="M291 -12c-153 0 -242 111 -242 249v27c0 150 107 255 254 255c47 0 84 -10 122 -25v-111c-40 13 -65 18 -106 18c-84 0 -140 -54 -140 -139v-17c0 -85 55 -139 136 -139c45 0 77 8 117 21v-111c-44 -19 -89 -28 -141 -28z"/>
    <glyph glyph-name="cacute" unicode="ć" horiz-adv-x="475" d="M191 595l137 146h140l-153 -146h-124zM291 -12c-153 0 -242 111 -242 249v27c0 150 107 255 254 255c47 0 84 -10 122 -25v-111c-40 13 -65 18 -106 18c-84 0 -140 -54 -140 -139v-17c0 -85 55 -139 136 -139c45 0 77 8 117 21v-111c-44 -19 -89 -28 -141 -28z"/>
    <glyph glyph-name="ccaron" unicode="č" horiz-adv-x="475" d="M218 595l-122 158h105l75 -91l77 91h103l-123 -158h-115zM291 -12c-153 0 -242 111 -242 249v27c0 150 107 255 254 255c47 0 84 -10 122 -25v-111c-40 13 -65 18 -106 18c-84 0 -140 -54 -140 -139v-17c0 -85 55 -139 136 -139c45 0 77 8 117 21v-111 c-44 -19 -89 -28 -141 -28z"/>
    <glyph glyph-name="ccedilla" unicode="ç" horiz-adv-x="475" d="M432 127v-111c-29 -12 -58 -21 -89 -25c11 -20 18 -43 18 -66c0 -75 -58 -120 -134 -120c-36 0 -59 7 -86 19v82c20 -8 40 -14 59 -14c39 0 63 18 63 55c0 17 -5 31 -13 44c-128 18 -201 121 -201 246v27c0 150 107 255 254 255c47 0 84 -10 122 -25v-111 c-40 13 -65 18 -106 18c-84 0 -140 -54 -140 -139v-17c0 -85 55 -139 136 -139c45 0 77 8 117 21z"/>
    <glyph glyph-name="cdotaccent" unicode="ċ" horiz-adv-x="475" d="M275 588c-47 0 -79 31 -79 77c0 45 32 76 79 76c46 0 79 -31 79 -76c0 -46 -33 -77 -79 -77zM291 -12c-153 0 -242 111 -242 249v27c0 150 107 255 254 255c47 0 84 -10 122 -25v-111c-40 13 -65 18 -106 18c-84 0 -140 -54 -140 -139v-17c0 -85 55 -139 136 -139 c45 0 77 8 117 21v-111c-44 -19 -89 -28 -141 -28z"/>
    <glyph glyph-name="d" unicode="d" horiz-adv-x="600" d="M395 711h130v-711h-118l-6 53c-45 -38 -96 -63 -150 -63c-116 0 -202 90 -202 234v23c0 161 119 262 277 262h69v202zM179 227c0 -71 37 -117 96 -117c43 0 78 15 120 47v236h-58c-102 0 -158 -54 -158 -153v-13z"/>
    <glyph glyph-name="eth" unicode="ð" horiz-adv-x="593" d="M568 693v-85l-90 -21c39 -82 66 -182 66 -284v-34c0 -166 -98 -281 -247 -281c-153 0 -247 100 -247 231v27c0 135 89 233 243 233c39 0 72 -7 100 -19c-9 35 -20 68 -33 99l-144 -33v85l107 25c-15 27 -30 52 -46 75h125c12 -15 23 -31 35 -49zM414 263v32 c0 14 0 28 -1 42c-43 22 -72 29 -110 29c-77 0 -123 -42 -123 -121v-17c0 -76 42 -122 116 -122c73 0 118 48 118 157z"/>
    <glyph glyph-name="e" unicode="e" horiz-adv-x="535" d="M493 361c0 -95 -59 -152 -165 -152h-156c11 -69 53 -110 139 -110c52 0 87 6 138 24v-107c-44 -18 -90 -28 -153 -28c-161 0 -247 97 -247 251v25c0 150 115 255 253 255c119 0 191 -66 191 -158zM173 302h135c44 0 69 21 69 58c0 36 -28 58 -74 58 c-69 0 -118 -43 -130 -116z"/>
    <glyph glyph-name="eacute" unicode="é" horiz-adv-x="535" d="M486 741l-153 -146h-124l137 146h140zM493 361c0 -95 -59 -152 -165 -152h-156c11 -69 53 -110 139 -110c52 0 87 6 138 24v-107c-44 -18 -90 -28 -153 -28c-161 0 -247 97 -247 251v25c0 150 115 255 253 255c119 0 191 -66 191 -158zM173 302h135c44 0 69 21 69 58 c0 36 -28 58 -74 58c-69 0 -118 -43 -130 -116z"/>
    <glyph glyph-name="ecaron" unicode="ě" horiz-adv-x="535" d="M351 595h-115l-122 158h105l75 -91l77 91h103zM493 361c0 -95 -59 -152 -165 -152h-156c11 -69 53 -110 139 -110c52 0 87 6 138 24v-107c-44 -18 -90 -28 -153 -28c-161 0 -247 97 -247 251v25c0 150 115 255 253 255c119 0 191 -66 191 -158zM173 302h135 c44 0 69 21 69 58c0 36 -28 58 -74 58c-69 0 -118 -43 -130 -116z"/>
    <glyph glyph-name="ecircumflex" unicode="ê" horiz-adv-x="535" d="M294 685l-77 -90h-103l122 158h116l122 -158h-105zM493 361c0 -95 -59 -152 -165 -152h-156c11 -69 53 -110 139 -110c52 0 87 6 138 24v-107c-44 -18 -90 -28 -153 -28c-161 0 -247 97 -247 251v25c0 150 115 255 253 255c119 0 191 -66 191 -158zM173 302h135 c44 0 69 21 69 58c0 36 -28 58 -74 58c-69 0 -118 -43 -130 -116z"/>
    <glyph glyph-name="edieresis" unicode="ë" horiz-adv-x="535" d="M190 598c-43 0 -72 29 -72 72s29 71 72 71c42 0 72 -28 72 -71s-30 -72 -72 -72zM399 598c-44 0 -73 29 -73 72s30 71 73 71c41 0 71 -28 71 -71s-30 -72 -71 -72zM493 361c0 -95 -59 -152 -165 -152h-156c11 -69 53 -110 139 -110c52 0 87 6 138 24v-107 c-44 -18 -90 -28 -153 -28c-161 0 -247 97 -247 251v25c0 150 115 255 253 255c119 0 191 -66 191 -158zM173 302h135c44 0 69 21 69 58c0 36 -28 58 -74 58c-69 0 -118 -43 -130 -116z"/>
    <glyph glyph-name="edotaccent" unicode="ė" horiz-adv-x="535" d="M294 588c-47 0 -79 31 -79 77c0 45 32 76 79 76c46 0 79 -31 79 -76c0 -46 -33 -77 -79 -77zM493 361c0 -95 -59 -152 -165 -152h-156c11 -69 53 -110 139 -110c52 0 87 6 138 24v-107c-44 -18 -90 -28 -153 -28c-161 0 -247 97 -247 251v25c0 150 115 255 253 255 c119 0 191 -66 191 -158zM173 302h135c44 0 69 21 69 58c0 36 -28 58 -74 58c-69 0 -118 -43 -130 -116z"/>
    <glyph glyph-name="egrave" unicode="è" horiz-adv-x="535" d="M378 595h-124l-153 146h140zM493 361c0 -95 -59 -152 -165 -152h-156c11 -69 53 -110 139 -110c52 0 87 6 138 24v-107c-44 -18 -90 -28 -153 -28c-161 0 -247 97 -247 251v25c0 150 115 255 253 255c119 0 191 -66 191 -158zM173 302h135c44 0 69 21 69 58 c0 36 -28 58 -74 58c-69 0 -118 -43 -130 -116z"/>
    <glyph glyph-name="emacron" unicode="ē" horiz-adv-x="535" d="M441 716v-101h-295v101h295zM493 361c0 -95 -59 -152 -165 -152h-156c11 -69 53 -110 139 -110c52 0 87 6 138 24v-107c-44 -18 -90 -28 -153 -28c-161 0 -247 97 -247 251v25c0 150 115 255 253 255c119 0 191 -66 191 -158zM173 302h135c44 0 69 21 69 58 c0 36 -28 58 -74 58c-69 0 -118 -43 -130 -116z"/>
    <glyph glyph-name="f" unicode="f" horiz-adv-x="440" d="M75 0v502c0 145 93 226 217 226c49 0 89 -10 123 -23v-105c-30 10 -64 15 -98 15c-66 0 -110 -27 -110 -101v-5h198v-117h-198v-392h-132z"/>
    <glyph glyph-name="g" unicode="g" horiz-adv-x="597" d="M522 509v-473c0 -149 -107 -252 -269 -252c-63 0 -118 13 -169 33v106c49 -16 96 -27 162 -27c92 0 148 52 148 143v36c-43 -35 -91 -58 -147 -58c-114 0 -198 76 -198 220v21c0 152 134 251 274 251h199zM273 133c45 0 80 16 121 49v211h-58c-98 0 -159 -53 -159 -140 v-13c0 -72 38 -107 96 -107z"/>
    <glyph glyph-name="gdotaccent" unicode="ġ" horiz-adv-x="597" d="M320 588c-47 0 -79 31 -79 77c0 45 32 76 79 76c46 0 79 -31 79 -76c0 -46 -33 -77 -79 -77zM522 509v-473c0 -149 -107 -252 -269 -252c-63 0 -118 13 -169 33v106c49 -16 96 -27 162 -27c92 0 148 52 148 143v36c-43 -35 -91 -58 -147 -58c-114 0 -198 76 -198 220v21 c0 152 134 251 274 251h199zM273 133c45 0 80 16 121 49v211h-58c-98 0 -159 -53 -159 -140v-13c0 -72 38 -107 96 -107z"/>
    <glyph glyph-name="h" unicode="h" horiz-adv-x="601" d="M296 519c163 0 240 -100 240 -251v-268h-132v248c0 94 -23 152 -123 152c-23 0 -52 -3 -74 -9v-391h-132v711h132v-204c30 8 61 12 89 12z"/>
    <glyph glyph-name="i" unicode="i" horiz-adv-x="281" d="M140 591c-47 0 -79 32 -79 75c0 44 33 75 79 75s79 -31 79 -75c0 -43 -33 -75 -79 -75zM75 0v509h131v-509h-131z"/>
    <glyph glyph-name="dotlessi" unicode="ı" horiz-adv-x="281" d="M75 0v509h131v-509h-131z"/>
    <glyph glyph-name="iacute" unicode="í" horiz-adv-x="281" d="M56 595l137 146h140l-153 -146h-124zM75 0v509h131v-509h-131z"/>
    <glyph glyph-name="icircumflex" unicode="î" horiz-adv-x="281" d="M-39 595l122 158h116l122 -158h-105l-75 90l-77 -90h-103zM75 0v509h131v-509h-131z"/>
    <glyph glyph-name="idieresis" unicode="ï" horiz-adv-x="281" d="M36 598c-43 0 -72 29 -72 72s29 71 72 71c42 0 72 -28 72 -71s-30 -72 -72 -72zM245 598c-44 0 -73 29 -73 72s30 71 73 71c41 0 71 -28 71 -71s-30 -72 -71 -72zM75 0v509h131v-509h-131z"/>
    <glyph glyph-name="i.loclTRK" horiz-adv-x="281" d="M140 588c-47 0 -79 31 -79 77c0 45 32 76 79 76c46 0 79 -31 79 -76c0 -46 -33 -77 -79 -77zM75 0v509h131v-509h-131z"/>
    <glyph glyph-name="igrave" unicode="ì" horiz-adv-x="281" d="M101 595l-153 146h140l137 -146h-124zM75 0v509h131v-509h-131z"/>
    <glyph glyph-name="ij" unicode="ĳ" horiz-adv-x="562" d="M140 591c-47 0 -79 32 -79 75c0 44 33 75 79 75s79 -31 79 -75c0 -43 -33 -75 -79 -75zM421 591c-47 0 -79 32 -79 75c0 44 33 75 79 75s79 -31 79 -75c0 -43 -33 -75 -79 -75zM75 0v509h131v-509h-131zM301 -216c-38 0 -79 9 -108 23v103c24 -9 47 -14 83 -14 c49 0 80 29 80 87v526h131v-509c0 -135 -74 -216 -186 -216z"/>
    <glyph glyph-name="imacron" unicode="ī" horiz-adv-x="281" d="M-8 716h295v-101h-295v101zM75 0v509h131v-509h-131z"/>
    <glyph glyph-name="j" unicode="j" horiz-adv-x="281" d="M140 591c-47 0 -79 32 -79 75c0 44 33 75 79 75s79 -31 79 -75c0 -43 -33 -75 -79 -75zM20 -216c-38 0 -79 9 -108 23v103c24 -9 47 -14 83 -14c49 0 80 29 80 87v526h131v-509c0 -135 -74 -216 -186 -216z"/>
    <glyph glyph-name="k" unicode="k" horiz-adv-x="565" d="M559 0h-164l-190 227v-227h-130v711h130v-408l189 206h151l-214 -232z"/>
    <glyph glyph-name="l" unicode="l" horiz-adv-x="282" d="M75 0v711h132v-711h-132z"/>
    <glyph glyph-name="m" unicode="m" horiz-adv-x="887" d="M603 519c155 0 219 -97 219 -247v-272h-132v252c0 98 -29 149 -110 149c-33 0 -63 -8 -86 -18c16 -38 23 -82 23 -129v-254h-131v251c0 99 -27 150 -110 150c-25 0 -49 -4 -69 -9v-392h-132v488c63 17 142 31 210 31c61 0 109 -17 146 -47c43 22 107 47 172 47z"/>
    <glyph glyph-name="n" unicode="n" horiz-adv-x="601" d="M75 0v488c63 17 145 31 214 31c171 0 247 -100 247 -251v-268h-132v248c0 94 -23 152 -123 152c-23 0 -52 -3 -74 -9v-391h-132z"/>
    <glyph glyph-name="nacute" unicode="ń" horiz-adv-x="601" d="M215 595l137 146h140l-153 -146h-124zM75 0v488c63 17 145 31 214 31c171 0 247 -100 247 -251v-268h-132v248c0 94 -23 152 -123 152c-23 0 -52 -3 -74 -9v-391h-132z"/>
    <glyph glyph-name="ncaron" unicode="ň" horiz-adv-x="601" d="M242 595l-122 158h105l75 -91l77 91h103l-123 -158h-115zM75 0v488c63 17 145 31 214 31c171 0 247 -100 247 -251v-268h-132v248c0 94 -23 152 -123 152c-23 0 -52 -3 -74 -9v-391h-132z"/>
    <glyph glyph-name="ntilde" unicode="ñ" horiz-adv-x="601" d="M371 599c-34 0 -61 17 -85 33c-18 12 -35 23 -51 23c-27 0 -39 -20 -39 -50h-85c6 80 41 140 116 140c34 0 61 -18 84 -34c19 -12 36 -22 52 -22c25 0 39 16 39 50h85c-5 -84 -44 -140 -116 -140zM75 0v488c63 17 145 31 214 31c171 0 247 -100 247 -251v-268h-132v248 c0 94 -23 152 -123 152c-23 0 -52 -3 -74 -9v-391h-132z"/>
    <glyph glyph-name="o" unicode="o" horiz-adv-x="594" d="M296 -12c-152 0 -247 107 -247 248v27c0 138 96 256 247 256c153 0 248 -107 248 -248v-26c0 -140 -97 -257 -248 -257zM296 106c74 0 118 54 118 140v16c0 86 -42 139 -116 139s-119 -55 -119 -139v-16c0 -87 42 -140 117 -140z"/>
    <glyph glyph-name="oacute" unicode="ó" horiz-adv-x="594" d="M212 595l137 146h140l-153 -146h-124zM296 -12c-152 0 -247 107 -247 248v27c0 138 96 256 247 256c153 0 248 -107 248 -248v-26c0 -140 -97 -257 -248 -257zM296 106c74 0 118 54 118 140v16c0 86 -42 139 -116 139s-119 -55 -119 -139v-16c0 -87 42 -140 117 -140z "/>
    <glyph glyph-name="ocircumflex" unicode="ô" horiz-adv-x="594" d="M117 595l122 158h116l122 -158h-105l-75 90l-77 -90h-103zM296 -12c-152 0 -247 107 -247 248v27c0 138 96 256 247 256c153 0 248 -107 248 -248v-26c0 -140 -97 -257 -248 -257zM296 106c74 0 118 54 118 140v16c0 86 -42 139 -116 139s-119 -55 -119 -139v-16 c0 -87 42 -140 117 -140z"/>
    <glyph glyph-name="odieresis" unicode="ö" horiz-adv-x="594" d="M193 598c-43 0 -72 29 -72 72s29 71 72 71c42 0 72 -28 72 -71s-30 -72 -72 -72zM402 598c-44 0 -73 29 -73 72s30 71 73 71c41 0 71 -28 71 -71s-30 -72 -71 -72zM296 -12c-152 0 -247 107 -247 248v27c0 138 96 256 247 256c153 0 248 -107 248 -248v-26 c0 -140 -97 -257 -248 -257zM296 106c74 0 118 54 118 140v16c0 86 -42 139 -116 139s-119 -55 -119 -139v-16c0 -87 42 -140 117 -140z"/>
    <glyph glyph-name="ograve" unicode="ò" horiz-adv-x="594" d="M257 595l-153 146h140l137 -146h-124zM296 -12c-152 0 -247 107 -247 248v27c0 138 96 256 247 256c153 0 248 -107 248 -248v-26c0 -140 -97 -257 -248 -257zM296 106c74 0 118 54 118 140v16c0 86 -42 139 -116 139s-119 -55 -119 -139v-16c0 -87 42 -140 117 -140z "/>
    <glyph glyph-name="omacron" unicode="ō" horiz-adv-x="594" d="M149 716h295v-101h-295v101zM296 -12c-152 0 -247 107 -247 248v27c0 138 96 256 247 256c153 0 248 -107 248 -248v-26c0 -140 -97 -257 -248 -257zM296 106c74 0 118 54 118 140v16c0 86 -42 139 -116 139s-119 -55 -119 -139v-16c0 -87 42 -140 117 -140z"/>
    <glyph glyph-name="oslash" unicode="ø" horiz-adv-x="594" d="M562 557l-81 -113c41 -44 63 -105 63 -173v-26c0 -140 -97 -257 -248 -257c-45 0 -86 10 -120 27l-47 -66h-99l81 114c-40 44 -62 105 -62 173v27c0 138 96 256 247 256c46 0 86 -10 121 -27l46 65h99zM179 246c0 -27 4 -51 12 -71l155 217c-14 6 -30 9 -48 9 c-74 0 -119 -55 -119 -139v-16zM414 262c0 27 -4 51 -12 70l-155 -217c15 -6 31 -9 49 -9c74 0 118 54 118 140v16z"/>
    <glyph glyph-name="otilde" unicode="õ" horiz-adv-x="594" d="M368 599c-34 0 -61 17 -85 33c-18 12 -35 23 -51 23c-27 0 -39 -20 -39 -50h-85c6 80 41 140 116 140c34 0 61 -18 84 -34c19 -12 36 -22 52 -22c25 0 39 16 39 50h85c-5 -84 -44 -140 -116 -140zM296 -12c-152 0 -247 107 -247 248v27c0 138 96 256 247 256 c153 0 248 -107 248 -248v-26c0 -140 -97 -257 -248 -257zM296 106c74 0 118 54 118 140v16c0 86 -42 139 -116 139s-119 -55 -119 -139v-16c0 -87 42 -140 117 -140z"/>
    <glyph glyph-name="oe" unicode="œ" horiz-adv-x="910" d="M868 361c0 -95 -59 -152 -165 -152h-156c11 -69 53 -110 139 -110c52 0 87 6 138 24v-107c-44 -18 -90 -28 -153 -28c-91 0 -158 31 -198 87c-37 -53 -96 -87 -176 -87c-153 0 -248 107 -248 249v26c0 139 96 256 247 256c88 0 149 -35 185 -92c46 58 116 92 196 92 c119 0 191 -66 191 -158zM548 302h135c44 0 69 20 69 57s-28 59 -74 59c-69 0 -118 -43 -130 -116zM414 246v16c0 86 -43 139 -116 139c-74 0 -118 -55 -118 -139v-16c0 -87 42 -140 116 -140s118 55 118 140z"/>
    <glyph glyph-name="p" unicode="p" horiz-adv-x="600" d="M349 519c116 0 202 -90 202 -234v-23c0 -161 -119 -262 -277 -262h-69v-206h-130v715h118l6 -53c45 38 96 63 150 63zM421 269v13c0 71 -37 117 -96 117c-43 0 -78 -15 -120 -47v-236h58c102 0 158 54 158 153z"/>
    <glyph glyph-name="thorn" unicode="þ" horiz-adv-x="600" d="M349 519c116 0 202 -90 202 -234v-23c0 -161 -119 -262 -277 -262h-67v-206h-132v917h132v-248c44 34 92 56 142 56zM421 269v13c0 71 -37 117 -96 117c-42 0 -77 -14 -118 -46v-237h56c102 0 158 54 158 153z"/>
    <glyph glyph-name="q" unicode="q" horiz-adv-x="599" d="M523 509v-715h-130v252c-44 -34 -92 -56 -142 -56c-116 0 -202 90 -202 234v23c0 161 121 262 279 262h195zM275 110c42 0 77 14 118 46v237h-54c-102 0 -160 -54 -160 -153v-13c0 -71 37 -117 96 -117z"/>
    <glyph glyph-name="r" unicode="r" horiz-adv-x="406" d="M75 0v486c63 18 135 32 204 32c28 0 66 -2 89 -6v-122c-22 5 -56 8 -81 8c-21 0 -53 -3 -80 -9v-389h-132z"/>
    <glyph glyph-name="racute" unicode="ŕ" horiz-adv-x="406" d="M142 595l137 146h140l-153 -146h-124zM75 0v486c63 18 135 32 204 32c28 0 66 -2 89 -6v-122c-22 5 -56 8 -81 8c-21 0 -53 -3 -80 -9v-389h-132z"/>
    <glyph glyph-name="rcaron" unicode="ř" horiz-adv-x="406" d="M169 595l-122 158h105l75 -91l77 91h103l-123 -158h-115zM75 0v486c63 18 135 32 204 32c28 0 66 -2 89 -6v-122c-22 5 -56 8 -81 8c-21 0 -53 -3 -80 -9v-389h-132z"/>
    <glyph glyph-name="s" unicode="s" horiz-adv-x="515" d="M246 -12c-69 0 -131 15 -185 38v110c56 -20 117 -36 187 -36c58 0 85 15 85 46s-30 43 -89 58c-119 30 -183 61 -183 165c0 85 79 150 197 150c81 0 126 -13 180 -34v-108c-64 22 -110 30 -174 30c-49 0 -73 -14 -73 -40c0 -29 28 -41 96 -58c108 -26 178 -65 178 -158 s-62 -163 -219 -163z"/>
    <glyph glyph-name="sacute" unicode="ś" horiz-adv-x="515" d="M174 595l137 146h140l-153 -146h-124zM246 -12c-69 0 -131 15 -185 38v110c56 -20 117 -36 187 -36c58 0 85 15 85 46s-30 43 -89 58c-119 30 -183 61 -183 165c0 85 79 150 197 150c81 0 126 -13 180 -34v-108c-64 22 -110 30 -174 30c-49 0 -73 -14 -73 -40 c0 -29 28 -41 96 -58c108 -26 178 -65 178 -158s-62 -163 -219 -163z"/>
    <glyph glyph-name="scaron" unicode="š" horiz-adv-x="515" d="M201 595l-122 158h105l75 -91l77 91h103l-123 -158h-115zM246 -12c-69 0 -131 15 -185 38v110c56 -20 117 -36 187 -36c58 0 85 15 85 46s-30 43 -89 58c-119 30 -183 61 -183 165c0 85 79 150 197 150c81 0 126 -13 180 -34v-108c-64 22 -110 30 -174 30 c-49 0 -73 -14 -73 -40c0 -29 28 -41 96 -58c108 -26 178 -65 178 -158s-62 -163 -219 -163z"/>
    <glyph glyph-name="germandbls" unicode="ß" horiz-adv-x="666" d="M441 -12c-76 0 -123 13 -165 35v102c38 -17 78 -27 123 -27c57 0 90 21 90 65c0 53 -43 66 -85 85c-55 25 -106 46 -106 120c0 77 84 116 84 177c0 44 -28 68 -80 68c-69 0 -100 -52 -100 -131v-482h-127v470c0 165 89 259 233 259c138 0 202 -72 202 -150 c0 -92 -92 -123 -92 -180c0 -43 52 -57 98 -82c49 -26 101 -68 101 -158c0 -96 -73 -171 -176 -171z"/>
    <glyph glyph-name="t" unicode="t" horiz-adv-x="428" d="M294 107c33 0 65 4 94 13v-107c-34 -15 -81 -24 -127 -24c-117 0 -189 82 -189 224v433h131v-137h182v-117h-182v-179c0 -74 35 -106 91 -106z"/>
    <glyph glyph-name="u" unicode="u" horiz-adv-x="599" d="M311 -9c-168 0 -242 99 -242 250v268h132v-248c0 -94 22 -151 119 -151c23 0 50 3 72 8v391h131v-487c-62 -17 -143 -31 -212 -31z"/>
    <glyph glyph-name="uacute" unicode="ú" horiz-adv-x="599" d="M214 595l137 146h140l-153 -146h-124zM311 -9c-168 0 -242 99 -242 250v268h132v-248c0 -94 22 -151 119 -151c23 0 50 3 72 8v391h131v-487c-62 -17 -143 -31 -212 -31z"/>
    <glyph glyph-name="ucircumflex" unicode="û" horiz-adv-x="599" d="M119 595l122 158h116l122 -158h-105l-75 90l-77 -90h-103zM311 -9c-168 0 -242 99 -242 250v268h132v-248c0 -94 22 -151 119 -151c23 0 50 3 72 8v391h131v-487c-62 -17 -143 -31 -212 -31z"/>
    <glyph glyph-name="udieresis" unicode="ü" horiz-adv-x="599" d="M195 598c-43 0 -72 29 -72 72s29 71 72 71c42 0 72 -28 72 -71s-30 -72 -72 -72zM404 598c-44 0 -73 29 -73 72s30 71 73 71c41 0 71 -28 71 -71s-30 -72 -71 -72zM311 -9c-168 0 -242 99 -242 250v268h132v-248c0 -94 22 -151 119 -151c23 0 50 3 72 8v391h131v-487 c-62 -17 -143 -31 -212 -31z"/>
    <glyph glyph-name="ugrave" unicode="ù" horiz-adv-x="599" d="M259 595l-153 146h140l137 -146h-124zM311 -9c-168 0 -242 99 -242 250v268h132v-248c0 -94 22 -151 119 -151c23 0 50 3 72 8v391h131v-487c-62 -17 -143 -31 -212 -31z"/>
    <glyph glyph-name="umacron" unicode="ū" horiz-adv-x="599" d="M151 716h295v-101h-295v101zM311 -9c-168 0 -242 99 -242 250v268h132v-248c0 -94 22 -151 119 -151c23 0 50 3 72 8v391h131v-487c-62 -17 -143 -31 -212 -31z"/>
    <glyph glyph-name="uring" unicode="ů" horiz-adv-x="599" d="M299 586c-65 0 -121 50 -121 120c0 68 57 118 121 118c66 0 120 -50 120 -118c0 -70 -56 -120 -120 -120zM299 654c28 0 48 22 48 51s-21 50 -48 50c-29 0 -49 -21 -49 -50s21 -51 49 -51zM311 -9c-168 0 -242 99 -242 250v268h132v-248c0 -94 22 -151 119 -151 c23 0 50 3 72 8v391h131v-487c-62 -17 -143 -31 -212 -31z"/>
    <glyph glyph-name="v" unicode="v" horiz-adv-x="558" d="M397 509h145l-192 -509h-142l-192 509h151l116 -359z"/>
    <glyph glyph-name="w" unicode="w" horiz-adv-x="796" d="M180 0l-149 509h145l74 -350l88 334h121l93 -334l73 350h139l-147 -509h-122l-99 339l-91 -339h-125z"/>
    <glyph glyph-name="wacute" unicode="ẃ" horiz-adv-x="796" d="M314 595l137 146h140l-153 -146h-124zM180 0l-149 509h145l74 -350l88 334h121l93 -334l73 350h139l-147 -509h-122l-99 339l-91 -339h-125z"/>
    <glyph glyph-name="wcircumflex" unicode="ŵ" horiz-adv-x="796" d="M219 595l122 158h116l122 -158h-105l-75 90l-77 -90h-103zM180 0l-149 509h145l74 -350l88 334h121l93 -334l73 350h139l-147 -509h-122l-99 339l-91 -339h-125z"/>
    <glyph glyph-name="wdieresis" unicode="ẅ" horiz-adv-x="796" d="M294 598c-43 0 -72 29 -72 72s29 71 72 71c42 0 72 -28 72 -71s-30 -72 -72 -72zM503 598c-44 0 -73 29 -73 72s30 71 73 71c41 0 71 -28 71 -71s-30 -72 -71 -72zM180 0l-149 509h145l74 -350l88 334h121l93 -334l73 350h139l-147 -509h-122l-99 339l-91 -339h-125z"/>
    <glyph glyph-name="wgrave" unicode="ẁ" horiz-adv-x="796" d="M359 595l-153 146h140l137 -146h-124zM180 0l-149 509h145l74 -350l88 334h121l93 -334l73 350h139l-147 -509h-122l-99 339l-91 -339h-125z"/>
    <glyph glyph-name="x" unicode="x" horiz-adv-x="580" d="M568 0h-159l-126 173l-125 -173h-146l202 265l-187 244h158l107 -151l109 151h146l-183 -239z"/>
    <glyph glyph-name="y" unicode="y" horiz-adv-x="555" d="M541 509l-186 -509l-16 -45c-40 -113 -98 -171 -191 -171c-32 0 -73 10 -97 24v102c27 -10 54 -15 82 -15c38 0 63 22 83 73l11 29l-214 512h150l127 -353l106 353h145z"/>
    <glyph glyph-name="yacute" unicode="ý" horiz-adv-x="555" d="M465 741l-153 -146h-124l137 146h140zM541 509l-186 -509l-16 -45c-40 -113 -98 -171 -191 -171c-32 0 -73 10 -97 24v102c27 -10 54 -15 82 -15c38 0 63 22 83 73l11 29l-214 512h150l127 -353l106 353h145z"/>
    <glyph glyph-name="ycircumflex" unicode="ŷ" horiz-adv-x="555" d="M273 685l-77 -90h-103l122 158h116l122 -158h-105zM541 509l-186 -509l-16 -45c-40 -113 -98 -171 -191 -171c-32 0 -73 10 -97 24v102c27 -10 54 -15 82 -15c38 0 63 22 83 73l11 29l-214 512h150l127 -353l106 353h145z"/>
    <glyph glyph-name="ydieresis" unicode="ÿ" horiz-adv-x="555" d="M169 598c-43 0 -72 29 -72 72s29 71 72 71c42 0 72 -28 72 -71s-30 -72 -72 -72zM378 598c-44 0 -73 29 -73 72s30 71 73 71c41 0 71 -28 71 -71s-30 -72 -71 -72zM541 509l-186 -509l-16 -45c-40 -113 -98 -171 -191 -171c-32 0 -73 10 -97 24v102c27 -10 54 -15 82 -15 c38 0 63 22 83 73l11 29l-214 512h150l127 -353l106 353h145z"/>
    <glyph glyph-name="ygrave" unicode="ỳ" horiz-adv-x="555" d="M357 595h-124l-153 146h140zM541 509l-186 -509l-16 -45c-40 -113 -98 -171 -191 -171c-32 0 -73 10 -97 24v102c27 -10 54 -15 82 -15c38 0 63 22 83 73l11 29l-214 512h150l127 -353l106 353h145z"/>
    <glyph glyph-name="z" unicode="z" horiz-adv-x="480" d="M47 0v107l239 288h-232v114h378v-107l-235 -288h243v-114h-393z"/>
    <glyph glyph-name="zacute" unicode="ź" horiz-adv-x="480" d="M161 595l137 146h140l-153 -146h-124zM47 0v107l239 288h-232v114h378v-107l-235 -288h243v-114h-393z"/>
    <glyph glyph-name="zcaron" unicode="ž" horiz-adv-x="480" d="M188 595l-122 158h105l75 -91l77 91h103l-123 -158h-115zM47 0v107l239 288h-232v114h378v-107l-235 -288h243v-114h-393z"/>
    <glyph glyph-name="zdotaccent" unicode="ż" horiz-adv-x="480" d="M246 588c-47 0 -79 31 -79 77c0 45 32 76 79 76c46 0 79 -31 79 -76c0 -46 -33 -77 -79 -77zM47 0v107l239 288h-232v114h378v-107l-235 -288h243v-114h-393z"/>
    <glyph glyph-name="ordfeminine" unicode="ª" horiz-adv-x="452" d="M210 718c110 0 190 -54 190 -181v-229h-92l-7 47c-36 -30 -79 -55 -138 -55c-82 0 -130 47 -130 123c0 69 57 115 139 122l123 10c-5 47 -35 71 -97 71c-44 0 -82 -6 -126 -18v89c43 12 90 21 138 21zM134 428c0 -28 17 -41 55 -41c31 0 69 15 107 42v51l-106 -12 c-34 -4 -56 -16 -56 -40z"/>
    <glyph glyph-name="ordmasculine" unicode="º" horiz-adv-x="506" d="M253 306c-126 0 -202 84 -202 194v19c0 107 77 198 201 198c126 0 203 -82 203 -192v-19c0 -108 -78 -200 -202 -200zM253 409c56 0 90 40 90 97v12c0 59 -33 96 -89 96s-90 -38 -90 -96v-12c0 -60 32 -97 89 -97z"/>
    <glyph glyph-name="zero" unicode="0" d="M284 -12c-158 0 -245 138 -245 322v37c0 183 87 330 244 330c158 0 244 -136 244 -321v-37c0 -184 -86 -331 -243 -331zM284 115c72 0 106 76 106 206v24c0 132 -34 206 -106 206c-74 0 -108 -75 -108 -206v-24c0 -130 33 -206 108 -206z"/>
    <glyph glyph-name="one" unicode="1" d="M381 117h132v-117h-430v117h166v415l-177 -39v110l221 63h88v-549z"/>
    <glyph glyph-name="two" unicode="2" d="M237 117h262v-117h-428v117l181 184c67 68 109 111 109 168c0 59 -47 85 -114 85c-58 0 -116 -13 -182 -37v116c59 26 129 44 201 44c146 0 229 -81 229 -192c0 -92 -46 -153 -150 -259z"/>
    <glyph glyph-name="three" unicode="3" d="M405 361c70 -30 106 -91 106 -170c0 -119 -95 -203 -243 -203c-82 0 -157 22 -215 47v115c67 -25 134 -41 198 -41c82 0 125 33 125 88c0 54 -35 87 -117 87h-102v120h93c82 0 114 28 114 76s-38 76 -120 76c-55 0 -117 -9 -184 -34v115c61 25 125 40 202 40 c150 0 235 -72 235 -175c0 -63 -35 -113 -92 -141z"/>
    <glyph glyph-name="four" unicode="4" d="M538 264v-112h-86v-152h-124v152h-298v112l300 402h122v-402h86zM150 264h178v239z"/>
    <glyph glyph-name="five" unicode="5" d="M269 -12c-82 0 -153 23 -211 48v115c68 -26 131 -42 195 -42c82 0 130 36 130 94c0 57 -40 92 -122 92h-172l50 371h334v-121h-232l-18 -141h69c138 0 224 -77 224 -207c0 -121 -98 -209 -247 -209z"/>
    <glyph glyph-name="six" unicode="6" d="M310 414c122 0 211 -69 211 -204c0 -116 -77 -222 -223 -222c-161 0 -251 122 -251 329v24c0 201 128 336 283 336c58 0 109 -13 153 -36v-108c-40 19 -90 27 -135 27c-104 0 -166 -62 -178 -173c45 17 93 27 140 27zM298 103c68 0 103 45 103 102c0 64 -36 101 -101 101 c-48 0 -82 -6 -131 -24c5 -119 54 -179 129 -179z"/>
    <glyph glyph-name="seven" unicode="7" d="M135 0l221 541h-304v125h450v-111l-222 -555h-145z"/>
    <glyph glyph-name="eight" unicode="8" d="M428 353c63 -31 102 -86 102 -153v-10c0 -119 -104 -202 -247 -202c-148 0 -247 80 -247 199v10c0 67 39 122 102 155c-52 32 -84 80 -84 132v10c0 109 94 183 231 183c136 0 230 -72 230 -177v-10c0 -52 -34 -103 -87 -137zM179 490v-6c0 -49 37 -81 105 -81 c66 0 104 33 104 82v6c0 45 -39 77 -103 77s-106 -33 -106 -78zM404 198v4c0 60 -41 97 -120 97c-77 0 -123 -37 -123 -96v-5c0 -60 48 -97 124 -97c71 0 119 38 119 97z"/>
    <glyph glyph-name="nine" unicode="9" d="M273 678c153 0 243 -121 243 -329v-24c0 -216 -124 -337 -278 -337c-64 0 -115 14 -159 37v108c40 -18 89 -28 141 -28c102 0 163 53 174 172c-45 -16 -94 -26 -140 -26c-122 0 -211 70 -211 205c0 116 79 222 230 222zM162 463c0 -65 43 -103 110 -103c47 0 78 6 124 22 c-5 119 -53 181 -124 181c-72 0 -110 -41 -110 -100z"/>
    <glyph glyph-name="zero.lf" horiz-adv-x="589" d="M295 -12c-157 0 -244 138 -244 322v37c0 183 86 330 243 330c158 0 244 -136 244 -321v-37c0 -184 -85 -331 -243 -331zM295 115c72 0 107 76 107 206v24c0 132 -34 206 -107 206s-108 -75 -108 -206v-24c0 -130 34 -206 108 -206z"/>
    <glyph glyph-name="one.lf" horiz-adv-x="525" d="M360 117h132v-117h-429v117h165v415l-177 -39v110l221 63h88v-549z"/>
    <glyph glyph-name="two.lf" horiz-adv-x="553" d="M233 117h262v-117h-428v117l181 184c67 68 109 111 109 168c0 59 -47 85 -114 85c-58 0 -116 -13 -182 -37v116c59 26 129 44 201 44c146 0 229 -81 229 -192c0 -92 -46 -153 -150 -259z"/>
    <glyph glyph-name="three.lf" horiz-adv-x="564" d="M402 361c70 -30 106 -91 106 -170c0 -119 -95 -203 -243 -203c-82 0 -157 22 -215 47v115c67 -25 134 -41 198 -41c82 0 125 33 125 88c0 54 -35 87 -117 87h-102v120h93c82 0 114 28 114 76s-38 76 -120 76c-55 0 -117 -9 -184 -34v115c61 25 125 40 202 40 c150 0 235 -72 235 -175c0 -63 -35 -113 -92 -141z"/>
    <glyph glyph-name="four.lf" horiz-adv-x="584" d="M544 264v-112h-86v-152h-124v152h-298v112l300 402h122v-402h86zM156 264h178v239z"/>
    <glyph glyph-name="five.lf" horiz-adv-x="555" d="M262 -12c-82 0 -153 23 -211 48v115c67 -26 130 -42 195 -42c81 0 129 36 129 94c0 57 -39 92 -121 92h-173l51 371h334v-121h-233l-17 -141h68c139 0 225 -77 225 -207c0 -121 -98 -209 -247 -209z"/>
    <glyph glyph-name="six.lf" horiz-adv-x="571" d="M313 414c122 0 210 -69 210 -204c0 -116 -76 -222 -223 -222c-160 0 -250 122 -250 329v24c0 201 128 336 283 336c58 0 109 -13 152 -36v-108c-40 19 -89 27 -134 27c-105 0 -166 -62 -178 -173c45 17 93 27 140 27zM301 103c68 0 102 45 102 102c0 64 -35 101 -101 101 c-47 0 -82 -6 -130 -24c5 -119 54 -179 129 -179z"/>
    <glyph glyph-name="seven.lf" horiz-adv-x="553" d="M130 0l221 541h-304v125h450v-111l-222 -555h-145z"/>
    <glyph glyph-name="eight.lf" horiz-adv-x="588" d="M439 353c63 -31 102 -86 102 -153v-10c0 -119 -104 -202 -247 -202c-148 0 -247 80 -247 199v10c0 67 39 122 102 155c-52 32 -84 80 -84 132v10c0 109 94 183 231 183c136 0 230 -72 230 -177v-10c0 -52 -34 -103 -87 -137zM190 490v-6c0 -49 37 -81 105 -81 c66 0 104 33 104 82v6c0 45 -39 77 -103 77s-106 -33 -106 -78zM415 198v4c0 60 -41 97 -120 97c-77 0 -123 -37 -123 -96v-5c0 -60 48 -97 124 -97c71 0 119 38 119 97z"/>
    <glyph glyph-name="nine.lf" horiz-adv-x="569" d="M274 678c153 0 243 -121 243 -329v-24c0 -216 -125 -337 -279 -337c-63 0 -114 14 -159 37v108c41 -18 90 -28 141 -28c103 0 164 53 174 172c-45 -16 -94 -26 -140 -26c-122 0 -210 70 -210 205c0 116 79 222 230 222zM163 463c0 -65 42 -103 110 -103c46 0 78 6 123 22 c-5 119 -53 181 -123 181c-73 0 -110 -41 -110 -100z"/>
    <glyph glyph-name="uni2070" unicode="⁰" horiz-adv-x="428" d="M214 283c-110 0 -172 82 -172 185v20c0 102 62 190 172 190s172 -80 172 -185v-20c0 -103 -61 -190 -172 -190zM214 376c47 0 71 35 71 98v13c0 63 -24 98 -71 98s-70 -35 -70 -98v-13c0 -63 23 -98 70 -98z"/>
    <glyph glyph-name="uni00B9" unicode="¹" horiz-adv-x="403" d="M277 378h86v-88h-296v88h109v193l-116 -22v83l150 39h67v-293z"/>
    <glyph glyph-name="uni00B2" unicode="²" horiz-adv-x="404" d="M191 376h154v-86h-292v86l119 95c43 34 71 56 71 80c0 29 -31 36 -71 36c-38 0 -79 -5 -123 -20v86c41 15 87 25 137 25c100 0 157 -46 157 -114c0 -52 -32 -88 -102 -146z"/>
    <glyph glyph-name="uni00B3" unicode="³" horiz-adv-x="424" d="M293 496c50 -15 76 -49 76 -94c0 -72 -66 -119 -166 -119c-53 0 -107 12 -147 27v83c48 -16 90 -24 134 -24c52 0 79 15 79 40c0 29 -33 38 -78 38h-66v76h61c49 0 76 10 76 36c0 21 -25 33 -76 33c-38 0 -79 -4 -125 -19v82c43 16 88 23 137 23c102 0 161 -40 161 -101 c0 -37 -25 -65 -66 -81z"/>
    <glyph glyph-name="uni2074" unicode="⁴" horiz-adv-x="415" d="M382 451v-78h-61v-83h-89v83h-196v78l205 220h80v-220h61zM124 451h108v116z"/>
    <glyph glyph-name="fraction" unicode="⁄" horiz-adv-x="658" d="M29 0l476 666h124l-476 -666h-124z"/>
    <glyph glyph-name="onehalf" unicode="½" horiz-adv-x="1056" d="M80 378h110v193l-117 -22v83l150 39h67v-293h86v-88h-296v88zM714 666h125l-476 -666h-125zM842 86h155v-86h-292v86l119 95c43 35 71 56 71 81c0 29 -32 36 -71 36c-38 0 -79 -6 -123 -21v86c41 16 86 25 137 25c99 0 156 -46 156 -114c0 -52 -32 -87 -101 -146z"/>
    <glyph glyph-name="onequarter" unicode="¼" horiz-adv-x="1001" d="M79 378h110v193l-117 -22v83l150 39h67v-293h86v-88h-296v88zM715 666h125l-476 -666h-125zM941 162v-78h-60v-83h-89v83h-196v78l204 220h81v-220h60zM684 162h108v116z"/>
    <glyph glyph-name="threequarters" unicode="¾" horiz-adv-x="981" d="M384 402c0 -72 -66 -119 -166 -119c-53 0 -107 12 -147 27v83c48 -16 90 -24 134 -24c52 0 79 15 79 40c0 29 -33 38 -78 38h-66v76h61c49 0 76 10 76 36c0 21 -25 33 -76 33c-38 0 -79 -4 -125 -19v82c43 16 88 23 137 23c102 0 161 -40 161 -101c0 -37 -25 -65 -66 -81 c50 -15 76 -49 76 -94zM697 666h125l-476 -666h-125zM924 162v-78h-61v-83h-89v83h-196v78l205 220h80v-220h61zM666 162h108v116z"/>
    <glyph glyph-name="period" unicode="." horiz-adv-x="228" d="M114 -10c-48 0 -77 36 -77 78c0 43 29 79 77 79s78 -36 78 -78s-29 -79 -78 -79z"/>
    <glyph glyph-name="comma" unicode="," horiz-adv-x="228" d="M9 -116l68 239h125l-83 -239h-110z"/>
    <glyph glyph-name="colon" unicode=":" horiz-adv-x="228" d="M114 359c-48 0 -77 36 -77 78c0 43 29 79 77 79s78 -36 78 -78s-29 -79 -78 -79zM114 -10c-48 0 -77 36 -77 78c0 43 29 79 77 79s78 -36 78 -78s-29 -79 -78 -79z"/>
    <glyph glyph-name="semicolon" unicode=";" horiz-adv-x="228" d="M127 359c-48 0 -78 36 -78 78c0 43 30 79 78 79s78 -36 78 -78s-30 -79 -78 -79zM2 -116l68 239h125l-83 -239h-110z"/>
    <glyph glyph-name="ellipsis" unicode="…" horiz-adv-x="727" d="M114 -10c-48 0 -77 36 -77 78c0 43 29 79 77 79s78 -36 78 -78s-29 -79 -78 -79zM364 -10c-48 0 -78 36 -78 78c0 43 30 79 78 79s78 -36 78 -78s-30 -79 -78 -79zM614 -10c-49 0 -78 36 -78 78c0 43 29 79 78 79c48 0 77 -36 77 -78s-29 -79 -77 -79z"/>
    <glyph glyph-name="exclam" unicode="!" horiz-adv-x="307" d="M93 214l-11 462h143l-12 -462h-120zM154 -10c-49 0 -78 36 -78 78c0 43 29 79 78 79c48 0 77 -36 77 -78s-29 -79 -77 -79z"/>
    <glyph glyph-name="exclamdown" unicode="¡" horiz-adv-x="307" d="M154 519c48 0 77 -36 77 -78c0 -43 -29 -79 -77 -79s-78 36 -78 78s29 79 78 79zM214 295l11 -462h-143l12 462h120z"/>
    <glyph glyph-name="question" unicode="?" horiz-adv-x="550" d="M207 214l-4 159c105 24 153 54 153 110c0 62 -46 83 -128 83c-59 0 -112 -14 -177 -38v113c60 26 129 46 205 46c149 0 239 -72 239 -190c0 -88 -55 -156 -175 -196l-3 -87h-110zM264 -10c-49 0 -78 36 -78 78c0 43 29 79 78 79c48 0 77 -36 77 -78s-29 -79 -77 -79z"/>
    <glyph glyph-name="questiondown" unicode="¿" horiz-adv-x="550" d="M297 519c48 0 77 -36 77 -78c0 -43 -29 -79 -77 -79s-78 36 -78 78s29 79 78 79zM353 295l4 -159c-104 -24 -153 -54 -153 -110c0 -62 47 -83 129 -83c59 0 111 14 176 38v-113c-60 -26 -129 -46 -205 -46c-149 0 -239 72 -239 190c0 88 56 156 175 196l3 87h110z"/>
    <glyph glyph-name="periodcentered" unicode="·" horiz-adv-x="228" d="M114 254c-48 0 -77 37 -77 79s29 78 77 78s78 -36 78 -78s-29 -79 -78 -79z"/>
    <glyph glyph-name="bullet" unicode="•" horiz-adv-x="380" d="M190 211c-73 0 -129 55 -129 129c0 73 56 128 129 128s128 -55 128 -128c0 -74 -55 -129 -128 -129z"/>
    <glyph glyph-name="asterisk" unicode="*" horiz-adv-x="498" d="M144 337l-74 67l99 101l-119 52l42 87l110 -54l-4 131h102l-4 -131l110 54l42 -87l-119 -52l100 -103l-75 -65l-105 115z"/>
    <glyph glyph-name="numbersign" unicode="#" horiz-adv-x="712" d="M656 407h-107l-23 -145h107l-19 -116h-107l-23 -146h-114l23 146h-134l-23 -146h-114l23 146h-107l18 116h108l23 145h-107l18 116h107l23 143h114l-23 -143h134l23 143h114l-23 -143h107zM412 262l23 145h-134l-23 -145h134z"/>
    <glyph glyph-name="slash" unicode="/" horiz-adv-x="488" d="M9 -130l337 901h133l-336 -901h-134z"/>
    <glyph glyph-name="backslash" unicode="\" horiz-adv-x="488" d="M479 -130h-133l-337 901h133z"/>
    <glyph glyph-name="exclamdown.case" horiz-adv-x="307" d="M154 686c48 0 77 -36 77 -78c0 -43 -29 -79 -77 -79s-78 36 -78 78s29 79 78 79zM214 462l11 -462h-143l12 462h120z"/>
    <glyph glyph-name="questiondown.case" horiz-adv-x="550" d="M297 685c48 0 77 -36 77 -78s-29 -79 -77 -79s-78 37 -78 78c0 43 29 79 78 79zM353 462l4 -160c-104 -24 -153 -53 -153 -109c0 -63 47 -84 129 -84c59 0 111 15 176 38v-113c-60 -26 -129 -46 -205 -46c-149 0 -239 72 -239 191c0 88 56 155 175 195l3 88h110z"/>
    <glyph glyph-name="slash.case" horiz-adv-x="488" d="M9 -112l337 901h133l-336 -901h-134z"/>
    <glyph glyph-name="backslash.case" horiz-adv-x="488" d="M479 -112h-133l-337 901h133z"/>
    <glyph glyph-name="parenleft" unicode="(" horiz-adv-x="403" d="M81 310v20c0 159 63 322 169 441h134c-107 -124 -171 -288 -171 -441v-20c0 -153 64 -317 171 -441h-134c-106 119 -169 282 -169 441z"/>
    <glyph glyph-name="parenright" unicode=")" horiz-adv-x="403" d="M322 310c0 -159 -63 -322 -169 -441h-134c108 124 171 288 171 441v20c0 153 -63 317 -171 441h134c106 -119 169 -282 169 -441v-20z"/>
    <glyph glyph-name="braceleft" unicode="{" horiz-adv-x="482" d="M356 -132c-127 0 -208 88 -208 222v59c0 71 -36 107 -97 117v108c61 9 97 46 97 116v59c0 134 81 222 208 222h92v-114h-68c-64 0 -108 -37 -108 -121v-52c0 -71 -20 -123 -93 -165c73 -42 93 -93 93 -164v-52c0 -84 44 -121 108 -121h68v-114h-92z"/>
    <glyph glyph-name="braceright" unicode="}" horiz-adv-x="482" d="M126 -132h-92v114h68c64 0 108 37 108 121v52c0 71 20 122 93 164c-73 42 -93 94 -93 165v52c0 84 -44 121 -108 121h-68v114h92c127 0 208 -88 208 -222v-59c0 -70 36 -107 97 -116v-108c-61 -10 -97 -46 -97 -117v-59c0 -134 -81 -222 -208 -222z"/>
    <glyph glyph-name="bracketleft" unicode="[" horiz-adv-x="459" d="M422 650h-195v-660h195v-121h-327v902h327v-121z"/>
    <glyph glyph-name="bracketright" unicode="]" horiz-adv-x="459" d="M364 771v-902h-326v121h194v660h-194v121h326z"/>
    <glyph glyph-name="parenleft.case" horiz-adv-x="403" d="M81 328v20c0 159 63 322 169 441h134c-107 -124 -171 -288 -171 -441v-20c0 -153 64 -317 171 -441h-134c-106 119 -169 282 -169 441z"/>
    <glyph glyph-name="parenright.case" horiz-adv-x="403" d="M322 328c0 -159 -63 -322 -169 -441h-134c108 124 171 288 171 441v20c0 153 -63 317 -171 441h134c106 -119 169 -282 169 -441v-20z"/>
    <glyph glyph-name="braceleft.case" horiz-adv-x="482" d="M356 -114c-127 0 -208 88 -208 222v59c0 71 -36 107 -97 117v108c61 9 97 46 97 116v59c0 134 81 222 208 222h92v-114h-68c-64 0 -108 -37 -108 -121v-52c0 -71 -20 -123 -93 -165c73 -42 93 -93 93 -164v-52c0 -84 44 -121 108 -121h68v-114h-92z"/>
    <glyph glyph-name="braceright.case" horiz-adv-x="482" d="M126 -114h-92v114h68c64 0 108 37 108 121v52c0 71 20 122 93 164c-73 42 -93 94 -93 165v52c0 84 -44 121 -108 121h-68v114h92c127 0 208 -88 208 -222v-59c0 -70 36 -107 97 -116v-108c-61 -10 -97 -46 -97 -117v-59c0 -134 -81 -222 -208 -222z"/>
    <glyph glyph-name="bracketleft.case" horiz-adv-x="459" d="M422 668h-195v-660h195v-121h-327v902h327v-121z"/>
    <glyph glyph-name="bracketright.case" horiz-adv-x="459" d="M364 789v-902h-326v121h194v660h-194v121h326z"/>
    <glyph glyph-name="hyphen" unicode="-" horiz-adv-x="450" d="M67 221v124h317v-124h-317z"/>
    <glyph glyph-name="uni00AD" unicode="&shy;" horiz-adv-x="450" d="M67 221v124h317v-124h-317z"/>
    <glyph glyph-name="endash" unicode="–" horiz-adv-x="500" d="M0 224v118h500v-118h-500z"/>
    <glyph glyph-name="emdash" unicode="—" horiz-adv-x="1000" d="M0 224v118h1000v-118h-1000z"/>
    <glyph glyph-name="underscore" unicode="_" horiz-adv-x="500" d="M0 -194v111h500v-111h-500z"/>
    <glyph glyph-name="hyphen.case" horiz-adv-x="450" d="M67 284v123h317v-123h-317z"/>
    <glyph glyph-name="uni00AD.case" horiz-adv-x="450" d="M67 284v123h317v-123h-317z"/>
    <glyph glyph-name="endash.case" horiz-adv-x="500" d="M0 287v118h500v-118h-500z"/>
    <glyph glyph-name="emdash.case" horiz-adv-x="1000" d="M0 287v118h1000v-118h-1000z"/>
    <glyph glyph-name="quotesinglbase" unicode="‚" horiz-adv-x="247" d="M21 -116l69 239h125l-83 -239h-111z"/>
    <glyph glyph-name="quotedblbase" unicode="„" horiz-adv-x="452" d="M21 -116l69 239h125l-83 -239h-111zM226 -116l68 239h125l-83 -239h-110z"/>
    <glyph glyph-name="quotedblleft" unicode="“" horiz-adv-x="452" d="M219 711l-68 -239h-125l83 239h110zM424 711l-69 -239h-125l83 239h111z"/>
    <glyph glyph-name="quotedblright" unicode="”" horiz-adv-x="452" d="M28 472l68 239h126l-83 -239h-111zM232 472l69 239h125l-83 -239h-111z"/>
    <glyph glyph-name="quoteleft" unicode="‘" horiz-adv-x="247" d="M219 711l-68 -239h-125l83 239h110z"/>
    <glyph glyph-name="quoteright" unicode="’" horiz-adv-x="247" d="M28 472l68 239h126l-83 -239h-111z"/>
    <glyph glyph-name="guillemotleft" unicode="«" horiz-adv-x="594" d="M309 440l-125 -183l125 -183h-138l-125 183l125 183h138zM553 440l-125 -183l125 -183h-139l-124 183l124 183h139z"/>
    <glyph glyph-name="guillemotright" unicode="»" horiz-adv-x="594" d="M41 74l125 183l-125 183h138l125 -183l-125 -183h-138zM285 74l124 183l-124 183h138l125 -183l-125 -183h-138z"/>
    <glyph glyph-name="guilsinglleft" unicode="‹" horiz-adv-x="350" d="M309 440l-125 -183l125 -183h-138l-125 183l125 183h138z"/>
    <glyph glyph-name="guilsinglright" unicode="›" horiz-adv-x="350" d="M41 74l125 183l-125 183h138l125 -183l-125 -183h-138z"/>
    <glyph glyph-name="quotedbl" unicode="&quot;" horiz-adv-x="486" d="M78 441v270h118v-270h-118zM289 441v270h118v-270h-118z"/>
    <glyph glyph-name="quotesingle" unicode="'" horiz-adv-x="275" d="M78 441v270h118v-270h-118z"/>
    <glyph glyph-name="guillemotleft.case" horiz-adv-x="594" d="M309 528l-125 -183l125 -183h-138l-125 183l125 183h138zM553 528l-125 -183l125 -183h-139l-124 183l124 183h139z"/>
    <glyph glyph-name="guillemotright.case" horiz-adv-x="594" d="M41 162l125 183l-125 183h138l125 -183l-125 -183h-138zM285 162l124 183l-124 183h138l125 -183l-125 -183h-138z"/>
    <glyph glyph-name="guilsinglleft.case" horiz-adv-x="350" d="M309 528l-125 -183l125 -183h-138l-125 183l125 183h138z"/>
    <glyph glyph-name="guilsinglright.case" horiz-adv-x="350" d="M41 162l125 183l-125 183h138l125 -183l-125 -183h-138z"/>
    <glyph glyph-name="uni2001" unicode=" " horiz-adv-x="1000"/>
    <glyph glyph-name="uni2003" unicode="&emsp;" horiz-adv-x="1000"/>
    <glyph glyph-name="uni2002" unicode="&ensp;" horiz-adv-x="500"/>
    <glyph glyph-name="uni2007" unicode=" "/>
    <glyph glyph-name="uni2005" unicode=" " horiz-adv-x="600"/>
    <glyph glyph-name="uni200A" unicode="&hairsp;" horiz-adv-x="100"/>
    <glyph glyph-name="uni2008" unicode=" " horiz-adv-x="228"/>
    <glyph glyph-name="uni2006" unicode=" " horiz-adv-x="166"/>
    <glyph glyph-name="uni00A0" unicode="&nbsp;" horiz-adv-x="228"/>
    <glyph glyph-name="uni2009" unicode="&thinsp;" horiz-adv-x="200"/>
    <glyph glyph-name="uni2004" unicode=" " horiz-adv-x="333"/>
    <glyph glyph-name="cent" unicode="¢" d="M471 216v-110c-33 -14 -67 -22 -106 -25v-117h-110v125c-109 28 -170 120 -170 229v27c0 117 70 203 174 233v121h110v-111c36 -2 66 -10 97 -23v-111c-41 14 -70 16 -107 16c-86 0 -144 -47 -144 -127v-17c0 -79 56 -128 139 -128c47 0 76 6 117 18z"/>
    <glyph glyph-name="dollar" unicode="$" d="M503 205c0 -91 -54 -164 -170 -183v-140h-109v137c-56 6 -110 22 -158 43v111c62 -24 128 -41 204 -41c68 0 105 22 105 65c0 45 -39 62 -112 86c-123 38 -201 71 -201 191c0 83 69 153 166 171v123h109v-122c51 -7 93 -20 133 -36v-108c-67 24 -119 34 -188 34 c-59 0 -94 -21 -94 -59c0 -46 46 -58 121 -83c105 -35 194 -75 194 -189z"/>
    <glyph glyph-name="Euro" unicode="€" d="M404 102c52 0 90 10 133 25v-107c-47 -22 -98 -32 -151 -32c-143 0 -240 87 -274 214h-83v87h70v17v38c0 9 0 17 1 26h-71v87h86c38 130 144 218 281 218c46 0 91 -9 133 -28v-107c-43 15 -74 20 -121 20c-79 0 -136 -37 -163 -103h203l-20 -87h-202v-19v-41 c0 -7 0 -14 1 -21h183l-19 -87h-145c27 -64 82 -100 158 -100z"/>
    <glyph glyph-name="sterling" unicode="£" d="M198 117h318v-117h-448v402c0 170 107 275 264 275c71 0 125 -11 178 -38v-113c-53 24 -86 33 -162 33c-93 0 -150 -50 -150 -141v-29h248v-115h-248v-157z"/>
    <glyph glyph-name="yen" unicode="¥" d="M545 666l-157 -299h116v-87h-153v-74h153v-87h-153v-119h-135v119h-152v87h152v74h-152v87h111l-155 299h143l122 -267l127 267h133z"/>
    <glyph glyph-name="plus" unicode="+" d="M492 391v-118h-148v-145h-122v145h-148v118h148v145h122v-145h148z"/>
    <glyph glyph-name="minus" unicode="−" d="M80 270v125h406v-125h-406z"/>
    <glyph glyph-name="multiply" unicode="×" horiz-adv-x="567" d="M478 444l-112 -112l112 -112l-83 -83l-111 112l-112 -112l-83 83l112 112l-112 112l83 83l112 -112l111 112z"/>
    <glyph glyph-name="divide" unicode="÷" d="M283 460c-46 0 -74 35 -74 75c0 41 28 76 74 76s74 -35 74 -75s-28 -76 -74 -76zM74 271v122h418v-122h-418zM283 54c-46 0 -74 35 -74 75s28 75 74 75s74 -35 74 -75s-28 -75 -74 -75z"/>
    <glyph glyph-name="equal" unicode="=" d="M87 385v120h392v-120h-392zM87 159v120h392v-120h-392z"/>
    <glyph glyph-name="notequal" unicode="≠" d="M479 385h-116l-50 -106h166v-120h-223l-48 -103h-110l48 103h-59v120h116l50 106h-166v120h222l49 104h110l-49 -104h60v-120z"/>
    <glyph glyph-name="greater" unicode="&gt;" d="M95 95v127l247 110l-247 110v127l376 -180v-114z"/>
    <glyph glyph-name="less" unicode="&lt;" d="M471 569v-127l-247 -110l247 -110v-127l-376 180v114z"/>
    <glyph glyph-name="greaterequal" unicode="≥" d="M94 172v119l249 91l-249 91v118l377 -155v-109zM94 0v118h379v-118h-379z"/>
    <glyph glyph-name="lessequal" unicode="≤" d="M472 172l-377 155v109l377 155v-118l-249 -91l249 -91v-119zM472 0h-379v118h379v-118z"/>
    <glyph glyph-name="plusminus" unicode="±" d="M342 445h150v-115h-150v-146h-118v146h-150v115h150v147h118v-147zM80 0v118h406v-118h-406z"/>
    <glyph glyph-name="asciitilde" unicode="~" d="M388 238c-46 0 -83 22 -115 42c-27 17 -50 30 -73 30c-35 0 -58 -18 -60 -70h-115c2 104 53 189 154 189c44 0 80 -22 112 -42c26 -17 52 -30 76 -30c35 0 58 20 60 70h115c-2 -104 -53 -189 -154 -189z"/>
    <glyph glyph-name="logicalnot" unicode="¬" d="M87 435h390v-270h-121v152h-269v118z"/>
    <glyph glyph-name="asciicircum" unicode="^" d="M55 379l164 297h128l164 -297h-130l-99 186l-100 -186h-127z"/>
    <glyph glyph-name="percent" unicode="%" horiz-adv-x="968" d="M226 283c-110 0 -172 82 -172 185v20c0 102 62 190 172 190s172 -80 172 -185v-20c0 -103 -61 -190 -172 -190zM179 0l476 666h125l-476 -666h-125zM226 376c47 0 71 35 71 98v13c0 63 -24 98 -71 98s-70 -35 -70 -98v-13c0 -63 23 -98 70 -98zM742 -12 c-111 0 -172 82 -172 186v20c0 101 61 189 172 189c110 0 172 -80 172 -184v-21c0 -103 -61 -190 -172 -190zM742 81c46 0 70 36 70 98v13c0 63 -23 99 -70 99s-71 -36 -71 -99v-13c0 -62 24 -98 71 -98z"/>
    <glyph glyph-name="perthousand" unicode="‰" horiz-adv-x="1370" d="M226 283c-110 0 -172 82 -172 185v20c0 102 62 190 172 190s172 -80 172 -185v-20c0 -103 -61 -190 -172 -190zM179 0l476 666h125l-476 -666h-125zM226 376c47 0 71 35 71 98v13c0 63 -24 98 -71 98s-70 -35 -70 -98v-13c0 -63 23 -98 70 -98zM742 -12 c-111 0 -172 82 -172 186v20c0 101 61 189 172 189c110 0 172 -80 172 -184v-21c0 -103 -61 -190 -172 -190zM1144 -12c-110 0 -172 82 -172 186v20c0 101 62 189 172 189c111 0 172 -80 172 -184v-21c0 -103 -61 -190 -172 -190zM742 81c46 0 70 36 70 98v13 c0 63 -23 99 -70 99s-71 -36 -71 -99v-13c0 -62 24 -98 71 -98zM1144 81c47 0 71 36 71 98v13c0 63 -24 99 -71 99c-46 0 -70 -36 -70 -99v-13c0 -62 23 -98 70 -98z"/>
    <glyph glyph-name="at" unicode="@" horiz-adv-x="1013" d="M692 465v-304c94 9 166 85 166 198c0 155 -113 258 -323 258c-215 0 -369 -154 -369 -369c0 -210 138 -347 342 -347c74 0 148 12 213 38v-95c-62 -27 -134 -39 -216 -39c-257 0 -442 178 -442 446c0 265 207 462 472 462c262 0 420 -146 420 -353 c0 -186 -153 -294 -300 -294h-54l-7 46c-43 -38 -91 -62 -133 -62c-95 0 -157 73 -157 187v16c0 127 97 212 230 212h158zM414 239c0 -56 31 -92 77 -92c32 0 60 11 91 34v187h-41c-79 0 -127 -42 -127 -119v-10z"/>
    <glyph glyph-name="ampersand" unicode="&amp;" horiz-adv-x="721" d="M680 283h-86c-5 -63 -23 -118 -53 -163l98 -120h-142l-34 40c-49 -33 -111 -52 -183 -52c-146 0 -231 93 -231 202c0 81 47 155 135 195c-30 46 -46 87 -46 129c0 107 90 173 211 173c65 0 113 -14 158 -33v-110c-55 20 -98 28 -145 28c-59 0 -94 -28 -94 -75 c0 -42 30 -80 93 -157l108 -132c14 31 22 67 22 107v75h189v-107zM298 100c35 0 67 9 95 24l-102 122c-17 20 -32 38 -46 56c-47 -21 -72 -57 -72 -104c0 -61 45 -98 125 -98z"/>
    <glyph glyph-name="paragraph" unicode="¶" horiz-adv-x="749" d="M431 676v-829h-129v418h-38c-145 0 -212 92 -212 203c0 107 62 208 213 208h166zM527 676h129v-829h-129v829z"/>
    <glyph glyph-name="copyright" unicode="©" horiz-adv-x="770" d="M384 -12c-195 0 -345 147 -345 349c0 200 150 348 345 348s347 -147 347 -348c0 -202 -150 -349 -347 -349zM384 62c153 0 270 116 270 275c0 156 -117 273 -270 273c-151 0 -268 -117 -268 -273c0 -159 117 -275 268 -275zM396 160c-108 0 -169 76 -169 166v16 c0 100 76 170 179 170c31 0 58 -7 85 -18v-86c-28 9 -46 12 -72 12c-54 0 -90 -30 -90 -80v-9c0 -49 35 -79 86 -79c32 0 52 5 81 14v-87c-32 -13 -65 -19 -100 -19z"/>
    <glyph glyph-name="registered" unicode="®" horiz-adv-x="655" d="M328 723c152 0 270 -114 270 -271c0 -156 -117 -270 -270 -270c-154 0 -271 114 -271 270c0 157 117 271 271 271zM328 237c120 0 213 88 213 215s-92 216 -213 216s-215 -89 -215 -216c0 -128 94 -215 215 -215zM439 498c0 -29 -14 -55 -43 -71l65 -96h-76l-50 82h-2 h-46v-82h-66v255h116c71 0 102 -43 102 -88zM287 524v-53h43c27 0 39 9 39 28c0 17 -12 25 -38 25h-44z"/>
    <glyph glyph-name="trademark" unicode="™" horiz-adv-x="875" d="M349 676v-108h-110v-278h-113v278h-110v108h333zM747 676h95v-386h-104v226l-72 -115h-78l-69 116v-227h-99v386h107l104 -171z"/>
    <glyph glyph-name="degree" unicode="°" horiz-adv-x="442" d="M222 397c-92 0 -163 71 -163 163c0 90 71 161 163 161c90 0 161 -71 161 -161c0 -91 -71 -163 -161 -163zM222 490c38 0 67 30 67 70c0 38 -29 68 -67 68c-40 0 -69 -30 -69 -68c0 -41 29 -70 69 -70z"/>
    <glyph glyph-name="bar" unicode="|" horiz-adv-x="318" d="M91 -130v901h136v-901h-136z"/>
    <glyph glyph-name="brokenbar" unicode="¦" horiz-adv-x="318" d="M91 448v323h136v-323h-136zM91 -130v352h136v-352h-136z"/>
    <glyph glyph-name="dagger" unicode="†" horiz-adv-x="432" d="M367 605v-93h-98v-210h-105v210h-100v93h100v121h105v-121h98z"/>
    <glyph glyph-name="daggerdbl" unicode="‡" horiz-adv-x="430" d="M365 561h-100v-82h100v-87h-100v-90h-99v90h-101v87h101v82h-101v86h101v79h99v-79h100v-86z"/>
    <glyph glyph-name="at.case" horiz-adv-x="1013" d="M692 544v-303c94 9 166 85 166 197c0 155 -113 259 -323 259c-215 0 -369 -155 -369 -369c0 -210 138 -347 342 -347c74 0 148 12 213 37v-94c-62 -27 -134 -40 -216 -40c-257 0 -442 178 -442 447c0 265 207 462 472 462c262 0 420 -146 420 -354 c0 -186 -153 -293 -300 -293h-54l-7 46c-43 -38 -91 -62 -133 -62c-95 0 -157 72 -157 186v17c0 126 97 211 230 211h158zM414 318c0 -55 31 -91 77 -91c32 0 60 11 91 34v187h-41c-79 0 -127 -42 -127 -119v-11z"/>
    <glyph glyph-name="uni0308" unicode="̈" horiz-adv-x="0" d="M-354 598c-43 0 -72 29 -72 72s29 71 72 71c42 0 72 -28 72 -71s-30 -72 -72 -72zM-145 598c-44 0 -73 29 -73 72s30 71 73 71c41 0 71 -28 71 -71s-30 -72 -71 -72z"/>
    <glyph glyph-name="uni0307" unicode="̇" horiz-adv-x="0" d="M-250 588c-47 0 -79 31 -79 77c0 45 32 76 79 76c46 0 79 -31 79 -76c0 -46 -33 -77 -79 -77z"/>
    <glyph glyph-name="gravecomb" unicode="̀" horiz-adv-x="0" d="M-236 595l-153 146h140l137 -146h-124z"/>
    <glyph glyph-name="acutecomb" unicode="́" horiz-adv-x="0" d="M-389 595l137 146h140l-153 -146h-124z"/>
    <glyph glyph-name="uni0302" unicode="̂" horiz-adv-x="0" d="M-430 595l122 158h116l122 -158h-105l-75 90l-77 -90h-103z"/>
    <glyph glyph-name="uni030C" unicode="̌" horiz-adv-x="0" d="M-308 595l-122 158h105l75 -91l77 91h103l-123 -158h-115z"/>
    <glyph glyph-name="uni030A" unicode="̊" horiz-adv-x="0" d="M-250 586c-65 0 -121 50 -121 120c0 68 57 118 121 118c66 0 120 -50 120 -118c0 -70 -56 -120 -120 -120zM-250 654c28 0 48 22 48 51s-21 50 -48 50c-29 0 -49 -21 -49 -50s21 -51 49 -51z"/>
    <glyph glyph-name="tildecomb" unicode="̃" horiz-adv-x="0" d="M-179 599c-34 0 -61 17 -85 33c-18 12 -35 23 -51 23c-27 0 -39 -20 -39 -50h-85c6 80 41 140 116 140c34 0 61 -18 84 -34c19 -12 36 -22 52 -22c25 0 39 16 39 50h85c-5 -84 -44 -140 -116 -140z"/>
    <glyph glyph-name="uni0304" unicode="̄" horiz-adv-x="0" d="M-398 716h295v-101h-295v101z"/>
    <glyph glyph-name="uni0327" unicode="̧" horiz-adv-x="0" d="M-274 -195c-36 0 -59 7 -86 19v82c20 -8 40 -14 59 -14c39 0 63 18 63 55c0 27 -12 47 -32 65l91 6c24 -23 39 -59 39 -93c0 -75 -58 -120 -134 -120z"/>
    <glyph glyph-name="acute" unicode="´" horiz-adv-x="541" d="M111 595l137 146h140l-153 -146h-124z"/>
    <glyph glyph-name="caron" unicode="ˇ" horiz-adv-x="518" d="M192 595l-122 158h105l75 -91l77 91h103l-123 -158h-115z"/>
    <glyph glyph-name="cedilla" unicode="¸" horiz-adv-x="518" d="M226 -195c-36 0 -59 7 -86 19v82c20 -8 40 -14 59 -14c39 0 63 18 63 55c0 27 -12 47 -32 65l91 6c24 -23 39 -59 39 -93c0 -75 -58 -120 -134 -120z"/>
    <glyph glyph-name="circumflex" unicode="ˆ" horiz-adv-x="559" d="M70 595l122 158h116l122 -158h-105l-75 90l-77 -90h-103z"/>
    <glyph glyph-name="dieresis" unicode="¨" horiz-adv-x="518" d="M146 598c-43 0 -72 29 -72 72s29 71 72 71c42 0 72 -28 72 -71s-30 -72 -72 -72zM355 598c-44 0 -73 29 -73 72s30 71 73 71c41 0 71 -28 71 -71s-30 -72 -71 -72z"/>
    <glyph glyph-name="dotaccent" unicode="˙" horiz-adv-x="559" d="M250 588c-47 0 -79 31 -79 77c0 45 32 76 79 76c46 0 79 -31 79 -76c0 -46 -33 -77 -79 -77z"/>
    <glyph glyph-name="grave" unicode="`" horiz-adv-x="518" d="M264 595l-153 146h140l137 -146h-124z"/>
    <glyph glyph-name="macron" unicode="¯" horiz-adv-x="559" d="M102 716h295v-101h-295v101z"/>
    <glyph glyph-name="ring" unicode="˚" horiz-adv-x="518" d="M250 586c-65 0 -121 50 -121 120c0 68 57 118 121 118c66 0 120 -50 120 -118c0 -70 -56 -120 -120 -120zM250 654c28 0 48 22 48 51s-21 50 -48 50c-29 0 -49 -21 -49 -50s21 -51 49 -51z"/>
    <glyph glyph-name="tilde" unicode="˜" horiz-adv-x="559" d="M321 599c-34 0 -61 17 -85 33c-18 12 -35 23 -51 23c-27 0 -39 -20 -39 -50h-85c6 80 41 140 116 140c34 0 61 -18 84 -34c19 -12 36 -22 52 -22c25 0 39 16 39 50h85c-5 -84 -44 -140 -116 -140z"/>
    <glyph glyph-name="uni0308.case" horiz-adv-x="0" d="M-430 747c-45 0 -75 30 -75 75c0 44 31 74 75 74s75 -30 75 -74c0 -45 -31 -75 -75 -75zM-204 747c-45 0 -75 30 -75 75c0 44 31 74 75 74s75 -30 75 -74c0 -45 -31 -75 -75 -75z"/>
    <glyph glyph-name="uni0307.case" horiz-adv-x="0" d="M-317 747c-49 0 -81 32 -81 78c0 47 33 78 81 78c47 0 81 -31 81 -78c0 -46 -34 -78 -81 -78z"/>
    <glyph glyph-name="gravecomb.case" horiz-adv-x="0" d="M-292 748l-181 143h155l164 -143h-138z"/>
    <glyph glyph-name="acutecomb.case" horiz-adv-x="0" d="M-480 748l163 143h156l-181 -143h-138z"/>
    <glyph glyph-name="uni0302.case" horiz-adv-x="0" d="M-531 748l153 156h123l153 -156h-121l-94 87l-96 -87h-118z"/>
    <glyph glyph-name="uni030C.case" horiz-adv-x="0" d="M-379 748l-152 156h120l95 -88l95 88h119l-154 -156h-123z"/>
    <glyph glyph-name="uni030A.case" horiz-adv-x="0" d="M-283 724c-68 0 -126 52 -126 125c0 70 59 122 126 122c69 0 125 -52 125 -122c0 -73 -58 -125 -125 -125zM-283 796c29 0 50 22 50 52s-22 52 -50 52c-30 0 -51 -22 -51 -52s22 -52 51 -52z"/>
    <glyph glyph-name="tildecomb.case" horiz-adv-x="0" d="M-268 749c-34 0 -64 17 -92 33c-24 14 -46 28 -67 28c-33 0 -47 -23 -48 -54h-91c8 83 49 144 131 144c39 0 71 -18 99 -34c22 -13 42 -25 62 -25c30 0 48 17 49 53h90c-7 -86 -48 -145 -133 -145z"/>
    <glyph glyph-name="uni0304.case" horiz-adv-x="0" d="M-494 867h355v-102h-355v102z"/>
    <glyph glyph-name="uni0327.case" horiz-adv-x="0" d="M-319 -198c-40 0 -67 6 -98 19v85c24 -8 47 -13 69 -13c47 0 75 17 75 53c0 27 -15 46 -38 64l98 6c28 -23 45 -60 45 -93c0 -76 -65 -121 -151 -121z"/>
    </font>
</defs>
</svg>
